<svg xmlns="http://www.w3.org/2000/svg" width="20" height="20" viewBox="0 0 20 20" fill="none">
    <path fill-rule="evenodd" clip-rule="evenodd" d="M10.68 4.00007C10.68 3.62451 10.3756 3.32007 10 3.32007C9.62445 3.32007 9.32001 3.62451 9.32001 4.00007V9.32007H4.00001C3.62445 9.32007 3.32001 9.62451 3.32001 10.0001C3.32001 10.3756 3.62445 10.6801 4.00001 10.6801H9.32001V16.0001C9.32001 16.3756 9.62445 16.6801 10 16.6801C10.3756 16.6801 10.68 16.3756 10.68 16.0001V10.6801H16C16.3756 10.6801 16.68 10.3756 16.68 10.0001C16.68 9.62452 16.3756 9.32007 16 9.32007H10.68V4.00007Z" fill="black" fill-opacity="0.95" style="fill:black;fill-opacity:0.95;"/>
</svg>