<svg xmlns="http://www.w3.org/2000/svg" width="20" height="20" viewBox="0 0 20 20" fill="none">
    <path d="M7.89575 4.64839C7.39919 3.20383 8.47248 1.69995 10 1.69995C11.5275 1.69995 12.6008 3.20383 12.1042 4.64839L10.8228 8.37615C10.7737 8.5192 10.7311 8.66392 10.6952 8.80985C10.8036 8.70577 10.9077 8.59655 11.007 8.48241L13.5946 5.50879C14.5974 4.35648 16.4364 4.53404 17.2002 5.85691C17.9639 7.17978 17.1982 8.86122 15.6989 9.15346L11.8298 9.90759C11.6813 9.93654 11.5347 9.97206 11.3903 10.0139C11.5347 10.0558 11.6813 10.0913 11.8298 10.1203L15.6989 10.8744C17.1982 11.1667 17.9639 12.8481 17.2002 14.171C16.4364 15.4938 14.5974 15.6714 13.5946 14.5191L11.007 11.5455C10.9077 11.4313 10.8036 11.3221 10.6951 11.218C10.7311 11.364 10.7736 11.5087 10.8228 11.6519L12.1042 15.3796C12.6008 16.8242 11.5275 18.3281 10 18.3281C8.47248 18.3281 7.39919 16.8242 7.89575 15.3796L9.17717 11.6519C9.22637 11.5087 9.26893 11.364 9.30486 11.218C9.19641 11.3221 9.09232 11.4313 8.99299 11.5455L6.40536 14.5191C5.40262 15.6714 3.56358 15.4938 2.79982 14.171C2.03606 12.8481 2.80181 11.1667 4.30111 10.8744L8.17016 10.1203C8.31867 10.0913 8.4653 10.0558 8.60967 10.0139C8.4653 9.97207 8.31867 9.93654 8.17016 9.90759L4.30111 9.15345C2.80181 8.86122 2.03606 7.17978 2.79982 5.85691C3.56358 4.53404 5.40262 4.35648 6.40536 5.50879L8.99299 8.48241C9.0923 8.59655 9.19638 8.70576 9.30482 8.80985C9.2689 8.66392 9.22635 8.5192 9.17717 8.37615L7.89575 4.64839Z" fill="black" style="fill:black;fill-opacity:1;"/>
</svg>