<svg xmlns="http://www.w3.org/2000/svg" width="24" height="24" viewBox="0 0 24 24" fill="none">
    <path fill-rule="evenodd" clip-rule="evenodd" d="M11.2218 10.4635C11.225 10.473 11.2281 10.4825 11.2312 10.4919C11.2696 10.6088 11.3034 10.7267 11.3326 10.8454C11.2444 10.7608 11.1592 10.6726 11.0772 10.5809C11.0706 10.5735 11.0639 10.566 11.0573 10.5585C11.0493 10.5494 11.0412 10.5403 11.0333 10.5311L8.54915 7.67643C8.54316 7.66954 8.53713 7.66271 8.53108 7.65592C7.56458 6.57237 5.81647 6.74857 5.08783 8.01062C4.35917 9.27268 5.08067 10.8747 6.50234 11.1699C6.51122 11.1718 6.52013 11.1736 6.52907 11.1753L10.2434 11.8993C10.2553 11.9016 10.2672 11.904 10.2791 11.9064C10.2889 11.9084 10.2987 11.9104 10.3085 11.9124C10.4288 11.9376 10.5478 11.9673 10.6653 12.0014C10.5479 12.0354 10.4289 12.0651 10.3085 12.0903C10.2987 12.0923 10.2889 12.0944 10.2791 12.0963C10.2672 12.0988 10.2553 12.1011 10.2434 12.1034L6.52907 12.8274C6.52013 12.8292 6.51122 12.831 6.50234 12.8328C5.08067 13.128 4.35917 14.73 5.08783 15.9921C5.81649 17.2542 7.56468 17.4304 8.53116 16.3467C8.53719 16.34 8.54318 16.3332 8.54915 16.3263L11.0333 13.4716C11.0412 13.4625 11.0492 13.4533 11.0573 13.4442C11.0639 13.4367 11.0706 13.4293 11.0772 13.4218C11.1592 13.3302 11.2444 13.2419 11.3327 13.1572C11.3035 13.276 11.2697 13.3939 11.2313 13.5107C11.2282 13.5202 11.225 13.5297 11.2218 13.5392C11.218 13.5507 11.214 13.5623 11.2101 13.5738L9.97993 17.1524C9.97698 17.161 9.97409 17.1696 9.97125 17.1782C9.51598 18.557 10.5427 19.9829 12 19.9829C13.4574 19.9829 14.484 18.557 14.0288 17.1782C14.0259 17.1696 14.023 17.161 14.0201 17.1524L12.7899 13.5738C12.786 13.5623 12.782 13.5507 12.7782 13.5392C12.775 13.5297 12.7718 13.5202 12.7687 13.5106C12.7303 13.3939 12.6966 13.276 12.6673 13.1572C12.7556 13.2419 12.8408 13.3302 12.9228 13.4218C12.9294 13.4293 12.9361 13.4367 12.9427 13.4442C12.9508 13.4533 12.9588 13.4625 12.9667 13.4716L15.4509 16.3263C15.4568 16.3332 15.4628 16.34 15.4688 16.3467C16.4353 17.4304 18.1835 17.2542 18.9122 15.9921C19.6408 14.73 18.9193 13.128 17.4977 12.8328C17.4888 12.831 17.4799 12.8292 17.4709 12.8274L13.7567 12.1034C13.7447 12.1011 13.7328 12.0988 13.7209 12.0963C13.7111 12.0944 13.7013 12.0923 13.6915 12.0903C13.5711 12.0651 13.4521 12.0354 13.3347 12.0014C13.4522 11.9673 13.5712 11.9376 13.6916 11.9124C13.7013 11.9104 13.7111 11.9084 13.7209 11.9064C13.7328 11.904 13.7447 11.9016 13.7567 11.8993L17.4709 11.1753C17.4799 11.1736 17.4888 11.1718 17.4977 11.1699C18.9193 10.8747 19.6408 9.27268 18.9122 8.01062C18.1835 6.74857 16.4354 6.57237 15.4689 7.65592C15.4629 7.66271 15.4568 7.66954 15.4509 7.67643L12.9667 10.5311C12.9588 10.5403 12.9508 10.5494 12.9427 10.5585C12.9361 10.566 12.9294 10.5735 12.9228 10.5809C12.8408 10.6726 12.7556 10.7608 12.6674 10.8454C12.6966 10.7267 12.7304 10.6088 12.7688 10.4919C12.7719 10.4825 12.7751 10.473 12.7782 10.4635C12.7821 10.452 12.786 10.4405 12.7899 10.4291L14.0201 6.85044C14.0231 6.84179 14.026 6.83314 14.0288 6.82448C14.4839 5.44571 13.4573 4.01994 12 4.01994C10.5427 4.01994 9.51609 5.44571 9.97118 6.82448C9.97404 6.83313 9.97695 6.84179 9.97993 6.85044L11.2101 10.4291C11.214 10.4405 11.2179 10.452 11.2218 10.4635ZM8.2773 5.55344C8.56135 3.81211 10.0656 2.38794 12 2.38794C13.9344 2.38794 15.4387 3.81211 15.7227 5.55344C17.3728 4.92872 19.3583 5.51935 20.3255 7.19462C21.2927 8.86988 20.8115 10.8847 19.4454 12.0014C20.8115 13.118 21.2927 15.1328 20.3255 16.8081C19.3583 18.4834 17.3728 19.074 15.7227 18.4493C15.4387 20.1907 13.9345 21.6149 12 21.6149C10.0656 21.6149 8.56127 20.1907 8.27728 18.4493C6.62721 19.074 4.64169 18.4834 3.67447 16.8081C2.70726 15.1328 3.18853 13.118 4.55458 12.0014C3.18853 10.8847 2.70726 8.86988 3.67447 7.19462C4.64169 5.51935 6.62723 4.92872 8.2773 5.55344Z" fill="black" fill-opacity="0.95" style="fill:black;fill-opacity:0.95;"/>
</svg>