<svg xmlns="http://www.w3.org/2000/svg" width="20" height="20" viewBox="0 0 20 20" fill="none">
    <path fill-rule="evenodd" clip-rule="evenodd" d="M11.665 3.45396C10.9194 2.18201 9.08062 2.18201 8.33499 3.45396L2.01669 14.2322C1.26246 15.5189 2.1903 17.1383 3.6817 17.1383H16.3183C17.8097 17.1383 18.7375 15.5189 17.9833 14.2322L11.665 3.45396ZM10 6.57007C10.3756 6.57007 10.68 6.87451 10.68 7.25007V10.7501C10.68 11.1256 10.3756 11.4301 10 11.4301C9.62445 11.4301 9.32001 11.1256 9.32001 10.7501V7.25007C9.32001 6.87451 9.62445 6.57007 10 6.57007ZM10.75 13.5C10.75 13.9142 10.4142 14.25 10 14.25C9.58579 14.25 9.25 13.9142 9.25 13.5C9.25 13.0858 9.58579 12.75 10 12.75C10.4142 12.75 10.75 13.0858 10.75 13.5Z" fill="black" fill-opacity="0.95" style="fill:black;fill-opacity:0.95;"/>
</svg>