<svg xmlns="http://www.w3.org/2000/svg" width="16" height="16" viewBox="0 0 16 16" fill="none">
    <path fill-rule="evenodd" clip-rule="evenodd"
        d="M9.33239 2.76317C8.73589 1.74561 7.26488 1.74561 6.66838 2.76317L1.61374 11.3858C1.01036 12.4151 1.75263 13.7106 2.94575 13.7106H13.055C14.2481 13.7106 14.9904 12.4151 14.387 11.3858L9.33239 2.76317ZM8.0004 5.25605C8.30084 5.25605 8.5444 5.49961 8.5444 5.80005V8.60005C8.5444 8.9005 8.30084 9.14405 8.0004 9.14405C7.69995 9.14405 7.4564 8.9005 7.4564 8.60005V5.80005C7.4564 5.49961 7.69995 5.25605 8.0004 5.25605ZM8.60039 10.8C8.60039 11.1314 8.33176 11.4 8.00039 11.4C7.66902 11.4 7.40039 11.1314 7.40039 10.8C7.40039 10.4686 7.66902 10.2 8.00039 10.2C8.33176 10.2 8.60039 10.4686 8.60039 10.8Z"
        fill="#FF3B30" />
</svg>