<svg xmlns="http://www.w3.org/2000/svg" width="24" height="24" viewBox="0 0 24 24" fill="none">
    <path fill-rule="evenodd" clip-rule="evenodd" d="M8.39982 2.78418C7.94916 2.78418 7.58382 3.14952 7.58382 3.60018C7.58382 4.05084 7.94916 4.41618 8.39982 4.41618H15.5998C16.0505 4.41618 16.4158 4.05084 16.4158 3.60018C16.4158 3.14952 16.0505 2.78418 15.5998 2.78418H8.39982ZM5.78382 6.30018C5.78382 5.84952 6.14916 5.48418 6.59982 5.48418H17.3998C17.8505 5.48418 18.2158 5.84952 18.2158 6.30018C18.2158 6.75084 17.8505 7.11618 17.3998 7.11618H6.59982C6.14916 7.11618 5.78382 6.75084 5.78382 6.30018ZM6.96375 8.18418H17.0359C17.5126 8.18417 17.9189 8.18416 18.2525 8.21141C18.6031 8.24006 18.9447 8.30283 19.2714 8.46931C19.7637 8.72011 20.1639 9.12031 20.4147 9.61254C20.5812 9.93927 20.6439 10.2809 20.6726 10.6315C20.6998 10.9651 20.6998 11.3714 20.6998 11.8482V17.7202C20.6998 18.1969 20.6998 18.6032 20.6726 18.9369C20.6439 19.2875 20.5812 19.6291 20.4147 19.9558C20.1639 20.4481 19.7637 20.8482 19.2714 21.0991C18.9447 21.2655 18.6031 21.3283 18.2525 21.3569C17.9188 21.3842 17.5126 21.3842 17.0358 21.3842H6.96378C6.48705 21.3842 6.08076 21.3842 5.74712 21.3569C5.3965 21.3283 5.05489 21.2655 4.72817 21.0991C4.23593 20.8482 3.83574 20.4481 3.58493 19.9558C3.41846 19.6291 3.35569 19.2875 3.32704 18.9369C3.29978 18.6032 3.29979 18.1969 3.29981 17.7202V11.8481C3.29979 11.3714 3.29978 10.9651 3.32704 10.6315C3.35569 10.2809 3.41846 9.93927 3.58493 9.61254C3.83574 9.12031 4.23593 8.72011 4.72817 8.46931C5.05489 8.30283 5.39651 8.24006 5.74712 8.21141C6.08076 8.18416 6.48704 8.18417 6.96375 8.18418ZM5.88002 9.83799C5.63033 9.8584 5.52739 9.89372 5.46908 9.92343C5.28393 10.0178 5.13339 10.1683 5.03906 10.3535C5.00934 10.4118 4.97402 10.5147 4.95362 10.7644C4.93244 11.0236 4.93181 11.3627 4.93181 11.8802V17.6882C4.93181 18.2057 4.93244 18.5448 4.95362 18.804C4.97402 19.0537 5.00934 19.1566 5.03906 19.2149C5.13339 19.4001 5.28393 19.5506 5.46908 19.6449C5.52739 19.6746 5.63033 19.71 5.88002 19.7304C6.13924 19.7515 6.47829 19.7522 6.99581 19.7522H17.0038C17.5213 19.7522 17.8604 19.7515 18.1196 19.7304C18.3693 19.71 18.4722 19.6746 18.5305 19.6449C18.7157 19.5506 18.8662 19.4001 18.9606 19.2149C18.9903 19.1566 19.0256 19.0537 19.046 18.804C19.0672 18.5448 19.0678 18.2057 19.0678 17.6882V11.8802C19.0678 11.3627 19.0672 11.0236 19.046 10.7644C19.0256 10.5147 18.9903 10.4118 18.9606 10.3535C18.8662 10.1683 18.7157 10.0178 18.5305 9.92343C18.4722 9.89372 18.3693 9.8584 18.1196 9.83799C17.8604 9.81682 17.5213 9.81618 17.0038 9.81618H6.99581C6.47829 9.81618 6.13924 9.81682 5.88002 9.83799Z" fill="black" fill-opacity="0.95" style="fill:black;fill-opacity:0.95;"/>
</svg>