<svg xmlns="http://www.w3.org/2000/svg" width="20" height="21" viewBox="0 0 20 21" fill="none">
    <path d="M15.8093 16.5547C15.0931 17.6246 14.3338 18.6686 13.1776 18.6859C12.0214 18.7118 11.6504 18.0042 10.3389 18.0042C9.01878 18.0042 8.61325 18.6686 7.51745 18.7118C6.38714 18.7549 5.53293 17.5728 4.80815 16.5288C3.3327 14.3976 2.20239 10.4717 3.72098 7.83142C4.47164 6.51992 5.81766 5.6916 7.27585 5.66571C8.38028 5.64845 9.43294 6.41638 10.1146 6.41638C10.7876 6.41638 12.0646 5.49314 13.402 5.6312C13.9628 5.65708 15.5332 5.85553 16.5427 7.33961C16.465 7.39138 14.6703 8.44404 14.6876 10.627C14.7135 13.2328 16.9741 14.1042 17 14.1129C16.9741 14.1733 16.6376 15.3553 15.8093 16.5547ZM10.8825 2.74933C11.5124 2.03318 12.5564 1.48959 13.4192 1.45508C13.5314 2.46459 13.1259 3.48274 12.5219 4.20752C11.9265 4.94093 10.9429 5.5104 9.97653 5.43274C9.8471 4.44049 10.3303 3.40508 10.8825 2.74933Z" fill="black" style="fill:black;fill-opacity:1;"/>
</svg>