<svg xmlns="http://www.w3.org/2000/svg" width="24" height="24" viewBox="0 0 24 24" fill="none">
    <path d="M10.2231 4.22289C10.5417 3.90422 11.0584 3.90422 11.3771 4.22289C11.6957 4.54156 11.6957 5.05822 11.3771 5.37689L5.57006 11.1839H20.4001C20.8507 11.1839 21.2161 11.5492 21.2161 11.9999C21.2161 12.4506 20.8507 12.8159 20.4001 12.8159H5.57006L11.3771 18.6229C11.6957 18.9416 11.6957 19.4582 11.3771 19.7769C11.0584 20.0956 10.5417 20.0956 10.2231 19.7769L3.02402 12.5779C3.021 12.5748 3.018 12.5718 3.01503 12.5687C2.87209 12.4218 2.78406 12.2211 2.78406 11.9999C2.78406 11.8888 2.80627 11.7828 2.84651 11.6863C2.88525 11.5931 2.94201 11.5056 3.0168 11.4292C3.01912 11.4268 3.02146 11.4245 3.02381 11.4221L10.2231 4.22289Z" fill="black" fill-opacity="0.95" style="fill:black;fill-opacity:0.95;"/>
</svg>