<svg xmlns="http://www.w3.org/2000/svg" width="20" height="20" viewBox="0 0 20 20" fill="none">
    <path fill-rule="evenodd" clip-rule="evenodd" d="M11.1961 1.54152C11.4641 1.44337 11.7648 1.52296 11.9491 1.74079L16.9025 7.59485C17.4326 8.22123 17.4326 9.13884 16.9025 9.76522L11.9491 15.6193C11.7648 15.8371 11.4641 15.9167 11.1961 15.8185C10.9282 15.7204 10.75 15.4654 10.75 15.18V11.86H9.18C8.11998 11.86 7.17518 12.5285 6.82239 13.5281L5.44744 17.4238C5.02422 18.6229 3.25 18.319 3.25 17.0474V11.43C3.25 8.15499 5.90495 5.50003 9.18 5.50003H10.75V2.18003C10.75 1.89468 10.9282 1.63967 11.1961 1.54152ZM9.18 10.5H11.43C11.8056 10.5 12.11 10.8045 12.11 11.18V13.3237L15.8643 8.88674C15.9653 8.76743 15.9653 8.59264 15.8643 8.47333L12.11 4.0364V6.18003C12.11 6.55559 11.8056 6.86003 11.43 6.86003H9.18C6.65606 6.86003 4.61 8.90609 4.61 11.43V15.7102L5.53992 13.0754C6.08463 11.5321 7.54337 10.5 9.18 10.5Z" fill="black" style="fill:black;fill-opacity:1;"/>
</svg>