<svg xmlns="http://www.w3.org/2000/svg" width="20" height="20" viewBox="0 0 20 20" fill="none">
    <path d="M8.51917 3.51899C8.78472 3.25344 9.21528 3.25344 9.48083 3.51899C9.74639 3.78455 9.74639 4.2151 9.48083 4.48066L4.64167 9.31982H17C17.3756 9.31982 17.68 9.62427 17.68 9.99982C17.68 10.3754 17.3756 10.6798 17 10.6798H4.64167L9.48083 15.519C9.74639 15.7845 9.74639 16.2151 9.48083 16.4807C9.21528 16.7462 8.78472 16.7462 8.51917 16.4807L2.51997 10.4815C2.51745 10.479 2.51495 10.4764 2.51247 10.4739C2.39336 10.3514 2.32 10.1842 2.32 9.99982C2.32 9.90722 2.33851 9.81893 2.37204 9.73847C2.40432 9.66082 2.45163 9.58793 2.51395 9.52426C2.51589 9.52229 2.51783 9.52032 2.51979 9.51837L8.51917 3.51899Z" fill="black" fill-opacity="0.95" style="fill:black;fill-opacity:0.95;"/>
</svg>