<svg xmlns="http://www.w3.org/2000/svg" width="20" height="20" viewBox="0 0 20 20" fill="none">
    <path fill-rule="evenodd" clip-rule="evenodd" d="M14.19 4.8483C11.582 2.72189 7.73556 2.87406 5.30481 5.30481C2.87406 7.73556 2.72189 11.582 4.8483 14.19L14.19 4.8483ZM15.1517 5.80996L5.80996 15.1517C8.41797 17.2781 12.2644 17.1259 14.6952 14.6952C17.1259 12.2644 17.2781 8.41797 15.1517 5.80996ZM4.34315 4.34315C7.46734 1.21895 12.5327 1.21895 15.6569 4.34315C18.781 7.46734 18.781 12.5327 15.6569 15.6569C12.5327 18.781 7.46734 18.781 4.34315 15.6569C1.21895 12.5327 1.21895 7.46734 4.34315 4.34315Z" fill="black" fill-opacity="0.95" style="fill:black;fill-opacity:0.95;"/>
</svg>