<svg xmlns="http://www.w3.org/2000/svg" width="24" height="24" viewBox="0 0 24 24" fill="none">
    <path fill-rule="evenodd" clip-rule="evenodd"
        d="M17.028 5.81786C13.8984 3.26617 9.28263 3.44878 6.36574 6.36568C3.44884 9.28257 3.26623 13.8983 5.81792 17.0279L17.028 5.81786ZM18.182 6.97186L6.97192 18.1819C10.1015 20.7336 14.7173 20.551 17.6342 17.6341C20.5511 14.7172 20.7337 10.1015 18.182 6.97186ZM5.21174 5.21168C8.96077 1.46264 15.0392 1.46264 18.7882 5.21168C22.5372 8.96071 22.5372 15.0391 18.7882 18.7881C15.0392 22.5372 8.96077 22.5372 5.21174 18.7881C1.46271 15.0391 1.46271 8.96071 5.21174 5.21168Z"
        fill="black" fill-opacity="0.5"
         />
</svg>