<svg xmlns="http://www.w3.org/2000/svg" width="20" height="20" viewBox="0 0 20 20" fill="none">
    <path fill-rule="evenodd" clip-rule="evenodd" d="M3.18001 15.2892V5.45751C3.55465 5.11478 4.56833 4.36 6.25001 4.36C7.36601 4.36 8.18372 4.69121 8.71771 5.01261C8.98617 5.17419 9.18388 5.33401 9.31097 5.44928L9.32001 5.45752V15.2892C8.61032 14.8817 7.58616 14.5 6.25001 14.5C4.91137 14.5 3.88814 14.8826 3.18001 15.2892ZM9.48659 17.1259C9.35317 17.0317 9.22355 16.9196 9.10099 16.8136C8.96266 16.694 8.83333 16.5822 8.71771 16.5126C8.18372 16.1912 7.36601 15.86 6.25001 15.86C4.85091 15.86 3.91691 16.3813 3.42542 16.7538C3.08981 17.0081 2.6881 16.9799 2.41673 16.8623C2.14389 16.744 1.82001 16.4496 1.82001 15.9828V5.44892C1.82001 5.12341 1.93336 4.76209 2.22136 4.49175C2.73356 4.01094 4.07226 3 6.25001 3C7.64964 3 8.70694 3.41879 9.41904 3.84739C9.64892 3.98575 9.84245 4.12486 10 4.25081C10.1576 4.12486 10.3511 3.98575 10.581 3.84739C11.2931 3.41879 12.3504 3 13.75 3C15.9278 3 17.2665 4.01094 17.7787 4.49175C18.0667 4.76209 18.18 5.12341 18.18 5.44892V15.9828C18.18 16.4496 17.8561 16.744 17.5833 16.8623C17.3119 16.9799 16.9102 17.0081 16.5746 16.7538C16.0831 16.3813 15.1491 15.86 13.75 15.86C12.634 15.86 11.8163 16.1912 11.2823 16.5126C11.1667 16.5822 11.0374 16.694 10.899 16.8136C10.7765 16.9196 10.6468 17.0317 10.5134 17.1259C10.4387 17.212 10.3419 17.2798 10.2295 17.3201C10.1535 17.3474 10.0768 17.3556 10 17.349C9.92322 17.3556 9.84653 17.3474 9.7705 17.3201C9.65815 17.2798 9.56135 17.212 9.48659 17.1259ZM10.68 15.2892C11.3897 14.8817 12.4139 14.5 13.75 14.5C15.0886 14.5 16.1119 14.8826 16.82 15.2892V5.45751C16.4454 5.11478 15.4317 4.36 13.75 4.36C12.634 4.36 11.8163 4.69121 11.2823 5.01261C11.0138 5.17419 10.8161 5.33401 10.689 5.44928L10.68 5.45752V15.2892Z" fill="black" style="fill:black;fill-opacity:1;"/>
</svg>