<svg xmlns="http://www.w3.org/2000/svg" width="24" height="24" viewBox="0 0 24 24" fill="none">
    <path fill-rule="evenodd" clip-rule="evenodd"
        d="M3.81602 18.3472V6.54911C4.26559 6.13783 5.48201 5.2321 7.50002 5.2321C8.83923 5.2321 9.82048 5.62955 10.4613 6.01523C10.7834 6.20913 11.0207 6.40091 11.1732 6.53924L11.184 6.54912V18.3471C10.3324 17.8581 9.1034 17.4001 7.50002 17.4001C5.89366 17.4001 4.66578 17.8593 3.81602 18.3472ZM11.3839 20.5512C11.2238 20.4381 11.0683 20.3036 10.9212 20.1764C10.7552 20.0329 10.6 19.8987 10.4613 19.8152C9.82048 19.4296 8.83923 19.0321 7.50002 19.0321C5.82111 19.0321 4.7003 19.6577 4.11052 20.1046C3.70778 20.4099 3.22573 20.376 2.90009 20.2348C2.57268 20.0929 2.18402 19.7396 2.18402 19.1794V6.5388C2.18402 6.14819 2.32004 5.71461 2.66564 5.3902C3.28029 4.81323 4.88673 3.6001 7.50002 3.6001C9.17958 3.6001 10.4483 4.10264 11.3029 4.61696C11.5787 4.783 11.811 4.94993 12 5.10107C12.1891 4.94993 12.4213 4.783 12.6972 4.61696C13.5517 4.10264 14.8205 3.6001 16.5 3.6001C19.1133 3.6001 20.7198 4.81323 21.3344 5.3902C21.68 5.71461 21.816 6.14819 21.816 6.5388V19.1794C21.816 19.7396 21.4274 20.0929 21.1 20.2348C20.7743 20.376 20.2923 20.4099 19.8895 20.1046C19.2997 19.6577 18.1789 19.0321 16.5 19.0321C15.1608 19.0321 14.1796 19.4296 13.5388 19.8152C13.4 19.8987 13.2448 20.0329 13.0788 20.1764C12.9318 20.3036 12.7762 20.4381 12.6161 20.5512C12.5264 20.6545 12.4103 20.7359 12.2754 20.7842C12.1842 20.8169 12.0922 20.8268 12 20.8189C11.9079 20.8268 11.8159 20.8169 11.7246 20.7842C11.5898 20.7359 11.4736 20.6545 11.3839 20.5512ZM12.816 18.3471C13.6676 17.8581 14.8966 17.4001 16.5 17.4001C18.1064 17.4001 19.3343 17.8593 20.184 18.3472V6.54911C19.7345 6.13783 18.518 5.2321 16.5 5.2321C15.1608 5.2321 14.1796 5.62955 13.5388 6.01523C13.2166 6.20913 12.9794 6.40091 12.8269 6.53924L12.816 6.54912V18.3471Z"
        fill="black" fill-opacity="0.5"
        />
</svg>