<svg xmlns="http://www.w3.org/2000/svg" width="20" height="20" viewBox="0 0 20 20" fill="none">
    <path fill-rule="evenodd" clip-rule="evenodd" d="M16.448 8.12938C16.6539 8.33532 16.7791 8.46123 16.8652 8.56269C16.9053 8.60986 16.9269 8.64039 16.9388 8.65958C16.9444 8.66868 16.9474 8.67449 16.9488 8.67746L16.9503 8.68103C16.9712 8.7453 16.971 8.81515 16.9501 8.87942L16.9488 8.88238C16.9474 8.88535 16.9444 8.89115 16.9388 8.90025C16.9269 8.91945 16.9053 8.94997 16.8652 8.99715C16.7791 9.0986 16.6539 9.22451 16.448 9.43046L13.5637 12.3147L8.51818 7.26922C9.69724 5.95209 10.5395 4.36811 10.9721 2.65346L14.4034 6.0848C14.428 7.01537 13.3511 8.22243 12.6609 8.93034C12.5294 9.06522 12.589 9.28564 12.7771 9.29507C14.0218 9.35749 15.5358 8.20209 15.9357 7.61706L16.448 8.12938ZM7.41324 6.46304C6.87071 6.28744 6.26806 6.35857 5.77423 6.67643C5.59828 6.78969 5.43659 6.9517 5.25553 7.13311L5.25553 7.13312L5.21386 7.17484L5.17213 7.21651L5.17213 7.21652C4.99072 7.39757 4.8287 7.55927 4.71545 7.73521C4.30595 8.37141 4.30595 9.18821 4.71545 9.82441C4.8287 10.0004 4.99072 10.1621 5.17213 10.3431L5.21386 10.3848L6.30869 11.4796C6.14902 11.5787 5.97445 11.6851 5.79094 11.7971L5.79093 11.7971C5.25645 12.1231 4.64612 12.4954 4.10716 12.8652C3.25277 13.4515 2.34464 14.1776 1.93233 15.0023C1.32573 16.2155 1.77138 17.4943 2.56085 18.2838C3.35031 19.0732 4.62915 19.5189 5.84234 18.9123C6.66697 18.5 7.39312 17.5918 7.97941 16.7375C8.34925 16.1985 8.72152 15.5882 9.04753 15.0537L9.04754 15.0537C9.15947 14.8702 9.26595 14.6956 9.365 14.5359L10.4598 15.6308L10.5015 15.6725L10.5015 15.6725C10.6826 15.8539 10.8443 16.0159 11.0202 16.1292C11.6564 16.5387 12.4732 16.5387 13.1094 16.1292C13.2853 16.0159 13.447 15.8539 13.6281 15.6725L13.6281 15.6725L13.6281 15.6725L13.6698 15.6308L13.7115 15.5891C13.8929 15.408 14.0549 15.2463 14.1682 15.0704C14.4877 14.574 14.5579 13.9677 14.3788 13.423L17.4269 10.3748L17.427 10.3748L17.427 10.3748C17.6102 10.1916 17.7756 10.0263 17.902 9.87731C18.0376 9.7176 18.1679 9.53261 18.2438 9.29907C18.3534 8.96165 18.3534 8.59819 18.2438 8.26077C18.1679 8.02723 18.0376 7.84224 17.902 7.68253C17.7755 7.53355 17.6101 7.36816 17.4269 7.18497L11.5546 1.31265C10.9535 0.711548 9.92504 1.02294 9.75832 1.85652C9.41352 3.58051 8.601 5.17362 7.41324 6.46304ZM7.40772 8.08219C7.20597 7.88124 7.16046 7.84133 7.12734 7.82001C6.93944 7.69907 6.69821 7.69907 6.51032 7.82001C6.47441 7.84313 6.42393 7.8881 6.17552 8.13651C5.92712 8.38492 5.88214 8.43539 5.85903 8.4713C5.73809 8.6592 5.73809 8.90043 5.85903 9.08832C5.88214 9.12423 5.92712 9.17471 6.17552 9.42312L7.52784 10.7754L7.53828 10.7859C7.58527 10.8328 7.64842 10.8959 7.69965 10.9575C7.76065 11.0308 7.84905 11.1524 7.89303 11.3243C7.94802 11.5393 7.92328 11.7715 7.82425 11.97C7.74637 12.1261 7.63725 12.2257 7.56093 12.2858C7.49827 12.3352 7.42411 12.383 7.37032 12.4176L7.35818 12.4254C7.06324 12.6158 6.75083 12.8058 6.42796 13.0022L6.42786 13.0022C5.92719 13.3067 5.40138 13.6265 4.87665 13.9866C4.01406 14.5785 3.38726 15.1335 3.14875 15.6105C2.86849 16.171 3.03484 16.8344 3.52251 17.3221C4.01018 17.8098 4.67362 17.9761 5.23413 17.6959C5.71115 17.4574 6.26612 16.8305 6.85804 15.968C7.2181 15.4432 7.53788 14.9174 7.84237 14.4168L7.84239 14.4167C8.03877 14.0938 8.22879 13.7814 8.41917 13.4864L8.427 13.4743L8.427 13.4743C8.46166 13.4205 8.50944 13.3463 8.55881 13.2837C8.61895 13.2074 8.71847 13.0982 8.8746 13.0204C9.07312 12.9213 9.30534 12.8966 9.52027 12.9516C9.69216 12.9956 9.81381 13.084 9.88716 13.145C9.94875 13.1962 10.0118 13.2593 10.0587 13.3063L10.0692 13.3168L11.4215 14.6691C11.6699 14.9175 11.7204 14.9625 11.7563 14.9856C11.9442 15.1065 12.1854 15.1065 12.3733 14.9856C12.4092 14.9625 12.4597 14.9175 12.7081 14.6691C12.9565 14.4207 13.0015 14.3702 13.0246 14.3343C13.1455 14.1464 13.1455 13.9052 13.0246 13.7173C13.0033 13.6841 12.9634 13.6386 12.7623 13.4368L7.40772 8.08219ZM4.00839 16.8361C4.37055 17.1983 4.95773 17.1983 5.31989 16.8361C5.68204 16.474 5.68204 15.8868 5.31989 15.5246C4.95773 15.1625 4.37055 15.1625 4.00839 15.5246C3.64623 15.8868 3.64623 16.474 4.00839 16.8361Z" fill="black" fill-opacity="0.95" style="fill:black;fill-opacity:0.95;"/>
</svg>