<svg xmlns="http://www.w3.org/2000/svg" width="25" height="24" viewBox="0 0 25 24" fill="none">
    <path fill-rule="evenodd" clip-rule="evenodd" d="M4.47196 12.0002C4.47196 7.56646 8.06622 3.9722 12.5 3.9722C16.9337 3.9722 20.528 7.56646 20.528 12.0002C20.528 16.4657 17.4514 20.0282 12.5 20.0282C11.5071 20.0282 10.558 19.8483 9.68236 19.5201L9.43179 19.4261L6.4843 20.4086C6.35925 20.4503 6.26199 20.4825 6.1836 20.5072C6.19135 20.4254 6.20248 20.3236 6.21704 20.1926L6.52987 17.3771L6.32424 17.1298C5.16718 15.7385 4.47196 13.9515 4.47196 12.0002ZM12.5 2.46021C7.23116 2.46021 2.95996 6.73141 2.95996 12.0002C2.95996 14.2001 3.70547 16.2277 4.95694 17.8416L4.71114 20.0539C4.68628 20.2773 4.66227 20.4932 4.65875 20.6727C4.65508 20.8601 4.66831 21.1196 4.80361 21.3731C4.97647 21.6969 5.27326 21.9368 5.62615 22.038C5.90235 22.1172 6.15885 22.0758 6.34128 22.0329C6.51613 21.9919 6.72214 21.9232 6.93535 21.8521L6.93541 21.852L9.40809 21.0278C10.3786 21.3601 11.419 21.5402 12.5 21.5402C18.3486 21.5402 22.04 17.2372 22.04 12.0002C22.04 6.73141 17.7688 2.46021 12.5 2.46021ZM10.56 13.4539C9.64984 14.2296 8.54246 14.8026 7.24867 15.1677L7.13096 15.2009L6.49998 14.1643L6.71022 14.1101C7.915 13.7994 8.91866 13.3257 9.71958 12.6858C8.91808 11.8338 8.34768 10.8604 8.01014 9.76035H6.73548V8.59418H9.83088C9.66191 8.32063 9.46483 8.05928 9.24278 7.80639L9.08704 7.62903L10.2721 7.20015L10.3438 7.2938C10.6269 7.6634 10.8861 8.09727 11.1219 8.59418H14.2484V9.76035H12.9787C12.605 10.8849 12.0768 11.8402 11.392 12.6295C11.8087 12.9468 12.2752 13.2379 12.7913 13.5045L12.9138 13.5677L12.5407 14.6869L12.3745 14.6034C11.6938 14.2616 11.0887 13.8786 10.56 13.4539ZM9.17247 9.76035C9.48018 10.554 9.937 11.2595 10.5496 11.8882C11.0668 11.2852 11.4726 10.5748 11.7609 9.76035H9.17247ZM12.6746 16.5802L14.885 10.3985H16.2895L18.5 16.5802H17.0542L16.5588 15.0656H14.6117L14.1163 16.5802H12.6746ZM15.5869 12.0847L14.9811 13.9354H16.1897L15.5869 12.0847Z" fill="black" fill-opacity="0.95" style="fill:black;fill-opacity:0.95;"/>
</svg>