<svg xmlns="http://www.w3.org/2000/svg" width="24" height="24" viewBox="0 0 24 24" fill="none">
    <path fill-rule="evenodd" clip-rule="evenodd" d="M8.10185 3H15.8981C16.6252 2.99999 17.2202 2.99998 17.7038 3.0395C18.2045 3.0804 18.6572 3.1677 19.0802 3.38322C19.7418 3.72031 20.2797 4.25819 20.6168 4.91977C20.8323 5.34276 20.9196 5.7955 20.9605 6.2962C21 6.77982 21 7.37481 21 8.10188V12.2436V12.3019V15.8981V15.8982C21 16.5344 21 17.0694 20.9735 17.5172C20.9698 17.5812 20.9654 17.6434 20.9605 17.7038C20.9196 18.2045 20.8323 18.6572 20.6168 19.0802C20.281 19.7392 19.746 20.2755 19.088 20.6128L19.0802 20.6168C18.6572 20.8323 18.2045 20.9196 17.7038 20.9605C17.2202 21 16.6252 21 15.8981 21H8.10188C7.37481 21 6.77982 21 6.2962 20.9605C5.7955 20.9196 5.34276 20.8323 4.91977 20.6168C4.25819 20.2797 3.72031 19.7418 3.38322 19.0802C3.1677 18.6572 3.0804 18.2045 3.0395 17.7038C2.99998 17.2202 2.99999 16.6252 3 15.8981V12.3019V12.2434V8.10185C2.99999 7.37479 2.99998 6.77981 3.0395 6.2962C3.0804 5.7955 3.1677 5.34276 3.38322 4.91977C3.72031 4.25819 4.25819 3.72031 4.91977 3.38322C5.34276 3.1677 5.7955 3.0804 6.2962 3.0395C6.77981 2.99998 7.37479 2.99999 8.10185 3ZM19.3339 6.42909C19.3614 6.76551 19.3667 7.18218 19.3678 7.74721C19.2748 7.68825 19.1789 7.6335 19.0802 7.58322C18.6572 7.3677 18.2045 7.2804 17.7038 7.2395C17.2202 7.19998 16.6252 7.19999 15.8982 7.2H15.8981H8.10185H8.10184C7.37478 7.19999 6.77981 7.19998 6.2962 7.2395C5.7955 7.2804 5.34276 7.3677 4.91977 7.58322C4.82109 7.6335 4.72516 7.68825 4.63224 7.74721C4.63327 7.18217 4.63859 6.76551 4.66608 6.42909C4.69874 6.02933 4.75858 5.81526 4.83734 5.66068C5.01797 5.30619 5.30619 5.01797 5.66068 4.83734C5.81526 4.75858 6.02933 4.69874 6.42909 4.66608C6.83839 4.63264 7.36647 4.632 8.136 4.632H15.864C16.6335 4.632 17.1616 4.63264 17.5709 4.66608C17.9707 4.69874 18.1847 4.75858 18.3393 4.83734C18.6938 5.01797 18.982 5.30619 19.1627 5.66068C19.2414 5.81526 19.3013 6.02933 19.3339 6.42909ZM4.632 15.864V12.336C4.632 11.5665 4.63264 11.0384 4.66608 10.6291C4.69874 10.2293 4.75858 10.0153 4.83734 9.86068C5.01797 9.50619 5.30619 9.21797 5.66068 9.03734C5.81526 8.95858 6.02933 8.89874 6.42909 8.86608C6.83839 8.83264 7.36647 8.832 8.136 8.832H15.864C16.6335 8.832 17.1616 8.83264 17.5709 8.86608C17.9707 8.89874 18.1847 8.95858 18.3393 9.03734C18.6938 9.21797 18.982 9.50619 19.1627 9.86068C19.2414 10.0153 19.3013 10.2293 19.3339 10.6291C19.3674 11.0384 19.368 11.5665 19.368 12.336V15.864C19.368 16.6335 19.3674 17.1616 19.3339 17.5709C19.3013 17.9707 19.2414 18.1847 19.1627 18.3393L19.1627 18.3393C18.982 18.6938 18.6938 18.982 18.3393 19.1627C18.1847 19.2414 17.9707 19.3013 17.5709 19.3339C17.1616 19.3674 16.6335 19.368 15.864 19.368H8.136C7.36647 19.368 6.83839 19.3674 6.42909 19.3339C6.40411 19.3319 6.37985 19.3297 6.35628 19.3275C6.0028 19.2937 5.8056 19.2365 5.66068 19.1627C5.30619 18.982 5.01797 18.6938 4.83734 18.3393C4.8275 18.32 4.81795 18.2997 4.80871 18.2783C4.74405 18.1283 4.69466 17.9207 4.66608 17.5709C4.63264 17.1616 4.632 16.6335 4.632 15.864ZM15.9 17.4C16.7284 17.4 17.4 16.7284 17.4 15.9C17.4 15.0716 16.7284 14.4 15.9 14.4C15.0716 14.4 14.4 15.0716 14.4 15.9C14.4 16.7284 15.0716 17.4 15.9 17.4Z" fill="black" fill-opacity="0.5" style="fill:black;fill-opacity:0.5;"/>
</svg>