<svg xmlns="http://www.w3.org/2000/svg" width="20" height="20" viewBox="0 0 20 20" fill="none">
    <path fill-rule="evenodd" clip-rule="evenodd" d="M6.75154 2.5H13.2485H13.2485C13.8543 2.49999 14.3502 2.49999 14.7532 2.53291C15.1704 2.567 15.5477 2.63975 15.9002 2.81935C16.4515 3.10026 16.8997 3.54849 17.1806 4.09981C17.3603 4.4523 17.433 4.82959 17.4671 5.24683C17.5 5.64985 17.5 6.14567 17.5 6.75157V10.1986V10.2516V13.2484C17.5 13.8543 17.5 14.3502 17.4671 14.7532C17.433 15.1704 17.3603 15.5477 17.1806 15.9002C16.8997 16.4515 16.4515 16.8997 15.9002 17.1806C15.5477 17.3603 15.1704 17.433 14.7532 17.4671C14.3502 17.5 13.8543 17.5 13.2484 17.5H6.75157C6.14567 17.5 5.64985 17.5 5.24683 17.4671C4.82959 17.433 4.4523 17.3603 4.09981 17.1806C3.54849 16.8997 3.10026 16.4515 2.81935 15.9002C2.63975 15.5477 2.567 15.1704 2.53291 14.7532C2.49999 14.3502 2.49999 13.8543 2.5 13.2485V13.2485V10.2515V10.2515V10.2032V6.75154V6.75153C2.49999 6.14565 2.49999 5.64984 2.53291 5.24683C2.567 4.82959 2.63975 4.4523 2.81935 4.09981C3.10026 3.54849 3.54849 3.10026 4.09981 2.81935C4.4523 2.63975 4.82959 2.567 5.24683 2.53291C5.64984 2.49999 6.14565 2.49999 6.75153 2.5H6.75154ZM16.1116 5.35758C16.1345 5.63793 16.1389 5.98515 16.1398 6.45601C16.0624 6.40687 15.9824 6.36125 15.9002 6.31935C15.5477 6.13975 15.1704 6.067 14.7532 6.03291C14.3502 5.99999 13.8543 5.99999 13.2485 6H6.75154C6.14566 5.99999 5.64985 5.99999 5.24683 6.03291C4.82959 6.067 4.4523 6.13975 4.09981 6.31935C4.01758 6.36125 3.93764 6.40688 3.8602 6.45601C3.86106 5.98515 3.86549 5.63793 3.8884 5.35758C3.91562 5.02444 3.96549 4.84605 4.03112 4.71724C4.18164 4.42182 4.42182 4.18164 4.71724 4.03112C4.84605 3.96549 5.02444 3.91562 5.35758 3.8884C5.69866 3.86053 6.13872 3.86 6.78 3.86H13.22C13.8613 3.86 14.3013 3.86053 14.6424 3.8884C14.9756 3.91562 15.154 3.96549 15.2828 4.03112C15.5782 4.18164 15.8184 4.42182 15.9689 4.71724C16.0345 4.84605 16.0844 5.02444 16.1116 5.35758ZM3.86 13.22V10.28C3.86 9.63872 3.86053 9.19866 3.8884 8.85758C3.91562 8.52444 3.96549 8.34605 4.03112 8.21724C4.18164 7.92182 4.42182 7.68164 4.71724 7.53112C4.84605 7.46549 5.02444 7.41562 5.35758 7.3884C5.69866 7.36053 6.13872 7.36 6.78 7.36H13.22C13.8613 7.36 14.3013 7.36053 14.6424 7.3884C14.9756 7.41562 15.154 7.46549 15.2828 7.53112C15.5782 7.68164 15.8184 7.92182 15.9689 8.21724C16.0345 8.34605 16.0844 8.52444 16.1116 8.85758C16.1395 9.19866 16.14 9.63872 16.14 10.28V13.22C16.14 13.8613 16.1395 14.3013 16.1116 14.6424C16.0844 14.9756 16.0345 15.154 15.9689 15.2828C15.8184 15.5782 15.5782 15.8184 15.2828 15.9689C15.154 16.0345 14.9756 16.0844 14.6424 16.1116C14.3013 16.1395 13.8613 16.14 13.22 16.14H6.78C6.13872 16.14 5.69866 16.1395 5.35758 16.1116C5.02444 16.0844 4.84605 16.0345 4.71724 15.9689C4.42182 15.8184 4.18164 15.5782 4.03112 15.2828C3.96549 15.154 3.91562 14.9756 3.8884 14.6424C3.86053 14.3013 3.86 13.8613 3.86 13.22ZM13.25 14.5C13.9404 14.5 14.5 13.9404 14.5 13.25C14.5 12.5596 13.9404 12 13.25 12C12.5596 12 12 12.5596 12 13.25C12 13.9404 12.5596 14.5 13.25 14.5Z" fill="black" fill-opacity="0.95" style="fill:black;fill-opacity:0.95;"/>
</svg>