<svg xmlns="http://www.w3.org/2000/svg" width="20" height="20" viewBox="0 0 20 20" fill="none">
    <path fill-rule="evenodd" clip-rule="evenodd" d="M18 10C18 14.4183 14.4183 18 10 18C5.58172 18 2 14.4183 2 10C2 5.58172 5.58172 2 10 2C14.4183 2 18 5.58172 18 10ZM13.039 8.41464C13.268 8.11696 13.2123 7.69003 12.9146 7.46105C12.6169 7.23207 12.19 7.28776 11.961 7.58543L9.07366 11.264L7.69537 10.0695C7.41157 9.82354 6.98211 9.85421 6.73615 10.138C6.49019 10.4218 6.52086 10.8513 6.80467 11.0972L8.72774 12.7639C8.86924 12.8865 9.05503 12.9454 9.24132 12.9266C9.42762 12.9078 9.59792 12.813 9.71208 12.6646L13.039 8.41464Z" fill="black" fill-opacity="0.95" style="fill:black;fill-opacity:0.95;"/>
</svg>