<svg xmlns="http://www.w3.org/2000/svg" width="20" height="20" viewBox="0 0 20 20" fill="none">
    <path fill-rule="evenodd" clip-rule="evenodd" d="M5.96967 8.28033C5.67678 7.98744 5.67678 7.51256 5.96967 7.21967L9.46967 3.71967C9.76256 3.42678 10.2374 3.42678 10.5303 3.71967L14.0303 7.21967C14.3232 7.51256 14.3232 7.98744 14.0303 8.28033C13.7374 8.57322 13.2626 8.57322 12.9697 8.28033L10 5.31066L7.03033 8.28033C6.73744 8.57322 6.26256 8.57322 5.96967 8.28033ZM5.96967 11.7197C5.67678 12.0126 5.67678 12.4874 5.96967 12.7803L9.46967 16.2803C9.76256 16.5732 10.2374 16.5732 10.5303 16.2803L14.0303 12.7803C14.3232 12.4874 14.3232 12.0126 14.0303 11.7197C13.7374 11.4268 13.2626 11.4268 12.9697 11.7197L10 14.6893L7.03033 11.7197C6.73744 11.4268 6.26256 11.4268 5.96967 11.7197Z" fill="black" fill-opacity="0.95" style="fill:black;fill-opacity:0.95;"/>
</svg>