<svg xmlns="http://www.w3.org/2000/svg" width="20" height="20" viewBox="0 0 20 20" fill="none">
    <path fill-rule="evenodd" clip-rule="evenodd" d="M17.9808 2.01924C18.2464 2.28479 18.2464 2.71534 17.9808 2.9809L2.98084 17.9809C2.71528 18.2465 2.28473 18.2465 2.01917 17.9809C1.75362 17.7153 1.75362 17.2848 2.01917 17.0192L3.75 15.2884L3.75 5.95256C3.74999 5.48587 3.74999 5.09492 3.77611 4.77523C3.80338 4.44136 3.8625 4.12581 4.01486 3.8268C4.24783 3.36957 4.61957 2.99783 5.07681 2.76485C5.37582 2.6125 5.69137 2.55338 6.02523 2.5261C6.34492 2.49998 6.91588 2.49999 7.20257 2.5H12.7975C13.2641 2.49999 13.6551 2.49998 13.9748 2.5261C14.3086 2.55338 14.6242 2.6125 14.9232 2.76485C15.2132 2.91261 15.4688 3.11619 15.6764 3.362L17.0192 2.01924C17.2847 1.75368 17.7153 1.75368 17.9808 2.01924ZM14.7069 4.33147L5.11 13.9284V5.98C5.11 5.47873 5.11053 5.14368 5.13159 4.88598C5.152 4.63621 5.18824 4.51957 5.22663 4.44423C5.32921 4.2429 5.4929 4.07921 5.69423 3.97662C5.76957 3.93824 5.88622 3.90199 6.13598 3.88158C6.39368 3.86053 6.90874 3.86 7.23 3.86H12.77C13.2713 3.86 13.6063 3.86053 13.864 3.88158C14.1138 3.90199 14.2304 3.93824 14.3058 3.97662C14.468 4.05931 14.6059 4.18168 14.7069 4.33147Z" fill="black" fill-opacity="0.95" style="fill:black;fill-opacity:0.95;"/>
    <path d="M16.25 6.63166L14.89 7.99166V15.7972C14.89 15.8776 14.8899 15.9462 14.8895 16.0052C14.8383 15.9758 14.779 15.9414 14.7095 15.9008L10.7457 13.3378C9.90256 12.8416 9.16135 13.9895 10.0605 14.5125L14.0469 17.0887C14.2245 17.1924 14.3959 17.2924 14.5435 17.3613C14.6939 17.4315 14.9217 17.5207 15.1897 17.4934C15.5231 17.4594 15.8263 17.2852 16.0237 17.0143C16.1823 16.7966 16.22 16.5549 16.2352 16.3896C16.2501 16.2274 16.25 16.029 16.25 15.8233L16.25 6.63166Z" fill="black" fill-opacity="0.95" style="fill:black;fill-opacity:0.95;"/>
</svg>