<svg xmlns="http://www.w3.org/2000/svg" width="20" height="20" viewBox="0 0 20 20" fill="none">
    <path fill-rule="evenodd" clip-rule="evenodd" d="M10.32 2.5C10.6956 2.5 11 2.80445 11 3.18C11 3.55555 10.6956 3.86 10.32 3.86H5C4.3704 3.86 3.86 4.3704 3.86 5V15C3.86 15.6296 4.3704 16.14 5 16.14H15C15.6296 16.14 16.14 15.6296 16.14 15V9.68C16.14 9.30445 16.4444 9 16.82 9C17.1956 9 17.5 9.30445 17.5 9.68V15C17.5 16.3807 16.3807 17.5 15 17.5H5C3.61929 17.5 2.5 16.3807 2.5 15V5C2.5 3.61929 3.61929 2.5 5 2.5H10.32ZM15.8339 3.03436C16.1463 2.72194 16.6528 2.72194 16.9652 3.03436C17.2776 3.34678 17.2776 3.85331 16.9652 4.16573L16.1167 5.01421L14.9854 3.88284L15.8339 3.03436ZM14.2783 4.58995L15.4096 5.72132L9.63368 11.4973C9.47841 11.6525 9.29862 11.7812 9.10154 11.878L8.0958 12.3723C7.79611 12.5195 7.48005 12.2035 7.62731 11.9038L8.12154 10.898C8.21839 10.701 8.34703 10.5212 8.50231 10.3659L14.2783 4.58995Z" fill="black" fill-opacity="0.95" style="fill:black;fill-opacity:0.95;"/>
</svg>