<svg xmlns="http://www.w3.org/2000/svg" width="12" height="12" viewBox="0 0 12 12">
    <path d="M2.08853 10.4886L9.88853 2.68857C10.0479 2.52923 10.0479 2.2709 9.88853 2.11157C9.72919 1.95223 9.47086 1.95223 9.31153 2.11157L7.48351 3.93959C6.13614 2.72877 4.35412 1.99207 2.40003 1.99207C2.1747 1.99207 1.99203 2.17473 1.99203 2.40007C1.99203 2.6254 2.1747 2.80807 2.40003 2.80807C4.12878 2.80807 5.70667 3.45393 6.90558 4.51751L5.53971 5.88339C4.69235 5.16684 3.59664 4.73484 2.40003 4.73484C2.1747 4.73484 1.99203 4.91751 1.99203 5.14284C1.99203 5.36817 2.1747 5.55084 2.40003 5.55084C3.37125 5.55084 4.2626 5.89277 4.96027 6.46283L3.58439 7.83871C3.24611 7.61079 2.83861 7.47776 2.40003 7.47776C2.1747 7.47776 1.99203 7.66043 1.99203 7.88576C1.99203 8.11109 2.1747 8.29376 2.40003 8.29376C2.61202 8.29376 2.8122 8.34425 2.98923 8.43387L1.51153 9.91157C1.3522 10.0709 1.3522 10.3292 1.51153 10.4886C1.67086 10.6479 1.92919 10.6479 2.08853 10.4886Z"/>
    <path d="M6.67519 7.27584L6.06814 7.8829C6.31258 8.4042 6.44918 8.98614 6.44918 9.59998C6.44918 9.82531 6.63184 10.008 6.85718 10.008C7.08251 10.008 7.26518 9.82531 7.26518 9.59998C7.26518 8.75823 7.05141 7.96641 6.67519 7.27584Z"/>
    <path d="M8.6665 5.28454L8.07862 5.87242C8.7825 6.94252 9.19203 8.22347 9.19203 9.60007C9.19203 9.8254 9.3747 10.0081 9.60003 10.0081C9.82537 10.0081 10.008 9.8254 10.008 9.60007C10.008 7.99756 9.51258 6.51078 8.6665 5.28454Z"/>
</svg>