<svg xmlns="http://www.w3.org/2000/svg" width="12" height="12" viewBox="0 0 12 12" fill="none">
    <path
        d="M2.08859 10.4886L9.88859 2.68857C10.0479 2.52923 10.0479 2.2709 9.88859 2.11157C9.72926 1.95223 9.47093 1.95223 9.31159 2.11157L7.48357 3.93959C6.1362 2.72877 4.35418 1.99207 2.40009 1.99207C2.17476 1.99207 1.99209 2.17473 1.99209 2.40007C1.99209 2.6254 2.17476 2.80807 2.40009 2.80807C4.12884 2.80807 5.70673 3.45393 6.90564 4.51751L5.53977 5.88339C4.69241 5.16684 3.5967 4.73484 2.40009 4.73484C2.17476 4.73484 1.99209 4.91751 1.99209 5.14284C1.99209 5.36817 2.17476 5.55084 2.40009 5.55084C3.37131 5.55084 4.26266 5.89277 4.96033 6.46283L3.58445 7.83871C3.24617 7.61079 2.83867 7.47776 2.40009 7.47776C2.17476 7.47776 1.99209 7.66043 1.99209 7.88576C1.99209 8.11109 2.17476 8.29376 2.40009 8.29376C2.61208 8.29376 2.81226 8.34425 2.98929 8.43387L1.51159 9.91157C1.35226 10.0709 1.35226 10.3292 1.51159 10.4886C1.67092 10.6479 1.92926 10.6479 2.08859 10.4886Z"
        fill="#FF3B30"
 />
    <path
        d="M6.67525 7.27584L6.0682 7.8829C6.31264 8.4042 6.44924 8.98614 6.44924 9.59998C6.44924 9.82531 6.6319 10.008 6.85724 10.008C7.08257 10.008 7.26524 9.82531 7.26524 9.59998C7.26524 8.75823 7.05147 7.96641 6.67525 7.27584Z"
        fill="#FF3B30"
 />
    <path
        d="M8.66656 5.28454L8.07868 5.87242C8.78256 6.94252 9.19209 8.22347 9.19209 9.60007C9.19209 9.8254 9.37476 10.0081 9.60009 10.0081C9.82543 10.0081 10.0081 9.8254 10.0081 9.60007C10.0081 7.99756 9.51264 6.51078 8.66656 5.28454Z"
        fill="#FF3B30"
 />
</svg>