<svg xmlns="http://www.w3.org/2000/svg" width="20" height="20" viewBox="0 0 20 20" fill="none">
    <path fill-rule="evenodd" clip-rule="evenodd" d="M16.64 10C16.64 13.6672 13.6672 16.64 10 16.64C6.33283 16.64 3.36 13.6672 3.36 10C3.36 6.33283 6.33283 3.36 10 3.36C13.6672 3.36 16.64 6.33283 16.64 10ZM18 10C18 14.4183 14.4183 18 10 18C5.58172 18 2 14.4183 2 10C2 5.58172 5.58172 2 10 2C14.4183 2 18 5.58172 18 10ZM13.6377 7.21512C13.7192 6.97077 13.6556 6.70138 13.4735 6.51925C13.2913 6.33713 13.022 6.27353 12.7776 6.35498L8.27761 7.85498C8.07455 7.92267 7.91522 8.082 7.84754 8.28505L6.34754 12.7851C6.26609 13.0294 6.32968 13.2988 6.51181 13.4809C6.69393 13.663 6.96333 13.7266 7.20768 13.6452L11.7077 12.1452C11.9107 12.0775 12.0701 11.9182 12.1377 11.7151L13.6377 7.21512ZM8.06781 11.9249L9.03023 9.03767L11.9175 8.07526L10.9551 10.9625L8.06781 11.9249Z" fill="black" fill-opacity="0.95" style="fill:black;fill-opacity:0.95;"/>
</svg>