<svg xmlns="http://www.w3.org/2000/svg" width="24" height="24" viewBox="0 0 24 24" fill="none">
    <path fill-rule="evenodd" clip-rule="evenodd" d="M4.25588 6.41087C3.80558 7.35761 3.48304 8.58445 3.32535 9.98683C3.76082 9.74056 4.26399 9.6 4.79998 9.6C6.45683 9.6 7.79998 10.9431 7.79998 12.6C7.79998 14.2569 6.45683 15.6 4.79998 15.6C4.34583 15.6 3.91526 15.4991 3.52945 15.3185C3.70562 16.1818 3.95158 16.9495 4.25588 17.5893C4.91957 18.9847 5.75171 19.5841 6.59998 19.5841C7.44826 19.5841 8.2804 18.9847 8.94409 17.5893C9.59925 16.2118 9.98398 14.2414 9.98398 12.0001C9.98398 9.75875 9.59925 7.78834 8.94409 6.41087C8.2804 5.01547 7.44826 4.41608 6.59998 4.41608C5.75171 4.41608 4.91957 5.01547 4.25588 6.41087ZM2.78209 5.7099C3.5644 4.06509 4.83226 2.78408 6.59998 2.78408C8.36771 2.78408 9.63557 4.06509 10.4179 5.7099C11.2087 7.37263 11.616 9.60222 11.616 12.0001C11.616 14.3979 11.2087 16.6275 10.4179 18.2903C9.63557 19.9351 8.36771 21.2161 6.59998 21.2161C4.83226 21.2161 3.5644 19.9351 2.78209 18.2903C1.99125 16.6275 1.58398 14.3979 1.58398 12.0001C1.58398 9.60222 1.99125 7.37263 2.78209 5.7099ZM5.09998 12C5.59703 12 5.99998 11.5971 5.99998 11.1C5.99998 10.6029 5.59703 10.2 5.09998 10.2C4.60292 10.2 4.19998 10.6029 4.19998 11.1C4.19998 11.5971 4.60292 12 5.09998 12ZM15.0559 6.41087C14.6056 7.35761 14.283 8.58445 14.1253 9.98684C14.5608 9.74056 15.064 9.6 15.6 9.6C17.2568 9.6 18.6 10.9431 18.6 12.6C18.6 14.2569 17.2568 15.6 15.6 15.6C15.1458 15.6 14.7153 15.4991 14.3295 15.3185C14.5056 16.1818 14.7516 16.9495 15.0559 17.5893C15.7196 18.9847 16.5517 19.5841 17.4 19.5841C18.2483 19.5841 19.0804 18.9847 19.7441 17.5893C20.3993 16.2118 20.784 14.2414 20.784 12.0001C20.784 9.75875 20.3993 7.78834 19.7441 6.41087C19.0804 5.01547 18.2483 4.41608 17.4 4.41608C16.5517 4.41608 15.7196 5.01547 15.0559 6.41087ZM13.5821 5.7099C14.3644 4.06509 15.6323 2.78408 17.4 2.78408C19.1677 2.78408 20.4356 4.06509 21.2179 5.7099C22.0087 7.37263 22.416 9.60222 22.416 12.0001C22.416 14.3979 22.0087 16.6275 21.2179 18.2903C20.4356 19.9351 19.1677 21.2161 17.4 21.2161C15.6323 21.2161 14.3644 19.9351 13.5821 18.2903C12.7913 16.6275 12.384 14.3979 12.384 12.0001C12.384 9.60222 12.7913 7.37263 13.5821 5.7099ZM15.9 12C16.397 12 16.8 11.5971 16.8 11.1C16.8 10.6029 16.397 10.2 15.9 10.2C15.4029 10.2 15 10.6029 15 11.1C15 11.5971 15.4029 12 15.9 12Z" fill="black" fill-opacity="0.5" style="fill:black;fill-opacity:0.5;"/>
</svg>