<svg xmlns="http://www.w3.org/2000/svg" width="20" height="20" viewBox="0 0 20 20" fill="none">
    <path fill-rule="evenodd" clip-rule="evenodd" d="M3.54659 5.34239C3.17134 6.13135 2.90255 7.15371 2.77114 8.32237C3.13404 8.11714 3.55334 8 4 8C5.38071 8 6.5 9.11929 6.5 10.5C6.5 11.8807 5.38071 13 4 13C3.62155 13 3.26273 12.9159 2.94123 12.7654C3.08804 13.4848 3.293 14.1246 3.54659 14.6577C4.09966 15.8206 4.79311 16.3201 5.50001 16.3201C6.20691 16.3201 6.90035 15.8206 7.45343 14.6577C7.9994 13.5098 8.32001 11.8678 8.32001 10.0001C8.32001 8.13229 7.9994 6.49029 7.45343 5.34239C6.90035 4.17956 6.20691 3.68007 5.50001 3.68007C4.79311 3.68007 4.09966 4.17956 3.54659 5.34239ZM2.31843 4.75825C2.97035 3.38758 4.02691 2.32007 5.50001 2.32007C6.97311 2.32007 8.02966 3.38758 8.68159 4.75825C9.34062 6.14386 9.68001 8.00185 9.68001 10.0001C9.68001 11.9983 9.34062 13.8563 8.68159 15.2419C8.02966 16.6126 6.97311 17.6801 5.50001 17.6801C4.02691 17.6801 2.97035 16.6126 2.31843 15.2419C1.6594 13.8563 1.32001 11.9983 1.32001 10.0001C1.32001 8.00185 1.6594 6.14386 2.31843 4.75825ZM4.25 10C4.66421 10 5 9.66421 5 9.25C5 8.83579 4.66421 8.5 4.25 8.5C3.83579 8.5 3.5 8.83579 3.5 9.25C3.5 9.66421 3.83579 10 4.25 10ZM12.5466 5.34239C12.1713 6.13135 11.9025 7.15371 11.7711 8.32237C12.134 8.11714 12.5533 8 13 8C14.3807 8 15.5 9.11929 15.5 10.5C15.5 11.8807 14.3807 13 13 13C12.6215 13 12.2627 12.9159 11.9412 12.7654C12.088 13.4848 12.293 14.1246 12.5466 14.6577C13.0997 15.8206 13.7931 16.3201 14.5 16.3201C15.2069 16.3201 15.9004 15.8206 16.4534 14.6577C16.9994 13.5098 17.32 11.8678 17.32 10.0001C17.32 8.13229 16.9994 6.49029 16.4534 5.34239C15.9004 4.17956 15.2069 3.68007 14.5 3.68007C13.7931 3.68007 13.0997 4.17956 12.5466 5.34239ZM11.3184 4.75825C11.9704 3.38758 13.0269 2.32007 14.5 2.32007C15.9731 2.32007 17.0297 3.38758 17.6816 4.75825C18.3406 6.14386 18.68 8.00185 18.68 10.0001C18.68 11.9983 18.3406 13.8563 17.6816 15.2419C17.0297 16.6126 15.9731 17.6801 14.5 17.6801C13.0269 17.6801 11.9704 16.6126 11.3184 15.2419C10.6594 13.8563 10.32 11.9983 10.32 10.0001C10.32 8.00185 10.6594 6.14386 11.3184 4.75825ZM13.25 10C13.6642 10 14 9.66421 14 9.25C14 8.83579 13.6642 8.5 13.25 8.5C12.8358 8.5 12.5 8.83579 12.5 9.25C12.5 9.66421 12.8358 10 13.25 10Z" fill="black" style="fill:black;fill-opacity:1;"/>
</svg>