<svg xmlns="http://www.w3.org/2000/svg" width="20" height="20" viewBox="0 0 20 20" fill="none">
    <path fill-rule="evenodd" clip-rule="evenodd" d="M4.86 4.50007C4.86 4.04719 5.22713 3.68007 5.68 3.68007H10.14V6.5C10.14 7.70398 11.116 8.68 12.32 8.68H15.14V15.5001C15.14 15.9529 14.7729 16.3201 14.32 16.3201H5.68C5.22713 16.3201 4.86 15.9529 4.86 15.5001V4.50007ZM14.1783 7.32L11.5 4.64173V6.5C11.5 6.95287 11.8671 7.32 12.32 7.32H14.1783ZM5.68 2.32007C4.47602 2.32007 3.5 3.29609 3.5 4.50007V15.5001C3.5 16.704 4.47602 17.6801 5.68 17.6801H14.32C15.524 17.6801 16.5 16.704 16.5 15.5001V8.62139C16.5 8.04322 16.2703 7.48872 15.8615 7.0799L11.7402 2.95858C11.3313 2.54975 10.7769 2.32007 10.1987 2.32007H5.68Z" fill="black" style="fill:black;fill-opacity:1;"/>
</svg>