<svg xmlns="http://www.w3.org/2000/svg" width="114" height="92" viewBox="0 0 114 92" fill="none">
    <g filter="url(#filter0_d_9860_108172)">
        <path
            d="M20 18.4C20 16.1598 20 15.0397 20.436 14.184C20.8195 13.4314 21.4314 12.8195 22.184 12.436C23.0397 12 24.1598 12 26.4 12H47.4217C47.9619 12 48.232 12 48.4931 12.0466C48.725 12.0879 48.9511 12.1563 49.1669 12.2506C49.41 12.3567 49.6348 12.5065 50.0842 12.8062L54.0408 15.4438C54.4902 15.7435 54.715 15.8933 54.9581 15.9994C55.1739 16.0937 55.4 16.1621 55.6319 16.2034C55.893 16.25 56.1631 16.25 56.7033 16.25H87.6C89.8402 16.25 90.9603 16.25 91.816 16.686C92.5686 17.0695 93.1805 17.6814 93.564 18.434C94 19.2897 94 20.4098 94 22.65V59.2C94 63.6804 94 65.9206 93.1281 67.6319C92.3611 69.1372 91.1372 70.3611 89.6319 71.1281C87.9206 72 85.6804 72 81.2 72H32.8C28.3196 72 26.0794 72 24.3681 71.1281C22.8628 70.3611 21.6389 69.1372 20.8719 67.6319C20 65.9206 20 63.6804 20 59.2V18.4Z"
            fill="#5AA1E3"
            />
        <path
            d="M16.6047 32.9544C16.3949 30.5413 16.29 29.3348 16.6953 28.4036C17.0513 27.5856 17.6707 26.91 18.4548 26.4844C19.3474 26 20.5585 26 22.9807 26H91.0193C93.4415 26 94.6526 26 95.5452 26.4844C96.3293 26.91 96.9487 27.5856 97.3047 28.4036C97.71 29.3348 97.6051 30.5413 97.3953 32.9544L95.0166 60.3089C94.6579 64.4344 94.4785 66.4971 93.56 68.0578C92.7511 69.4321 91.55 70.5334 90.1107 71.2201C88.4763 72 86.4058 72 82.2647 72H31.7353C27.5942 72 25.5237 72 23.8893 71.2201C22.45 70.5334 21.2489 69.4321 20.44 68.0578C19.5215 66.4971 19.3421 64.4344 18.9834 60.3089L16.6047 32.9544Z"
            fill="url(#paint0_linear_9860_108172)" />
        <path
            d="M16.9783 32.9219C16.8728 31.709 16.7961 30.8225 16.7943 30.1224C16.7926 29.4262 16.866 28.9509 17.0391 28.5533C17.3618 27.8119 17.9231 27.1997 18.6337 26.814C19.0149 26.6072 19.482 26.4928 20.1757 26.4342C20.8734 26.3753 21.7631 26.375 22.9807 26.375H91.0193C92.2369 26.375 93.1266 26.3753 93.8243 26.4342C94.518 26.4928 94.9851 26.6072 95.3663 26.814C96.0769 27.1997 96.6382 27.8119 96.9609 28.5533C97.134 28.9509 97.2074 29.4262 97.2057 30.1224C97.2039 30.8225 97.1272 31.709 97.0217 32.9219L94.643 60.2764C94.4632 62.345 94.3298 63.8749 94.1283 65.0835C93.9276 66.2874 93.6633 67.1428 93.2368 67.8675C92.4659 69.1775 91.321 70.2271 89.9492 70.8817C89.1903 71.2438 88.3152 71.433 87.0983 71.5287C85.8769 71.6247 84.3412 71.625 82.2647 71.625H31.7353C29.6588 71.625 28.1231 71.6247 26.9017 71.5287C25.6848 71.433 24.8097 71.2438 24.0508 70.8817C22.679 70.2271 21.5341 69.1775 20.7632 67.8675C20.3367 67.1428 20.0724 66.2874 19.8717 65.0835C19.6702 63.8749 19.5369 62.345 19.357 60.2764L16.9783 32.9219Z"
            stroke="url(#paint1_linear_9860_108172)" stroke-opacity="0.7"
            stroke-width="0.75" />
        <path
            d="M46.2216 36.25C45.1327 36.25 44.25 37.1327 44.25 38.2216C44.25 39.3104 45.1327 40.1931 46.2216 40.1931C57.0382 40.1931 65.8069 48.9618 65.8069 59.7784C65.8069 60.8673 66.6896 61.75 67.7784 61.75C68.8673 61.75 69.75 60.8673 69.75 59.7784C69.75 46.784 59.216 36.25 46.2216 36.25ZM46.2216 44.4619C45.1327 44.4619 44.25 45.3446 44.25 46.4335C44.25 47.5223 45.1327 48.405 46.2216 48.405C52.5028 48.405 57.5947 53.497 57.5947 59.7782C57.5947 60.8671 58.4774 61.7498 59.5663 61.7498C60.6552 61.7498 61.5379 60.8671 61.5379 59.7782C61.5379 51.3193 54.6805 44.4619 46.2216 44.4619ZM46.2216 52.6741C45.1327 52.6741 44.25 53.5568 44.25 54.6457C44.25 55.7346 45.1327 56.6173 46.2216 56.6173C47.9673 56.6173 49.3826 58.0325 49.3826 59.7783C49.3826 60.8672 50.2653 61.7499 51.3541 61.7499C52.443 61.7499 53.3257 60.8672 53.3257 59.7783C53.3257 55.8548 50.1451 52.6741 46.2216 52.6741Z"
            fill="url(#paint2_linear_9860_108172)" stroke="url(#paint3_linear_9860_108172)"
            stroke-width="0.5" stroke-linecap="round" />
    </g>
    <defs>
        <filter id="filter0_d_9860_108172" x="0.419434" y="0" width="113.161" height="92"
            filterUnits="userSpaceOnUse" color-interpolation-filters="sRGB">
            <feFlood flood-opacity="0" result="BackgroundImageFix" />
            <feColorMatrix in="SourceAlpha" type="matrix"
                values="0 0 0 0 0 0 0 0 0 0 0 0 0 0 0 0 0 0 127 0" result="hardAlpha" />
            <feOffset dy="4" />
            <feGaussianBlur stdDeviation="8" />
            <feComposite in2="hardAlpha" operator="out" />
            <feColorMatrix type="matrix" values="0 0 0 0 0 0 0 0 0 0 0 0 0 0 0 0 0 0 0.12 0" />
            <feBlend mode="normal" in2="BackgroundImageFix"
                result="effect1_dropShadow_9860_108172" />
            <feBlend mode="normal" in="SourceGraphic" in2="effect1_dropShadow_9860_108172"
                result="shape" />
        </filter>
        <linearGradient id="paint0_linear_9860_108172" x1="57" y1="28" x2="57" y2="72"
            gradientUnits="userSpaceOnUse">
            <stop stop-color="#8FCBFF"
                />
            <stop offset="1" stop-color="#71BDFF"
                 />
        </linearGradient>
        <linearGradient id="paint1_linear_9860_108172" x1="57" y1="28" x2="57" y2="31.5"
            gradientUnits="userSpaceOnUse">
            <stop stop-color="white" stop-opacity="0.7"
                />
            <stop offset="1" stop-color="white" stop-opacity="0"
                />
        </linearGradient>
        <linearGradient id="paint2_linear_9860_108172" x1="57" y1="36.5" x2="57" y2="61.5"
            gradientUnits="userSpaceOnUse">
            <stop stop-color="#66AAE6"
                />
            <stop offset="1" stop-color="#5797D0"
                />
        </linearGradient>
        <linearGradient id="paint3_linear_9860_108172" x1="57" y1="37.5" x2="57" y2="61.5"
            gradientUnits="userSpaceOnUse">
            <stop stop-color="white" stop-opacity="0" />
            <stop offset="1" stop-color="white" stop-opacity="0.2"
                />
        </linearGradient>
    </defs>
</svg>