<svg xmlns="http://www.w3.org/2000/svg" width="24" height="20" viewBox="0 0 24 20" fill="none">
    <path
        d="M0 4.8C0 3.11984 0 2.27976 0.32698 1.63803C0.614601 1.07354 1.07354 0.614601 1.63803 0.32698C2.27976 0 3.11984 0 4.8 0H8.0389C8.48906 0 8.71414 0 8.93178 0.0387958C9.12496 0.0732312 9.31342 0.130291 9.49326 0.208797C9.69587 0.297244 9.88314 0.422096 10.2577 0.671799L10.4923 0.828201C10.8669 1.0779 11.0541 1.20276 11.2567 1.2912C11.4366 1.36971 11.625 1.42677 11.8182 1.4612C12.0359 1.5 12.2609 1.5 12.7111 1.5H19.2C20.8802 1.5 21.7202 1.5 22.362 1.82698C22.9265 2.1146 23.3854 2.57354 23.673 3.13803C24 3.77976 24 4.61984 24 6.3V14.7C24 16.3802 24 17.2202 23.673 17.862C23.3854 18.4265 22.9265 18.8854 22.362 19.173C21.7202 19.5 20.8802 19.5 19.2 19.5H4.8C3.11984 19.5 2.27976 19.5 1.63803 19.173C1.07354 18.8854 0.614601 18.4265 0.32698 17.862C0 17.2202 0 16.3802 0 14.7V4.8Z"
        fill="#4C98DD"
 />
    <path
        d="M0.375 8.8C0.375 7.95373 0.375292 7.34159 0.414627 6.86014C0.453605 6.38308 0.529043 6.06747 0.661108 5.80827C0.912775 5.31435 1.31435 4.91278 1.80827 4.66111C2.06747 4.52904 2.38308 4.4536 2.86014 4.41463C3.34159 4.37529 3.95373 4.375 4.8 4.375H19.2C20.0463 4.375 20.6584 4.37529 21.1399 4.41463C21.6169 4.4536 21.9325 4.52904 22.1917 4.66111C22.6857 4.91278 23.0872 5.31435 23.3389 5.80828C23.471 6.06747 23.5464 6.38308 23.5854 6.86014C23.6247 7.34159 23.625 7.95373 23.625 8.8V14.7C23.625 15.5463 23.6247 16.1584 23.5854 16.6399C23.5464 17.1169 23.471 17.4325 23.3389 17.6917C23.0872 18.1857 22.6856 18.5872 22.1917 18.8389C21.9325 18.971 21.6169 19.0464 21.1399 19.0854C20.6584 19.1247 20.0463 19.125 19.2 19.125H4.8C3.95373 19.125 3.34159 19.1247 2.86014 19.0854C2.38308 19.0464 2.06747 18.971 1.80827 18.8389C1.31435 18.5872 0.912776 18.1856 0.661108 17.6917C0.529043 17.4325 0.453605 17.1169 0.414627 16.6399C0.375292 16.1584 0.375 15.5463 0.375 14.7V8.8Z"
        fill="#8FCBFF" stroke="url(#paint0_linear_13158_23925)"
        stroke-width="0.75" />
    <path
        d="M7.66637 16.3302C7.62108 16.2849 7.58837 16.2245 7.56823 16.149C7.5481 16.0785 7.53678 15.9691 7.53426 15.8206L7.50029 14.005C7.49777 13.9421 7.51161 13.888 7.54181 13.8427C7.57453 13.7949 7.6173 13.7647 7.67015 13.7521C7.97715 13.7068 8.30681 13.737 8.65911 13.8427C9.01141 13.9484 9.32219 14.1359 9.59144 14.4051C9.85819 14.6719 10.0444 14.9763 10.1501 15.3186C10.2583 15.6633 10.2948 15.9842 10.2596 16.2811C10.252 16.3491 10.2218 16.4019 10.169 16.4396C10.1186 16.4799 10.0608 16.5 9.99533 16.5L8.17973 16.4661C8.02874 16.4661 7.91676 16.4547 7.84378 16.4321C7.77332 16.412 7.71419 16.378 7.66637 16.3302ZM7.51539 12.0044L7.50784 10.8267C7.50784 10.7563 7.52797 10.6984 7.56823 10.6531C7.6085 10.6078 7.66386 10.5827 7.73432 10.5776C8.16714 10.5374 8.62136 10.5713 9.09697 10.6795C9.57509 10.7852 10.0469 10.9652 10.5125 11.2193C10.9805 11.476 11.4108 11.8006 11.8034 12.1932C12.1985 12.5883 12.5231 13.0186 12.7772 13.4841C13.0314 13.9496 13.2126 14.4227 13.3208 14.9034C13.4315 15.3815 13.4655 15.8357 13.4227 16.266C13.4152 16.334 13.3875 16.3893 13.3397 16.4321C13.2944 16.4724 13.2378 16.4912 13.1698 16.4887L11.9959 16.4774C11.9078 16.4749 11.8386 16.4485 11.7883 16.3981C11.738 16.3478 11.7153 16.2824 11.7203 16.2018C11.7354 15.7137 11.6511 15.2141 11.4674 14.7033C11.2837 14.1925 11.0019 13.7496 10.6219 13.3746C10.252 12.9997 9.81289 12.7191 9.30457 12.5329C8.80129 12.3467 8.30806 12.2636 7.82491 12.2838C7.73683 12.2863 7.6626 12.2624 7.60221 12.212C7.54684 12.1617 7.51791 12.0925 7.51539 12.0044ZM7.50784 8.85638L7.51916 7.78816C7.5242 7.7177 7.54684 7.65982 7.58711 7.61452C7.62989 7.56671 7.68525 7.53903 7.75319 7.53148C8.42759 7.46102 9.13723 7.50883 9.88209 7.67492C10.632 7.841 11.3643 8.11781 12.0789 8.50534C12.7936 8.89287 13.4441 9.3798 14.0304 9.96613C14.6168 10.5525 15.1024 11.2042 15.4874 11.9214C15.875 12.6361 16.153 13.3671 16.3216 14.1145C16.4902 14.8618 16.5393 15.5727 16.4688 16.2471C16.4613 16.3151 16.4336 16.3704 16.3858 16.4132C16.343 16.456 16.2839 16.4774 16.2084 16.4774L15.1515 16.4774C15.0685 16.4799 14.9993 16.456 14.9439 16.4057C14.891 16.3528 14.8646 16.2887 14.8646 16.2132C14.8948 15.2519 14.7375 14.3422 14.3928 13.4841C14.0506 12.6235 13.5334 11.8472 12.8414 11.1551C12.1569 10.4707 11.3857 9.95606 10.5276 9.61131C9.66945 9.26656 8.76102 9.10803 7.80226 9.13571C7.71922 9.13822 7.64876 9.11306 7.59088 9.06021C7.53804 9.00737 7.51036 8.93943 7.50784 8.85638Z"
        fill="#5EA2E0"
/>
    <defs>
        <linearGradient id="paint0_linear_13158_23925" x1="12" y1="3.5" x2="12" y2="6"
            gradientUnits="userSpaceOnUse">
            <stop stop-color="white" stop-opacity="0.5"
            />
            <stop offset="1" stop-color="white" stop-opacity="0"
          />
        </linearGradient>
    </defs>
</svg>