<svg xmlns="http://www.w3.org/2000/svg" width="24" height="24" viewBox="0 0 24 24" fill="none">
    <path fill-rule="evenodd" clip-rule="evenodd" d="M19.968 11.0161V16.2C19.968 17.067 19.9668 17.6191 19.9326 18.0375C19.8999 18.4368 19.8456 18.5686 19.8189 18.6211C19.6878 18.8785 19.4785 19.0877 19.2211 19.2189C19.1686 19.2456 19.0369 19.2999 18.6375 19.3325C18.2191 19.3667 17.667 19.368 16.8 19.368H7.20002C6.33302 19.368 5.78091 19.3667 5.36253 19.3325C4.9632 19.2999 4.83142 19.2456 4.77897 19.2189C4.52156 19.0877 4.31228 18.8785 4.18113 18.6211C4.1544 18.5686 4.1001 18.4368 4.06748 18.0375C4.03329 17.6191 4.03202 17.067 4.03202 16.2V11.0161H19.968ZM19.9661 9.38408C19.9629 8.95608 19.9546 8.63163 19.9326 8.3625C19.8999 7.96317 19.8456 7.8314 19.8189 7.77894C19.6878 7.52154 19.4785 7.31226 19.2211 7.1811C19.1686 7.15438 19.0369 7.10008 18.6375 7.06745C18.2191 7.03327 17.667 7.032 16.8 7.032H13.9953L13.9332 7.03218C13.7121 7.03308 13.3722 7.03448 13.036 6.95375C12.747 6.88438 12.4708 6.76995 12.2174 6.61468C11.9225 6.43399 11.6832 6.19271 11.5275 6.03572L11.4837 5.99164L10.7707 5.27871C10.3007 4.8087 10.2464 4.76919 10.2072 4.74517C10.1385 4.70306 10.0636 4.67203 9.9852 4.65322C9.9405 4.64249 9.87414 4.632 9.20944 4.632H7.20002C6.33302 4.632 5.78091 4.63327 5.36253 4.66745C4.9632 4.70008 4.83142 4.75438 4.77897 4.7811C4.52156 4.91226 4.31228 5.12154 4.18113 5.37894C4.1544 5.4314 4.1001 5.56317 4.06748 5.9625C4.03329 6.38089 4.03202 6.93299 4.03202 7.8V9.38408H19.9661ZM2.40002 7.8C2.40002 6.11984 2.40002 5.27976 2.727 4.63803C3.01463 4.07354 3.47357 3.6146 4.03805 3.32698C4.67979 3 5.51987 3 7.20002 3H9.20944C9.79646 3 10.09 3 10.3662 3.06631C10.6111 3.1251 10.8452 3.22207 11.0599 3.35366C11.3021 3.50208 11.5096 3.70962 11.9247 4.12471L12.6377 4.83765C12.8452 5.04519 12.949 5.14896 13.0701 5.22317C13.1774 5.28896 13.2945 5.33745 13.4169 5.36684C13.5551 5.4 13.7018 5.4 13.9953 5.4H16.8C18.4802 5.4 19.3203 5.4 19.962 5.72698C20.5265 6.0146 20.9854 6.47354 21.273 7.03803C21.6 7.67976 21.6 8.51984 21.6 10.2V16.2C21.6 17.8802 21.6 18.7202 21.273 19.362C20.9854 19.9265 20.5265 20.3854 19.962 20.673C19.3203 21 18.4802 21 16.8 21H7.20002C5.51987 21 4.67979 21 4.03805 20.673C3.47357 20.3854 3.01463 19.9265 2.727 19.362C2.40002 18.7202 2.40002 17.8802 2.40002 16.2V7.8Z" fill="black" fill-opacity="0.5" style="fill:black;fill-opacity:0.5;"/>
</svg>