<svg xmlns="http://www.w3.org/2000/svg" width="20" height="20" viewBox="0 0 20 20" fill="none">
    <path fill-rule="evenodd" clip-rule="evenodd" d="M16.64 9.18007V13.5C16.64 14.2225 16.6389 14.6826 16.6105 15.0312C16.5833 15.364 16.538 15.4738 16.5157 15.5175C16.4065 15.7321 16.2321 15.9065 16.0175 16.0157C15.9738 16.038 15.864 16.0833 15.5312 16.1105C15.1826 16.1389 14.7225 16.14 14 16.14H6C5.27749 16.14 4.81741 16.1389 4.46875 16.1105C4.13598 16.0833 4.02616 16.038 3.98245 16.0157C3.76795 15.9065 3.59355 15.7321 3.48425 15.5175C3.46198 15.4738 3.41673 15.364 3.38954 15.0312C3.36106 14.6826 3.36 14.2225 3.36 13.5V9.18007H16.64ZM16.6384 7.82007C16.6358 7.4634 16.6288 7.19302 16.6105 6.96875C16.5833 6.63598 16.538 6.52616 16.5157 6.48245C16.4065 6.26795 16.2321 6.09355 16.0175 5.98425C15.9738 5.96198 15.864 5.91673 15.5312 5.88954C15.1826 5.86106 14.7225 5.86 14 5.86H11.6627L11.6109 5.86015C11.4267 5.8609 11.1435 5.86207 10.8633 5.79479C10.6225 5.73698 10.3923 5.64163 10.1811 5.51223C9.9354 5.36165 9.73598 5.16059 9.60623 5.02977L9.56971 4.99304L8.97559 4.39892C8.58392 4.00725 8.53864 3.97433 8.50597 3.95431C8.44871 3.91922 8.38628 3.89336 8.32098 3.87768C8.28373 3.86874 8.22843 3.86 7.67452 3.86H6C5.27749 3.86 4.81741 3.86106 4.46875 3.88954C4.13598 3.91673 4.02616 3.96198 3.98245 3.98425C3.76795 4.09355 3.59355 4.26795 3.48425 4.48245C3.46198 4.52616 3.41673 4.63598 3.38954 4.96875C3.36106 5.31741 3.36 5.77749 3.36 6.5V7.82007H16.6384ZM2 6.5C2 5.09987 2 4.3998 2.27248 3.86502C2.51217 3.39462 2.89462 3.01217 3.36502 2.77248C3.8998 2.5 4.59987 2.5 6 2.5H7.67452C8.1637 2.5 8.40829 2.5 8.63846 2.55526C8.84254 2.60425 9.03763 2.68506 9.21657 2.79472C9.4184 2.9184 9.59135 3.09135 9.93726 3.43726L10.5314 4.03137C10.7043 4.20433 10.7908 4.2908 10.8917 4.35264C10.9812 4.40747 11.0787 4.44787 11.1808 4.47237C11.2959 4.5 11.4182 4.5 11.6627 4.5H14C15.4001 4.5 16.1002 4.5 16.635 4.77248C17.1054 5.01217 17.4878 5.39462 17.7275 5.86502C18 6.3998 18 7.09987 18 8.5V13.5C18 14.9001 18 15.6002 17.7275 16.135C17.4878 16.6054 17.1054 16.9878 16.635 17.2275C16.1002 17.5 15.4001 17.5 14 17.5H6C4.59987 17.5 3.8998 17.5 3.36502 17.2275C2.89462 16.9878 2.51217 16.6054 2.27248 16.135C2 15.6002 2 14.9001 2 13.5V6.5Z" fill="black" fill-opacity="0.95" style="fill:black;fill-opacity:0.95;"/>
</svg>