<svg xmlns="http://www.w3.org/2000/svg" width="20" height="20" viewBox="0 0 20 20" fill="none">
    <path d="M9.99622 17.3524C9.91063 17.3524 9.82252 17.3499 9.7319 17.3449C9.64631 17.3398 9.56071 17.3348 9.47512 17.3298L9.0673 18.1001C9.01192 18.2058 8.9364 18.2813 8.84074 18.3267C8.74508 18.377 8.63935 18.3921 8.52354 18.372C8.40271 18.3468 8.30453 18.2965 8.22901 18.2209C8.15852 18.1504 8.11573 18.0523 8.10062 17.9264L7.97979 17.073C7.62735 16.9723 7.30261 16.854 7.00555 16.718L6.35606 17.292C6.27047 17.3726 6.17229 17.4204 6.06153 17.4355C5.9558 17.4506 5.85007 17.4254 5.74434 17.36C5.64364 17.3046 5.57315 17.2266 5.53287 17.1259C5.4926 17.0252 5.48253 16.9169 5.50267 16.8011L5.68392 15.9628C5.54798 15.8621 5.41204 15.7539 5.2761 15.6381C5.14016 15.5273 5.00925 15.409 4.88338 15.2831L4.08285 15.6079C3.84622 15.7035 3.64734 15.6557 3.48623 15.4644C3.41071 15.3737 3.36791 15.2756 3.35784 15.1698C3.35281 15.0641 3.38301 14.9584 3.44847 14.8526L3.90915 14.1276C3.80846 13.9816 3.71531 13.8331 3.62972 13.6821C3.54413 13.531 3.46357 13.3775 3.38805 13.2214L2.5271 13.244C2.40626 13.2491 2.30053 13.2239 2.20991 13.1685C2.11928 13.1131 2.05383 13.0275 2.01355 12.9117C1.97831 12.801 1.97327 12.6952 1.99845 12.5945C2.02865 12.4888 2.09159 12.3982 2.18725 12.3227L2.86695 11.794C2.82667 11.6228 2.79143 11.4542 2.76122 11.288C2.73101 11.1168 2.70583 10.9406 2.6857 10.7594L1.86251 10.495C1.74671 10.4598 1.65608 10.3994 1.59063 10.3138C1.53021 10.2232 1.5 10.1199 1.5 10.0041C1.5 9.8833 1.53021 9.78009 1.59063 9.6945C1.65608 9.6089 1.74671 9.54849 1.86251 9.51324L2.6857 9.24892C2.70583 9.06766 2.73101 8.89396 2.76122 8.72781C2.79143 8.55663 2.82667 8.38545 2.86695 8.21427L2.18725 7.68561C1.98082 7.5245 1.92292 7.32814 2.01355 7.09654C2.05383 6.98577 2.11928 6.90018 2.20991 6.83977C2.30053 6.77935 2.40626 6.75166 2.5271 6.75669L3.38805 6.7869C3.46357 6.63082 3.54413 6.47726 3.62972 6.32622C3.71531 6.17517 3.80846 6.02916 3.90915 5.88819L3.44847 5.15563C3.31253 4.93409 3.32511 4.73018 3.48623 4.5439C3.56679 4.45327 3.65741 4.39537 3.75811 4.3702C3.86384 4.33999 3.97209 4.34754 4.08285 4.39285L4.88338 4.7176C5.00925 4.6018 5.13764 4.48851 5.26855 4.37775C5.40449 4.26195 5.54294 4.1537 5.68392 4.053L5.51022 3.20716C5.48001 3.08632 5.48504 2.97807 5.52532 2.88241C5.57063 2.78172 5.64364 2.70368 5.74434 2.6483C5.85007 2.58788 5.9558 2.5627 6.06153 2.57277C6.17229 2.58284 6.27299 2.63067 6.36362 2.71626L6.998 3.29023C7.15408 3.21974 7.31268 3.15429 7.47379 3.09387C7.63994 3.03346 7.8086 2.97807 7.97979 2.92773L8.10817 2.07433C8.12328 1.95349 8.16607 1.85531 8.23656 1.77979C8.30705 1.70427 8.40523 1.65392 8.5311 1.62875C8.64186 1.61364 8.74508 1.62875 8.84074 1.67406C8.9364 1.71937 9.01444 1.79741 9.07486 1.90818L9.47512 2.67095C9.56071 2.66592 9.64631 2.6634 9.7319 2.6634C9.82252 2.65836 9.91063 2.65585 9.99622 2.65585C10.0869 2.65585 10.175 2.65836 10.2606 2.6634C10.3461 2.6634 10.4317 2.66592 10.5173 2.67095L10.9327 1.90818C10.9881 1.79741 11.0611 1.71937 11.1517 1.67406C11.2474 1.62371 11.3556 1.60861 11.4765 1.62875C11.5923 1.65896 11.6854 1.71182 11.7559 1.78734C11.8314 1.85783 11.8767 1.95349 11.8918 2.07433L12.0127 2.92773C12.1838 2.97807 12.35 3.03346 12.5111 3.09387C12.6773 3.14926 12.8384 3.21471 12.9944 3.29023L13.6364 2.71626C13.727 2.63571 13.8252 2.58788 13.9309 2.57277C14.0366 2.55767 14.1449 2.58284 14.2557 2.6483C14.3564 2.70368 14.4268 2.78172 14.4671 2.88241C14.5074 2.97807 14.5175 3.08632 14.4973 3.20716L14.3085 4.04545C14.4495 4.14615 14.5854 4.2544 14.7163 4.3702C14.8523 4.48096 14.9832 4.59676 15.1091 4.7176L15.9171 4.40041C16.1538 4.29971 16.3527 4.34502 16.5138 4.53634C16.5893 4.63201 16.6296 4.7327 16.6346 4.83843C16.6396 4.94416 16.6094 5.04989 16.544 5.15563L16.0908 5.88064C16.1865 6.02161 16.2771 6.16762 16.3627 6.31866C16.4534 6.46971 16.5364 6.62327 16.6119 6.77935L17.4653 6.76424C17.5912 6.75921 17.6969 6.78438 17.7825 6.83977C17.8732 6.89515 17.9411 6.98074 17.9865 7.09654C18.0217 7.20731 18.0242 7.31555 17.994 7.42128C17.9688 7.52198 17.9059 7.61009 17.8052 7.68561L17.1255 8.21427C17.1708 8.38041 17.2061 8.54908 17.2312 8.72026C17.2614 8.89145 17.2866 9.06766 17.3068 9.24892L18.1299 9.51324C18.2457 9.54849 18.3364 9.6089 18.4018 9.6945C18.4673 9.78009 18.5 9.8833 18.5 10.0041C18.5 10.1199 18.4673 10.2232 18.4018 10.3138C18.3364 10.3994 18.2457 10.4598 18.1299 10.495L17.3068 10.7594C17.2866 10.9406 17.2614 11.1168 17.2312 11.288C17.2061 11.4542 17.1708 11.6228 17.1255 11.794L17.8127 12.3227C17.9084 12.3982 17.9713 12.4888 18.0016 12.5945C18.0318 12.6952 18.0267 12.7984 17.9865 12.9042C17.9411 13.02 17.8732 13.1081 17.7825 13.1685C17.6969 13.2289 17.5937 13.2566 17.4729 13.2516L16.6119 13.2214C16.5364 13.3724 16.4534 13.5235 16.3627 13.6745C16.2771 13.8255 16.1865 13.9741 16.0908 14.1201L16.5515 14.8526C16.617 14.9533 16.6447 15.0591 16.6346 15.1698C16.6296 15.2756 16.5868 15.3737 16.5062 15.4644C16.4307 15.555 16.3401 15.6129 16.2343 15.6381C16.1336 15.6683 16.0254 15.6607 15.9096 15.6154L15.1091 15.2831C14.9882 15.404 14.8598 15.5198 14.7239 15.6305C14.588 15.7463 14.4495 15.8546 14.3085 15.9553L14.4898 16.8011C14.515 16.922 14.5074 17.0302 14.4671 17.1259C14.4268 17.2215 14.3538 17.2996 14.2481 17.36C14.1424 17.4204 14.0341 17.4456 13.9234 17.4355C13.8176 17.4254 13.722 17.3776 13.6364 17.292L12.9944 16.718C12.8384 16.7885 12.6798 16.8515 12.5187 16.9068C12.3575 16.9673 12.1889 17.0226 12.0127 17.073L11.8918 17.9339C11.8767 18.0548 11.8314 18.153 11.7559 18.2285C11.6854 18.304 11.5897 18.3518 11.4689 18.372C11.3531 18.3871 11.2474 18.372 11.1517 18.3267C11.0611 18.2813 10.9856 18.2058 10.9251 18.1001L10.5173 17.3298C10.4317 17.3348 10.3461 17.3398 10.2606 17.3449C10.175 17.3499 10.0869 17.3524 9.99622 17.3524ZM9.99622 15.8873C10.8119 15.8873 11.5746 15.7363 12.2845 15.4342C12.9944 15.127 13.6188 14.7041 14.1575 14.1654C14.7012 13.6267 15.1242 13.0024 15.4263 12.2925C15.7283 11.5825 15.8794 10.8198 15.8794 10.0041C15.8794 9.1885 15.7283 8.42573 15.4263 7.71582C15.1242 7.00591 14.7012 6.3816 14.1575 5.84288C13.6188 5.29912 12.9944 4.87619 12.2845 4.57411C11.5746 4.27202 10.8119 4.12097 9.99622 4.12097C9.18562 4.12097 8.42285 4.27202 7.70791 4.57411C6.998 4.87619 6.37369 5.29912 5.83496 5.84288C5.29624 6.3816 4.87332 7.00591 4.56619 7.71582C4.2641 8.42573 4.11306 9.1885 4.11306 10.0041C4.11306 10.8198 4.2641 11.5825 4.56619 12.2925C4.87332 13.0024 5.29624 13.6267 5.83496 14.1654C6.37369 14.7041 6.998 15.127 7.70791 15.4342C8.42285 15.7363 9.18562 15.8873 9.99622 15.8873ZM8.55375 8.79578L6.04642 4.50614L7.14904 3.92462L9.59596 8.13874L8.55375 8.79578ZM11.7861 10.6083V9.3773H16.6799V10.6083H11.7861ZM9.60351 11.8922L7.05842 16.0761L5.9709 15.4644L8.56886 11.2125L9.60351 11.8922ZM10.0038 12.1112C9.61106 12.1112 9.25611 12.0155 8.93892 11.8242C8.62172 11.6329 8.36747 11.3786 8.17614 11.0614C7.98986 10.7443 7.89671 10.3918 7.89671 10.0041C7.89671 9.61142 7.98986 9.25647 8.17614 8.93928C8.36747 8.62208 8.62172 8.37034 8.93892 8.18406C9.25611 7.99273 9.61106 7.89707 10.0038 7.89707C10.3915 7.89707 10.7439 7.99273 11.0611 8.18406C11.3783 8.37034 11.6325 8.62208 11.8239 8.93928C12.0152 9.25647 12.1108 9.61142 12.1108 10.0041C12.1108 10.3918 12.0152 10.7443 11.8239 11.0614C11.6325 11.3786 11.3783 11.6329 11.0611 11.8242C10.7439 12.0155 10.3915 12.1112 10.0038 12.1112ZM10.0038 10.8575C10.2354 10.8575 10.4343 10.7745 10.6004 10.6083C10.7716 10.4422 10.8572 10.2408 10.8572 10.0041C10.8572 9.7675 10.7716 9.56611 10.6004 9.39996C10.4343 9.23381 10.2354 9.15074 10.0038 9.15074C9.76714 9.15074 9.56575 9.23381 9.3996 9.39996C9.23345 9.56611 9.15038 9.7675 9.15038 10.0041C9.15038 10.2408 9.23345 10.4422 9.3996 10.6083C9.56575 10.7745 9.76714 10.8575 10.0038 10.8575Z" fill="black" style="fill:black;fill-opacity:1;"/>
</svg>