<svg xmlns="http://www.w3.org/2000/svg" width="24" height="20" viewBox="0 0 24 20" fill="none">
    <path
        d="M0 4.8C0 3.11984 0 2.27976 0.32698 1.63803C0.614601 1.07354 1.07354 0.614601 1.63803 0.32698C2.27976 0 3.11984 0 4.8 0H8.0389C8.48906 0 8.71414 0 8.93178 0.0387958C9.12496 0.0732312 9.31342 0.130291 9.49326 0.208797C9.69587 0.297244 9.88314 0.422096 10.2577 0.671799L10.4923 0.828201C10.8669 1.0779 11.0541 1.20276 11.2567 1.2912C11.4366 1.36971 11.625 1.42677 11.8182 1.4612C12.0359 1.5 12.2609 1.5 12.7111 1.5H19.2C20.8802 1.5 21.7202 1.5 22.362 1.82698C22.9265 2.1146 23.3854 2.57354 23.673 3.13803C24 3.77976 24 4.61984 24 6.3V14.7C24 16.3802 24 17.2202 23.673 17.862C23.3854 18.4265 22.9265 18.8854 22.362 19.173C21.7202 19.5 20.8802 19.5 19.2 19.5H4.8C3.11984 19.5 2.27976 19.5 1.63803 19.173C1.07354 18.8854 0.614601 18.4265 0.32698 17.862C0 17.2202 0 16.3802 0 14.7V4.8Z"
        fill="#4C98DD"
         />
    <path
        d="M0.375 8.8C0.375 7.95373 0.375292 7.34159 0.414627 6.86014C0.453605 6.38308 0.529043 6.06747 0.661108 5.80827C0.912775 5.31435 1.31435 4.91278 1.80827 4.66111C2.06747 4.52904 2.38308 4.4536 2.86014 4.41463C3.34159 4.37529 3.95373 4.375 4.8 4.375H19.2C20.0463 4.375 20.6584 4.37529 21.1399 4.41463C21.6169 4.4536 21.9325 4.52904 22.1917 4.66111C22.6857 4.91278 23.0872 5.31435 23.3389 5.80828C23.471 6.06747 23.5464 6.38308 23.5854 6.86014C23.6247 7.34159 23.625 7.95373 23.625 8.8V14.7C23.625 15.5463 23.6247 16.1584 23.5854 16.6399C23.5464 17.1169 23.471 17.4325 23.3389 17.6917C23.0872 18.1857 22.6856 18.5872 22.1917 18.8389C21.9325 18.971 21.6169 19.0464 21.1399 19.0854C20.6584 19.1247 20.0463 19.125 19.2 19.125H4.8C3.95373 19.125 3.34159 19.1247 2.86014 19.0854C2.38308 19.0464 2.06747 18.971 1.80827 18.8389C1.31435 18.5872 0.912776 18.1856 0.661108 17.6917C0.529043 17.4325 0.453605 17.1169 0.414627 16.6399C0.375292 16.1584 0.375 15.5463 0.375 14.7V8.8Z"
        fill="#8FCBFF" stroke="url(#paint0_linear_10293_12162)"
        stroke-width="0.75" />
    <defs>
        <linearGradient id="paint0_linear_10293_12162" x1="12" y1="3.5" x2="12" y2="6"
            gradientUnits="userSpaceOnUse">
            <stop stop-color="white" stop-opacity="0.5"
                 />
            <stop offset="1" stop-color="white" stop-opacity="0"
                 />
        </linearGradient>
    </defs>
</svg>