<svg xmlns="http://www.w3.org/2000/svg" width="24" height="20" viewBox="0 0 24 20" fill="none">
    <path d="M0 5.25508C0 3.57492 0 2.73484 0.32698 2.09311C0.614601 1.52862 1.07354 1.06968 1.63803 0.782059C2.27976 0.455078 3.11984 0.455078 4.8 0.455078H8.0389C8.48906 0.455078 8.71414 0.455078 8.93178 0.493874C9.12496 0.528309 9.31342 0.585369 9.49326 0.663875C9.69587 0.752322 9.88314 0.877174 10.2577 1.12688L10.4923 1.28328C10.8669 1.53298 11.0541 1.65783 11.2567 1.74628C11.4366 1.82479 11.625 1.88185 11.8182 1.91628C12.0359 1.95508 12.2609 1.95508 12.7111 1.95508H19.2C20.8802 1.95508 21.7202 1.95508 22.362 2.28206C22.9265 2.56968 23.3854 3.02862 23.673 3.59311C24 4.23484 24 5.07492 24 6.75508V15.1551C24 16.8352 24 17.6753 23.673 18.317C23.3854 18.8815 22.9265 19.3405 22.362 19.6281C21.7202 19.9551 20.8802 19.9551 19.2 19.9551H4.8C3.11984 19.9551 2.27976 19.9551 1.63803 19.6281C1.07354 19.3405 0.614601 18.8815 0.32698 18.317C0 17.6753 0 16.8352 0 15.1551V5.25508Z" fill="#4C98DD" />
    <path d="M4.7998 4.83008H19.2002C20.0463 4.83008 20.6583 4.8308 21.1396 4.87012C21.4975 4.89936 21.7648 4.94855 21.9854 5.02734L22.1914 5.11621C22.6237 5.33645 22.9851 5.67173 23.2373 6.08301L23.3389 6.26367C23.4709 6.52282 23.546 6.83851 23.585 7.31543C23.6243 7.79681 23.625 8.40882 23.625 9.25488V15.1553C23.625 16.0013 23.6243 16.6133 23.585 17.0947C23.5557 17.4526 23.5065 17.7199 23.4277 17.9404L23.3389 18.1465C23.1186 18.5787 22.7834 18.9402 22.3721 19.1924L22.1914 19.2939C21.9323 19.4259 21.6166 19.5011 21.1396 19.54C20.6583 19.5794 20.0463 19.5801 19.2002 19.5801H4.7998C3.95374 19.5801 3.34173 19.5794 2.86035 19.54C2.50245 19.5108 2.23516 19.4616 2.01465 19.3828L1.80859 19.2939C1.37634 19.0737 1.01491 18.7384 0.762695 18.3271L0.661133 18.1465C0.529145 17.8873 0.454005 17.5716 0.415039 17.0947C0.375721 16.6133 0.375 16.0013 0.375 15.1553V9.25488L0.379883 8.14844C0.384871 7.82947 0.395379 7.55613 0.415039 7.31543C0.444281 6.95753 0.493469 6.69024 0.572266 6.46973L0.661133 6.26367C0.881375 5.83142 1.21665 5.46999 1.62793 5.21777L1.80859 5.11621C2.06774 4.98422 2.38343 4.90908 2.86035 4.87012C3.34173 4.8308 3.95374 4.83008 4.7998 4.83008Z" fill="#8FCBFF" stroke="url(#paint0_linear_933_9594)" stroke-width="0.75"/>
    <defs>
        <linearGradient id="paint0_linear_933_9594" x1="12" y1="3.95508" x2="12" y2="6.45508" gradientUnits="userSpaceOnUse">
            <stop stop-color="white" stop-opacity="0.5" style="stop-color:white;stop-opacity:0.5;"/>
            <stop offset="1" stop-color="white" stop-opacity="0" style="stop-color:none;stop-opacity:0;"/>
        </linearGradient>
    </defs>
</svg>