<svg xmlns="http://www.w3.org/2000/svg" width="20" height="20" viewBox="0 0 20 20" fill="none">
    <path d="M16 12.764V4.884C16 4.368 15.582 3.949 15.065 3.949C14.549 3.949 14.131 4.368 14.131 4.884V9.771C14.131 9.966 13.972 10.124 13.778 10.124C13.564 10.124 13.401 9.961 13.401 9.759V2.585C13.401 2.068 12.982 1.65 12.466 1.65C11.95 1.65 11.531 2.068 11.531 2.585V9.759C11.531 9.961 11.368 10.124 11.167 10.124C10.965 10.124 10.802 9.965 10.802 9.764C10.802 8.396 10.802 3.502 10.802 1.433C10.802 0.917 10.383 0.5 9.867 0.5C9.351 0.5 8.932 0.919 8.932 1.435V9.759C8.932 9.961 8.769 10.124 8.567 10.124C8.366 10.124 8.203 9.961 8.203 9.759V2.968C8.203 2.452 7.784 2.033 7.268 2.033C6.752 2.033 6.333 2.452 6.333 2.968V11.77C6.333 11.896 6.231 11.998 6.106 11.998C6.014 11.998 5.932 11.943 5.896 11.859L4.992 9.718C4.598 8.784 3.51 8.361 2.589 8.784C2.502 8.824 2.461 8.923 2.496 9.012C4.011 12.942 4.934 19.5 10.802 19.5C14.502 19.5 16 16.303 16 12.764Z" fill="black"/>
</svg>
