<svg xmlns="http://www.w3.org/2000/svg" width="20" height="20" viewBox="0 0 20 20" fill="none">
    <path fill-rule="evenodd" clip-rule="evenodd" d="M10.2419 12.1774C10.2419 11.1085 11.1085 10.2419 12.1774 10.2419H13.629C15.7669 10.2419 17.5 8.50884 17.5 6.37097C17.5 4.23309 15.7669 2.5 13.629 2.5C11.4912 2.5 9.75806 4.23309 9.75806 6.37097V7.82258C9.75806 8.89152 8.89152 9.75806 7.82258 9.75806H6.37097C4.23309 9.75806 2.5 11.4912 2.5 13.629C2.5 15.7669 4.23309 17.5 6.37097 17.5C8.50884 17.5 10.2419 15.7669 10.2419 13.629V12.1774ZM8 5.5C8 6.88071 6.88071 8 5.5 8C4.11929 8 3 6.88071 3 5.5C3 4.11929 4.11929 3 5.5 3C6.88071 3 8 4.11929 8 5.5ZM14.5 17C15.8807 17 17 15.8807 17 14.5C17 13.1193 15.8807 12 14.5 12C13.1193 12 12 13.1193 12 14.5C12 15.8807 13.1193 17 14.5 17Z" fill="black" style="fill:black;fill-opacity:1;"/>
</svg>