<svg xmlns="http://www.w3.org/2000/svg" width="20" height="20" viewBox="0 0 20 20" fill="none">
  <path fill-rule="evenodd" clip-rule="evenodd" d="M4.29999 6.04011C4.29999 5.66455 4.60443 5.36011 4.97999 5.36011H15.02C15.3955 5.36011 15.7 5.66455 15.7 6.04011C15.7 6.41566 15.3955 6.72011 15.02 6.72011H4.97999C4.60443 6.72011 4.29999 6.41566 4.29999 6.04011ZM4.29999 10.0002C4.29999 9.62462 4.60443 9.32018 4.97999 9.32018H15.02C15.3955 9.32018 15.7 9.62462 15.7 10.0002C15.7 10.3757 15.3955 10.6802 15.02 10.6802H4.97999C4.60443 10.6802 4.29999 10.3757 4.29999 10.0002ZM4.97999 13.28C4.60443 13.28 4.29999 13.5844 4.29999 13.96C4.29999 14.3356 4.60443 14.64 4.97999 14.64H15.02C15.3955 14.64 15.7 14.3356 15.7 13.96C15.7 13.5844 15.3955 13.28 15.02 13.28H4.97999Z" fill="black" style="fill:black;fill-opacity:1;"/>
</svg>