<svg xmlns="http://www.w3.org/2000/svg" width="20" height="20" viewBox="0 0 20 20" fill="none">
    <path d="M16.1377 3.86221C14.4077 2.13219 11.6028 2.13219 9.87276 3.86221L8.45855 5.27643C6.72852 7.00645 6.72852 9.81137 8.45854 11.5414C8.7241 11.807 9.15465 11.807 9.42021 11.5414C9.68577 11.2758 9.68577 10.8453 9.42021 10.5797C8.2213 9.38082 8.2213 7.437 9.42021 6.23809L10.8344 4.82388C12.0333 3.62497 13.9771 3.62497 15.1761 4.82388C16.375 6.02279 16.375 7.96661 15.1761 9.16551L13.7618 10.5797C13.4963 10.8453 13.4963 11.2758 13.7618 11.5414C14.0274 11.807 14.458 11.807 14.7235 11.5414L16.1377 10.1272C17.8677 8.39716 17.8677 5.59224 16.1377 3.86221Z" fill="black" fill-opacity="0.95" style="fill:black;fill-opacity:0.95;"/>
    <path d="M3.86228 16.1377C5.5923 17.8677 8.39722 17.8677 10.1272 16.1377L11.5415 14.7235C13.2715 12.9934 13.2715 10.1885 11.5415 8.45848C11.2759 8.19293 10.8453 8.19293 10.5798 8.45848C10.3142 8.72404 10.3142 9.15459 10.5798 9.42015C11.7787 10.6191 11.7787 12.5629 10.5798 13.7618L9.16558 15.176C7.96667 16.3749 6.02285 16.3749 4.82394 15.176C3.62503 13.9771 3.62503 12.0333 4.82394 10.8344L6.23815 9.42015C6.50371 9.15459 6.50371 8.72404 6.23815 8.45848C5.9726 8.19293 5.54204 8.19293 5.27649 8.45848L3.86228 9.8727C2.13225 11.6027 2.13225 14.4076 3.86228 16.1377Z" fill="black" fill-opacity="0.95" style="fill:black;fill-opacity:0.95;"/>
</svg>