<svg xmlns="http://www.w3.org/2000/svg" width="20" height="20" viewBox="0 0 20 20" fill="none">
    <path
        d="M16.1374 3.86221C14.4074 2.13219 11.6025 2.13219 9.87245 3.86221L8.45824 5.27643C6.72822 7.00645 6.72822 9.81137 8.45824 11.5414C8.7238 11.807 9.15435 11.807 9.4199 11.5414C9.68546 11.2758 9.68546 10.8453 9.4199 10.5797C8.22099 9.38082 8.221 7.437 9.41991 6.23809L10.8341 4.82388C12.033 3.62497 13.9768 3.62497 15.1758 4.82388C16.3747 6.02279 16.3747 7.96661 15.1758 9.16551L13.7615 10.5797C13.496 10.8453 13.496 11.2758 13.7615 11.5414C14.0271 11.807 14.4577 11.807 14.7232 11.5414L16.1374 10.1272C17.8674 8.39716 17.8674 5.59224 16.1374 3.86221Z"
        fill="#007AFF"
         />
    <path
        d="M3.86197 16.1377C5.59199 17.8677 8.39691 17.8677 10.1269 16.1377L11.5412 14.7235C13.2712 12.9934 13.2712 10.1885 11.5412 8.45848C11.2756 8.19293 10.845 8.19293 10.5795 8.45848C10.3139 8.72404 10.3139 9.15459 10.5795 9.42015C11.7784 10.6191 11.7784 12.5629 10.5795 13.7618L9.16527 15.176C7.96636 16.3749 6.02255 16.3749 4.82364 15.176C3.62473 13.9771 3.62473 12.0333 4.82364 10.8344L6.23785 9.42015C6.50341 9.15459 6.50341 8.72404 6.23785 8.45848C5.97229 8.19293 5.54174 8.19293 5.27618 8.45848L3.86197 9.8727C2.13195 11.6027 2.13195 14.4076 3.86197 16.1377Z"
        fill="#007AFF"
        />
</svg>