<svg xmlns="http://www.w3.org/2000/svg" width="20" height="20" viewBox="0 0 20 20" fill="none">
    <path fill-rule="evenodd" clip-rule="evenodd" d="M10 4.18007C6.7857 4.18007 4.18 6.78577 4.18 10.0001C4.18 10.3756 3.87555 10.6801 3.5 10.6801C3.12445 10.6801 2.82 10.3756 2.82 10.0001C2.82 6.03466 6.0346 2.82007 10 2.82007C13.9654 2.82007 17.18 6.03466 17.18 10.0001C17.18 13.9655 13.9654 17.1801 10 17.1801C9.62445 17.1801 9.32 16.8756 9.32 16.5001C9.32 16.1245 9.62445 15.8201 10 15.8201C13.2143 15.8201 15.82 13.2144 15.82 10.0001C15.82 6.78577 13.2143 4.18007 10 4.18007Z" fill="black" fill-opacity="0.95" style="fill:black;fill-opacity:0.95;"/>
</svg>