<svg xmlns="http://www.w3.org/2000/svg" width="20" height="20" viewBox="0 0 20 20" fill="none">
    <path fill-rule="evenodd" clip-rule="evenodd" d="M5.75 10C5.75 10.6904 5.19036 11.25 4.5 11.25C3.80964 11.25 3.25 10.6904 3.25 10C3.25 9.30964 3.80964 8.75 4.5 8.75C5.19036 8.75 5.75 9.30964 5.75 10ZM11.25 10C11.25 10.6904 10.6904 11.25 10 11.25C9.30964 11.25 8.75 10.6904 8.75 10C8.75 9.30964 9.30964 8.75 10 8.75C10.6904 8.75 11.25 9.30964 11.25 10ZM15.5 11.25C16.1904 11.25 16.75 10.6904 16.75 10C16.75 9.30964 16.1904 8.75 15.5 8.75C14.8096 8.75 14.25 9.30964 14.25 10C14.25 10.6904 14.8096 11.25 15.5 11.25Z" fill="black" fill-opacity="0.95" style="fill:black;fill-opacity:0.95;"/>
</svg>