<svg xmlns="http://www.w3.org/2000/svg" width="24" height="24" viewBox="0 0 24 24" fill="none">
    <path fill-rule="evenodd" clip-rule="evenodd" d="M6.90002 12C6.90002 12.8284 6.22845 13.5 5.40002 13.5C4.5716 13.5 3.90002 12.8284 3.90002 12C3.90002 11.1716 4.5716 10.5 5.40002 10.5C6.22845 10.5 6.90002 11.1716 6.90002 12ZM13.5 12C13.5 12.8284 12.8285 13.5 12 13.5C11.1716 13.5 10.5 12.8284 10.5 12C10.5 11.1716 11.1716 10.5 12 10.5C12.8285 10.5 13.5 11.1716 13.5 12ZM18.6 13.5C19.4285 13.5 20.1 12.8284 20.1 12C20.1 11.1716 19.4285 10.5 18.6 10.5C17.7716 10.5 17.1 11.1716 17.1 12C17.1 12.8284 17.7716 13.5 18.6 13.5Z" fill="black" fill-opacity="0.95" style="fill:black;fill-opacity:0.95;"/>
</svg>