<svg width="124" height="67" viewBox="0 0 124 67" fill="none" xmlns="http://www.w3.org/2000/svg">
    <g opacity="0.5">
        <g filter="url(#filter0_d_10373_49233)">
            <rect x="15.8457" y="15.2322" width="32" height="32" rx="8" transform="rotate(-4 15.8457 15.2322)" fill="white" style="fill:white;fill-opacity:1;" shape-rendering="crispEdges"/>
            <rect x="15.8457" y="15.2322" width="32" height="32" rx="8" transform="rotate(-4 15.8457 15.2322)" stroke="black" stroke-opacity="0.16" style="stroke:black;stroke-opacity:0.16;" stroke-width="0.5" shape-rendering="crispEdges"/>
            <path fill-rule="evenodd" clip-rule="evenodd" d="M35.6402 22.3688L29.1592 22.822L29.1591 22.822C28.5547 22.8642 28.0601 22.8988 27.6604 22.9598C27.2466 23.0229 26.8753 23.1218 26.5362 23.3255C26.0058 23.6442 25.5899 24.1226 25.3481 24.6922C25.1936 25.0563 25.1473 25.4378 25.1424 25.8564C25.1377 26.2607 25.1723 26.7553 25.2145 27.3597L25.2145 27.3597L25.6677 33.8408L25.6677 33.8408C25.71 34.4452 25.7446 34.9398 25.8055 35.3396C25.8687 35.7534 25.9675 36.1247 26.1713 36.4638C26.49 36.9942 26.9684 37.4101 27.538 37.6518C27.9021 37.8064 28.2836 37.8526 28.7022 37.8576C29.1065 37.8623 29.6011 37.8277 30.2055 37.7854L36.6866 37.3322C37.291 37.29 37.7856 37.2554 38.1853 37.1944C38.5992 37.1313 38.9705 37.0324 39.3096 36.8287C39.84 36.51 40.2558 36.0316 40.4976 35.462C40.6522 35.0979 40.6984 34.7164 40.7033 34.2978C40.7081 33.8935 40.6735 33.3989 40.6312 32.7944L40.178 26.3134C40.1357 25.709 40.1012 25.2144 40.0402 24.8146C39.9771 24.4008 39.8782 24.0295 39.6745 23.6904C39.3558 23.16 38.8774 22.7441 38.3078 22.5024C37.9436 22.3478 37.5622 22.3015 37.1436 22.2966C36.7393 22.2919 36.2447 22.3265 35.6403 22.3688L35.6402 22.3688ZM27.2366 24.4913C27.3605 24.4168 27.535 24.3546 27.8654 24.3042C28.2037 24.2526 28.6427 24.2214 29.2824 24.1767L35.7067 23.7274C36.3464 23.6827 36.7855 23.6525 37.1277 23.6565C37.4619 23.6604 37.6433 23.6978 37.7764 23.7542C38.0816 23.8838 38.3379 24.1066 38.5087 24.3908C38.5832 24.5147 38.6454 24.6892 38.6958 25.0197C38.7473 25.358 38.7786 25.7969 38.8233 26.4366L39.1999 31.8217L36.5827 29.5467C35.8825 28.938 34.8214 29.0122 34.2126 29.7124L31.1397 33.2475L29.8956 32.166C29.4038 31.7384 28.6584 31.7906 28.2309 32.2824L27.0195 33.6759L26.5732 27.2932C26.5285 26.6535 26.4983 26.2145 26.5023 25.8723C26.5062 25.5381 26.5435 25.3566 26.6 25.2236C26.7296 24.9184 26.9524 24.662 27.2366 24.4913ZM27.2289 35.508C27.2616 35.6178 27.2976 35.6977 27.337 35.7634C27.5078 36.0475 27.7642 36.2704 28.0693 36.3999C28.2024 36.4564 28.3839 36.4937 28.7181 36.4976C29.0603 36.5017 29.4993 36.4715 30.139 36.4267L36.5633 35.9775C37.2031 35.9328 37.642 35.9016 37.9803 35.85C38.3107 35.7996 38.4852 35.7374 38.6091 35.6629C38.8933 35.4922 39.1162 35.2358 39.2457 34.9306C39.3022 34.7975 39.3395 34.6161 39.3434 34.2819C39.3453 34.124 39.3398 33.9454 39.3291 33.7361L35.6905 30.5731C35.5571 30.4571 35.355 30.4713 35.239 30.6047L31.72 34.6529C31.4736 34.9363 31.0441 34.9664 30.7606 34.72L29.1392 33.3105L27.2289 35.508ZM31.2347 27.4384C31.2829 28.1271 30.7636 28.7244 30.0749 28.7726C29.3863 28.8207 28.7889 28.3015 28.7408 27.6128C28.6926 26.9241 29.2119 26.3268 29.9005 26.2787C30.5892 26.2305 31.1865 26.7497 31.2347 27.4384Z" fill="black" fill-opacity="0.25" style="fill:black;fill-opacity:0.25;"/>
        </g>
        <g filter="url(#filter1_d_10373_49233)">
            <rect x="46" y="13" width="32" height="32" rx="8" fill="white" style="fill:white;fill-opacity:1;" shape-rendering="crispEdges"/>
            <rect x="46" y="13" width="32" height="32" rx="8" stroke="black" stroke-opacity="0.16" style="stroke:black;stroke-opacity:0.16;" stroke-width="0.5" shape-rendering="crispEdges"/>
            <path fill-rule="evenodd" clip-rule="evenodd" d="M65.2485 21.5H58.7515C58.1457 21.5 57.6498 21.5 57.2468 21.5329C56.8296 21.567 56.4523 21.6397 56.0998 21.8193C55.5485 22.1002 55.1003 22.5485 54.8194 23.0998C54.6397 23.4523 54.567 23.8296 54.5329 24.2468C54.5 24.6498 54.5 25.1456 54.5 25.7515V32.2484C54.5 32.8543 54.5 33.3501 54.5329 33.7531C54.567 34.1704 54.6397 34.5477 54.8194 34.9002C55.1003 35.4515 55.5485 35.8997 56.0998 36.1806C56.4523 36.3602 56.8296 36.433 57.2468 36.4671C57.6499 36.5 58.1457 36.5 58.7516 36.5H65.2484C65.8543 36.5 66.3502 36.5 66.7532 36.4671C67.1704 36.433 67.5477 36.3602 67.9002 36.1806C68.4515 35.8997 68.8997 35.4515 69.1806 34.9002C69.3603 34.5477 69.433 34.1704 69.4671 33.7531C69.5 33.3501 69.5 32.8543 69.5 32.2484V25.7515C69.5 25.1456 69.5 24.6498 69.4671 24.2468C69.433 23.8296 69.3603 23.4523 69.1806 23.0998C68.8997 22.5485 68.4515 22.1002 67.9002 21.8193C67.5477 21.6397 67.1704 21.567 66.7532 21.5329C66.3502 21.5 65.8543 21.5 65.2485 21.5ZM56.7172 23.0311C56.846 22.9655 57.0244 22.9156 57.3576 22.8884C57.6987 22.8605 58.1387 22.86 58.78 22.86H65.22C65.8613 22.86 66.3013 22.8605 66.6424 22.8884C66.9756 22.9156 67.154 22.9655 67.2828 23.0311C67.5782 23.1816 67.8184 23.4218 67.9689 23.7172C68.0345 23.846 68.0844 24.0244 68.1116 24.3575C68.1395 24.6986 68.14 25.1387 68.14 25.78V32.22C68.14 32.8612 68.1395 33.3013 68.1116 33.6424C68.0844 33.9755 68.0345 34.1539 67.9689 34.2827C67.8184 34.5781 67.5782 34.8183 67.2828 34.9689C67.154 35.0345 66.9756 35.0844 66.6424 35.1116C66.3013 35.1394 65.8613 35.14 65.22 35.14H58.78C58.1387 35.14 57.6987 35.1394 57.3576 35.1116C57.0244 35.0844 56.846 35.0345 56.7172 34.9689C56.4218 34.8183 56.1816 34.5781 56.0311 34.2827C55.9655 34.1539 55.9156 33.9755 55.8884 33.6424C55.8605 33.3013 55.86 32.8612 55.86 32.22V25.78C55.86 25.1387 55.8605 24.6986 55.8884 24.3575C55.9156 24.0244 55.9655 23.846 56.0311 23.7172C56.1816 23.4218 56.4218 23.1816 56.7172 23.0311ZM60.9753 25.6102C60.1887 25.1454 59.195 25.7124 59.195 26.6261V31.3737C59.195 32.2873 60.1887 32.8544 60.9753 32.3895L64.9925 30.0158C65.7654 29.559 65.7654 28.4407 64.9925 27.984L60.9753 25.6102ZM64.0383 28.9999L60.555 31.0582V26.9415L64.0383 28.9999Z" fill="black" fill-opacity="0.25" style="fill:black;fill-opacity:0.25;"/>
        </g>
        <g filter="url(#filter2_d_10373_49233)">
            <rect x="76.2319" y="13" width="32" height="32" rx="8" transform="rotate(4 76.2319 13)" fill="white" style="fill:white;fill-opacity:1;" shape-rendering="crispEdges"/>
            <rect x="76.2319" y="13" width="32" height="32" rx="8" transform="rotate(4 76.2319 13)" stroke="black" stroke-opacity="0.16" style="stroke:black;stroke-opacity:0.16;" stroke-width="0.5" shape-rendering="crispEdges"/>
            <path fill-rule="evenodd" clip-rule="evenodd" d="M87.1861 25.7953C87.3471 23.4924 89.3446 21.7561 91.6475 21.9171C93.9504 22.0781 95.6868 24.0756 95.5257 26.3785L95.2816 29.87C95.1205 32.1729 93.1231 33.9092 90.8202 33.7482C88.5172 33.5872 86.7809 31.5897 86.9419 29.2868L87.1861 25.7953ZM91.5526 23.2738C89.999 23.1651 88.6514 24.3366 88.5428 25.8902L88.2986 29.3817C88.19 30.9353 89.3614 32.2829 90.915 32.3915C92.4687 32.5002 93.8162 31.3288 93.9249 29.7751L94.169 26.2836C94.2777 24.73 93.1063 23.3824 91.5526 23.2738ZM91.3321 36.1757C94.3468 36.0824 96.9141 33.9671 97.6114 31.068C97.6992 30.7028 97.4744 30.3356 97.1092 30.2478C96.7441 30.16 96.3769 30.3848 96.2891 30.7499C95.6926 33.2299 93.3752 34.9895 90.7462 34.8057C88.1173 34.6218 86.0673 32.5569 85.8218 30.018C85.7856 29.6442 85.4533 29.3704 85.0795 29.4066C84.7057 29.4427 84.432 29.7751 84.4681 30.1489C84.7551 33.1169 87.003 35.5689 89.9754 36.0808L89.8405 38.0103C89.8143 38.3849 90.0967 38.7098 90.4714 38.736C90.846 38.7622 91.171 38.4798 91.1972 38.1051L91.3321 36.1757Z" fill="black" fill-opacity="0.25" style="fill:black;fill-opacity:0.25;"/>
        </g>
    </g>
    <defs>
        <filter id="filter0_d_10373_49233" x="-34.1543" y="-37" width="134.154" height="134.154" filterUnits="userSpaceOnUse" color-interpolation-filters="sRGB">
            <feFlood flood-opacity="0" result="BackgroundImageFix"/>
            <feColorMatrix in="SourceAlpha" type="matrix" values="0 0 0 0 0 0 0 0 0 0 0 0 0 0 0 0 0 0 127 0" result="hardAlpha"/>
            <feOffset dy="4"/>
            <feGaussianBlur stdDeviation="8"/>
            <feComposite in2="hardAlpha" operator="out"/>
            <feColorMatrix type="matrix" values="0 0 0 0 0 0 0 0 0 0 0 0 0 0 0 0 0 0 0.12 0"/>
            <feBlend mode="normal" in2="BackgroundImageFix" result="effect1_dropShadow_10373_49233"/>
            <feBlend mode="normal" in="SourceGraphic" in2="effect1_dropShadow_10373_49233" result="shape"/>
        </filter>
        <filter id="filter1_d_10373_49233" x="-4.25" y="-37.25" width="132.5" height="132.5" filterUnits="userSpaceOnUse" color-interpolation-filters="sRGB">
            <feFlood flood-opacity="0" result="BackgroundImageFix"/>
            <feColorMatrix in="SourceAlpha" type="matrix" values="0 0 0 0 0 0 0 0 0 0 0 0 0 0 0 0 0 0 127 0" result="hardAlpha"/>
            <feOffset dy="4"/>
            <feGaussianBlur stdDeviation="8"/>
            <feComposite in2="hardAlpha" operator="out"/>
            <feColorMatrix type="matrix" values="0 0 0 0 0 0 0 0 0 0 0 0 0 0 0 0 0 0 0.12 0"/>
            <feBlend mode="normal" in2="BackgroundImageFix" result="effect1_dropShadow_10373_49233"/>
            <feBlend mode="normal" in="SourceGraphic" in2="effect1_dropShadow_10373_49233" result="shape"/>
        </filter>
        <filter id="filter2_d_10373_49233" x="23.9995" y="-37" width="134.154" height="134.154" filterUnits="userSpaceOnUse" color-interpolation-filters="sRGB">
            <feFlood flood-opacity="0" result="BackgroundImageFix"/>
            <feColorMatrix in="SourceAlpha" type="matrix" values="0 0 0 0 0 0 0 0 0 0 0 0 0 0 0 0 0 0 127 0" result="hardAlpha"/>
            <feOffset dy="4"/>
            <feGaussianBlur stdDeviation="8"/>
            <feComposite in2="hardAlpha" operator="out"/>
            <feColorMatrix type="matrix" values="0 0 0 0 0 0 0 0 0 0 0 0 0 0 0 0 0 0 0.12 0"/>
            <feBlend mode="normal" in2="BackgroundImageFix" result="effect1_dropShadow_10373_49233"/>
            <feBlend mode="normal" in="SourceGraphic" in2="effect1_dropShadow_10373_49233" result="shape"/>
        </filter>
    </defs>
</svg>
