<svg xmlns="http://www.w3.org/2000/svg" width="20" height="20" viewBox="0 0 20 20" fill="none">
    <path d="M7.50274 7.57463C7.50274 7.19908 7.80719 6.89463 8.18274 6.89463L12.4245 6.89463L12.4328 6.89467C12.5219 6.89562 12.6069 6.91371 12.6846 6.94579C12.7652 6.97898 12.8407 7.02831 12.9062 7.0938C13.0366 7.22415 13.1029 7.39426 13.1053 7.5651L13.1054 7.57577V11.8173C13.1054 12.1928 12.8009 12.4973 12.4254 12.4973C12.0498 12.4973 11.7454 12.1928 11.7454 11.8173V9.21629L8.31002 12.6517C8.04446 12.9172 7.61391 12.9172 7.34836 12.6517C7.0828 12.3861 7.0828 11.9555 7.34836 11.69L10.7837 8.25463H8.18274C7.80719 8.25463 7.50274 7.95018 7.50274 7.57463Z" fill="black" fill-opacity="0.95" style="fill:black;fill-opacity:0.95;"/>
    <path fill-rule="evenodd" clip-rule="evenodd" d="M4.34315 4.34315C7.46734 1.21895 12.5327 1.21895 15.6569 4.34315C18.781 7.46734 18.781 12.5327 15.6569 15.6569C12.5327 18.781 7.46734 18.781 4.34315 15.6569C1.21895 12.5327 1.21895 7.46734 4.34315 4.34315ZM5.30481 5.30481C7.89789 2.71173 12.1021 2.71173 14.6952 5.30481C17.2883 7.89789 17.2883 12.1021 14.6952 14.6952C12.1021 17.2883 7.89789 17.2883 5.30481 14.6952C2.71173 12.1021 2.71173 7.89789 5.30481 5.30481Z" fill="black" fill-opacity="0.95" style="fill:black;fill-opacity:0.95;"/>
</svg>