<svg xmlns="http://www.w3.org/2000/svg" width="21" height="20" viewBox="0 0 21 20" fill="none">
    <path d="M8.00274 7.57463C8.00274 7.19908 8.30719 6.89463 8.68274 6.89463L12.9245 6.89463L12.9328 6.89467C13.0219 6.89562 13.1069 6.91371 13.1846 6.94579C13.2652 6.97898 13.3407 7.02831 13.4062 7.0938C13.5366 7.22415 13.6029 7.39426 13.6053 7.5651L13.6054 7.57577V11.8173C13.6054 12.1928 13.3009 12.4973 12.9254 12.4973C12.5498 12.4973 12.2454 12.1928 12.2454 11.8173V9.21629L8.81002 12.6517C8.54446 12.9172 8.11391 12.9172 7.84836 12.6517C7.5828 12.3861 7.5828 11.9555 7.84836 11.69L11.2837 8.25463H8.68274C8.30719 8.25463 8.00274 7.95018 8.00274 7.57463Z" fill="black" fill-opacity="0.95" style="fill:black;fill-opacity:0.95;"/>
    <path fill-rule="evenodd" clip-rule="evenodd" d="M4.84315 4.34315C7.96734 1.21895 13.0327 1.21895 16.1569 4.34315C19.281 7.46734 19.281 12.5327 16.1569 15.6569C13.0327 18.781 7.96734 18.781 4.84315 15.6569C1.71895 12.5327 1.71895 7.46734 4.84315 4.34315ZM5.80481 5.30481C8.39789 2.71173 12.6021 2.71173 15.1952 5.30481C17.7883 7.89789 17.7883 12.1021 15.1952 14.6952C12.6021 17.2883 8.39789 17.2883 5.80481 14.6952C3.21173 12.1021 3.21173 7.89789 5.80481 5.30481Z" fill="black" fill-opacity="0.95" style="fill:black;fill-opacity:0.95;"/>
</svg>