<svg xmlns="http://www.w3.org/2000/svg" width="20" height="20" viewBox="0 0 20 20" fill="none">
    <path fill-rule="evenodd" clip-rule="evenodd" d="M12.7485 2H7.25154H7.25153C6.64565 1.99999 6.14984 1.99999 5.74683 2.03291C5.32959 2.067 4.9523 2.13975 4.59981 2.31935C4.04849 2.60026 3.60026 3.04849 3.31935 3.59981C3.13975 3.9523 3.067 4.32959 3.03291 4.74683C2.99999 5.14984 2.99999 5.64565 3 6.25153V6.25154V13.7485V13.7485C2.99999 14.3543 2.99999 14.8502 3.03291 15.2532C3.067 15.6704 3.13975 16.0477 3.31935 16.4002C3.60026 16.9515 4.04849 17.3997 4.59981 17.6806C4.9523 17.8603 5.32959 17.933 5.74683 17.9671C6.14985 18 6.64567 18 7.25157 18H12.7484C13.3543 18 13.8502 18 14.2532 17.9671C14.6704 17.933 15.0477 17.8603 15.4002 17.6806C15.9515 17.3997 16.3997 16.9515 16.6806 16.4002C16.8603 16.0477 16.933 15.6704 16.9671 15.2532C17 14.8502 17 14.3543 17 13.7484V6.25157C17 5.64567 17 5.14985 16.9671 4.74683C16.933 4.32959 16.8603 3.9523 16.6806 3.59981C16.3997 3.04849 15.9515 2.60026 15.4002 2.31935C15.0477 2.13975 14.6704 2.067 14.2532 2.03291C13.8502 1.99999 13.3543 1.99999 12.7485 2H12.7485ZM5.21724 3.53112C5.34605 3.46549 5.52444 3.41562 5.85758 3.3884C6.19866 3.36053 6.63872 3.36 7.28 3.36H12.72C13.3613 3.36 13.8013 3.36053 14.1424 3.3884C14.4756 3.41562 14.654 3.46549 14.7828 3.53112C15.0782 3.68164 15.3184 3.92182 15.4689 4.21724C15.5345 4.34605 15.5844 4.52444 15.6116 4.85758C15.6395 5.19866 15.64 5.63872 15.64 6.28V13.72C15.64 14.3613 15.6395 14.8013 15.6116 15.1424C15.5844 15.4756 15.5345 15.654 15.4689 15.7828C15.3184 16.0782 15.0782 16.3184 14.7828 16.4689C14.654 16.5345 14.4756 16.5844 14.1424 16.6116C13.8013 16.6395 13.3613 16.64 12.72 16.64H7.28C6.63872 16.64 6.19866 16.6395 5.85758 16.6116C5.52444 16.5844 5.34605 16.5345 5.21724 16.4689C4.92182 16.3184 4.68164 16.0782 4.53112 15.7828C4.46549 15.654 4.41562 15.4756 4.3884 15.1424C4.36053 14.8013 4.36 14.3613 4.36 13.72V6.28C4.36 5.63872 4.36053 5.19866 4.3884 4.85758C4.41562 4.52444 4.46549 4.34605 4.53112 4.21724C4.68164 3.92182 4.92182 3.68164 5.21724 3.53112ZM7.00001 6.32007C6.62445 6.32007 6.32001 6.62451 6.32001 7.00007C6.32001 7.37562 6.62445 7.68007 7.00001 7.68007H13C13.3756 7.68007 13.68 7.37562 13.68 7.00007C13.68 6.62451 13.3756 6.32007 13 6.32007H7.00001ZM6.32001 10.0001C6.32001 9.62451 6.62445 9.32007 7.00001 9.32007H13C13.3756 9.32007 13.68 9.62451 13.68 10.0001C13.68 10.3756 13.3756 10.6801 13 10.6801H7.00001C6.62445 10.6801 6.32001 10.3756 6.32001 10.0001ZM7.00001 12.3201C6.62445 12.3201 6.32001 12.6245 6.32001 13.0001C6.32001 13.3756 6.62445 13.6801 7.00001 13.6801H10C10.3756 13.6801 10.68 13.3756 10.68 13.0001C10.68 12.6245 10.3756 12.3201 10 12.3201H7.00001Z" fill="black" style="fill:black;fill-opacity:1;"/>
</svg>