<svg xmlns="http://www.w3.org/2000/svg" width="20" height="20" viewBox="0 0 20 20" fill="none">
    <path d="M14.7296 7.90006C15.863 8.595 16.4297 8.94247 16.6233 9.38903C16.7922 9.77894 16.7922 10.2211 16.6233 10.611C16.4297 11.0575 15.863 11.405 14.7296 12.0999L8.52163 15.9064C7.2893 16.662 6.67314 17.0398 6.16523 16.9967C5.72245 16.959 5.31731 16.7335 5.05308 16.3775C4.75 15.9691 4.75 15.2482 4.75 13.8065L4.75 6.19352C4.75 4.75178 4.75 4.03091 5.05308 3.62254C5.31731 3.26653 5.72245 3.04095 6.16523 3.00332C6.67314 2.96016 7.2893 3.33797 8.52163 4.09358L14.7296 7.90006Z" fill="black" style="fill:black;fill-opacity:1;"/>
</svg>