<svg xmlns="http://www.w3.org/2000/svg" width="20" height="20" viewBox="0 0 20 20" fill="none">
    <path fill-rule="evenodd" clip-rule="evenodd"
        d="M10.6798 3.99995C10.6798 3.62439 10.3754 3.31995 9.99982 3.31995C9.62427 3.31995 9.31982 3.62439 9.31982 3.99995V9.31995H3.99982C3.62427 9.31995 3.31982 9.62439 3.31982 9.99995C3.31982 10.3755 3.62427 10.6799 3.99982 10.6799H9.31982V15.9999C9.31982 16.3755 9.62427 16.6799 9.99982 16.6799C10.3754 16.6799 10.6798 16.3755 10.6798 15.9999V10.6799H15.9998C16.3754 10.6799 16.6798 10.3755 16.6798 9.99995C16.6798 9.62439 16.3754 9.31995 15.9998 9.31995H10.6798V3.99995Z"
        fill="white" />
</svg>