<svg xmlns="http://www.w3.org/2000/svg" width="25" height="24" viewBox="0 0 25 24" fill="none">
    <path fill-rule="evenodd" clip-rule="evenodd" d="M4.5319 11.9999C4.5319 7.5993 8.0993 4.0319 12.4999 4.0319C16.9005 4.0319 20.4679 7.5993 20.4679 11.9999C20.4679 16.4005 16.9005 19.9679 12.4999 19.9679C8.0993 19.9679 4.5319 16.4005 4.5319 11.9999ZM12.4999 2.3999C7.19797 2.3999 2.8999 6.69797 2.8999 11.9999C2.8999 17.3018 7.19797 21.5999 12.4999 21.5999C17.8018 21.5999 22.0999 17.3018 22.0999 11.9999C22.0999 6.69797 17.8018 2.3999 12.4999 2.3999ZM12.4999 7.58398C12.9506 7.58398 13.3159 7.94932 13.3159 8.39998V11.184H16.0999C16.5506 11.184 16.9159 11.5493 16.9159 12C16.9159 12.4506 16.5506 12.816 16.0999 12.816H13.3159V15.6C13.3159 16.0506 12.9506 16.416 12.4999 16.416C12.0492 16.416 11.6839 16.0506 11.6839 15.6V12.816H8.8999C8.44924 12.816 8.0839 12.4506 8.0839 12C8.0839 11.5493 8.44924 11.184 8.8999 11.184H11.6839V8.39998C11.6839 7.94932 12.0492 7.58398 12.4999 7.58398Z" fill="black" fill-opacity="0.95" style="fill:black;fill-opacity:0.95;"/>
</svg>