<svg xmlns="http://www.w3.org/2000/svg" width="24" height="24" viewBox="0 0 24 24" fill="none">
    <path fill-rule="evenodd" clip-rule="evenodd" d="M11.9999 4.0319C11.7652 4.0319 11.5331 4.04202 11.304 4.06183C10.855 4.10062 10.4595 3.76809 10.4207 3.3191C10.382 2.87011 10.7145 2.47468 11.1635 2.43588C11.4393 2.41205 11.7183 2.3999 11.9999 2.3999C17.3018 2.3999 21.5999 6.69797 21.5999 11.9999C21.5999 17.3018 17.3018 21.5999 11.9999 21.5999C8.35954 21.5999 5.19369 19.5733 3.56685 16.5907C3.43986 16.3579 3.32221 16.1192 3.21441 15.8751C3.03233 15.4629 3.21891 14.9811 3.63115 14.799C4.0434 14.6169 4.52519 14.8035 4.70727 15.2158C4.79665 15.4181 4.89423 15.6161 4.99958 15.8092C6.35196 18.2887 8.98042 19.9679 11.9999 19.9679C16.4005 19.9679 19.9679 16.4005 19.9679 11.9999C19.9679 7.5993 16.4005 4.0319 11.9999 4.0319ZM9.02603 3.69167C9.21676 4.09998 9.04037 4.5856 8.63205 4.77633C8.21003 4.97346 7.80797 5.20659 7.42986 5.47183C7.06092 5.73064 6.55203 5.64136 6.29322 5.27242C6.03441 4.90348 6.12369 4.39459 6.49263 4.13578C6.94795 3.81638 7.43243 3.53542 7.94137 3.29769C8.34968 3.10696 8.8353 3.28335 9.02603 3.69167ZM5.27242 6.29322C5.64136 6.55203 5.73064 7.06092 5.47183 7.42986C5.20659 7.80797 4.97346 8.21003 4.77633 8.63206C4.5856 9.04037 4.09998 9.21676 3.69167 9.02603C3.28335 8.8353 3.10696 8.34968 3.29769 7.94137C3.53542 7.43243 3.81638 6.94795 4.13578 6.49263C4.39459 6.12369 4.90348 6.03441 5.27242 6.29322ZM3.3191 10.4207C3.76809 10.4595 4.10062 10.855 4.06183 11.304C4.04202 11.5331 4.0319 11.7652 4.0319 11.9999C4.0319 12.2231 4.04106 12.4439 4.05899 12.6622C4.09589 13.1113 3.7617 13.5053 3.31255 13.5422C2.8634 13.5791 2.46937 13.2449 2.43247 12.7958C2.41089 12.5332 2.3999 12.2677 2.3999 11.9999C2.3999 11.7183 2.41205 11.4393 2.43588 11.1635C2.47468 10.7145 2.87011 10.382 3.3191 10.4207ZM12.8159 7.49998C12.8159 7.04932 12.4506 6.68398 11.9999 6.68398C11.5492 6.68398 11.1839 7.04932 11.1839 7.49998V12.2942C11.1839 12.5541 11.3185 12.7955 11.5396 12.9321L14.5709 14.8057C14.9542 15.0427 15.4571 14.924 15.694 14.5407C15.931 14.1573 15.8123 13.6545 15.4289 13.4175L12.8159 11.8024V7.49998Z" fill="black" fill-opacity="0.95" style="fill:black;fill-opacity:0.95;"/>
</svg>