<svg xmlns="http://www.w3.org/2000/svg" width="21" height="20" viewBox="0 0 21 20" fill="none">
    <path fill-rule="evenodd" clip-rule="evenodd"
        d="M3.86 10C3.86 6.33283 6.83283 3.36 10.5 3.36C14.1672 3.36 17.14 6.33283 17.14 10C17.14 13.6672 14.1672 16.64 10.5 16.64C6.83283 16.64 3.86 13.6672 3.86 10ZM10.5 2C6.08172 2 2.5 5.58172 2.5 10C2.5 14.4183 6.08172 18 10.5 18C14.9183 18 18.5 14.4183 18.5 10C18.5 5.58172 14.9183 2 10.5 2ZM6.82 10.0001C6.82 9.62451 7.12445 9.32007 7.5 9.32007L13.5 9.32007C13.8756 9.32007 14.18 9.62452 14.18 10.0001C14.18 10.3756 13.8756 10.6801 13.5 10.6801L7.5 10.6801C7.12445 10.6801 6.82 10.3756 6.82 10.0001Z"
        fill="#FF3B30"
 />
</svg>