<svg xmlns="http://www.w3.org/2000/svg" width="20" height="20" viewBox="0 0 20 20" fill="none">
    <path fill-rule="evenodd" clip-rule="evenodd" d="M3.36 10C3.36 6.33283 6.33283 3.36 10 3.36C13.6672 3.36 16.64 6.33283 16.64 10C16.64 13.6672 13.6672 16.64 10 16.64C6.33283 16.64 3.36 13.6672 3.36 10ZM10 2C5.58172 2 2 5.58172 2 10C2 14.4183 5.58172 18 10 18C14.4183 18 18 14.4183 18 10C18 5.58172 14.4183 2 10 2ZM6.32 10.0001C6.32 9.62451 6.62445 9.32007 7 9.32007L13 9.32007C13.3756 9.32007 13.68 9.62452 13.68 10.0001C13.68 10.3756 13.3756 10.6801 13 10.6801L7 10.6801C6.62445 10.6801 6.32 10.3756 6.32 10.0001Z" fill="black" fill-opacity="0.95" style="fill:black;fill-opacity:0.95;"/>
</svg>