<svg xmlns="http://www.w3.org/2000/svg" width="20" height="20" viewBox="0 0 20 20" fill="none">
    <path fill-rule="evenodd" clip-rule="evenodd" d="M17.9809 2.01948C18.2465 2.28504 18.2465 2.71559 17.9809 2.98115L2.9809 17.9811C2.71534 18.2467 2.28479 18.2467 2.01924 17.9811C1.75368 17.7156 1.75368 17.285 2.01924 17.0195L3.75006 15.2887L3.75007 5.95281C3.75006 5.48612 3.75005 5.09516 3.77617 4.77547C3.80344 4.44161 3.86257 4.12606 4.01492 3.82705C4.24789 3.36981 4.61963 2.99807 5.07687 2.7651C5.37588 2.61275 5.69143 2.55362 6.0253 2.52635C6.34498 2.50023 6.91594 2.50023 7.20263 2.50024H12.7975C13.2642 2.50023 13.6552 2.50023 13.9748 2.52635C14.3087 2.55362 14.6243 2.61275 14.9233 2.7651C15.2133 2.91286 15.4689 3.11643 15.6765 3.36224L17.0192 2.01948C17.2848 1.75392 17.7153 1.75392 17.9809 2.01948ZM14.707 4.33171L5.11007 13.9286V5.98024C5.11007 5.47898 5.11059 5.14392 5.13165 4.88622C5.15206 4.63646 5.1883 4.51981 5.22669 4.44447C5.32927 4.24314 5.49296 4.07945 5.6943 3.97687C5.76963 3.93848 5.88628 3.90224 6.13604 3.88183C6.39375 3.86077 6.9088 3.86024 7.23007 3.86024H12.7701C13.2713 3.86024 13.6064 3.86077 13.8641 3.88183C14.1139 3.90224 14.2305 3.93848 14.3058 3.97687C14.4681 4.05955 14.6059 4.18193 14.707 4.33171Z" fill="black" fill-opacity="0.95" style="fill:black;fill-opacity:0.95;"/>
    <path d="M16.2501 6.6319L14.8901 7.9919V15.7974C14.8901 15.8779 14.89 15.9464 14.8896 16.0055C14.8384 15.9761 14.7791 15.9416 14.7096 15.9011L10.7458 13.338C9.90262 12.8418 9.16141 13.9897 10.0605 14.5128L14.0469 17.089C14.2246 17.1926 14.3959 17.2926 14.5435 17.3615C14.694 17.4317 14.9217 17.521 15.1897 17.4936C15.5232 17.4597 15.8264 17.2855 16.0238 17.0146C16.1824 16.7969 16.2201 16.5552 16.2352 16.3898C16.2501 16.2276 16.2501 16.0292 16.2501 15.8235L16.2501 6.6319Z" fill="black" fill-opacity="0.95" style="fill:black;fill-opacity:0.95;"/>
</svg>