<svg xmlns="http://www.w3.org/2000/svg" width="20" height="20" viewBox="0 0 20 20" fill="none">
    <path fill-rule="evenodd" clip-rule="evenodd" d="M6.48084 1.9809C6.7464 1.71534 6.7464 1.28479 6.48084 1.01924C6.21528 0.753679 5.78473 0.753679 5.51917 1.01924L2.51917 4.01924C2.25362 4.28479 2.25362 4.71534 2.51917 4.9809L5.51917 7.9809C5.78473 8.24646 6.21528 8.24646 6.48084 7.9809C6.7464 7.71534 6.7464 7.28479 6.48084 7.01924L4.64167 5.18007H10C13.2666 5.18007 15.82 7.61214 15.82 10.5001C15.82 13.388 13.2666 15.8201 10 15.8201C6.73344 15.8201 4.18001 13.388 4.18001 10.5001C4.18001 10.1245 3.87556 9.82007 3.50001 9.82007C3.12445 9.82007 2.82001 10.1245 2.82001 10.5001C2.82001 14.2396 6.08687 17.1801 10 17.1801C13.9131 17.1801 17.18 14.2396 17.18 10.5001C17.18 6.76058 13.9131 3.82007 10 3.82007H4.64167L6.48084 1.9809Z" fill="black" fill-opacity="0.95" style="fill:black;fill-opacity:0.95;"/>
</svg>