<svg xmlns="http://www.w3.org/2000/svg" width="16" height="16" viewBox="0 0 16 16" fill="none">
    <path fill-rule="evenodd" clip-rule="evenodd"
        d="M5.18511 1.58467C5.39756 1.37223 5.39756 1.02779 5.18511 0.81534C4.97267 0.602895 4.62822 0.602895 4.41578 0.81534L2.01578 3.21534C1.80333 3.42779 1.80333 3.77223 2.01578 3.98467L4.41578 6.38467C4.62822 6.59712 4.97267 6.59712 5.18511 6.38467C5.39756 6.17223 5.39756 5.82779 5.18511 5.61534L3.71378 4.14401H8.00045C10.6137 4.14401 12.6564 6.08966 12.6564 8.40001C12.6564 10.7104 10.6137 12.656 8.00045 12.656C5.38719 12.656 3.34445 10.7104 3.34445 8.40001C3.34445 8.09956 3.10089 7.85601 2.80045 7.85601C2.5 7.85601 2.25645 8.09956 2.25645 8.40001C2.25645 11.3916 4.86994 13.744 8.00045 13.744C11.131 13.744 13.7444 11.3916 13.7444 8.40001C13.7444 5.40842 11.131 3.05601 8.00045 3.05601H3.71378L5.18511 1.58467Z"
        fill="#FF3B30"
        />
</svg>