<svg xmlns="http://www.w3.org/2000/svg" width="20" height="20" viewBox="0 0 20 20" fill="none">
    <path d="M3.48083 17.4809L16.4808 4.4809C16.7464 4.21534 16.7464 3.78479 16.4808 3.51924C16.2153 3.25368 15.7847 3.25368 15.5192 3.51924L12.4725 6.56594C10.2269 4.54791 7.25682 3.32007 4.00001 3.32007C3.62445 3.32007 3.32001 3.62451 3.32001 4.00007C3.32001 4.37562 3.62445 4.68007 4.00001 4.68007C6.88124 4.68007 9.51107 5.7565 11.5093 7.52915L9.2328 9.8056C7.82054 8.61136 5.99435 7.89136 4.00001 7.89136C3.62445 7.89136 3.32001 8.1958 3.32001 8.57136C3.32001 8.94691 3.62445 9.25136 4.00001 9.25136C5.6187 9.25136 7.10428 9.82125 8.26707 10.7713L5.97393 13.0645C5.41014 12.6846 4.73096 12.4629 4.00001 12.4629C3.62445 12.4629 3.32001 12.7673 3.32001 13.1429C3.32001 13.5184 3.62445 13.8229 4.00001 13.8229C4.35331 13.8229 4.68696 13.907 4.982 14.0564L2.51917 16.5192C2.25361 16.7848 2.25361 17.2153 2.51917 17.4809C2.78472 17.7465 3.21528 17.7465 3.48083 17.4809Z" fill="black" fill-opacity="0.95" style="fill:black;fill-opacity:0.95;"/>
    <path d="M11.1253 12.1264L10.1135 13.1381C10.5209 14.007 10.7486 14.9769 10.7486 15.9999C10.7486 16.3755 11.053 16.6799 11.4286 16.6799C11.8041 16.6799 12.1086 16.3755 12.1086 15.9999C12.1086 14.597 11.7523 13.2773 11.1253 12.1264Z" fill="black" fill-opacity="0.95" style="fill:black;fill-opacity:0.95;"/>
    <path d="M14.4441 8.80752L13.4643 9.78733C14.6374 11.5708 15.32 13.7057 15.32 16.0001C15.32 16.3756 15.6245 16.6801 16 16.6801C16.3756 16.6801 16.68 16.3756 16.68 16.0001C16.68 13.3292 15.8543 10.8513 14.4441 8.80752Z" fill="black" fill-opacity="0.95" style="fill:black;fill-opacity:0.95;"/>
</svg>