<svg xmlns="http://www.w3.org/2000/svg" width="20" height="20" viewBox="0 0 20 20" fill="none">
    <path fill-rule="evenodd" clip-rule="evenodd" d="M15.14 9.5C15.14 12.6149 12.6149 15.14 9.5 15.14C6.38511 15.14 3.86 12.6149 3.86 9.5C3.86 6.38511 6.38511 3.86 9.5 3.86C12.6149 3.86 15.14 6.38511 15.14 9.5ZM13.9456 14.9073C12.7366 15.9025 11.1881 16.5 9.5 16.5C5.63401 16.5 2.5 13.366 2.5 9.5C2.5 5.63401 5.63401 2.5 9.5 2.5C13.366 2.5 16.5 5.63401 16.5 9.5C16.5 11.1881 15.9024 12.7367 14.9073 13.9457L17.2308 16.2692C17.4964 16.5348 17.4964 16.9653 17.2308 17.2309C16.9653 17.4965 16.5347 17.4965 16.2692 17.2309L13.9456 14.9073Z" fill="black" fill-opacity="0.95" style="fill:black;fill-opacity:0.95;"/>
</svg>