<svg xmlns="http://www.w3.org/2000/svg" width="56" height="56" viewBox="0 0 56 56" fill="none">
    <path fill-rule="evenodd" clip-rule="evenodd" d="M9.5 24C9.5 15.9919 15.9919 9.5 24 9.5C32.0081 9.5 38.5 15.9919 38.5 24C38.5 32.0081 32.0081 38.5 24 38.5C15.9919 38.5 9.5 32.0081 9.5 24ZM24 6.5C14.335 6.5 6.5 14.335 6.5 24C6.5 33.665 14.335 41.5 24 41.5C28.2925 41.5 32.224 39.9546 35.2684 37.3898L35.9393 38.0607L44.9393 47.0607C45.5251 47.6464 46.4749 47.6464 47.0607 47.0607C47.6464 46.4749 47.6464 45.5251 47.0607 44.9393L38.0607 35.9393L37.3898 35.2684C39.9546 32.224 41.5 28.2925 41.5 24C41.5 14.335 33.665 6.5 24 6.5Z" fill="black" fill-opacity="0.16" style="fill:black;fill-opacity:0.16;"/>
</svg>