<svg xmlns="http://www.w3.org/2000/svg" width="24" height="24" viewBox="0 0 24 24" fill="none">
    <path fill-rule="evenodd" clip-rule="evenodd"
        d="M18.168 11.4C18.168 15.1379 15.1379 18.168 11.4 18.168C7.66214 18.168 4.632 15.1379 4.632 11.4C4.632 7.66214 7.66214 4.632 11.4 4.632C15.1379 4.632 18.168 7.66214 18.168 11.4ZM16.7347 17.8888C15.284 19.0829 13.4257 19.8 11.4 19.8C6.76081 19.8 3 16.0392 3 11.4C3 6.76081 6.76081 3 11.4 3C16.0392 3 19.8 6.76081 19.8 11.4C19.8 13.4258 19.0829 15.284 17.8887 16.7348L20.677 19.5231C20.9957 19.8418 20.9957 20.3584 20.677 20.6771C20.3583 20.9958 19.8417 20.9958 19.523 20.6771L16.7347 17.8888Z"
        fill="black" fill-opacity="0.95"
       />
</svg>