<svg xmlns="http://www.w3.org/2000/svg" width="24" height="24" viewBox="0 0 24 24" fill="none">
    <path fill-rule="evenodd" clip-rule="evenodd" d="M16.1769 6.19295C16.4956 5.87428 16.4956 5.35762 16.1769 5.03895L12.5776 1.4397L12.5706 1.43269C12.4942 1.3579 12.4067 1.30114 12.3135 1.2624C12.217 1.22217 12.111 1.19995 11.9999 1.19995C11.7787 1.19995 11.578 1.28798 11.431 1.43092L11.4219 1.43992L7.82289 5.03895C7.50422 5.35762 7.50422 5.87428 7.82289 6.19295C8.14155 6.51162 8.65822 6.51162 8.97689 6.19295L11.1839 3.98595V14.016C11.1839 14.4666 11.5492 14.832 11.9999 14.832C12.4506 14.832 12.8159 14.4666 12.8159 14.016V3.98595L15.0229 6.19295C15.3416 6.51162 15.8582 6.51162 16.1769 6.19295ZM8.39989 7.58403H8.12696C7.56694 7.58402 7.09779 7.58401 6.71416 7.61535C6.31352 7.64809 5.93486 7.71904 5.57605 7.90186C5.02737 8.18143 4.58128 8.62752 4.30171 9.1762C4.11889 9.53501 4.04794 9.91367 4.01521 10.3143C3.98387 10.6979 3.98388 11.1671 3.98389 11.7271V17.673C3.98388 18.233 3.98387 18.7021 4.01521 19.0858C4.04794 19.4864 4.11889 19.8651 4.30171 20.2239C4.58128 20.7726 5.02737 21.2186 5.57605 21.4982C5.93486 21.681 6.31352 21.752 6.71416 21.7847C7.09779 21.8161 7.56695 21.816 8.12699 21.816H15.8728C16.4328 21.816 16.902 21.8161 17.2856 21.7847C17.6863 21.752 18.0649 21.681 18.4237 21.4982C18.9724 21.2186 19.4185 20.7726 19.6981 20.2239C19.8809 19.8651 19.9518 19.4864 19.9846 19.0858C20.0159 18.7021 20.0159 18.233 20.0159 17.6729V11.7271C20.0159 11.1671 20.0159 10.6979 19.9846 10.3143C19.9518 9.91367 19.8809 9.53501 19.6981 9.1762C19.4185 8.62752 18.9724 8.18143 18.4237 7.90186C18.0649 7.71904 17.6863 7.64809 17.2856 7.61535C16.902 7.58401 16.4328 7.58402 15.8728 7.58403H15.5999C15.1492 7.58403 14.7839 7.94937 14.7839 8.40003C14.7839 8.8507 15.1492 9.21603 15.5999 9.21603H15.8399C16.4414 9.21603 16.8435 9.21667 17.1527 9.24194C17.4524 9.26642 17.5924 9.30992 17.6828 9.35598C17.9244 9.47908 18.1208 9.67551 18.2439 9.91711C18.29 10.0075 18.3335 10.1475 18.358 10.4472C18.3833 10.7564 18.3839 11.1585 18.3839 11.76V17.64C18.3839 18.2416 18.3833 18.6436 18.358 18.9529C18.3335 19.2526 18.29 19.3926 18.2439 19.483C18.1208 19.7246 17.9244 19.921 17.6828 20.0441C17.5924 20.0901 17.4524 20.1336 17.1527 20.1581C16.8435 20.1834 16.4414 20.184 15.8399 20.184H8.15989C7.55837 20.184 7.1563 20.1834 6.84706 20.1581C6.54734 20.1336 6.40737 20.0901 6.31696 20.0441C6.07536 19.921 5.87894 19.7246 5.75584 19.483C5.70977 19.3926 5.66628 19.2526 5.64179 18.9529C5.61652 18.6436 5.61589 18.2416 5.61589 17.64V11.76C5.61589 11.1585 5.61652 10.7565 5.64179 10.4472C5.66628 10.1475 5.70977 10.0075 5.75584 9.91711C5.87894 9.67551 6.07536 9.47908 6.31696 9.35598C6.40737 9.30992 6.54734 9.26642 6.84706 9.24194C7.1563 9.21667 7.55837 9.21603 8.15989 9.21603H8.39989C8.85055 9.21603 9.21589 8.8507 9.21589 8.40003C9.21589 7.94937 8.85055 7.58403 8.39989 7.58403Z" fill="black" fill-opacity="0.95" style="fill:black;fill-opacity:0.95;"/>
</svg>