<svg xmlns="http://www.w3.org/2000/svg" width="20" height="20" viewBox="0 0 20 20" fill="none">
    <path fill-rule="evenodd" clip-rule="evenodd" d="M13.4808 5.16083C13.7464 4.89528 13.7464 4.46472 13.4808 4.19917L10.4815 1.19979L10.4756 1.19395C10.4119 1.13163 10.339 1.08432 10.2614 1.05204C10.1809 1.01851 10.0926 1 10 1C9.81566 1 9.64844 1.07336 9.52596 1.19247L9.51837 1.19997L6.51918 4.19917C6.25362 4.46472 6.25362 4.89528 6.51918 5.16083C6.78473 5.42639 7.21528 5.42639 7.48084 5.16083L9.32001 3.32167V11.68C9.32001 12.0556 9.62445 12.36 10 12.36C10.3756 12.36 10.68 12.0556 10.68 11.68V3.32167L12.5192 5.16083C12.7847 5.42639 13.2153 5.42639 13.4808 5.16083ZM7.00001 6.32007L6.77257 6.32007C6.30588 6.32006 5.91492 6.32005 5.59524 6.34617C5.26137 6.37345 4.94582 6.43257 4.64681 6.58492C4.18958 6.8179 3.81783 7.18964 3.58486 7.64687C3.43251 7.94588 3.37339 8.26143 3.34611 8.5953C3.31999 8.91498 3.32 9.30594 3.32001 9.77262V9.77263V14.7275V14.7275C3.32 15.1942 3.31999 15.5852 3.34611 15.9048C3.37339 16.2387 3.43251 16.5543 3.58486 16.8533C3.81783 17.3105 4.18958 17.6822 4.64681 17.9152C4.94582 18.0676 5.26137 18.1267 5.59524 18.154C5.91493 18.1801 6.3059 18.1801 6.7726 18.1801H13.2274C13.6941 18.1801 14.0851 18.1801 14.4048 18.154C14.7386 18.1267 15.0542 18.0676 15.3532 17.9152C15.8104 17.6822 16.1822 17.3105 16.4152 16.8533C16.5675 16.5543 16.6266 16.2387 16.6539 15.9048C16.68 15.5851 16.68 15.1942 16.68 14.7275V9.77266C16.68 9.30596 16.68 8.91499 16.6539 8.5953C16.6266 8.26143 16.5675 7.94588 16.4152 7.64687C16.1822 7.18964 15.8104 6.8179 15.3532 6.58492C15.0542 6.43257 14.7386 6.37345 14.4048 6.34617C14.0851 6.32005 13.6941 6.32006 13.2274 6.32007L13 6.32007C12.6245 6.32007 12.32 6.62452 12.32 7.00007C12.32 7.37562 12.6245 7.68007 13 7.68007H13.2C13.7013 7.68007 14.0363 7.6806 14.294 7.70165C14.5438 7.72206 14.6604 7.75831 14.7358 7.79669C14.9371 7.89928 15.1008 8.06297 15.2034 8.2643C15.2418 8.33963 15.278 8.45628 15.2984 8.70605C15.3195 8.96375 15.32 9.2988 15.32 9.80007V14.7001C15.32 15.2013 15.3195 15.5364 15.2984 15.7941C15.278 16.0439 15.2418 16.1605 15.2034 16.2358C15.1008 16.4372 14.9371 16.6009 14.7358 16.7034C14.6604 16.7418 14.5438 16.7781 14.294 16.7985C14.0363 16.8195 13.7013 16.8201 13.2 16.8201H6.80001C6.29874 16.8201 5.96369 16.8195 5.70599 16.7985C5.45622 16.7781 5.33957 16.7418 5.26424 16.7034C5.06291 16.6009 4.89922 16.4372 4.79663 16.2358C4.75825 16.1605 4.722 16.0439 4.70159 15.7941C4.68054 15.5364 4.68001 15.2013 4.68001 14.7001V9.80007C4.68001 9.2988 4.68054 8.96375 4.70159 8.70605C4.722 8.45628 4.75825 8.33963 4.79663 8.2643C4.89922 8.06297 5.06291 7.89928 5.26424 7.79669C5.33957 7.75831 5.45622 7.72206 5.70599 7.70165C5.96369 7.6806 6.29874 7.68007 6.80001 7.68007H7.00001C7.37556 7.68007 7.68001 7.37562 7.68001 7.00007C7.68001 6.62452 7.37556 6.32007 7.00001 6.32007Z" fill="black" fill-opacity="0.95" style="fill:black;fill-opacity:0.95;"/>
</svg>