<svg xmlns="http://www.w3.org/2000/svg" width="24" height="24" viewBox="0 0 24 24" fill="none">
    <path fill-rule="evenodd" clip-rule="evenodd" d="M15.8981 3H8.10185C7.37479 2.99999 6.77981 2.99998 6.2962 3.0395C5.7955 3.0804 5.34276 3.1677 4.91977 3.38322C4.25819 3.72031 3.72031 4.25819 3.38322 4.91977C3.1677 5.34276 3.0804 5.7955 3.0395 6.2962C2.99998 6.77981 2.99999 7.37479 3 8.10185V15.8981C2.99999 16.6252 2.99998 17.2202 3.0395 17.7038C3.0804 18.2045 3.1677 18.6572 3.38322 19.0802C3.72031 19.7418 4.25819 20.2797 4.91977 20.6168C5.34276 20.8323 5.7955 20.9196 6.2962 20.9605C6.77982 21 7.37481 21 8.10188 21H15.8981C16.6252 21 17.2202 21 17.7038 20.9605C18.2045 20.9196 18.6572 20.8323 19.0802 20.6168C19.7418 20.2797 20.2797 19.7418 20.6168 19.0802C20.8323 18.6572 20.9196 18.2045 20.9605 17.7038C21 17.2202 21 16.6252 21 15.8981V8.10188C21 7.37481 21 6.77982 20.9605 6.2962C20.9196 5.7955 20.8323 5.34276 20.6168 4.91977C20.2797 4.25819 19.7418 3.72031 19.0802 3.38322C18.6572 3.1677 18.2045 3.0804 17.7038 3.0395C17.2202 2.99998 16.6252 2.99999 15.8981 3ZM5.66068 4.83734C5.81526 4.75858 6.02933 4.69874 6.42909 4.66608C6.83839 4.63264 7.36647 4.632 8.136 4.632H15.864C16.6335 4.632 17.1616 4.63264 17.5709 4.66608C17.9707 4.69874 18.1847 4.75858 18.3393 4.83734C18.6938 5.01797 18.982 5.30619 19.1627 5.66068C19.2414 5.81526 19.3013 6.02933 19.3339 6.42909C19.3674 6.83839 19.368 7.36647 19.368 8.136V15.864C19.368 16.6335 19.3674 17.1616 19.3339 17.5709C19.3013 17.9707 19.2414 18.1847 19.1627 18.3393C18.982 18.6938 18.6938 18.982 18.3393 19.1627C18.1847 19.2414 17.9707 19.3013 17.5709 19.3339C17.1616 19.3674 16.6335 19.368 15.864 19.368H8.136C7.36647 19.368 6.83839 19.3674 6.42909 19.3339C6.02933 19.3013 5.81526 19.2414 5.66068 19.1627C5.30619 18.982 5.01797 18.6938 4.83734 18.3393C4.75858 18.1847 4.69874 17.9707 4.66608 17.5709C4.63264 17.1616 4.632 16.6335 4.632 15.864V8.136C4.632 7.36647 4.63264 6.83839 4.66608 6.42909C4.69874 6.02933 4.75858 5.81526 4.83734 5.66068C5.01797 5.30619 5.30619 5.01797 5.66068 4.83734ZM7.5 8.23955C7.5 7.83111 7.83111 7.5 8.23955 7.5C12.8017 7.5 16.5 11.1983 16.5 15.7604C16.5 16.1689 16.1689 16.5 15.7604 16.5C15.352 16.5 15.0209 16.1689 15.0209 15.7604C15.0209 12.0152 11.9848 8.97911 8.23955 8.97911C7.83111 8.97911 7.5 8.648 7.5 8.23955ZM8.23955 10.365C7.83111 10.365 7.5 10.6961 7.5 11.1045C7.5 11.513 7.83111 11.8441 8.23955 11.8441C10.4024 11.8441 12.1558 13.5974 12.1558 15.7603C12.1558 16.1687 12.4869 16.4999 12.8953 16.4999C13.3038 16.4999 13.6349 16.1687 13.6349 15.7603C13.6349 12.7805 11.2193 10.365 8.23955 10.365ZM8.23955 13.2294C7.83111 13.2294 7.5 13.5605 7.5 13.9689C7.5 14.3774 7.83111 14.7085 8.23955 14.7085C8.82008 14.7085 9.29069 15.1791 9.29069 15.7596C9.29069 16.1681 9.6218 16.4992 10.0302 16.4992C10.4387 16.4992 10.7698 16.1681 10.7698 15.7596C10.7698 14.3622 9.63697 13.2294 8.23955 13.2294Z" fill="black" fill-opacity="0.5" style="fill:black;fill-opacity:0.5;"/>
</svg>