<svg xmlns="http://www.w3.org/2000/svg" width="20" height="20" viewBox="0 0 20 20" fill="none">
    <path fill-rule="evenodd" clip-rule="evenodd" d="M13.2485 2.5H6.75154H6.75153C6.14565 2.49999 5.64984 2.49999 5.24683 2.53291C4.82959 2.567 4.4523 2.63975 4.09981 2.81935C3.54849 3.10026 3.10026 3.54849 2.81935 4.09981C2.63975 4.4523 2.567 4.82959 2.53291 5.24683C2.49999 5.64984 2.49999 6.14565 2.5 6.75153V6.75154V13.2485V13.2485C2.49999 13.8543 2.49999 14.3502 2.53291 14.7532C2.567 15.1704 2.63975 15.5477 2.81935 15.9002C3.10026 16.4515 3.54849 16.8997 4.09981 17.1806C4.4523 17.3603 4.82959 17.433 5.24683 17.4671C5.64985 17.5 6.14567 17.5 6.75157 17.5H13.2484C13.8543 17.5 14.3502 17.5 14.7532 17.4671C15.1704 17.433 15.5477 17.3603 15.9002 17.1806C16.4515 16.8997 16.8997 16.4515 17.1806 15.9002C17.3603 15.5477 17.433 15.1704 17.4671 14.7532C17.5 14.3502 17.5 13.8543 17.5 13.2484V6.75157C17.5 6.14567 17.5 5.64985 17.4671 5.24683C17.433 4.82959 17.3603 4.4523 17.1806 4.09981C16.8997 3.54849 16.4515 3.10026 15.9002 2.81935C15.5477 2.63975 15.1704 2.567 14.7532 2.53291C14.3502 2.49999 13.8543 2.49999 13.2485 2.5H13.2485ZM4.71724 4.03112C4.84605 3.96549 5.02444 3.91562 5.35758 3.8884C5.69866 3.86053 6.13872 3.86 6.78 3.86H13.22C13.8613 3.86 14.3013 3.86053 14.6424 3.8884C14.9756 3.91562 15.154 3.96549 15.2828 4.03112C15.5782 4.18164 15.8184 4.42182 15.9689 4.71724C16.0345 4.84605 16.0844 5.02444 16.1116 5.35758C16.1395 5.69866 16.14 6.13872 16.14 6.78V13.22C16.14 13.8613 16.1395 14.3013 16.1116 14.6424C16.0844 14.9756 16.0345 15.154 15.9689 15.2828C15.8184 15.5782 15.5782 15.8184 15.2828 15.9689C15.154 16.0345 14.9756 16.0844 14.6424 16.1116C14.3013 16.1395 13.8613 16.14 13.22 16.14H6.78C6.13872 16.14 5.69866 16.1395 5.35758 16.1116C5.02444 16.0844 4.84605 16.0345 4.71724 15.9689C4.42182 15.8184 4.18164 15.5782 4.03112 15.2828C3.96549 15.154 3.91562 14.9756 3.8884 14.6424C3.86053 14.3013 3.86 13.8613 3.86 13.22V6.78C3.86 6.13872 3.86053 5.69866 3.8884 5.35758C3.91562 5.02444 3.96549 4.84605 4.03112 4.71724C4.18164 4.42182 4.42182 4.18164 4.71724 4.03112ZM6.25 6.8663C6.25 6.52592 6.52593 6.25 6.8663 6.25C10.6681 6.25 13.75 9.33194 13.75 13.1337C13.75 13.4741 13.4741 13.75 13.1337 13.75C12.7933 13.75 12.5174 13.4741 12.5174 13.1337C12.5174 10.0127 9.98732 7.48259 6.8663 7.48259C6.52593 7.48259 6.25 7.20667 6.25 6.8663ZM6.8663 8.63747C6.52593 8.63747 6.25 8.91339 6.25 9.25376C6.25 9.59413 6.52593 9.87006 6.8663 9.87006C8.66869 9.87006 10.1298 11.3312 10.1298 13.1336C10.1298 13.474 10.4057 13.7499 10.7461 13.7499C11.0865 13.7499 11.3624 13.474 11.3624 13.1336C11.3624 10.6504 9.34943 8.63747 6.8663 8.63747ZM6.8663 11.0245C6.52593 11.0245 6.25 11.3004 6.25 11.6408C6.25 11.9811 6.52593 12.2571 6.8663 12.2571C7.35007 12.2571 7.74224 12.6492 7.74224 13.133C7.74224 13.4734 8.01817 13.7493 8.35854 13.7493C8.69891 13.7493 8.97483 13.4734 8.97483 13.133C8.97483 11.9685 8.03081 11.0245 6.8663 11.0245Z" fill="black" fill-opacity="0.95" style="fill:black;fill-opacity:0.95;"/>
</svg>