<svg xmlns="http://www.w3.org/2000/svg" width="20" height="20" viewBox="0 0 20 20" fill="none">
    <path fill-rule="evenodd" clip-rule="evenodd" d="M8.96913 2.39082C9.39082 1.53639 10.6092 1.53639 11.0309 2.39082L12.9358 6.25053L17.1952 6.86946C18.1381 7.00648 18.5146 8.16524 17.8323 8.83032L14.7502 11.8347L15.4778 16.0769C15.6389 17.016 14.6532 17.7322 13.8098 17.2888L10 15.2859L6.19026 17.2888C5.34688 17.7322 4.36118 17.016 4.52225 16.0769L5.24985 11.8347L2.1677 8.83032C1.48539 8.16524 1.8619 7.00648 2.80482 6.86946L7.06425 6.25053L8.96913 2.39082ZM10 3.37501L8.1256 7.173C8.02655 7.3737 7.83508 7.5128 7.6136 7.54499L3.42228 8.15402L6.45515 11.1103C6.61542 11.2666 6.68855 11.4916 6.65071 11.7122L5.93475 15.8866L9.68359 13.9157C9.88169 13.8116 10.1184 13.8116 10.3165 13.9157L14.0653 15.8866L13.3493 11.7122C13.3115 11.4916 13.3846 11.2666 13.5449 11.1103L16.5778 8.15402L12.3864 7.54499C12.165 7.5128 11.9735 7.3737 11.8744 7.173L10 3.37501Z" fill="black" fill-opacity="0.95" style="fill:black;fill-opacity:0.95;"/>
</svg>