<svg xmlns="http://www.w3.org/2000/svg" width="20" height="20" viewBox="0 0 20 20" fill="none">
    <path fill-rule="evenodd" clip-rule="evenodd" d="M10 3.68007C7.88325 3.68007 6.0091 4.72022 4.86125 6.32007H7.25001C7.62556 6.32007 7.93001 6.62451 7.93001 7.00007C7.93001 7.37562 7.62556 7.68007 7.25001 7.68007H3.25001C2.87445 7.68007 2.57001 7.37562 2.57001 7.00007V3.00007C2.57001 2.62451 2.87445 2.32007 3.25001 2.32007C3.62556 2.32007 3.93001 2.62451 3.93001 3.00007V5.29451C5.33414 3.48581 7.53078 2.32007 10 2.32007C14.2416 2.32007 17.68 5.75852 17.68 10.0001C17.68 10.3756 17.3756 10.6801 17 10.6801C16.6245 10.6801 16.32 10.3756 16.32 10.0001C16.32 6.50963 13.4904 3.68007 10 3.68007ZM3.00001 9.32007C3.37556 9.32007 3.68001 9.62451 3.68001 10.0001C3.68001 13.4905 6.50957 16.3201 10 16.3201C12.1168 16.3201 13.991 15.2799 15.1389 13.6799H12.75C12.3745 13.6799 12.07 13.3755 12.07 12.9999C12.07 12.6244 12.3745 12.3199 12.75 12.3199H16.75C17.1256 12.3199 17.43 12.6244 17.43 12.9999V16.9999C17.43 17.3755 17.1256 17.6799 16.75 17.6799C16.3745 17.6799 16.07 17.3755 16.07 16.9999V14.7056C14.6659 16.5143 12.4692 17.6801 10 17.6801C5.75846 17.6801 2.32001 14.2416 2.32001 10.0001C2.32001 9.62451 2.62445 9.32007 3.00001 9.32007Z" fill="black" fill-opacity="0.95" style="fill:black;fill-opacity:0.95;"/>
</svg>