<svg xmlns="http://www.w3.org/2000/svg" width="20" height="20" viewBox="0 0 20 20" fill="none">
    <path fill-rule="evenodd" clip-rule="evenodd" d="M3.36 10C3.36 6.33283 6.33283 3.36 10 3.36C13.6672 3.36 16.64 6.33283 16.64 10C16.64 13.6672 13.6672 16.64 10 16.64C6.33283 16.64 3.36 13.6672 3.36 10ZM10 2C5.58172 2 2 5.58172 2 10C2 14.4183 5.58172 18 10 18C14.4183 18 18 14.4183 18 10C18 5.58172 14.4183 2 10 2ZM10.68 6.50007C10.68 6.12451 10.3756 5.82007 10 5.82007C9.62445 5.82007 9.32001 6.12451 9.32001 6.50007V10.5001C9.32001 10.8756 9.62445 11.1801 10 11.1801H13C13.3756 11.1801 13.68 10.8756 13.68 10.5001C13.68 10.1245 13.3756 9.82007 13 9.82007H10.68V6.50007Z" fill="black" fill-opacity="0.95" style="fill:black;fill-opacity:0.95;"/>
</svg>