<svg xmlns="http://www.w3.org/2000/svg" width="24" height="24" viewBox="0 0 24 24" fill="none">
    <path fill-rule="evenodd" clip-rule="evenodd" d="M4.03202 12C4.03202 7.59939 7.59942 4.03199 12 4.03199C16.4006 4.03199 19.968 7.59939 19.968 12C19.968 16.4006 16.4006 19.968 12 19.968C7.59942 19.968 4.03202 16.4006 4.03202 12ZM12 2.39999C6.69809 2.39999 2.40002 6.69806 2.40002 12C2.40002 17.3019 6.69809 21.6 12 21.6C17.302 21.6 21.6 17.3019 21.6 12C21.6 6.69806 17.302 2.39999 12 2.39999ZM12.816 7.80008C12.816 7.34941 12.4507 6.98408 12 6.98408C11.5494 6.98408 11.184 7.34941 11.184 7.80008V12.6001C11.184 13.0507 11.5494 13.4161 12 13.4161H15.6C16.0507 13.4161 16.416 13.0507 16.416 12.6001C16.416 12.1494 16.0507 11.7841 15.6 11.7841H12.816V7.80008Z" fill="black" fill-opacity="0.5" style="fill:black;fill-opacity:0.5;"/>
</svg>