<svg xmlns="http://www.w3.org/2000/svg" width="20" height="20" viewBox="0 0 20 20" fill="none">
    <path fill-rule="evenodd" clip-rule="evenodd" d="M13.6574 3.85974C13.6791 4.12529 13.68 4.44606 13.6801 4.82045H17.0001C17.3756 4.82045 17.6801 5.1249 17.6801 5.50045C17.6801 5.876 17.3756 6.18045 17.0001 6.18045H15.9478L15.5925 15.4166C15.5409 16.759 14.4377 17.8206 13.0944 17.8206H6.90576C5.56243 17.8206 4.45923 16.759 4.4076 15.4166L4.05236 6.18045H3.00007C2.62451 6.18045 2.32007 5.876 2.32007 5.50045C2.32007 5.1249 2.62451 4.82045 3.00007 4.82045H6.32007C6.3201 4.44606 6.32107 4.12529 6.34276 3.85974C6.36664 3.56756 6.41895 3.28289 6.55768 3.01061C6.76668 2.60042 7.10018 2.26692 7.51037 2.05792C7.78264 1.91919 8.06732 1.86688 8.3595 1.84301C8.63752 1.82029 8.97608 1.8203 9.37333 1.82031H9.37336H10.6268H10.6268C11.0241 1.8203 11.3626 1.82029 11.6406 1.84301C11.9328 1.86688 12.2175 1.91919 12.4898 2.05792C12.9 2.26692 13.2335 2.60042 13.4425 3.01061C13.5812 3.28289 13.6335 3.56756 13.6574 3.85974ZM7.68008 4.82031C7.6802 4.43361 7.68171 4.17285 7.69825 3.97049C7.71525 3.76241 7.74468 3.67664 7.76944 3.62804C7.84806 3.47375 7.9735 3.3483 8.1278 3.26969C8.17639 3.24493 8.26217 3.21549 8.47025 3.19849C8.68626 3.18084 8.96881 3.18031 9.40007 3.18031H10.6001C11.0313 3.18031 11.3139 3.18084 11.5299 3.19849C11.738 3.21549 11.8237 3.24493 11.8723 3.26969C12.0266 3.3483 12.1521 3.47375 12.2307 3.62804C12.2555 3.67664 12.2849 3.76241 12.3019 3.97049C12.3184 4.17285 12.3199 4.43361 12.3201 4.82031H7.68008ZM9.18007 8.75045C9.18007 8.3749 8.87562 8.07045 8.50007 8.07045C8.12451 8.07045 7.82007 8.3749 7.82007 8.75045V13.7505C7.82007 14.126 8.12451 14.4305 8.50007 14.4305C8.87562 14.4305 9.18007 14.126 9.18007 13.7505V8.75045ZM11.5001 8.07045C11.8756 8.07045 12.1801 8.3749 12.1801 8.75045V13.7505C12.1801 14.126 11.8756 14.4305 11.5001 14.4305C11.1245 14.4305 10.8201 14.126 10.8201 13.7505V8.75045C10.8201 8.3749 11.1245 8.07045 11.5001 8.07045ZM5.7666 15.3644L5.41337 6.18056H14.5867L14.2335 15.3644C14.21 15.9765 13.7069 16.4606 13.0944 16.4606H6.90576C6.2932 16.4606 5.79014 15.9765 5.7666 15.3644Z" fill="black" fill-opacity="0.5" style="fill:black;fill-opacity:0.5;"/>
</svg>