<svg xmlns="http://www.w3.org/2000/svg" width="20" height="20" viewBox="0 0 20 20" fill="none">
    <path fill-rule="evenodd" clip-rule="evenodd" d="M13.6573 3.85926C13.679 4.1248 13.68 4.44557 13.68 4.81996H17C17.3756 4.81996 17.68 5.12441 17.68 5.49996C17.68 5.87552 17.3756 6.17996 17 6.17996H15.9477L15.5925 15.4162C15.5408 16.7585 14.4376 17.8201 13.0943 17.8201H6.90569C5.56237 17.8201 4.45917 16.7585 4.40754 15.4162L4.0523 6.17996H3.00001C2.62445 6.17996 2.32001 5.87552 2.32001 5.49996C2.32001 5.12441 2.62445 4.81996 3.00001 4.81996H6.32001C6.32004 4.44557 6.32101 4.1248 6.3427 3.85926C6.36657 3.56708 6.41888 3.2824 6.55761 3.01013C6.76662 2.59993 7.10012 2.26644 7.51031 2.05743C7.78258 1.9187 8.06726 1.86639 8.35944 1.84252C8.63747 1.8198 8.97603 1.81981 9.37329 1.81982H9.3733H10.6267H10.6267C11.024 1.81981 11.3625 1.8198 11.6406 1.84252C11.9328 1.86639 12.2174 1.9187 12.4897 2.05743C12.8999 2.26644 13.2334 2.59993 13.4424 3.01013C13.5811 3.2824 13.6334 3.56708 13.6573 3.85926ZM7.68002 4.81983C7.68014 4.43312 7.68165 4.17237 7.69819 3.97C7.71519 3.76193 7.74462 3.67615 7.76938 3.62755C7.848 3.47326 7.97344 3.34782 8.12774 3.2692C8.17633 3.24444 8.26211 3.215 8.47019 3.198C8.6862 3.18035 8.96875 3.17983 9.40001 3.17983H10.6C11.0313 3.17983 11.3138 3.18035 11.5298 3.198C11.7379 3.215 11.8237 3.24444 11.8723 3.2692C12.0266 3.34782 12.152 3.47326 12.2306 3.62755C12.2554 3.67615 12.2848 3.76193 12.3018 3.97C12.3184 4.17237 12.3199 4.43312 12.32 4.81983H7.68002ZM9.18001 8.74996C9.18001 8.37441 8.87556 8.06996 8.50001 8.06996C8.12445 8.06996 7.82001 8.37441 7.82001 8.74996V13.75C7.82001 14.1255 8.12445 14.43 8.50001 14.43C8.87556 14.43 9.18001 14.1255 9.18001 13.75V8.74996ZM11.5 8.06996C11.8756 8.06996 12.18 8.37441 12.18 8.74996V13.75C12.18 14.1255 11.8756 14.43 11.5 14.43C11.1245 14.43 10.82 14.1255 10.82 13.75V8.74996C10.82 8.37441 11.1245 8.06996 11.5 8.06996ZM5.76654 15.3639L5.41331 6.18007H14.5867L14.2335 15.3639C14.2099 15.976 13.7069 16.4601 13.0943 16.4601H6.90569C6.29314 16.4601 5.79008 15.976 5.76654 15.3639Z" fill="black" fill-opacity="0.95" style="fill:black;fill-opacity:0.95;"/>
</svg>