<svg xmlns="http://www.w3.org/2000/svg" width="20" height="20" viewBox="0 0 20 20" fill="none">
    <path fill-rule="evenodd" clip-rule="evenodd"
        d="M13.6571 3.85926C13.6788 4.1248 13.6798 4.44557 13.6798 4.81996H16.9998C17.3754 4.81996 17.6798 5.12441 17.6798 5.49996C17.6798 5.87552 17.3754 6.17996 16.9998 6.17996H15.9475L15.5923 15.4162C15.5406 16.7585 14.4375 17.8201 13.0941 17.8201H6.90551C5.56218 17.8201 4.45899 16.7585 4.40736 15.4162L4.05212 6.17996H2.99982C2.62427 6.17996 2.31982 5.87552 2.31982 5.49996C2.31982 5.12441 2.62427 4.81996 2.99982 4.81996H6.31983C6.31986 4.44557 6.32082 4.1248 6.34252 3.85926C6.36639 3.56708 6.4187 3.2824 6.55743 3.01013C6.76644 2.59993 7.09993 2.26644 7.51013 2.05743C7.7824 1.9187 8.06707 1.86639 8.35925 1.84252C8.63728 1.8198 8.97583 1.81981 9.37308 1.81982H9.37311H10.6265H10.6266C11.0238 1.81981 11.3624 1.8198 11.6404 1.84252C11.9326 1.86639 12.2173 1.9187 12.4895 2.05743C12.8997 2.26644 13.2332 2.59993 13.4422 3.01013C13.5809 3.2824 13.6333 3.56708 13.6571 3.85926ZM7.67984 4.81983C7.67996 4.43312 7.68147 4.17237 7.698 3.97C7.715 3.76193 7.74444 3.67615 7.7692 3.62755C7.84782 3.47326 7.97326 3.34782 8.12755 3.2692C8.17615 3.24444 8.26193 3.215 8.47 3.198C8.68602 3.18035 8.96857 3.17983 9.39983 3.17983H10.5998C11.0311 3.17983 11.3136 3.18035 11.5296 3.198C11.7377 3.215 11.8235 3.24444 11.8721 3.2692C12.0264 3.34782 12.1518 3.47326 12.2304 3.62755C12.2552 3.67615 12.2846 3.76193 12.3016 3.97C12.3182 4.17237 12.3197 4.43312 12.3198 4.81983H7.67984ZM9.17982 8.74996C9.17982 8.37441 8.87538 8.06996 8.49982 8.06996C8.12427 8.06996 7.81982 8.37441 7.81982 8.74996V13.75C7.81982 14.1255 8.12427 14.43 8.49982 14.43C8.87538 14.43 9.17982 14.1255 9.17982 13.75V8.74996ZM11.4998 8.06996C11.8754 8.06996 12.1798 8.37441 12.1798 8.74996V13.75C12.1798 14.1255 11.8754 14.43 11.4998 14.43C11.1243 14.43 10.8198 14.1255 10.8198 13.75V8.74996C10.8198 8.37441 11.1243 8.06996 11.4998 8.06996ZM5.76635 15.3639L5.41313 6.18007H14.5865L14.2333 15.3639C14.2097 15.976 13.7067 16.4601 13.0941 16.4601H6.90551C6.29295 16.4601 5.7899 15.976 5.76635 15.3639Z"
        fill="#FF3B30"
/>
</svg>