<svg xmlns="http://www.w3.org/2000/svg" width="20" height="20" viewBox="0 0 20 20" fill="none">
    <path d="M12.1372 7.25C13.3489 7.25 13.9547 7.25 14.2352 7.48959C14.4786 7.69749 14.6078 8.00934 14.5827 8.32846C14.5537 8.69624 14.1254 9.12462 13.2686 9.98137L11.1313 12.1186C10.7353 12.5146 10.5373 12.7127 10.309 12.7868C10.1082 12.8521 9.8918 12.8521 9.69096 12.7868C9.46263 12.7127 9.26462 12.5146 8.86861 12.1186L6.73135 9.98137C5.87459 9.12462 5.44622 8.69624 5.41727 8.32846C5.39216 8.00934 5.52133 7.69749 5.76474 7.48959C6.04527 7.25 6.65109 7.25 7.86272 7.25H12.1372Z" fill="black" fill-opacity="0.95" style="fill:black;fill-opacity:0.95;"/>
</svg>