<svg xmlns="http://www.w3.org/2000/svg" width="20" height="20" viewBox="0 0 20 20" fill="none">
    <path d="M7.25 7.85845C7.25 6.64681 7.25 6.041 7.48959 5.76047C7.69749 5.51706 8.00934 5.38789 8.32846 5.413C8.69624 5.44195 9.12462 5.87032 9.98137 6.72707L12.1186 8.86433C12.5146 9.26035 12.7127 9.45836 12.7868 9.68669C12.8521 9.88753 12.8521 10.1039 12.7868 10.3047C12.7127 10.533 12.5146 10.7311 12.1186 11.1271L9.98137 13.2643C9.12462 14.1211 8.69624 14.5495 8.32846 14.5784C8.00934 14.6035 7.69749 14.4743 7.48959 14.2309C7.25 13.9504 7.25 13.3446 7.25 12.133L7.25 7.85845Z" fill="black" fill-opacity="0.95" style="fill:black;fill-opacity:0.95;"/>
</svg>