<svg xmlns="http://www.w3.org/2000/svg" width="20" height="20" viewBox="0 0 20 20" fill="none">
    <path
        d="M12.1373 7.25C13.3489 7.25 13.9547 7.25 14.2352 7.48959C14.4787 7.69749 14.6078 8.00934 14.5827 8.32846C14.5538 8.69624 14.1254 9.12462 13.2686 9.98137L11.1314 12.1186C10.7354 12.5146 10.5374 12.7127 10.309 12.7868C10.1082 12.8521 9.89183 12.8521 9.69099 12.7868C9.46266 12.7127 9.26465 12.5146 8.86864 12.1186L6.73138 9.98137C5.87463 9.12462 5.44625 8.69624 5.4173 8.32846C5.39219 8.00934 5.52136 7.69749 5.76477 7.48959C6.0453 7.25 6.65112 7.25 7.86275 7.25H12.1373Z"
        fill="black" fill-opacity="0.5"
   />
</svg>