<svg xmlns="http://www.w3.org/2000/svg" width="20" height="20" viewBox="0 0 20 20" fill="none">
    <path fill-rule="evenodd" clip-rule="evenodd" d="M3.36 10C3.36 6.33283 6.33283 3.36 10 3.36C13.6672 3.36 16.64 6.33283 16.64 10C16.64 13.6672 13.6672 16.64 10 16.64C6.33283 16.64 3.36 13.6672 3.36 10ZM10 2C5.58172 2 2 5.58172 2 10C2 14.4183 5.58172 18 10 18C14.4183 18 18 14.4183 18 10C18 5.58172 14.4183 2 10 2ZM10 5.32007C9.84564 5.32007 9.69282 5.32757 9.54192 5.34225C9.16813 5.37863 8.89461 5.71113 8.93098 6.08492C8.96736 6.45871 9.29987 6.73223 9.67365 6.69586C9.78084 6.68542 9.8897 6.68007 10 6.68007C10.1103 6.68007 10.2192 6.68542 10.3264 6.69586C10.7001 6.73223 11.0327 6.45871 11.069 6.08492C11.1054 5.71113 10.8319 5.37863 10.4581 5.34225C10.3072 5.32757 10.1544 5.32007 10 5.32007ZM12.9693 6.3825C12.6791 6.14409 12.2506 6.18605 12.0122 6.47623C11.7738 6.7664 11.8158 7.1949 12.1059 7.43331C12.2741 7.57152 12.4286 7.72593 12.5668 7.89414C12.8052 8.18431 13.2337 8.22627 13.5238 7.98786C13.814 7.74945 13.856 7.32095 13.6176 7.03077C13.4231 6.79413 13.2059 6.57693 12.9693 6.3825ZM7.89408 7.43331C8.18425 7.1949 8.22621 6.7664 7.9878 6.47623C7.74939 6.18605 7.32089 6.14409 7.03071 6.3825C6.79407 6.57693 6.57687 6.79413 6.38244 7.03077C6.14403 7.32095 6.18599 7.74945 6.47616 7.98786C6.76634 8.22627 7.19484 8.18431 7.43325 7.89414C7.57145 7.72593 7.72587 7.57152 7.89408 7.43331ZM14.6578 9.54198C14.6214 9.16819 14.2889 8.89467 13.9152 8.93105C13.5414 8.96742 13.2678 9.29993 13.3042 9.67372C13.3147 9.7809 13.32 9.88976 13.32 10.0001C13.32 10.1104 13.3147 10.2192 13.3042 10.3264C13.2678 10.7002 13.5414 11.0327 13.9152 11.0691C14.2889 11.1055 14.6214 10.8319 14.6578 10.4582C14.6725 10.3073 14.68 10.1544 14.68 10.0001C14.68 9.8457 14.6725 9.69288 14.6578 9.54198ZM6.6958 9.67372C6.73217 9.29993 6.45865 8.96742 6.08486 8.93105C5.71107 8.89467 5.37857 9.16819 5.34219 9.54198C5.3275 9.69288 5.32001 9.8457 5.32001 10.0001C5.32001 10.1544 5.3275 10.3073 5.34219 10.4582C5.37857 10.8319 5.71107 11.1055 6.08486 11.0691C6.45865 11.0327 6.73217 10.7002 6.6958 10.3264C6.68536 10.2192 6.68001 10.1104 6.68001 10.0001C6.68001 9.88976 6.68536 9.7809 6.6958 9.67372ZM13.6176 12.9694C13.856 12.6792 13.814 12.2507 13.5239 12.0123C13.2337 11.7739 12.8052 11.8158 12.5668 12.106C12.4286 12.2742 12.2741 12.4286 12.1059 12.5668C11.8158 12.8052 11.7738 13.2337 12.0122 13.5239C12.2506 13.8141 12.6791 13.856 12.9693 13.6176C13.2059 13.4232 13.4231 13.206 13.6176 12.9694ZM7.43325 12.106C7.19484 11.8158 6.76634 11.7739 6.47616 12.0123C6.18599 12.2507 6.14403 12.6792 6.38244 12.9694C6.57687 13.206 6.79407 13.4232 7.03071 13.6176C7.32089 13.856 7.74939 13.8141 7.9878 13.5239C8.22621 13.2337 8.18425 12.8052 7.89408 12.5668C7.72587 12.4286 7.57145 12.2742 7.43325 12.106ZM9.67365 13.3043C9.29987 13.2679 8.96736 13.5414 8.93098 13.9152C8.89461 14.289 9.16813 14.6215 9.54192 14.6579C9.69282 14.6726 9.84564 14.6801 10 14.6801C10.1544 14.6801 10.3072 14.6726 10.4581 14.6579C10.8319 14.6215 11.1054 14.289 11.069 13.9152C11.0327 13.5414 10.7001 13.2679 10.3264 13.3043C10.2192 13.3147 10.1103 13.3201 10 13.3201C9.8897 13.3201 9.78084 13.3147 9.67365 13.3043Z" fill="black" fill-opacity="0.95" style="fill:black;fill-opacity:0.95;"/>
</svg>