<svg xmlns="http://www.w3.org/2000/svg" width="20" height="20" viewBox="0 0 20 20" fill="none">
    <path fill-rule="evenodd" clip-rule="evenodd"
        d="M11.1597 10.0001L14.8225 6.33733C15.1427 6.0171 15.1427 5.4979 14.8225 5.17767C14.5023 4.85744 13.9831 4.85744 13.6628 5.17767L10 8.84049L6.33721 5.17767C6.01698 4.85744 5.49778 4.85744 5.17755 5.17767C4.85732 5.4979 4.85732 6.0171 5.17755 6.33733L8.84036 10.0001L5.17755 13.663C4.85732 13.9832 4.85732 14.5024 5.17755 14.8226C5.49778 15.1428 6.01698 15.1428 6.33721 14.8226L10 11.1598L13.6628 14.8226C13.9831 15.1428 14.5023 15.1428 14.8225 14.8226C15.1427 14.5024 15.1427 13.9832 14.8225 13.663L11.1597 10.0001Z"
        fill="black" fill-opacity="0.95"
 />
</svg>