<svg xmlns="http://www.w3.org/2000/svg" width="20" height="20" viewBox="0 0 20 20" fill="none">
    <path fill-rule="evenodd" clip-rule="evenodd" d="M10 18C14.4183 18 18 14.4183 18 10C18 5.58172 14.4183 2 10 2C5.58172 2 2 5.58172 2 10C2 14.4183 5.58172 18 10 18ZM13.2235 6.77656C13.489 7.04212 13.489 7.47267 13.2235 7.73823L10.9617 10L13.2235 12.2618C13.489 12.5274 13.489 12.958 13.2235 13.2235C12.9579 13.4891 12.5274 13.4891 12.2618 13.2235L10 10.9617L7.73819 13.2235C7.47264 13.4891 7.04209 13.4891 6.77653 13.2235C6.51097 12.958 6.51097 12.5274 6.77653 12.2618L9.03834 10L6.77653 7.73823C6.51097 7.47267 6.51097 7.04212 6.77653 6.77656C7.04209 6.511 7.47264 6.511 7.73819 6.77656L10 9.03837L12.2618 6.77656C12.5274 6.511 12.9579 6.511 13.2235 6.77656Z" fill="black" fill-opacity="0.95" style="fill:black;fill-opacity:0.95;"/>
</svg>