<svg xmlns="http://www.w3.org/2000/svg" width="24" height="24" viewBox="0 0 24 24" fill="none">
    <path fill-rule="evenodd" clip-rule="evenodd"
        d="M12 21.5999C17.302 21.5999 21.6 17.3018 21.6 11.9999C21.6 6.69797 17.302 2.3999 12 2.3999C6.69809 2.3999 2.40002 6.69797 2.40002 11.9999C2.40002 17.3018 6.69809 21.5999 12 21.5999ZM15.8682 8.13177C16.1869 8.45044 16.1869 8.9671 15.8682 9.28577L13.154 11.9999L15.8682 14.7141C16.1869 15.0328 16.1869 15.5494 15.8682 15.8681C15.5495 16.1868 15.0329 16.1868 14.7142 15.8681L12 13.1539L9.28586 15.8681C8.96719 16.1868 8.45053 16.1868 8.13186 15.8681C7.81319 15.5494 7.81319 15.0328 8.13186 14.7141L10.846 11.9999L8.13186 9.28577C7.81319 8.9671 7.81319 8.45044 8.13186 8.13177C8.45053 7.81311 8.96719 7.81311 9.28586 8.13177L12 10.8459L14.7142 8.13177C15.0329 7.81311 15.5495 7.81311 15.8682 8.13177Z"
        fill="black" fill-opacity="0.5"
 />
</svg>