<svg width="32" height="32" viewBox="0 0 32 32" fill="none" xmlns="http://www.w3.org/2000/svg">
    <path d="M15.9917 10.4121C15.6486 10.4121 15.3359 10.3291 15.0537 10.1631C14.777 9.99707 14.5529 9.77295 14.3813 9.49072C14.2153 9.2085 14.1323 8.89583 14.1323 8.55273C14.1323 8.20964 14.2153 7.89697 14.3813 7.61475C14.5529 7.33252 14.777 7.1084 15.0537 6.94238C15.3359 6.77637 15.6486 6.69336 15.9917 6.69336C16.3348 6.69336 16.6475 6.77637 16.9297 6.94238C17.2119 7.1084 17.436 7.33252 17.6021 7.61475C17.7736 7.89697 17.8594 8.20964 17.8594 8.55273C17.8594 8.89583 17.7736 9.2085 17.6021 9.49072C17.436 9.77295 17.2119 9.99707 16.9297 10.1631C16.6475 10.3291 16.3348 10.4121 15.9917 10.4121ZM15.9917 18.3145C15.8312 18.3145 15.7067 18.3753 15.6182 18.4971C15.5352 18.6188 15.4466 18.8319 15.3525 19.1362C15.2917 19.3078 15.2142 19.5706 15.1201 19.9248C15.026 20.2734 14.9209 20.6691 14.8047 21.1118C14.694 21.549 14.5806 21.9917 14.4644 22.4399C14.3537 22.8882 14.2513 23.2977 14.1572 23.6685C14.0632 24.0392 13.9857 24.3298 13.9248 24.54C13.7865 25.0436 13.5098 25.2954 13.0947 25.2954C12.818 25.2954 12.605 25.1875 12.4556 24.9717C12.3062 24.7614 12.2729 24.5179 12.356 24.2412C12.367 24.2025 12.403 24.0448 12.4639 23.7681C12.5303 23.4969 12.6133 23.151 12.7129 22.7305C12.8125 22.3154 12.9204 21.8644 13.0366 21.3774C13.1528 20.8905 13.2607 20.4146 13.3604 19.9497C13.4655 19.4793 13.5568 19.0615 13.6343 18.6963C13.7173 18.3255 13.7726 18.0544 13.8003 17.8828C13.8446 17.6117 13.8778 17.2824 13.8999 16.895C13.9276 16.5021 13.9469 16.0981 13.958 15.6831C13.9691 15.2681 13.9746 14.8862 13.9746 14.5376C13.9801 14.189 13.9829 13.9233 13.9829 13.7407C13.9774 13.4972 13.9165 13.298 13.8003 13.1431C13.6896 12.9881 13.5374 12.8913 13.3438 12.8525C13.2607 12.8359 13.0837 12.811 12.8125 12.7778C12.5469 12.7391 12.2342 12.6976 11.8745 12.6533C11.5203 12.6035 11.1634 12.5537 10.8037 12.5039C10.444 12.4541 10.1258 12.4098 9.84912 12.3711C9.57243 12.3268 9.38704 12.2936 9.29297 12.2715C9.10482 12.2327 8.95264 12.1387 8.83643 11.9893C8.72575 11.8398 8.67041 11.6628 8.67041 11.458C8.67041 11.209 8.74512 11.0125 8.89453 10.8687C9.04948 10.7192 9.2238 10.6445 9.41748 10.6445C9.47835 10.6445 9.54199 10.6528 9.6084 10.6694C9.68034 10.6805 9.75505 10.6943 9.83252 10.7109C10.1646 10.7773 10.5741 10.8438 11.061 10.9102C11.5535 10.971 12.0848 11.0291 12.6548 11.0845C13.2303 11.1343 13.8058 11.1758 14.3813 11.209C14.9569 11.2367 15.4937 11.2505 15.9917 11.2505C16.4953 11.2505 17.0348 11.2339 17.6104 11.2007C18.1914 11.1675 18.7642 11.126 19.3286 11.0762C19.8986 11.0208 20.4299 10.9627 20.9224 10.9019C21.4149 10.8354 21.8244 10.7718 22.1509 10.7109C22.2284 10.6943 22.3003 10.6805 22.3667 10.6694C22.4386 10.6528 22.5106 10.6445 22.5825 10.6445C22.7707 10.6445 22.9395 10.7192 23.0889 10.8687C23.2438 11.0181 23.3213 11.2145 23.3213 11.458C23.3213 11.6572 23.2632 11.8288 23.147 11.9727C23.0363 12.1165 22.8841 12.2161 22.6904 12.2715C22.6074 12.2992 22.4276 12.3351 22.1509 12.3794C21.8797 12.4237 21.5615 12.4707 21.1963 12.5205C20.8366 12.5648 20.4741 12.609 20.1089 12.6533C19.7492 12.6976 19.4338 12.7391 19.1626 12.7778C18.897 12.811 18.7254 12.8359 18.6479 12.8525C18.4487 12.8968 18.2938 12.9964 18.1831 13.1514C18.078 13.3008 18.0254 13.4972 18.0254 13.7407C18.0254 13.9233 18.0254 14.189 18.0254 14.5376C18.0309 14.8862 18.0365 15.2681 18.042 15.6831C18.0531 16.0981 18.0697 16.5021 18.0918 16.895C18.1139 17.2824 18.1471 17.6117 18.1914 17.8828C18.2135 18.0544 18.2633 18.3255 18.3408 18.6963C18.4183 19.0615 18.5096 19.4793 18.6147 19.9497C18.7254 20.4146 18.8361 20.8905 18.9468 21.3774C19.0575 21.8644 19.1626 22.3154 19.2622 22.7305C19.3674 23.151 19.4531 23.4969 19.5195 23.7681C19.5859 24.0448 19.6247 24.2025 19.6357 24.2412C19.7077 24.5179 19.6717 24.7614 19.5278 24.9717C19.384 25.1875 19.1737 25.2954 18.897 25.2954C18.4543 25.2954 18.1776 25.0436 18.0669 24.54C18.0171 24.3298 17.9451 24.0365 17.8511 23.6602C17.7625 23.2894 17.6602 22.8799 17.5439 22.4316C17.4277 21.9834 17.3115 21.5379 17.1953 21.0952C17.0846 20.6525 16.9795 20.2568 16.8799 19.9082C16.7858 19.5596 16.7111 19.3022 16.6558 19.1362C16.5672 18.8319 16.4759 18.6188 16.3818 18.4971C16.2878 18.3753 16.1577 18.3145 15.9917 18.3145Z" fill="black" fill-opacity="0.95" style="fill:black;fill-opacity:0.95;"/>
</svg>
