<svg xmlns="http://www.w3.org/2000/svg" width="20" height="20" viewBox="0 0 20 20" fill="none">
    <path fill-rule="evenodd" clip-rule="evenodd" d="M7.00001 2.32007C6.62445 2.32007 6.32001 2.62451 6.32001 3.00007C6.32001 3.37562 6.62445 3.68007 7.00001 3.68007H13C13.3756 3.68007 13.68 3.37562 13.68 3.00007C13.68 2.62451 13.3756 2.32007 13 2.32007H7.00001ZM4.82001 5.25007C4.82001 4.87451 5.12445 4.57007 5.50001 4.57007H14.5C14.8756 4.57007 15.18 4.87451 15.18 5.25007C15.18 5.62562 14.8756 5.93007 14.5 5.93007H5.50001C5.12445 5.93007 4.82001 5.62562 4.82001 5.25007ZM5.80328 6.82007H14.1967C14.594 6.82006 14.9325 6.82005 15.2106 6.84276C15.5027 6.86664 15.7874 6.91895 16.0597 7.05768C16.4699 7.26668 16.8034 7.60018 17.0124 8.01037C17.1511 8.28264 17.2034 8.56732 17.2273 8.8595C17.25 9.13753 17.25 9.47611 17.25 9.87338V14.7668C17.25 15.164 17.25 15.5026 17.2273 15.7806C17.2034 16.0728 17.1511 16.3575 17.0124 16.6298C16.8034 17.04 16.4699 17.3735 16.0597 17.5825C15.7874 17.7212 15.5027 17.7735 15.2106 17.7974C14.9325 17.8201 14.594 17.8201 14.1967 17.8201H5.80331C5.40603 17.8201 5.06746 17.8201 4.78942 17.7974C4.49724 17.7735 4.21257 17.7212 3.94029 17.5825C3.5301 17.3735 3.1966 17.04 2.9876 16.6298C2.84887 16.3575 2.79656 16.0728 2.77269 15.7806C2.74997 15.5026 2.74998 15.1641 2.74999 14.7668V14.7668V9.87336V9.87334C2.74998 9.47608 2.74997 9.13752 2.77269 8.8595C2.79656 8.56732 2.84887 8.28264 2.9876 8.01037C3.1966 7.60018 3.5301 7.26668 3.94029 7.05768C4.21257 6.91895 4.49724 6.86664 4.78942 6.84276C5.06745 6.82005 5.40602 6.82006 5.80328 6.82007ZM4.90017 8.19825C4.69209 8.21525 4.60632 8.24468 4.55772 8.26944C4.40343 8.34806 4.27798 8.4735 4.19937 8.6278C4.17461 8.67639 4.14517 8.76217 4.12817 8.97025C4.11052 9.18626 4.10999 9.46881 4.10999 9.90007V14.7401C4.10999 15.1713 4.11052 15.4539 4.12817 15.6699C4.14517 15.878 4.17461 15.9637 4.19937 16.0123C4.27798 16.1666 4.40343 16.2921 4.55772 16.3707C4.60632 16.3955 4.69209 16.4249 4.90017 16.4419C5.11618 16.4595 5.39873 16.4601 5.82999 16.4601H14.17C14.6013 16.4601 14.8838 16.4595 15.0998 16.4419C15.3079 16.4249 15.3937 16.3955 15.4423 16.3707C15.5966 16.2921 15.722 16.1666 15.8006 16.0123C15.8254 15.9637 15.8548 15.878 15.8718 15.6699C15.8895 15.4539 15.89 15.1713 15.89 14.7401V9.90007C15.89 9.46881 15.8895 9.18626 15.8718 8.97025C15.8548 8.76217 15.8254 8.67639 15.8006 8.6278C15.722 8.4735 15.5966 8.34806 15.4423 8.26944C15.3937 8.24468 15.3079 8.21525 15.0998 8.19825C14.8838 8.1806 14.6013 8.18007 14.17 8.18007H5.82999C5.39873 8.18007 5.11618 8.1806 4.90017 8.19825Z" fill="black" fill-opacity="0.95" style="fill:black;fill-opacity:0.95;"/>
</svg>