<svg width="32" height="32" viewBox="0 0 32 32" fill="none" xmlns="http://www.w3.org/2000/svg">
    <path d="M15.6431 24.9053C14.9458 24.9053 14.4256 24.7448 14.0825 24.4238C13.7394 24.1084 13.5679 23.627 13.5679 22.9795V20.207L11.1772 21.5933C10.7954 21.8201 10.4302 21.9336 10.0815 21.9336C9.77165 21.9336 9.48112 21.8395 9.20996 21.6514C8.94434 21.4577 8.69808 21.1644 8.47119 20.7715L8.11426 20.1489C7.84863 19.6841 7.71582 19.2663 7.71582 18.8955C7.71582 18.5967 7.8016 18.3228 7.97314 18.0737C8.15023 17.8192 8.41309 17.5923 8.76172 17.3931L11.144 16.0068L8.76172 14.6289C8.06999 14.2305 7.72412 13.7269 7.72412 13.1182C7.72412 12.7585 7.85693 12.3434 8.12256 11.873L8.47119 11.2588C8.70361 10.8659 8.95264 10.5726 9.21826 10.3789C9.48942 10.1852 9.78271 10.0884 10.0981 10.0884C10.4412 10.0884 10.8065 10.2018 11.1938 10.4287L13.5679 11.7983V9.04248C13.5679 8.39502 13.7394 7.91357 14.0825 7.59814C14.4256 7.27718 14.9458 7.1167 15.6431 7.1167H16.3569C17.0487 7.1167 17.5661 7.27718 17.9092 7.59814C18.2578 7.91357 18.4321 8.39502 18.4321 9.04248V11.7983L20.8145 10.4287C21.2018 10.2018 21.5643 10.0884 21.9019 10.0884C22.2173 10.0884 22.5106 10.1852 22.7817 10.3789C23.0529 10.5726 23.3019 10.8659 23.5288 11.2588L23.8857 11.873C24.1458 12.3434 24.2759 12.7585 24.2759 13.1182C24.2759 13.7269 23.93 14.2305 23.2383 14.6289L20.856 16.0068L23.2466 17.3931C23.5897 17.5923 23.847 17.8192 24.0186 18.0737C24.1956 18.3228 24.2842 18.5967 24.2842 18.8955C24.2842 19.2663 24.1541 19.6841 23.894 20.1489L23.5288 20.7715C23.3075 21.1644 23.0612 21.4577 22.79 21.6514C22.5244 21.8395 22.2367 21.9336 21.9268 21.9336C21.5781 21.9336 21.2101 21.8201 20.8228 21.5933L18.4321 20.207V22.9795C18.4321 23.627 18.2578 24.1084 17.9092 24.4238C17.5661 24.7448 17.0487 24.9053 16.3569 24.9053H15.6431ZM15.8838 23.5107H16.1162C16.4427 23.5107 16.6668 23.4526 16.7886 23.3364C16.9103 23.2257 16.9684 23.0155 16.9629 22.7056V18.0571C16.9629 17.9907 16.9823 17.9354 17.021 17.8911C17.0597 17.8468 17.1095 17.8247 17.1704 17.8247C17.2091 17.8247 17.2507 17.8385 17.2949 17.8662L21.3042 20.1821C21.5145 20.3039 21.686 20.3647 21.8188 20.3647C21.9351 20.3647 22.0374 20.3232 22.126 20.2402C22.2201 20.1517 22.3197 20.0216 22.4248 19.8501L22.541 19.6509C22.6074 19.5347 22.6572 19.4323 22.6904 19.3438C22.7292 19.2497 22.7485 19.1639 22.7485 19.0864C22.7485 18.8761 22.5908 18.6825 22.2754 18.5054L18.1997 16.1562C18.1112 16.1064 18.0669 16.0428 18.0669 15.9653C18.0669 15.8768 18.1139 15.8076 18.208 15.7578L22.2671 13.5083C22.5825 13.3257 22.7402 13.132 22.7402 12.9272C22.7402 12.8553 22.7236 12.7723 22.6904 12.6782C22.6572 12.5841 22.6074 12.4818 22.541 12.3711L22.4248 12.1636C22.3197 11.9865 22.2201 11.8564 22.126 11.7734C22.0319 11.6904 21.9268 11.6489 21.8105 11.6489C21.6833 11.6489 21.5117 11.7098 21.2959 11.8315L17.3032 14.1475C17.259 14.1696 17.2147 14.1807 17.1704 14.1807C17.1151 14.1807 17.0653 14.1613 17.021 14.1226C16.9823 14.0783 16.9629 14.0202 16.9629 13.9482V9.33301C16.9684 9.01758 16.9103 8.80452 16.7886 8.69385C16.6668 8.58317 16.4427 8.52783 16.1162 8.52783H15.8838C15.5573 8.52783 15.3332 8.58317 15.2114 8.69385C15.0952 8.80452 15.0371 9.01758 15.0371 9.33301L15.0454 13.9482C15.0454 14.0202 15.0233 14.0783 14.979 14.1226C14.9403 14.1613 14.8905 14.1807 14.8296 14.1807C14.7853 14.1807 14.741 14.1696 14.6968 14.1475L10.7124 11.8315C10.5021 11.7153 10.3306 11.6572 10.1978 11.6572C10.0815 11.6572 9.97363 11.6987 9.87402 11.7817C9.77995 11.8592 9.68311 11.9865 9.5835 12.1636L9.45898 12.3711C9.33171 12.598 9.26807 12.7834 9.26807 12.9272C9.26807 13.132 9.42578 13.3257 9.74121 13.5083L13.792 15.7578C13.8861 15.8021 13.9331 15.8713 13.9331 15.9653C13.9331 16.0483 13.8916 16.112 13.8086 16.1562L9.73291 18.5054C9.42301 18.6825 9.26807 18.8761 9.26807 19.0864C9.26807 19.2192 9.33447 19.4074 9.46729 19.6509L9.5835 19.8501C9.68311 20.0216 9.77995 20.1517 9.87402 20.2402C9.9681 20.3232 10.0732 20.3647 10.1895 20.3647C10.3223 20.3647 10.4938 20.3039 10.7041 20.1821L14.7051 17.8662C14.7493 17.8385 14.7909 17.8247 14.8296 17.8247C14.8905 17.8247 14.9403 17.8468 14.979 17.8911C15.0233 17.9354 15.0454 17.9907 15.0454 18.0571L15.0371 22.7056C15.0371 23.0155 15.0952 23.2257 15.2114 23.3364C15.3332 23.4526 15.5573 23.5107 15.8838 23.5107Z" fill="black" fill-opacity="0.95" style="fill:black;fill-opacity:0.95;"/>
</svg>
