<svg width="32" height="32" viewBox="0 0 32 32" fill="none" xmlns="http://www.w3.org/2000/svg">
    <path d="M16.6143 24.0503C16.5257 23.7625 16.4565 23.4637 16.4067 23.1538C16.3625 22.8494 16.3403 22.5396 16.3403 22.2241C16.3403 21.3553 16.5036 20.5418 16.8301 19.7837C17.1566 19.0256 17.6048 18.3587 18.1748 17.7832C18.7503 17.2077 19.4172 16.7567 20.1753 16.4302C20.9334 16.1037 21.7469 15.9404 22.6157 15.9404C22.8703 15.9404 23.1221 15.957 23.3711 15.9902C23.6201 16.0179 23.8664 16.0622 24.1099 16.123L23.8276 17.2437C23.634 17.2049 23.4375 17.1717 23.2383 17.144C23.0391 17.1164 22.8315 17.1025 22.6157 17.1025C21.8853 17.1025 21.2101 17.2326 20.5903 17.4927C19.9761 17.7472 19.4365 18.1069 18.9717 18.5718C18.5068 19.0366 18.1444 19.5789 17.8843 20.1987C17.6297 20.8185 17.5024 21.4937 17.5024 22.2241C17.5024 22.7664 17.5799 23.2811 17.7349 23.7681L16.6143 24.0503ZM8.03955 14.6953C8.2609 14.7562 8.48503 14.8005 8.71191 14.8281C8.9388 14.8558 9.16846 14.8696 9.40088 14.8696C10.1313 14.8696 10.8065 14.7424 11.4263 14.4878C12.0461 14.2277 12.5856 13.868 13.0449 13.4087C13.5098 12.9438 13.8695 12.4015 14.124 11.7817C14.3841 11.1564 14.5142 10.4785 14.5142 9.74805C14.5142 9.47135 14.492 9.20296 14.4478 8.94287C14.409 8.67725 14.3509 8.41992 14.2734 8.1709L15.4355 8.02979C15.5186 8.30094 15.5794 8.5804 15.6182 8.86816C15.6569 9.15592 15.6763 9.44922 15.6763 9.74805C15.6763 10.6224 15.513 11.4386 15.1865 12.1968C14.8656 12.9549 14.4173 13.6217 13.8418 14.1973C13.2663 14.7728 12.5994 15.2238 11.8413 15.5503C11.0832 15.8713 10.2697 16.0317 9.40088 16.0317C9.12972 16.0317 8.86133 16.0151 8.5957 15.9819C8.33561 15.9487 8.07829 15.8989 7.82373 15.8325L8.03955 14.6953ZM15.9917 7.43213C17.1759 7.43213 18.2855 7.65348 19.3203 8.09619C20.3607 8.5389 21.2738 9.15316 22.0596 9.93896C22.8454 10.7248 23.4596 11.6379 23.9023 12.6782C24.3506 13.7131 24.5747 14.8226 24.5747 16.0068C24.5747 17.1911 24.3506 18.3034 23.9023 19.3438C23.4596 20.3786 22.8454 21.2861 22.0596 22.0664C21.2738 22.8522 20.3607 23.4665 19.3203 23.9092C18.2855 24.3574 17.1759 24.5815 15.9917 24.5815C14.8075 24.5815 13.6979 24.3574 12.6631 23.9092C11.6283 23.4665 10.7179 22.8522 9.93213 22.0664C9.14632 21.2861 8.5293 20.3786 8.08105 19.3438C7.63835 18.3034 7.41699 17.1911 7.41699 16.0068C7.41699 14.8226 7.63835 13.7131 8.08105 12.6782C8.5293 11.6379 9.14632 10.7248 9.93213 9.93896C10.7179 9.15316 11.6283 8.5389 12.6631 8.09619C13.6979 7.65348 14.8075 7.43213 15.9917 7.43213ZM15.9917 8.76025C14.9956 8.76025 14.0604 8.9484 13.186 9.32471C12.3117 9.70101 11.5397 10.2212 10.8701 10.8853C10.2061 11.5493 9.68587 12.3185 9.30957 13.1929C8.9388 14.0672 8.75342 15.0052 8.75342 16.0068C8.75342 17.0085 8.9388 17.9465 9.30957 18.8208C9.68587 19.6951 10.2061 20.4644 10.8701 21.1284C11.5397 21.7869 12.3117 22.3044 13.186 22.6807C14.0604 23.0625 14.9956 23.2534 15.9917 23.2534C16.9933 23.2534 17.9313 23.0625 18.8057 22.6807C19.68 22.3044 20.4492 21.7869 21.1133 21.1284C21.7773 20.4644 22.2975 19.6951 22.6738 18.8208C23.0501 17.9465 23.2383 17.0085 23.2383 16.0068C23.2383 15.0052 23.0501 14.0672 22.6738 13.1929C22.2975 12.3185 21.7773 11.5493 21.1133 10.8853C20.4492 10.2212 19.68 9.70101 18.8057 9.32471C17.9313 8.9484 16.9933 8.76025 15.9917 8.76025Z" fill="black" fill-opacity="0.95" style="fill:black;fill-opacity:0.95;"/>
</svg>
