<svg width="32" height="32" viewBox="0 0 32 32" fill="none" xmlns="http://www.w3.org/2000/svg">
    <path d="M11.5591 24.9966C10.6792 24.9966 10.0124 24.7669 9.55859 24.3076C9.10482 23.8538 8.87793 23.1842 8.87793 22.2988V9.75635C8.87793 8.85986 9.10482 8.18197 9.55859 7.72266C10.0124 7.26335 10.6847 7.03369 11.5757 7.03369H20.416C21.307 7.03369 21.9793 7.26611 22.4331 7.73096C22.8869 8.19027 23.1138 8.8654 23.1138 9.75635V18.9702C23.1138 19.3908 23.0418 19.7201 22.8979 19.958C22.7541 20.196 22.5798 20.4062 22.375 20.5889C22.0264 20.9209 21.8105 21.2806 21.7275 21.668C21.6501 22.0498 21.6833 22.404 21.8271 22.7305C21.971 23.057 22.2145 23.2949 22.5576 23.4443C22.7126 23.5107 22.8454 23.6104 22.9561 23.7432C23.0667 23.8815 23.1221 24.042 23.1221 24.2246C23.1221 24.4404 23.0474 24.623 22.8979 24.7725C22.7541 24.9219 22.5715 24.9966 22.3501 24.9966H11.5591ZM10.5132 19.6509C10.6847 19.5513 10.8757 19.4766 11.0859 19.4268C11.2962 19.377 11.5231 19.3521 11.7666 19.3521H20.8394C21.271 19.3521 21.4868 19.1418 21.4868 18.7212V9.85596C21.4868 9.47412 21.3872 9.18083 21.188 8.97607C20.9888 8.76579 20.6872 8.66064 20.2832 8.66064H11.7085C11.3101 8.66064 11.0112 8.76579 10.812 8.97607C10.6128 9.18083 10.5132 9.47412 10.5132 9.85596V19.6509ZM11.7666 23.4526H20.4741C20.2528 23.0763 20.1338 22.6613 20.1172 22.2075C20.1006 21.7593 20.1919 21.3166 20.3911 20.8794C20.3136 20.8905 20.2251 20.896 20.1255 20.896H11.833C11.3958 20.896 11.05 21.015 10.7954 21.2529C10.5464 21.4909 10.4219 21.7952 10.4219 22.166C10.4219 22.5589 10.5353 22.8716 10.7622 23.104C10.9891 23.3364 11.3239 23.4526 11.7666 23.4526ZM11.4844 20.124V8.25391H12.6548V20.124H11.4844Z" fill="black" fill-opacity="0.95" style="fill:black;fill-opacity:0.95;"/>
</svg>
