<svg width="32" height="32" viewBox="0 0 32 32" fill="none" xmlns="http://www.w3.org/2000/svg">
    <path d="M6.62842 22.3237V11.0513C6.62842 10.9683 6.63395 10.8908 6.64502 10.8188C6.66162 10.7469 6.69482 10.6722 6.74463 10.5947C7.00472 10.141 7.38102 9.72868 7.87354 9.35791C8.37158 8.98714 8.95264 8.69108 9.6167 8.46973C10.2863 8.24837 11.0085 8.1377 11.7832 8.1377C12.6631 8.1377 13.4738 8.29264 14.2153 8.60254C14.9624 8.91243 15.5573 9.31641 16 9.81445C16.4316 9.31641 17.0182 8.91243 17.7598 8.60254C18.5068 8.29264 19.3258 8.1377 20.2168 8.1377C20.9805 8.1377 21.6943 8.24837 22.3584 8.46973C23.028 8.69108 23.6118 8.98714 24.1099 9.35791C24.6079 9.72868 24.987 10.141 25.2471 10.5947C25.2913 10.6722 25.3218 10.7469 25.3384 10.8188C25.355 10.8908 25.3633 10.9683 25.3633 11.0513V22.3237C25.3633 22.7 25.2554 22.9767 25.0396 23.1538C24.8237 23.3364 24.5664 23.4277 24.2676 23.4277C24.1126 23.4277 23.9632 23.3918 23.8193 23.3198C23.6755 23.2479 23.5122 23.1538 23.3296 23.0376C22.8758 22.7388 22.3861 22.5036 21.8604 22.332C21.3346 22.1605 20.7979 22.0775 20.25 22.083C19.6634 22.0885 19.0934 22.1965 18.54 22.4067C17.9922 22.6226 17.4941 22.9463 17.0459 23.3779C16.8522 23.5605 16.6724 23.6878 16.5063 23.7598C16.3403 23.8317 16.1715 23.8677 16 23.8677C15.8229 23.8677 15.6514 23.8317 15.4854 23.7598C15.3193 23.6878 15.1395 23.5605 14.9458 23.3779C14.492 22.9463 13.9884 22.6226 13.4351 22.4067C12.8872 22.1965 12.3228 22.0885 11.7417 22.083C11.1938 22.0775 10.6571 22.1605 10.1313 22.332C9.60563 22.5036 9.11312 22.7388 8.65381 23.0376C8.47673 23.1538 8.31624 23.2479 8.17236 23.3198C8.02848 23.3918 7.87907 23.4277 7.72412 23.4277C7.42529 23.4277 7.16797 23.3364 6.95215 23.1538C6.73633 22.9767 6.62842 22.7 6.62842 22.3237ZM8.26367 21.4023C8.69531 21.109 9.21826 20.8794 9.83252 20.7134C10.4468 20.5418 11.097 20.4561 11.7832 20.4561C12.2148 20.4561 12.6382 20.5031 13.0532 20.5972C13.4683 20.6857 13.8556 20.8102 14.2153 20.9707C14.575 21.1312 14.896 21.3166 15.1782 21.5269V11.3418C14.896 10.8659 14.445 10.4868 13.8252 10.2046C13.2109 9.91683 12.5303 9.77295 11.7832 9.77295C11.2907 9.77295 10.8175 9.83659 10.3638 9.96387C9.90999 10.0911 9.50049 10.2682 9.13525 10.4951C8.77002 10.722 8.47949 10.9904 8.26367 11.3003V21.4023ZM16.8135 21.5269C17.0902 21.3166 17.4111 21.1312 17.7764 20.9707C18.1416 20.8102 18.529 20.6857 18.9385 20.5972C19.3535 20.5031 19.7796 20.4561 20.2168 20.4561C20.8919 20.4561 21.5366 20.5418 22.1509 20.7134C22.7651 20.8794 23.2909 21.109 23.728 21.4023V11.3003C23.5122 10.9904 23.2189 10.722 22.8481 10.4951C22.4829 10.2682 22.0734 10.0911 21.6196 9.96387C21.1714 9.83659 20.7038 9.77295 20.2168 9.77295C19.4587 9.77295 18.7725 9.91683 18.1582 10.2046C17.5439 10.4868 17.0957 10.8659 16.8135 11.3418V21.5269Z" fill="black" fill-opacity="0.95" style="fill:black;fill-opacity:0.95;"/>
</svg>
