<svg width="32" height="32" viewBox="0 0 32 32" fill="none" xmlns="http://www.w3.org/2000/svg">
    <path d="M10.1562 24.9136C9.82422 24.9136 9.56689 24.8306 9.38428 24.6646C9.20166 24.5041 9.10205 24.3021 9.08545 24.0586C9.07438 23.8151 9.15739 23.5771 9.33447 23.3447C9.45622 23.1898 9.6001 22.9906 9.76611 22.7471C9.93213 22.5091 10.0954 22.2601 10.2559 22C10.4219 21.7344 10.5658 21.4881 10.6875 21.2612C9.81868 20.8407 9.06055 20.3011 8.41309 19.6426C7.77116 18.984 7.27311 18.2453 6.91895 17.4263C6.56478 16.6073 6.3877 15.744 6.3877 14.8364C6.3877 13.7684 6.63395 12.7668 7.12646 11.8315C7.62451 10.8908 8.31071 10.069 9.18506 9.36621C10.0649 8.65788 11.0859 8.10449 12.248 7.70605C13.4157 7.30762 14.6663 7.1084 16 7.1084C17.3337 7.1084 18.5815 7.30762 19.7437 7.70605C20.9113 8.10449 21.9351 8.65788 22.8149 9.36621C23.6948 10.069 24.381 10.8908 24.8735 11.8315C25.366 12.7668 25.6123 13.7684 25.6123 14.8364C25.6123 15.7274 25.4463 16.5658 25.1143 17.3516C24.7822 18.1374 24.3091 18.854 23.6948 19.5015C23.0861 20.1434 22.3584 20.6968 21.5117 21.1616C20.6706 21.6209 19.7326 21.9723 18.6978 22.2158C17.6629 22.4593 16.5589 22.57 15.3857 22.5479C14.8047 22.9684 14.1821 23.3558 13.5181 23.71C12.854 24.0697 12.2204 24.3602 11.6172 24.5815C11.0195 24.8029 10.5326 24.9136 10.1562 24.9136ZM11.144 23.2285C11.3875 23.1289 11.7002 22.9684 12.082 22.7471C12.4639 22.5312 12.8568 22.2878 13.2607 22.0166C13.6702 21.751 14.041 21.4964 14.373 21.2529C14.5335 21.1257 14.6885 21.0343 14.8379 20.979C14.9873 20.9181 15.1506 20.8877 15.3276 20.8877C15.4715 20.8932 15.5988 20.8988 15.7095 20.9043C15.8257 20.9043 15.9225 20.9043 16 20.9043C17.1068 20.9043 18.1388 20.7466 19.0962 20.4312C20.0591 20.1157 20.903 19.6813 21.6279 19.1279C22.3529 18.569 22.9201 17.9243 23.3296 17.1938C23.7391 16.4578 23.9438 15.672 23.9438 14.8364C23.9438 14.0008 23.7391 13.2178 23.3296 12.4873C22.9201 11.7568 22.3529 11.1121 21.6279 10.5532C20.903 9.9943 20.0591 9.55713 19.0962 9.2417C18.1388 8.92627 17.1068 8.76855 16 8.76855C14.8988 8.76855 13.8667 8.92627 12.9038 9.2417C11.9409 9.55713 11.097 9.9943 10.3721 10.5532C9.64714 11.1121 9.07992 11.7568 8.67041 12.4873C8.26644 13.2178 8.06445 14.0008 8.06445 14.8364C8.06445 15.5614 8.2194 16.2503 8.5293 16.9033C8.84473 17.5508 9.30127 18.1457 9.89893 18.688C10.4966 19.2248 11.2188 19.6924 12.0654 20.0908C12.3311 20.2181 12.4888 20.3786 12.5386 20.5723C12.5939 20.7604 12.5607 20.9707 12.439 21.2031C12.284 21.4854 12.071 21.8091 11.7998 22.1743C11.5286 22.5451 11.2879 22.8605 11.0776 23.1206C11.0389 23.1649 11.0278 23.1981 11.0444 23.2202C11.061 23.2479 11.0942 23.2507 11.144 23.2285Z" fill="black" fill-opacity="0.95" style="fill:black;fill-opacity:0.95;"/>
</svg>
