<svg width="32" height="32" viewBox="0 0 32 32" fill="none" xmlns="http://www.w3.org/2000/svg">
    <path d="M10.3223 22.6226C9.44792 22.6226 8.69531 22.451 8.06445 22.1079C7.43913 21.7648 6.95768 21.3027 6.62012 20.7217C6.28809 20.1351 6.12207 19.4849 6.12207 18.771C6.12207 18.1678 6.23828 17.6172 6.4707 17.1191C6.70866 16.6156 7.03792 16.1839 7.4585 15.8242C7.8846 15.4645 8.38265 15.2017 8.95264 15.0356C9.03564 14.1945 9.25977 13.4198 9.625 12.7114C9.99023 12.0031 10.4606 11.3861 11.0361 10.8604C11.6117 10.3346 12.2646 9.9279 12.9951 9.64014C13.7256 9.34684 14.4976 9.2002 15.311 9.2002C16.5672 9.2002 17.6851 9.51009 18.6646 10.1299C19.6496 10.7497 20.4243 11.613 20.9888 12.7197C21.7524 12.7197 22.4552 12.8442 23.0972 13.0933C23.7446 13.3423 24.3063 13.6909 24.7822 14.1392C25.2637 14.5874 25.6344 15.1131 25.8945 15.7163C26.1602 16.314 26.293 16.9642 26.293 17.667C26.293 18.3587 26.1629 19.0062 25.9028 19.6094C25.6483 20.2126 25.2886 20.7383 24.8237 21.1865C24.3644 21.6348 23.8249 21.9862 23.2051 22.2407C22.5908 22.4953 21.9268 22.6226 21.2129 22.6226H10.3223ZM10.3306 21.062H21.271C21.924 21.062 22.5106 20.9126 23.0308 20.6138C23.5509 20.3149 23.9632 19.9137 24.2676 19.4102C24.5775 18.9066 24.7324 18.3394 24.7324 17.7085C24.7324 17.0721 24.5747 16.4966 24.2593 15.9819C23.9438 15.4673 23.4845 15.0605 22.8813 14.7617C22.2837 14.4574 21.556 14.3052 20.6982 14.3052C20.4382 14.3052 20.2362 14.2637 20.0923 14.1807C19.9539 14.0977 19.8322 13.951 19.7271 13.7407C19.4116 13.1099 19.0326 12.5731 18.5898 12.1304C18.1527 11.6821 17.6602 11.3418 17.1123 11.1094C16.5645 10.877 15.964 10.7607 15.311 10.7607C14.6691 10.7607 14.0687 10.8797 13.5098 11.1177C12.9564 11.3556 12.4611 11.6932 12.0239 12.1304C11.5923 12.562 11.2409 13.0739 10.9697 13.666C10.7041 14.2526 10.5409 14.9001 10.48 15.6084C10.4578 15.863 10.397 16.0511 10.2974 16.1729C10.1978 16.2946 10.029 16.3859 9.79102 16.4468C9.11035 16.6239 8.5874 16.9172 8.22217 17.3267C7.86247 17.7306 7.68262 18.2259 7.68262 18.8125C7.68262 19.2663 7.78776 19.6619 7.99805 19.9995C8.20833 20.3315 8.50993 20.5916 8.90283 20.7798C9.29574 20.9679 9.77165 21.062 10.3306 21.062Z" fill="black" fill-opacity="0.95" style="fill:black;fill-opacity:0.95;"/>
</svg>
