<svg xmlns="http://www.w3.org/2000/svg" width="20" height="20" viewBox="0 0 20 20" fill="none">
    <path d="M7.20257 2.5H12.7974C13.2641 2.49999 13.6551 2.49998 13.9748 2.5261C14.3086 2.55338 14.6242 2.6125 14.9232 2.76485C15.3804 2.99783 15.7522 3.36957 15.9851 3.8268C16.1375 4.12581 16.1966 4.44136 16.2239 4.77523C16.25 5.09492 16.25 5.48589 16.25 5.95259L16.25 15.8233C16.25 16.029 16.2501 16.2274 16.2352 16.3896C16.22 16.5549 16.1823 16.7966 16.0237 17.0143C15.8263 17.2852 15.5231 17.4594 15.1897 17.4934C14.9217 17.5207 14.6939 17.4315 14.5435 17.3613C14.3959 17.2924 14.2245 17.1924 14.0469 17.0887L10.0605 14.5125C10.0372 14.4989 10.0175 14.4874 10 14.4773C9.98254 14.4874 9.96282 14.4989 9.93954 14.5125L5.95319 17.0887C5.77553 17.1924 5.60416 17.2924 5.45653 17.3613C5.30606 17.4315 5.07833 17.5207 4.81034 17.4934C4.47691 17.4594 4.17366 17.2852 3.9763 17.0143C3.81766 16.7966 3.78 16.5549 3.76483 16.3896C3.74995 16.2274 3.74998 16.029 3.75 15.8233L3.75 5.95256C3.74999 5.48587 3.74999 5.09492 3.77611 4.77523C3.80338 4.44136 3.8625 4.12581 4.01486 3.8268C4.24783 3.36957 4.61957 2.99783 5.07681 2.76485C5.37582 2.6125 5.69137 2.55338 6.02523 2.5261C6.34492 2.49998 6.91588 2.49999 7.20257 2.5ZM6.13598 3.88158C5.88622 3.90199 5.76957 3.93824 5.69423 3.97662C5.4929 4.07921 5.32921 4.2429 5.22663 4.44423C5.18824 4.51957 5.15199 4.63621 5.13159 4.88598C5.11053 5.14368 5.11 5.47873 5.11 5.98V15.7972C5.11 15.8776 5.11008 15.9462 5.11049 16.0052C5.16171 15.9758 5.22096 15.9414 5.29047 15.9008L9.25428 13.3378C9.26404 13.3321 9.27444 13.3259 9.28543 13.3194C9.39454 13.255 9.56221 13.1559 9.7526 13.1151C9.91568 13.0801 10.0843 13.0801 10.2474 13.1151C10.4378 13.1559 10.6055 13.255 10.7146 13.3194C10.7256 13.3259 10.736 13.3321 10.7457 13.3378L14.7095 15.9008C14.779 15.9414 14.8383 15.9758 14.8895 16.0052C14.8899 15.9462 14.89 15.8776 14.89 15.7972V5.98C14.89 5.47873 14.8895 5.14368 14.8684 4.88598C14.848 4.63621 14.8118 4.51957 14.7734 4.44423C14.6708 4.2429 14.5071 4.07921 14.3058 3.97662C14.2304 3.93824 14.1138 3.90199 13.864 3.88158C13.6063 3.86053 13.2713 3.86 12.77 3.86H7.23C6.90874 3.86 6.39368 3.86053 6.13598 3.88158Z" fill="black" fill-opacity="0.95" style="fill:black;fill-opacity:0.95;"/>
</svg>