<svg width="32" height="32" viewBox="0 0 32 32" fill="none" xmlns="http://www.w3.org/2000/svg">
    <path d="M12.7129 14.2388H11.1689C10.6045 14.2388 10.0871 14.1032 9.6167 13.832C9.15186 13.5609 8.78109 13.1956 8.50439 12.7363C8.2277 12.277 8.08936 11.7624 8.08936 11.1924C8.08936 10.6224 8.2277 10.105 8.50439 9.64014C8.78109 9.17529 9.15186 8.80452 9.6167 8.52783C10.0871 8.24561 10.6045 8.10449 11.1689 8.10449C11.7334 8.10449 12.248 8.24561 12.7129 8.52783C13.1777 8.80452 13.5485 9.17806 13.8252 9.64844C14.1019 10.1133 14.2402 10.6279 14.2402 11.1924V12.728H17.7515V11.1924C17.7515 10.6279 17.8898 10.1133 18.1665 9.64844C18.4487 9.17806 18.8223 8.80452 19.2871 8.52783C19.752 8.24561 20.2666 8.10449 20.8311 8.10449C21.401 8.10449 21.9185 8.24561 22.3833 8.52783C22.8481 8.80452 23.2161 9.17529 23.4873 9.64014C23.764 10.105 23.9023 10.6224 23.9023 11.1924C23.9023 11.7624 23.764 12.277 23.4873 12.7363C23.2161 13.1956 22.8481 13.5609 22.3833 13.832C21.9185 14.1032 21.401 14.2388 20.8311 14.2388H19.2788V17.7915H20.8311C21.401 17.7915 21.9185 17.9271 22.3833 18.1982C22.8481 18.4694 23.2161 18.8346 23.4873 19.2939C23.764 19.7533 23.9023 20.2679 23.9023 20.8379C23.9023 21.4023 23.764 21.917 23.4873 22.3818C23.2161 22.8522 22.8481 23.2257 22.3833 23.5024C21.9185 23.7791 21.401 23.9175 20.8311 23.9175C20.2666 23.9175 19.752 23.7791 19.2871 23.5024C18.8223 23.2257 18.4487 22.8522 18.1665 22.3818C17.8898 21.917 17.7515 21.4023 17.7515 20.8379V19.3022H14.2402V20.8379C14.2402 21.4023 14.1019 21.917 13.8252 22.3818C13.5485 22.8522 13.1777 23.2257 12.7129 23.5024C12.248 23.7791 11.7334 23.9175 11.1689 23.9175C10.6045 23.9175 10.0871 23.7791 9.6167 23.5024C9.15186 23.2257 8.78109 22.8522 8.50439 22.3818C8.2277 21.917 8.08936 21.4023 8.08936 20.8379C8.08936 20.2679 8.2277 19.7533 8.50439 19.2939C8.78109 18.8346 9.15186 18.4694 9.6167 18.1982C10.0871 17.9271 10.6045 17.7915 11.1689 17.7915H12.7129V14.2388ZM11.1855 12.7446H12.7129V11.209C12.7129 10.9212 12.641 10.6584 12.4971 10.4204C12.3587 10.1825 12.1733 9.99154 11.9409 9.84766C11.7085 9.70378 11.4512 9.63184 11.1689 9.63184C10.8867 9.63184 10.6266 9.70378 10.3887 9.84766C10.1562 9.986 9.97087 10.1742 9.83252 10.4121C9.69417 10.6445 9.625 10.9046 9.625 11.1924C9.625 11.4746 9.69417 11.7347 9.83252 11.9727C9.9764 12.2051 10.1646 12.3932 10.397 12.5371C10.6349 12.6755 10.8978 12.7446 11.1855 12.7446ZM20.8062 12.7446C21.0939 12.7446 21.3568 12.6755 21.5947 12.5371C21.8327 12.3932 22.0208 12.2051 22.1592 11.9727C22.3031 11.7347 22.375 11.4746 22.375 11.1924C22.375 10.9046 22.3058 10.6445 22.1675 10.4121C22.0291 10.1742 21.841 9.986 21.603 9.84766C21.3706 9.70378 21.1133 9.63184 20.8311 9.63184C20.5488 9.63184 20.2887 9.70378 20.0508 9.84766C19.8184 9.99154 19.6302 10.1825 19.4863 10.4204C19.348 10.6584 19.2788 10.9212 19.2788 11.209V12.7446H20.8062ZM14.2402 17.7915H17.7515V14.2388H14.2402V17.7915ZM11.1855 19.2773C10.8978 19.2773 10.6349 19.3465 10.397 19.4849C10.1646 19.6232 9.9764 19.8114 9.83252 20.0493C9.69417 20.2817 9.625 20.5418 9.625 20.8296C9.625 21.1118 9.69417 21.3719 9.83252 21.6099C9.97087 21.8423 10.1562 22.0277 10.3887 22.166C10.6266 22.3044 10.8867 22.3735 11.1689 22.3735C11.4512 22.3735 11.7085 22.3016 11.9409 22.1577C12.1733 22.0194 12.3587 21.8312 12.4971 21.5933C12.641 21.3553 12.7129 21.0924 12.7129 20.8047V19.2773H11.1855ZM20.8062 19.2773H19.2788V20.8047C19.2788 21.0924 19.348 21.3553 19.4863 21.5933C19.6302 21.8312 19.8184 22.0194 20.0508 22.1577C20.2887 22.3016 20.5488 22.3735 20.8311 22.3735C21.1133 22.3735 21.3706 22.3044 21.603 22.166C21.841 22.0277 22.0291 21.8423 22.1675 21.6099C22.3058 21.3719 22.375 21.1118 22.375 20.8296C22.375 20.5418 22.3031 20.2817 22.1592 20.0493C22.0208 19.8114 21.8327 19.6232 21.5947 19.4849C21.3568 19.3465 21.0939 19.2773 20.8062 19.2773Z" fill="black" fill-opacity="0.95" style="fill:black;fill-opacity:0.95;"/>
</svg>
