<svg width="32" height="32" viewBox="0 0 32 32" fill="none" xmlns="http://www.w3.org/2000/svg">
    <path d="M15.9834 7.89697C16.321 7.99105 16.653 8.09342 16.9795 8.2041C17.306 8.30924 17.6297 8.42546 17.9507 8.55273H15.9834V7.89697ZM15.9834 9.2915H20.0259C20.0812 9.40771 20.1338 9.53223 20.1836 9.66504C20.2334 9.79232 20.2804 9.92513 20.3247 10.0635H15.9834V9.2915ZM15.9834 11.0845H21.8687C21.9019 11.2062 21.9323 11.3335 21.96 11.4663C21.9876 11.5936 22.0125 11.7209 22.0347 11.8481H15.9834V11.0845ZM15.9834 12.8691H23.3794C23.396 12.9964 23.4098 13.1265 23.4209 13.2593C23.4375 13.3866 23.4486 13.5138 23.4541 13.6411H15.9834V12.8691ZM15.9834 14.6621H23.479C23.4845 14.7894 23.4873 14.9167 23.4873 15.0439C23.4928 15.1712 23.4984 15.3013 23.5039 15.4341H15.9834V14.6621ZM15.9834 16.4385H23.5039C23.4984 16.5713 23.4928 16.7013 23.4873 16.8286C23.4873 16.9559 23.4845 17.0859 23.479 17.2188H15.9834V16.4385ZM15.9834 18.2314H23.4541C23.4486 18.3643 23.4375 18.4943 23.4209 18.6216C23.4098 18.7489 23.396 18.8789 23.3794 19.0117H15.9834V18.2314ZM15.9834 20.0244H22.0347C22.0125 20.1517 21.9876 20.2817 21.96 20.4146C21.9323 20.5418 21.9019 20.6691 21.8687 20.7964H15.9834V20.0244ZM15.9834 21.9502H20.3247C20.2804 22.0885 20.2334 22.2214 20.1836 22.3486C20.1338 22.4759 20.0812 22.6004 20.0259 22.7222H15.9834V21.9502ZM15.9834 23.4609H17.9507C17.6297 23.5882 17.306 23.7044 16.9795 23.8096C16.653 23.9202 16.321 24.0199 15.9834 24.1084V23.4609ZM15.9917 24.5815C14.8075 24.5815 13.6979 24.3574 12.6631 23.9092C11.6283 23.4665 10.7179 22.8522 9.93213 22.0664C9.14632 21.2861 8.5293 20.3786 8.08105 19.3438C7.63835 18.3034 7.41699 17.1911 7.41699 16.0068C7.41699 14.8226 7.63835 13.7131 8.08105 12.6782C8.5293 11.6379 9.14632 10.7248 9.93213 9.93896C10.7179 9.15316 11.6283 8.5389 12.6631 8.09619C13.6979 7.65348 14.8075 7.43213 15.9917 7.43213C17.1759 7.43213 18.2855 7.65348 19.3203 8.09619C20.3607 8.5389 21.2738 9.15316 22.0596 9.93896C22.8454 10.7248 23.4596 11.6379 23.9023 12.6782C24.3506 13.7131 24.5747 14.8226 24.5747 16.0068C24.5747 17.1911 24.3506 18.3034 23.9023 19.3438C23.4596 20.3786 22.8454 21.2861 22.0596 22.0664C21.2738 22.8522 20.3607 23.4665 19.3203 23.9092C18.2855 24.3574 17.1759 24.5815 15.9917 24.5815ZM15.9917 22.8882C16.9435 22.8882 17.8345 22.7083 18.6646 22.3486C19.4946 21.9945 20.2251 21.502 20.856 20.8711C21.4924 20.2402 21.9876 19.5098 22.3418 18.6797C22.696 17.8496 22.873 16.9587 22.873 16.0068C22.873 15.055 22.696 14.1641 22.3418 13.334C21.9876 12.4984 21.4924 11.7679 20.856 11.1426C20.2251 10.5117 19.4946 10.0192 18.6646 9.66504C17.8345 9.30534 16.9435 9.12549 15.9917 9.12549C15.0454 9.12549 14.1545 9.30534 13.3188 9.66504C12.4888 10.0192 11.7583 10.5117 11.1274 11.1426C10.4966 11.7679 10.0013 12.4984 9.6416 13.334C9.28743 14.1641 9.11035 15.055 9.11035 16.0068C9.11035 16.9587 9.28743 17.8496 9.6416 18.6797C10.0013 19.5098 10.4966 20.2402 11.1274 20.8711C11.7583 21.502 12.4888 21.9945 13.3188 22.3486C14.1545 22.7083 15.0454 22.8882 15.9917 22.8882Z" fill="black" fill-opacity="0.95" style="fill:black;fill-opacity:0.95;"/>
</svg>
