<svg width="32" height="32" viewBox="0 0 32 32" fill="none" xmlns="http://www.w3.org/2000/svg">
    <path d="M7.41699 17.9243C6.7806 17.2935 6.45964 16.6571 6.4541 16.0151C6.44857 15.3677 6.76123 14.7257 7.39209 14.0894L14.0908 7.39893C14.7217 6.76807 15.3581 6.4554 16 6.46094C16.6475 6.46647 17.2894 6.78743 17.9258 7.42383L24.583 14.0811C25.2194 14.7174 25.5376 15.3594 25.5376 16.0068C25.5431 16.6543 25.2305 17.2907 24.5996 17.916L17.9092 24.6147C17.2783 25.2401 16.6392 25.55 15.9917 25.5444C15.3498 25.5444 14.7106 25.2262 14.0742 24.5898L7.41699 17.9243ZM8.64551 16.8535L15.1533 23.3696C15.4245 23.6408 15.7012 23.7764 15.9834 23.7764C16.2712 23.7819 16.5589 23.6408 16.8467 23.353L23.3462 16.8535C23.634 16.5713 23.7751 16.2891 23.7695 16.0068C23.764 15.7191 23.6257 15.4368 23.3545 15.1602L16.8384 8.65234C16.5617 8.37565 16.2822 8.2373 16 8.2373C15.7178 8.23177 15.4328 8.37288 15.145 8.66064L8.64551 15.1519C8.35775 15.4396 8.21387 15.7246 8.21387 16.0068C8.2194 16.2891 8.36328 16.5713 8.64551 16.8535Z" fill="black" fill-opacity="0.95" style="fill:black;fill-opacity:0.95;"/>
</svg>
