<svg width="32" height="32" viewBox="0 0 32 32" fill="none" xmlns="http://www.w3.org/2000/svg">
    <path d="M16 24.5566C14.8158 24.5511 13.7809 24.3076 12.8955 23.8262C12.0101 23.3503 11.3211 22.6807 10.8286 21.8174C10.3416 20.9486 10.0981 19.9386 10.0981 18.7876C10.0981 18.2342 10.159 17.6864 10.2808 17.144C10.4025 16.5962 10.5575 16.0732 10.7456 15.5752C10.9338 15.0771 11.1191 14.6206 11.3018 14.2056C11.7445 13.2205 12.2785 12.2106 12.9038 11.1758C13.5291 10.141 14.1434 9.15592 14.7466 8.2207C14.9126 7.97721 15.0952 7.78906 15.2944 7.65625C15.4937 7.5179 15.7288 7.44873 16 7.44873C16.2712 7.44873 16.5063 7.5179 16.7056 7.65625C16.9103 7.78906 17.0929 7.97721 17.2534 8.2207C17.8511 9.15039 18.4598 10.1299 19.0796 11.1592C19.7049 12.1829 20.2362 13.1846 20.6733 14.1641C20.8615 14.5846 21.0496 15.0467 21.2378 15.5503C21.4315 16.0539 21.5892 16.5824 21.7109 17.1357C21.8382 17.6836 21.9019 18.2342 21.9019 18.7876C21.9019 19.9386 21.6556 20.9486 21.1631 21.8174C20.6706 22.6807 19.9816 23.3503 19.0962 23.8262C18.2108 24.3076 17.1787 24.5511 16 24.5566ZM16 22.8965C16.8522 22.8965 17.5965 22.7249 18.2329 22.3818C18.8693 22.0387 19.3646 21.5601 19.7188 20.9458C20.0729 20.326 20.25 19.6066 20.25 18.7876C20.25 18.1235 20.1393 17.465 19.918 16.812C19.6966 16.159 19.4587 15.5448 19.2041 14.9692C18.7725 13.9621 18.2799 13.0213 17.7266 12.147C17.1787 11.2726 16.6309 10.4259 16.083 9.60693C16.0609 9.56266 16.0332 9.54053 16 9.54053C15.9723 9.54053 15.9447 9.56266 15.917 9.60693C15.3636 10.4315 14.8102 11.2837 14.2568 12.1636C13.709 13.0379 13.2165 13.9842 12.7793 15.0024C12.5247 15.5669 12.2896 16.1756 12.0737 16.8286C11.8634 17.4761 11.7583 18.1291 11.7583 18.7876C11.7583 19.6066 11.9326 20.326 12.2812 20.9458C12.6354 21.5601 13.1307 22.0387 13.7671 22.3818C14.4035 22.7249 15.1478 22.8965 16 22.8965Z" fill="black" fill-opacity="0.95" style="fill:black;fill-opacity:0.95;"/>
</svg>
