<svg width="32" height="32" viewBox="0 0 32 32" fill="none" xmlns="http://www.w3.org/2000/svg">
    <path d="M11.5757 24.9966C10.6847 24.9966 10.0124 24.7669 9.55859 24.3076C9.10482 23.8483 8.87793 23.1704 8.87793 22.2739V9.74805C8.87793 8.8571 9.10482 8.18197 9.55859 7.72266C10.0124 7.25781 10.6847 7.02539 11.5757 7.02539H15.5767C15.9253 7.02539 16.2297 7.05029 16.4897 7.1001C16.7498 7.14437 16.9906 7.23014 17.2119 7.35742C17.4333 7.47917 17.6602 7.65902 17.8926 7.89697L22.2422 12.3213C22.4857 12.5648 22.6683 12.8 22.79 13.0269C22.9173 13.2482 23.0031 13.4945 23.0474 13.7656C23.0916 14.0312 23.1138 14.3577 23.1138 14.7451V22.2739C23.1138 23.1649 22.8869 23.84 22.4331 24.2993C21.9793 24.7642 21.307 24.9966 20.416 24.9966H11.5757ZM11.7085 23.3613H20.2832C20.6872 23.3613 20.9888 23.259 21.188 23.0542C21.3872 22.8494 21.4868 22.5562 21.4868 22.1743V14.9692H17.0127C16.4206 14.9692 15.9779 14.8226 15.6846 14.5293C15.3968 14.236 15.2529 13.7933 15.2529 13.2012V8.65234H11.7168C11.3128 8.65234 11.0112 8.75749 10.812 8.96777C10.6128 9.17806 10.5132 9.47412 10.5132 9.85596V22.1743C10.5132 22.5562 10.6128 22.8494 10.812 23.0542C11.0112 23.259 11.3101 23.3613 11.7085 23.3613ZM17.1704 13.5332H21.2627L16.689 8.87646V13.0435C16.689 13.215 16.7249 13.3395 16.7969 13.417C16.8743 13.4945 16.9989 13.5332 17.1704 13.5332Z" fill="black" fill-opacity="0.95" style="fill:black;fill-opacity:0.95;"/>
</svg>
