<svg width="32" height="32" viewBox="0 0 32 32" fill="none" xmlns="http://www.w3.org/2000/svg">
    <path d="M9.71631 24.2412C9.50602 24.2412 9.3234 24.1637 9.16846 24.0088C9.01904 23.8594 8.94434 23.6823 8.94434 23.4775V9.69824C8.94434 9.32194 9.03011 9.02035 9.20166 8.79346C9.37874 8.56104 9.61117 8.37842 9.89893 8.24561C10.1258 8.146 10.3499 8.06299 10.5713 7.99658C10.7926 7.92464 11.0472 7.87207 11.335 7.83887C11.6227 7.80566 11.9769 7.78906 12.3975 7.78906C13.1501 7.78906 13.8529 7.86377 14.5059 8.01318C15.1644 8.1626 15.8035 8.33968 16.4233 8.54443C17.0487 8.74365 17.6795 8.92074 18.3159 9.07568C18.9578 9.2251 19.6385 9.2998 20.3579 9.2998C21.0275 9.2998 21.5615 9.24723 21.96 9.14209C22.3584 9.03141 22.6766 8.97607 22.9146 8.97607C23.1968 8.97607 23.4292 9.05632 23.6118 9.2168C23.8 9.37174 23.894 9.5848 23.894 9.85596V18.1318C23.894 18.5192 23.8083 18.8374 23.6367 19.0864C23.4707 19.3299 23.241 19.5181 22.9478 19.6509C22.7319 19.7505 22.5133 19.8363 22.292 19.9082C22.0706 19.9746 21.8133 20.0244 21.52 20.0576C21.2323 20.0908 20.8753 20.1074 20.4492 20.1074C19.7188 20.1074 19.0326 20.0327 18.3906 19.8833C17.7487 19.7284 17.1178 19.5513 16.498 19.3521C15.8838 19.1528 15.2502 18.9785 14.5972 18.8291C13.9442 18.6742 13.2414 18.5967 12.4888 18.5967C11.952 18.5967 11.512 18.6437 11.1689 18.7378C10.8258 18.8263 10.599 18.8927 10.4883 18.937V23.4775C10.4883 23.6878 10.4108 23.8677 10.2559 24.0171C10.1064 24.1665 9.9266 24.2412 9.71631 24.2412ZM20.4243 18.5552C20.9888 18.5552 21.4287 18.4915 21.7441 18.3643C22.0651 18.237 22.2588 18.1125 22.3252 17.9907V10.6113C22.0762 10.6777 21.7829 10.7331 21.4453 10.7773C21.1077 10.8161 20.737 10.8354 20.333 10.8354C19.5859 10.8354 18.8831 10.7607 18.2246 10.6113C17.5716 10.4564 16.9352 10.2821 16.3154 10.0884C15.6956 9.88916 15.0675 9.71484 14.4312 9.56543C13.8003 9.41048 13.1307 9.33301 12.4224 9.33301C11.8524 9.33301 11.4097 9.39941 11.0942 9.53223C10.7788 9.65951 10.5879 9.78402 10.5215 9.90576V17.3101C10.7373 17.2271 11.0195 17.1634 11.3682 17.1191C11.7223 17.0749 12.1042 17.0527 12.5137 17.0527C13.2939 17.0527 14.0189 17.1302 14.6885 17.2852C15.3636 17.4346 16.0111 17.6089 16.6309 17.8081C17.2507 18.0018 17.8677 18.1761 18.4819 18.3311C19.1017 18.4805 19.7492 18.5552 20.4243 18.5552Z" fill="black" fill-opacity="0.95" style="fill:black;fill-opacity:0.95;"/>
</svg>
