<svg width="32" height="32" viewBox="0 0 32 32" fill="none" xmlns="http://www.w3.org/2000/svg">
    <g clip-path="url(#clip0_1846_15279)">
        <path d="M11.2686 10.4204C10.9255 10.4204 10.6128 10.3374 10.3306 10.1714C10.0539 10.0054 9.82975 9.78402 9.6582 9.50732C9.49219 9.2251 9.40918 8.91243 9.40918 8.56934C9.40918 8.2207 9.49219 7.90527 9.6582 7.62305C9.82975 7.34082 10.0539 7.1167 10.3306 6.95068C10.6128 6.78467 10.9255 6.70166 11.2686 6.70166C11.6117 6.70166 11.9243 6.78467 12.2065 6.95068C12.4888 7.1167 12.7129 7.34082 12.8789 7.62305C13.0505 7.90527 13.1362 8.2207 13.1362 8.56934C13.1362 8.91243 13.0505 9.2251 12.8789 9.50732C12.7129 9.78402 12.4888 10.0054 12.2065 10.1714C11.9243 10.3374 11.6117 10.4204 11.2686 10.4204ZM20.7148 10.4287C20.3662 10.4287 20.0508 10.3457 19.7686 10.1797C19.4863 10.0137 19.2622 9.78955 19.0962 9.50732C18.9302 9.2251 18.8472 8.91243 18.8472 8.56934C18.8472 8.22624 18.9302 7.91357 19.0962 7.63135C19.2622 7.34912 19.4863 7.125 19.7686 6.95898C20.0508 6.79297 20.3662 6.70996 20.7148 6.70996C21.0524 6.70996 21.3623 6.79297 21.6445 6.95898C21.9268 7.125 22.1509 7.34912 22.3169 7.63135C22.4829 7.91357 22.5659 8.22624 22.5659 8.56934C22.5659 8.91243 22.4829 9.2251 22.3169 9.50732C22.1509 9.78955 21.9268 10.0137 21.6445 10.1797C21.3623 10.3457 21.0524 10.4287 20.7148 10.4287ZM11.2603 18.3311C11.0998 18.3311 10.978 18.3919 10.895 18.5137C10.812 18.6354 10.7179 18.8485 10.6128 19.1528C10.5575 19.3188 10.4827 19.5789 10.3887 19.9331C10.2946 20.2817 10.1895 20.6774 10.0732 21.1201C9.96257 21.5573 9.85189 22 9.74121 22.4482C9.63053 22.8965 9.52539 23.306 9.42578 23.6768C9.33171 24.0531 9.257 24.3436 9.20166 24.5483C9.06331 25.0575 8.78385 25.312 8.36328 25.312C8.08659 25.312 7.87354 25.2041 7.72412 24.9883C7.57471 24.7725 7.5415 24.529 7.62451 24.2578C7.63558 24.2191 7.67155 24.0614 7.73242 23.7847C7.79883 23.5135 7.88184 23.1676 7.98145 22.7471C8.08105 22.3265 8.1862 21.8727 8.29688 21.3857C8.41309 20.8988 8.52376 20.4229 8.62891 19.958C8.73405 19.4876 8.82536 19.0698 8.90283 18.7046C8.98031 18.3338 9.03564 18.0627 9.06885 17.8911C9.11312 17.62 9.14909 17.2907 9.17676 16.9033C9.20443 16.5104 9.2238 16.1064 9.23486 15.6914C9.24593 15.2764 9.25146 14.8945 9.25146 14.5459C9.257 14.1973 9.25977 13.9344 9.25977 13.7573C9.2487 13.5138 9.18506 13.3146 9.06885 13.1597C8.95817 12.9992 8.80876 12.9023 8.62061 12.8691C8.5376 12.8525 8.36051 12.8276 8.08936 12.7944C7.82373 12.7557 7.51107 12.7114 7.15137 12.6616C6.7972 12.6118 6.4375 12.562 6.07227 12.5122C5.71257 12.4624 5.39437 12.4181 5.11768 12.3794C4.84098 12.3407 4.6556 12.3102 4.56152 12.2881C4.37337 12.2438 4.22396 12.147 4.11328 11.9976C4.0026 11.8481 3.94727 11.6711 3.94727 11.4663C3.94727 11.2228 4.02197 11.0291 4.17139 10.8853C4.3208 10.7358 4.49235 10.6611 4.68604 10.6611C4.75244 10.6611 4.81885 10.6667 4.88525 10.6777C4.95719 10.6888 5.02913 10.7026 5.10107 10.7192C5.43311 10.7912 5.84261 10.8548 6.32959 10.9102C6.8221 10.9655 7.35335 11.0181 7.92334 11.0679C8.49886 11.1121 9.07438 11.1509 9.6499 11.1841C10.2254 11.2173 10.7622 11.245 11.2603 11.2671C11.8413 11.2837 12.4224 11.3003 13.0034 11.3169C13.59 11.328 14.1434 11.339 14.6636 11.3501C15.1893 11.3556 15.6458 11.3584 16.0332 11.3584C16.415 11.3584 16.8605 11.3556 17.3696 11.3501C17.8843 11.339 18.4266 11.328 18.9966 11.3169C19.5721 11.3003 20.1421 11.2837 20.7065 11.2671C21.2101 11.245 21.7497 11.2173 22.3252 11.1841C22.9062 11.1453 23.4818 11.1038 24.0518 11.0596C24.6273 11.0098 25.1585 10.9572 25.6455 10.9019C26.1325 10.8465 26.5392 10.7856 26.8657 10.7192C26.9432 10.7026 27.0151 10.6888 27.0815 10.6777C27.1535 10.6667 27.2254 10.6611 27.2974 10.6611C27.48 10.6611 27.6488 10.7358 27.8037 10.8853C27.9642 11.0291 28.0444 11.2228 28.0444 11.4663C28.0444 11.6655 27.9863 11.8371 27.8701 11.981C27.7539 12.1248 27.6045 12.2272 27.4219 12.2881C27.3333 12.3158 27.1507 12.3517 26.874 12.396C26.5973 12.4347 26.2764 12.479 25.9111 12.5288C25.5514 12.5731 25.1917 12.6201 24.832 12.6699C24.4723 12.7142 24.1569 12.7557 23.8857 12.7944C23.6146 12.8276 23.4403 12.8525 23.3628 12.8691C22.9533 12.9632 22.7485 13.2593 22.7485 13.7573C22.7485 13.9344 22.7485 14.1973 22.7485 14.5459C22.7485 14.8945 22.7513 15.2764 22.7568 15.6914C22.7679 16.1064 22.7845 16.5104 22.8066 16.9033C22.8288 17.2962 22.8592 17.6255 22.8979 17.8911C22.9256 18.0682 22.9782 18.3394 23.0557 18.7046C23.1387 19.0698 23.2327 19.4876 23.3379 19.958C23.443 20.4229 23.5537 20.8988 23.6699 21.3857C23.7861 21.8727 23.894 22.3265 23.9937 22.7471C24.0933 23.1676 24.1735 23.5135 24.2344 23.7847C24.3008 24.0614 24.3395 24.2191 24.3506 24.2578C24.4225 24.5345 24.3866 24.778 24.2427 24.9883C24.0988 25.2041 23.8885 25.312 23.6118 25.312C23.4071 25.312 23.2327 25.2511 23.0889 25.1294C22.9505 25.0076 22.8481 24.814 22.7817 24.5483C22.7319 24.3436 22.66 24.0531 22.5659 23.6768C22.4718 23.3005 22.3667 22.8882 22.2505 22.4399C22.1398 21.9917 22.0264 21.5462 21.9102 21.1035C21.7995 20.6608 21.6971 20.2679 21.603 19.9248C21.509 19.5762 21.4342 19.3161 21.3789 19.1445C21.2848 18.8402 21.1908 18.6299 21.0967 18.5137C21.0081 18.3919 20.8809 18.3311 20.7148 18.3311C20.5488 18.3311 20.4215 18.3919 20.333 18.5137C20.25 18.6354 20.1587 18.8485 20.0591 19.1528C20.0093 19.3188 19.9346 19.5789 19.835 19.9331C19.7409 20.2817 19.6385 20.6774 19.5278 21.1201C19.4172 21.5573 19.3037 22 19.1875 22.4482C19.0768 22.8965 18.9717 23.306 18.8721 23.6768C18.778 24.0531 18.7033 24.3436 18.6479 24.5483C18.5096 25.0575 18.2301 25.312 17.8096 25.312C17.5329 25.312 17.3198 25.2041 17.1704 24.9883C17.0265 24.7725 16.9906 24.529 17.0625 24.2578C17.0736 24.2191 17.1123 24.0614 17.1787 23.7847C17.2451 23.5135 17.3281 23.1676 17.4277 22.7471C17.5273 22.3265 17.6325 21.8727 17.7432 21.3857C17.8594 20.8988 17.9701 20.4229 18.0752 19.958C18.1859 19.4876 18.2799 19.0698 18.3574 18.7046C18.4349 18.3338 18.4875 18.0627 18.5151 17.8911C18.5594 17.62 18.5926 17.2907 18.6147 16.9033C18.6424 16.5104 18.6618 16.1092 18.6729 15.6997C18.6895 15.2902 18.6978 14.9139 18.6978 14.5708C18.7033 14.2277 18.7033 13.9731 18.6978 13.8071C18.6922 13.5304 18.6258 13.3201 18.4985 13.1763C18.3713 13.0269 18.1859 12.9328 17.9424 12.894C17.6989 12.8553 17.4028 12.8276 17.0542 12.811C16.7111 12.7889 16.3597 12.7778 16 12.7778C15.6569 12.7778 15.3055 12.7889 14.9458 12.811C14.5916 12.8276 14.2956 12.8553 14.0576 12.894C13.8141 12.9328 13.6287 13.0269 13.5015 13.1763C13.3742 13.3201 13.305 13.5304 13.2939 13.8071C13.2939 13.9731 13.2939 14.2277 13.2939 14.5708C13.2939 14.9139 13.2995 15.2902 13.3105 15.6997C13.3216 16.1092 13.3382 16.5104 13.3604 16.9033C13.3825 17.2962 13.4157 17.6255 13.46 17.8911C13.4821 18.0682 13.5319 18.3394 13.6094 18.7046C13.6868 19.0698 13.7782 19.4876 13.8833 19.958C13.994 20.4229 14.1047 20.8988 14.2153 21.3857C14.3315 21.8727 14.4395 22.3265 14.5391 22.7471C14.6442 23.1676 14.73 23.5135 14.7964 23.7847C14.8628 24.0614 14.8988 24.2191 14.9043 24.2578C14.9762 24.5345 14.9403 24.778 14.7964 24.9883C14.6525 25.2041 14.4395 25.312 14.1572 25.312C13.7311 25.312 13.4572 25.0575 13.3354 24.5483C13.2856 24.3436 13.2137 24.0531 13.1196 23.6768C13.0256 23.3005 12.9204 22.8882 12.8042 22.4399C12.6935 21.9917 12.5801 21.5462 12.4639 21.1035C12.3477 20.6608 12.2425 20.2679 12.1484 19.9248C12.0544 19.5762 11.9824 19.3161 11.9326 19.1445C11.8441 18.8402 11.7528 18.6299 11.6587 18.5137C11.5646 18.3919 11.4318 18.3311 11.2603 18.3311Z" fill="black" fill-opacity="0.95" style="fill:black;fill-opacity:0.95;"/>
    </g>
    <defs>
        <clipPath id="clip0_1846_15279">
            <rect width="24" height="24" fill="white" style="fill:white;fill-opacity:1;" transform="translate(4 4)"/>
        </clipPath>
    </defs>
</svg>
