<svg width="32" height="32" viewBox="0 0 32 32" fill="none" xmlns="http://www.w3.org/2000/svg">
    <path d="M15.9917 23.9092C15.4106 23.9092 14.8628 23.71 14.3481 23.3115C13.8335 22.9186 13.3825 22.3652 12.9951 21.6514C12.6077 20.9375 12.3034 20.1019 12.082 19.1445C11.8607 18.1872 11.75 17.1468 11.75 16.0234C11.75 14.9001 11.8607 13.8569 12.082 12.894C12.3034 11.9312 12.6077 11.0928 12.9951 10.3789C13.3825 9.66504 13.8307 9.11165 14.3398 8.71875C14.8545 8.32031 15.4051 8.12109 15.9917 8.12109C16.5838 8.12109 17.1344 8.32031 17.6436 8.71875C18.1582 9.11165 18.6092 9.66504 18.9966 10.3789C19.3895 11.0928 19.6938 11.9312 19.9097 12.894C20.1255 13.8569 20.2334 14.9001 20.2334 16.0234C20.2334 17.1468 20.1227 18.1872 19.9014 19.1445C19.6855 20.1019 19.3812 20.9375 18.9883 21.6514C18.6009 22.3652 18.1499 22.9186 17.6353 23.3115C17.1261 23.71 16.5783 23.9092 15.9917 23.9092ZM15.9917 9.2002C15.5933 9.2002 15.2087 9.38281 14.8379 9.74805C14.4727 10.1133 14.1462 10.6141 13.8584 11.2505C13.5762 11.8813 13.3521 12.609 13.186 13.4336C13.02 14.2526 12.937 15.1159 12.937 16.0234C12.937 16.9255 13.02 17.7832 13.186 18.5967C13.3521 19.4102 13.5762 20.1351 13.8584 20.7715C14.1462 21.4023 14.4727 21.9004 14.8379 22.2656C15.2087 22.6364 15.5933 22.8218 15.9917 22.8218C16.3901 22.8218 16.772 22.6364 17.1372 22.2656C17.508 21.9004 17.8372 21.3996 18.125 20.7632C18.4128 20.1268 18.6396 19.4019 18.8057 18.5884C18.9717 17.7749 19.0547 16.9199 19.0547 16.0234C19.0547 15.1159 18.9717 14.2526 18.8057 13.4336C18.6396 12.609 18.4128 11.8813 18.125 11.2505C17.8372 10.6141 17.508 10.1133 17.1372 9.74805C16.772 9.38281 16.3901 9.2002 15.9917 9.2002ZM15.4189 8.229H16.5811V23.7515H15.4189V8.229ZM15.9917 18.9204C16.8605 18.9204 17.6823 18.9924 18.457 19.1362C19.2318 19.2746 19.9263 19.4738 20.5405 19.7339C21.1603 19.994 21.6611 20.3011 22.043 20.6553L21.1548 21.3857C20.7951 21.109 20.3551 20.8739 19.835 20.6802C19.3203 20.481 18.7393 20.3315 18.0918 20.2319C17.4443 20.1268 16.7443 20.0742 15.9917 20.0742C15.2446 20.0742 14.5446 20.1268 13.8916 20.2319C13.2441 20.3315 12.6603 20.481 12.1401 20.6802C11.6255 20.8739 11.1911 21.109 10.8369 21.3857L9.94873 20.6553C10.3306 20.3011 10.8286 19.994 11.4429 19.7339C12.0571 19.4738 12.7516 19.2746 13.5264 19.1362C14.3066 18.9924 15.1284 18.9204 15.9917 18.9204ZM23.6035 15.4258V16.5796H8.38818V15.4258H23.6035ZM15.9917 13.1348C15.1284 13.1348 14.3066 13.0656 13.5264 12.9272C12.7516 12.7834 12.0571 12.5814 11.4429 12.3213C10.8286 12.0612 10.3306 11.7541 9.94873 11.3999L10.8369 10.6694C11.1966 10.9461 11.6338 11.1841 12.1484 11.3833C12.6631 11.577 13.2441 11.7264 13.8916 11.8315C14.5446 11.9312 15.2446 11.981 15.9917 11.981C16.7443 11.981 17.4443 11.9312 18.0918 11.8315C18.7393 11.7264 19.3203 11.577 19.835 11.3833C20.3551 11.1841 20.7951 10.9461 21.1548 10.6694L22.043 11.3999C21.6611 11.7541 21.1603 12.0612 20.5405 12.3213C19.9263 12.5814 19.2318 12.7834 18.457 12.9272C17.6823 13.0656 16.8605 13.1348 15.9917 13.1348ZM15.9917 24.5815C14.8075 24.5815 13.6979 24.3574 12.6631 23.9092C11.6283 23.4665 10.7179 22.8522 9.93213 22.0664C9.14632 21.2861 8.5293 20.3786 8.08105 19.3438C7.63835 18.3034 7.41699 17.1911 7.41699 16.0068C7.41699 14.8226 7.63835 13.7131 8.08105 12.6782C8.5293 11.6379 9.14632 10.7248 9.93213 9.93896C10.7179 9.15316 11.6283 8.5389 12.6631 8.09619C13.6979 7.65348 14.8075 7.43213 15.9917 7.43213C17.1759 7.43213 18.2855 7.65348 19.3203 8.09619C20.3607 8.5389 21.2738 9.15316 22.0596 9.93896C22.8454 10.7248 23.4596 11.6379 23.9023 12.6782C24.3506 13.7131 24.5747 14.8226 24.5747 16.0068C24.5747 17.1911 24.3506 18.3034 23.9023 19.3438C23.4596 20.3786 22.8454 21.2861 22.0596 22.0664C21.2738 22.8522 20.3607 23.4665 19.3203 23.9092C18.2855 24.3574 17.1759 24.5815 15.9917 24.5815ZM15.9917 23.2534C16.9933 23.2534 17.9313 23.0625 18.8057 22.6807C19.68 22.3044 20.4492 21.7869 21.1133 21.1284C21.7773 20.4644 22.2975 19.6951 22.6738 18.8208C23.0501 17.9465 23.2383 17.0085 23.2383 16.0068C23.2383 15.0052 23.0501 14.0672 22.6738 13.1929C22.2975 12.3185 21.7773 11.5493 21.1133 10.8853C20.4492 10.2212 19.68 9.70101 18.8057 9.32471C17.9313 8.9484 16.9933 8.76025 15.9917 8.76025C14.9956 8.76025 14.0604 8.9484 13.186 9.32471C12.3117 9.70101 11.5397 10.2212 10.8701 10.8853C10.2061 11.5493 9.68587 12.3185 9.30957 13.1929C8.9388 14.0672 8.75342 15.0052 8.75342 16.0068C8.75342 17.0085 8.9388 17.9465 9.30957 18.8208C9.68587 19.6951 10.2061 20.4644 10.8701 21.1284C11.5397 21.7869 12.3117 22.3044 13.186 22.6807C14.0604 23.0625 14.9956 23.2534 15.9917 23.2534Z" fill="black" fill-opacity="0.95" style="fill:black;fill-opacity:0.95;"/>
</svg>
