<svg width="32" height="32" viewBox="0 0 32 32" fill="none" xmlns="http://www.w3.org/2000/svg">
    <path d="M16.3071 22.1909C16.047 22.1909 15.7952 22.0885 15.5518 21.8838C15.3138 21.6735 15.1948 21.4577 15.1948 21.2363C15.1948 20.9818 15.2474 20.7438 15.3525 20.5225C15.4632 20.2956 15.5158 20.0438 15.5103 19.7671C15.5103 19.6675 15.466 19.5706 15.3774 19.4766C15.2889 19.3825 15.1229 19.2497 14.8794 19.0781C14.6414 18.9066 14.2983 18.652 13.8501 18.3145C13.4295 18.0046 13.2192 17.6449 13.2192 17.2354C13.2192 17.0804 13.2524 16.9476 13.3188 16.8369C13.3908 16.7207 13.46 16.61 13.5264 16.5049C13.5928 16.3997 13.626 16.2891 13.626 16.1729C13.626 16.0677 13.5734 15.9653 13.4683 15.8657C13.3631 15.7661 13.2137 15.6305 13.02 15.459L11.8164 14.4131C11.2464 13.915 10.8148 13.4391 10.5215 12.9854C10.2282 12.5316 10.1037 12.0916 10.1479 11.6655C10.1922 11.256 10.3859 10.8548 10.729 10.4619C11.0721 10.069 11.5148 9.71208 12.0571 9.39111C12.5994 9.07015 13.2082 8.81559 13.8833 8.62744C14.5584 8.43376 15.2502 8.33691 15.9585 8.33691C16.9325 8.33691 17.7985 8.48356 18.5566 8.77686C19.3148 9.07015 19.8405 9.45752 20.1338 9.93896C19.9954 10.2212 19.7962 10.4868 19.5361 10.7358C19.2816 10.9793 19.0021 11.2035 18.6978 11.4082C18.3934 11.6074 18.0946 11.7845 17.8013 11.9395C17.508 12.0944 17.2534 12.2244 17.0376 12.3296C17.1483 12.5122 17.2396 12.681 17.3115 12.8359C17.3835 12.9854 17.4194 13.1348 17.4194 13.2842C17.4194 13.5387 17.3503 13.749 17.2119 13.915C17.0736 14.0755 16.8716 14.1558 16.606 14.1558C16.3846 14.1558 16.1688 14.1004 15.9585 13.9897C15.7537 13.8791 15.5601 13.7684 15.3774 13.6577C15.2004 13.547 15.0454 13.4917 14.9126 13.4917C14.7964 13.4917 14.6968 13.5221 14.6138 13.583C14.5308 13.6439 14.4893 13.7324 14.4893 13.8486C14.4893 13.9482 14.5446 14.0755 14.6553 14.2305C14.766 14.3799 14.9043 14.5265 15.0703 14.6704C15.2419 14.8143 15.4106 14.936 15.5767 15.0356C15.7482 15.1297 15.8921 15.1768 16.0083 15.1768C16.1688 15.1768 16.3403 15.1297 16.5229 15.0356C16.7111 14.936 16.891 14.8392 17.0625 14.7451C17.2396 14.6455 17.3973 14.5957 17.5356 14.5957C17.7681 14.5957 18.0392 14.6787 18.3491 14.8447C18.659 15.0107 18.9606 15.221 19.2539 15.4756C19.5472 15.7301 19.7879 15.993 19.9761 16.2642C20.1642 16.5298 20.2583 16.765 20.2583 16.9697C20.2583 17.2464 20.1587 17.6034 19.9595 18.0405C19.7603 18.4777 19.5002 18.937 19.1792 19.4185C18.8582 19.8944 18.5151 20.3426 18.1499 20.7632C17.7902 21.1838 17.4443 21.5269 17.1123 21.7925C16.7858 22.0581 16.5174 22.1909 16.3071 22.1909ZM15.9917 24.5815C14.8075 24.5815 13.6979 24.3574 12.6631 23.9092C11.6283 23.4665 10.7179 22.8522 9.93213 22.0664C9.14632 21.2861 8.5293 20.3786 8.08105 19.3438C7.63835 18.3034 7.41699 17.1911 7.41699 16.0068C7.41699 14.8226 7.63835 13.7131 8.08105 12.6782C8.5293 11.6379 9.14632 10.7248 9.93213 9.93896C10.7179 9.15316 11.6283 8.5389 12.6631 8.09619C13.6979 7.65348 14.8075 7.43213 15.9917 7.43213C17.1759 7.43213 18.2855 7.65348 19.3203 8.09619C20.3607 8.5389 21.2738 9.15316 22.0596 9.93896C22.8454 10.7248 23.4596 11.6379 23.9023 12.6782C24.3506 13.7131 24.5747 14.8226 24.5747 16.0068C24.5747 17.1911 24.3506 18.3034 23.9023 19.3438C23.4596 20.3786 22.8454 21.2861 22.0596 22.0664C21.2738 22.8522 20.3607 23.4665 19.3203 23.9092C18.2855 24.3574 17.1759 24.5815 15.9917 24.5815ZM15.9917 23.2534C16.9933 23.2534 17.9313 23.0625 18.8057 22.6807C19.68 22.3044 20.4492 21.7869 21.1133 21.1284C21.7773 20.4644 22.2975 19.6951 22.6738 18.8208C23.0501 17.9465 23.2383 17.0085 23.2383 16.0068C23.2383 15.0052 23.0501 14.0672 22.6738 13.1929C22.2975 12.3185 21.7773 11.5493 21.1133 10.8853C20.4492 10.2212 19.68 9.70101 18.8057 9.32471C17.9313 8.9484 16.9933 8.76025 15.9917 8.76025C14.9956 8.76025 14.0604 8.9484 13.186 9.32471C12.3117 9.70101 11.5397 10.2212 10.8701 10.8853C10.2061 11.5493 9.68587 12.3185 9.30957 13.1929C8.9388 14.0672 8.75342 15.0052 8.75342 16.0068C8.75342 17.0085 8.9388 17.9465 9.30957 18.8208C9.68587 19.6951 10.2061 20.4644 10.8701 21.1284C11.5397 21.7869 12.3117 22.3044 13.186 22.6807C14.0604 23.0625 14.9956 23.2534 15.9917 23.2534Z" fill="black" fill-opacity="0.95" style="fill:black;fill-opacity:0.95;"/>
</svg>
