<svg width="32" height="32" viewBox="0 0 32 32" fill="none" xmlns="http://www.w3.org/2000/svg">
    <path d="M7.60791 13.6743C7.60791 12.9106 7.72965 12.2134 7.97314 11.5825C8.21663 10.9461 8.55697 10.3983 8.99414 9.93896C9.43685 9.47965 9.9515 9.12549 10.5381 8.87646C11.1247 8.62191 11.7555 8.49463 12.4307 8.49463C13.222 8.49463 13.922 8.66341 14.5308 9.00098C15.1395 9.33301 15.6265 9.77295 15.9917 10.3208C16.368 9.77295 16.8577 9.33301 17.4609 9.00098C18.0697 8.66341 18.7697 8.49463 19.561 8.49463C20.2417 8.49463 20.8726 8.62191 21.4536 8.87646C22.0402 9.12549 22.5521 9.47965 22.9893 9.93896C23.4264 10.3983 23.7668 10.9461 24.0103 11.5825C24.2593 12.2134 24.3838 12.9106 24.3838 13.6743C24.3838 14.853 24.0711 16.0234 23.4458 17.1855C22.8205 18.3477 21.9378 19.4766 20.7979 20.5723C19.6634 21.668 18.3215 22.7139 16.772 23.71C16.6447 23.793 16.5091 23.8677 16.3652 23.9341C16.2269 24.0005 16.1024 24.0337 15.9917 24.0337C15.8921 24.0337 15.7703 24.0005 15.6265 23.9341C15.4826 23.8677 15.3498 23.793 15.228 23.71C13.6785 22.7139 12.3311 21.668 11.1855 20.5723C10.0456 19.4766 9.16292 18.3477 8.5376 17.1855C7.91781 16.0234 7.60791 14.853 7.60791 13.6743ZM9.28467 13.666C9.28467 14.3965 9.45898 15.1408 9.80762 15.8989C10.1618 16.6571 10.6432 17.4069 11.252 18.1484C11.8607 18.89 12.5579 19.6011 13.3438 20.2817C14.1351 20.9569 14.9679 21.585 15.8423 22.166C15.9198 22.2269 15.9696 22.2573 15.9917 22.2573C16.0138 22.2573 16.0692 22.2269 16.1577 22.166C17.0321 21.585 17.8621 20.9569 18.6479 20.2817C19.4338 19.6011 20.131 18.89 20.7397 18.1484C21.3485 17.4069 21.8271 16.6571 22.1758 15.8989C22.5299 15.1408 22.707 14.3965 22.707 13.666C22.707 12.9632 22.5659 12.349 22.2837 11.8232C22.0015 11.2975 21.6141 10.888 21.1216 10.5947C20.6346 10.2959 20.084 10.1465 19.4697 10.1465C18.9661 10.1465 18.5345 10.235 18.1748 10.4121C17.8206 10.5837 17.5163 10.8022 17.2617 11.0679C17.0072 11.328 16.7858 11.5881 16.5977 11.8481C16.4759 12.0086 16.3708 12.1221 16.2822 12.1885C16.1992 12.2549 16.1024 12.2881 15.9917 12.2881C15.8866 12.2881 15.7897 12.2576 15.7012 12.1968C15.6126 12.1304 15.5075 12.0142 15.3857 11.8481C15.2142 11.5825 15.0011 11.3197 14.7466 11.0596C14.492 10.7995 14.1821 10.5837 13.8169 10.4121C13.4517 10.235 13.02 10.1465 12.522 10.1465C11.9077 10.1465 11.3543 10.2959 10.8618 10.5947C10.3748 10.888 9.99023 11.2975 9.70801 11.8232C9.42578 12.349 9.28467 12.9632 9.28467 13.666Z" fill="black" fill-opacity="0.95" style="fill:black;fill-opacity:0.95;"/>
</svg>
