<svg width="32" height="32" viewBox="0 0 32 32" fill="none" xmlns="http://www.w3.org/2000/svg">
    <path d="M8.5376 21.4854C8.21663 21.3027 7.96484 21.0565 7.78223 20.7466C7.60514 20.4367 7.5166 20.0964 7.5166 19.7256V12.2881C7.5166 11.9118 7.60514 11.5687 7.78223 11.2588C7.96484 10.9489 8.21663 10.7026 8.5376 10.52L14.979 6.80127C15.3 6.61312 15.6375 6.51904 15.9917 6.51904C16.3514 6.51904 16.6945 6.61312 17.021 6.80127L23.4541 10.52C23.7751 10.7026 24.0241 10.9489 24.2012 11.2588C24.3838 11.5687 24.4751 11.9118 24.4751 12.2881V19.7256C24.4751 20.0964 24.3838 20.4367 24.2012 20.7466C24.0241 21.0565 23.7751 21.3027 23.4541 21.4854L17.021 25.2124C16.6945 25.4061 16.3514 25.5029 15.9917 25.5029C15.6375 25.5029 15.3 25.4061 14.979 25.2124L8.5376 21.4854ZM9.12695 19.4268C9.12695 19.7809 9.28467 20.0521 9.6001 20.2402L15.5269 23.6602C15.8423 23.8483 16.1549 23.8483 16.4648 23.6602L22.3916 20.2402C22.7015 20.0521 22.8564 19.7809 22.8564 19.4268V12.5869C22.8564 12.2272 22.7015 11.9561 22.3916 11.7734L16.4648 8.35352C16.1549 8.1709 15.8423 8.1709 15.5269 8.35352L9.6001 11.7734C9.28467 11.9561 9.12695 12.2272 9.12695 12.5869V19.4268Z" fill="black" fill-opacity="0.95" style="fill:black;fill-opacity:0.95;"/>
</svg>
