<svg width="32" height="32" viewBox="0 0 32 32" fill="none" xmlns="http://www.w3.org/2000/svg">
    <path d="M15.9917 24.5815C14.8075 24.5815 13.6979 24.3574 12.6631 23.9092C11.6283 23.4665 10.7179 22.8522 9.93213 22.0664C9.14632 21.2861 8.5293 20.3786 8.08105 19.3438C7.63835 18.3034 7.41699 17.1911 7.41699 16.0068C7.41699 14.8226 7.63835 13.7131 8.08105 12.6782C8.5293 11.6379 9.14632 10.7248 9.93213 9.93896C10.7179 9.15316 11.6283 8.5389 12.6631 8.09619C13.6979 7.65348 14.8075 7.43213 15.9917 7.43213C17.1759 7.43213 18.2855 7.65348 19.3203 8.09619C20.3607 8.5389 21.2738 9.15316 22.0596 9.93896C22.8454 10.7248 23.4596 11.6379 23.9023 12.6782C24.3506 13.7131 24.5747 14.8226 24.5747 16.0068C24.5747 17.1911 24.3506 18.3034 23.9023 19.3438C23.4596 20.3786 22.8454 21.2861 22.0596 22.0664C21.2738 22.8522 20.3607 23.4665 19.3203 23.9092C18.2855 24.3574 17.1759 24.5815 15.9917 24.5815ZM15.9917 22.8882C16.9435 22.8882 17.8345 22.7083 18.6646 22.3486C19.4946 21.9945 20.2251 21.502 20.856 20.8711C21.4924 20.2402 21.9876 19.5098 22.3418 18.6797C22.696 17.8496 22.873 16.9587 22.873 16.0068C22.873 15.055 22.696 14.1641 22.3418 13.334C21.9876 12.4984 21.4924 11.7679 20.856 11.1426C20.2251 10.5117 19.4946 10.0192 18.6646 9.66504C17.8345 9.30534 16.9435 9.12549 15.9917 9.12549C15.0454 9.12549 14.1545 9.30534 13.3188 9.66504C12.4888 10.0192 11.7583 10.5117 11.1274 11.1426C10.4966 11.7679 10.0013 12.4984 9.6416 13.334C9.28743 14.1641 9.11035 15.055 9.11035 16.0068C9.11035 16.9587 9.28743 17.8496 9.6416 18.6797C10.0013 19.5098 10.4966 20.2402 11.1274 20.8711C11.7583 21.502 12.4888 21.9945 13.3188 22.3486C14.1545 22.7083 15.0454 22.8882 15.9917 22.8882ZM12.3975 16.5547C12.3975 16.4385 12.4445 16.325 12.5386 16.2144L17.0127 10.6445C17.14 10.4951 17.2756 10.4232 17.4194 10.4287C17.5633 10.4287 17.674 10.4896 17.7515 10.6113C17.8345 10.7275 17.8428 10.877 17.7764 11.0596L16.3154 14.9443H19.0464C19.1571 14.9443 19.2511 14.9831 19.3286 15.0605C19.4116 15.1325 19.4531 15.2238 19.4531 15.3345C19.4531 15.4507 19.4033 15.5641 19.3037 15.6748L14.8296 21.2446C14.7078 21.394 14.5723 21.466 14.4229 21.4604C14.279 21.4549 14.1683 21.394 14.0908 21.2778C14.0133 21.1616 14.0078 21.0094 14.0742 20.8213L15.5352 16.9365H12.8042C12.6935 16.9365 12.5967 16.9006 12.5137 16.8286C12.4362 16.7567 12.3975 16.6654 12.3975 16.5547Z" fill="black" fill-opacity="0.95" style="fill:black;fill-opacity:0.95;"/>
</svg>
