<svg width="20" height="20" viewBox="0 0 20 20" fill="none" xmlns="http://www.w3.org/2000/svg">
    <path fill-rule="evenodd" clip-rule="evenodd" d="M16.64 10C16.64 13.6672 13.6672 16.64 10 16.64C6.33283 16.64 3.36 13.6672 3.36 10C3.36 6.33283 6.33283 3.36 10 3.36C13.6672 3.36 16.64 6.33283 16.64 10ZM18 10C18 14.4183 14.4183 18 10 18C5.58172 18 2 14.4183 2 10C2 5.58172 5.58172 2 10 2C14.4183 2 18 5.58172 18 10ZM13.289 8.16464C13.518 7.86696 13.4623 7.44003 13.1646 7.21105C12.8669 6.98207 12.44 7.03776 12.211 7.33543L9.07365 11.264L7.69536 10.0695C7.41156 9.82354 6.9821 9.85421 6.73614 10.138C6.49018 10.4218 6.52086 10.8513 6.80466 11.0972L8.72773 12.7639C8.86923 12.8865 9.05502 12.9454 9.24132 12.9266C9.42761 12.9078 9.59791 12.813 9.71207 12.6646L13.289 8.16464Z" fill="black" fill-opacity="0.95" style="fill:black;fill-opacity:0.95;"/>
</svg>