<svg width="20" height="20" viewBox="0 0 20 20" fill="none" xmlns="http://www.w3.org/2000/svg">
    <path fill-rule="evenodd" clip-rule="evenodd" d="M3.36 10C3.36 6.33283 6.33283 3.36 10 3.36C13.6672 3.36 16.64 6.33283 16.64 10C16.64 13.6672 13.6672 16.64 10 16.64C6.33283 16.64 3.36 13.6672 3.36 10ZM10 2C5.58172 2 2 5.58172 2 10C2 14.4183 5.58172 18 10 18C14.4183 18 18 14.4183 18 10C18 5.58172 14.4183 2 10 2ZM8.75002 6.64C8.37446 6.64 8.07001 6.94445 8.07001 7.32C8.07001 7.69555 8.37446 8 8.75002 8H11.25C11.6256 8 11.93 7.69555 11.93 7.32C11.93 6.94445 11.6256 6.64 11.25 6.64H8.75002ZM7.00001 9.32018C6.62445 9.32018 6.32001 9.62462 6.32001 10.0002C6.32001 10.3757 6.62445 10.6802 7.00001 10.6802H13C13.3756 10.6802 13.68 10.3757 13.68 10.0002C13.68 9.62462 13.3756 9.32018 13 9.32018H7.00001ZM8.07001 12.68C8.07001 12.3044 8.37446 12 8.75002 12H11.25C11.6256 12 11.93 12.3044 11.93 12.68C11.93 13.0556 11.6256 13.36 11.25 13.36H8.75002C8.37446 13.36 8.07001 13.0556 8.07001 12.68Z" fill="black" fill-opacity="0.95" style="fill:black;fill-opacity:0.95;"/>
</svg>