<svg width="32" height="32" viewBox="0 0 32 32" fill="none" xmlns="http://www.w3.org/2000/svg">
    <path d="M6.55371 15.9404V14.7368C6.55371 13.6134 6.86084 12.7529 7.4751 12.1553C8.09489 11.5576 8.98861 11.2588 10.1562 11.2588H13.0615C13.7256 11.1868 14.4229 11.0706 15.1533 10.9102C15.8838 10.7441 16.6226 10.5339 17.3696 10.2793C18.1222 10.0247 18.8582 9.73421 19.5776 9.40771C20.297 9.08122 20.9722 8.71598 21.603 8.31201V10.0386C20.9611 10.4315 20.2943 10.7829 19.6025 11.0928C18.9108 11.3971 18.1997 11.6655 17.4692 11.8979C16.7388 12.1248 15.9889 12.3158 15.2197 12.4707C14.4561 12.6257 13.6813 12.7419 12.8955 12.8193H10.1562C9.42025 12.8193 8.89453 12.9688 8.5791 13.2676C8.26921 13.5609 8.11426 14.0506 8.11426 14.7368V15.9404C8.11426 16.6266 8.26921 17.1164 8.5791 17.4097C8.89453 17.703 9.42025 17.8496 10.1562 17.8496H12.9702C13.745 17.9326 14.5086 18.0516 15.2612 18.2065C16.0138 18.356 16.7498 18.5469 17.4692 18.7793C18.1942 19.0062 18.8997 19.2746 19.5859 19.5845C20.2777 19.8888 20.95 20.2347 21.603 20.6221V22.3569C20.9279 21.9474 20.2362 21.5794 19.5278 21.2529C18.825 20.9264 18.1084 20.6414 17.3779 20.3979C16.653 20.1545 15.9253 19.9525 15.1948 19.792C14.4644 19.626 13.7367 19.4987 13.0117 19.4102H10.1562C8.98861 19.4102 8.09489 19.1113 7.4751 18.5137C6.86084 17.916 6.55371 17.0583 6.55371 15.9404ZM14.5059 19.1279L15.1616 22.5229C15.2778 23.0874 15.2197 23.5633 14.9873 23.9507C14.7549 24.3381 14.4256 24.6037 13.9995 24.7476C13.7118 24.8416 13.3936 24.8776 13.0449 24.8555C12.6963 24.8333 12.3532 24.7061 12.0156 24.4736C11.6836 24.2412 11.3986 23.8621 11.1606 23.3364L9.19336 18.9702H10.7871L12.6714 22.9795C12.7544 23.151 12.8651 23.259 13.0034 23.3032C13.1418 23.353 13.2718 23.3558 13.3936 23.3115C13.5042 23.2673 13.5928 23.1953 13.6592 23.0957C13.7311 22.9961 13.7533 22.866 13.7256 22.7056L13.0117 19.1279H14.5059ZM11.7749 11.9062H13.3438V18.7627H11.7749V11.9062ZM21.0386 21.3193V9.2915C21.0386 8.85986 21.1326 8.48079 21.3208 8.1543C21.509 7.82227 21.769 7.56217 22.1011 7.37402C22.4331 7.18587 22.8122 7.0918 23.2383 7.0918C23.6755 7.0918 24.0573 7.18587 24.3838 7.37402C24.7158 7.56217 24.9759 7.82227 25.1641 8.1543C25.3522 8.48079 25.4463 8.85986 25.4463 9.2915V21.3193C25.4463 21.751 25.3522 22.1328 25.1641 22.4648C24.9759 22.7969 24.7158 23.057 24.3838 23.2451C24.0573 23.4333 23.6755 23.5273 23.2383 23.5273C22.8122 23.5273 22.4331 23.4333 22.1011 23.2451C21.769 23.057 21.509 22.7969 21.3208 22.4648C21.1326 22.1328 21.0386 21.751 21.0386 21.3193ZM22.6074 21.3193C22.6074 21.513 22.6628 21.668 22.7734 21.7842C22.8896 21.9004 23.0446 21.9585 23.2383 21.9585C23.432 21.9585 23.5869 21.9004 23.7031 21.7842C23.8249 21.668 23.8857 21.513 23.8857 21.3193V9.2915C23.8857 9.09782 23.8249 8.94287 23.7031 8.82666C23.5869 8.71045 23.432 8.65234 23.2383 8.65234C23.0446 8.65234 22.8896 8.71045 22.7734 8.82666C22.6628 8.94287 22.6074 9.09782 22.6074 9.2915V21.3193Z" fill="black" fill-opacity="0.95" style="fill:black;fill-opacity:0.95;"/>
</svg>
