<svg width="32" height="32" viewBox="0 0 32 32" fill="none" xmlns="http://www.w3.org/2000/svg">
    <path d="M9.47412 12.2476C9.19092 12.2476 8.94678 12.1475 8.7417 11.9473C8.5415 11.7471 8.44141 11.5029 8.44141 11.2148C8.44141 10.9316 8.5415 10.6899 8.7417 10.4897C8.94678 10.2847 9.19092 10.1821 9.47412 10.1821C9.75732 10.1821 9.99902 10.2847 10.1992 10.4897C10.4043 10.6899 10.5068 10.9316 10.5068 11.2148C10.5068 11.5029 10.4043 11.7471 10.1992 11.9473C9.99902 12.1475 9.75732 12.2476 9.47412 12.2476ZM12.8945 11.918C12.6992 11.918 12.5356 11.8496 12.4038 11.7129C12.272 11.5713 12.2061 11.4053 12.2061 11.2148C12.2061 11.0244 12.272 10.8633 12.4038 10.7314C12.5356 10.5947 12.6992 10.5264 12.8945 10.5264H22.8555C23.0459 10.5264 23.2095 10.5923 23.3462 10.7241C23.4829 10.856 23.5513 11.0195 23.5513 11.2148C23.5513 11.4102 23.4829 11.5762 23.3462 11.7129C23.2095 11.8496 23.0459 11.918 22.8555 11.918H12.8945ZM9.47412 16.752C9.19092 16.752 8.94678 16.6519 8.7417 16.4517C8.5415 16.2466 8.44141 16.0024 8.44141 15.7192C8.44141 15.436 8.5415 15.1943 8.7417 14.9941C8.94678 14.7891 9.19092 14.6865 9.47412 14.6865C9.75732 14.6865 9.99902 14.7891 10.1992 14.9941C10.4043 15.1943 10.5068 15.436 10.5068 15.7192C10.5068 16.0024 10.4043 16.2466 10.1992 16.4517C9.99902 16.6519 9.75732 16.752 9.47412 16.752ZM12.8945 16.4077C12.6992 16.4077 12.5356 16.3418 12.4038 16.21C12.272 16.0732 12.2061 15.9097 12.2061 15.7192C12.2061 15.5239 12.272 15.3579 12.4038 15.2212C12.5356 15.0845 12.6992 15.0161 12.8945 15.0161H22.8555C23.0459 15.0161 23.2095 15.0845 23.3462 15.2212C23.4829 15.3579 23.5513 15.5239 23.5513 15.7192C23.5513 15.9097 23.4829 16.0732 23.3462 16.21C23.2095 16.3418 23.0459 16.4077 22.8555 16.4077H12.8945ZM9.47412 21.2417C9.19092 21.2417 8.94678 21.1416 8.7417 20.9414C8.5415 20.7412 8.44141 20.4995 8.44141 20.2163C8.44141 19.9282 8.5415 19.6841 8.7417 19.4839C8.94678 19.2837 9.19092 19.1836 9.47412 19.1836C9.75732 19.1836 9.99902 19.2837 10.1992 19.4839C10.4043 19.6841 10.5068 19.9282 10.5068 20.2163C10.5068 20.4995 10.4043 20.7412 10.1992 20.9414C9.99902 21.1416 9.75732 21.2417 9.47412 21.2417ZM12.8945 20.9121C12.6992 20.9121 12.5356 20.8438 12.4038 20.707C12.272 20.5654 12.2061 20.4019 12.2061 20.2163C12.2061 20.021 12.272 19.8574 12.4038 19.7256C12.5356 19.5889 12.6992 19.5205 12.8945 19.5205H22.8555C23.0459 19.5205 23.2095 19.5889 23.3462 19.7256C23.4829 19.8574 23.5513 20.021 23.5513 20.2163C23.5513 20.4067 23.4829 20.5703 23.3462 20.707C23.2095 20.8438 23.0459 20.9121 22.8555 20.9121H12.8945Z" fill="black" fill-opacity="0.95" style="fill:black;fill-opacity:0.95;"/>
</svg>
