<svg width="32" height="32" viewBox="0 0 32 32" fill="none" xmlns="http://www.w3.org/2000/svg">
    <path d="M9.68311 15.2764V13.6328C9.68311 13.417 9.76058 13.2344 9.91553 13.085C10.0705 12.9355 10.2531 12.8608 10.4634 12.8608C10.6847 12.8608 10.8729 12.9355 11.0278 13.085C11.1828 13.2344 11.2603 13.417 11.2603 13.6328V15.2183C11.2603 16.159 11.4567 16.9836 11.8496 17.6919C12.248 18.3947 12.8042 18.9398 13.5181 19.3271C14.2319 19.7145 15.0592 19.9082 16 19.9082C16.9463 19.9082 17.7736 19.7145 18.4819 19.3271C19.1903 18.9398 19.7437 18.3947 20.1421 17.6919C20.5405 16.9836 20.7397 16.159 20.7397 15.2183V13.6328C20.7397 13.417 20.8172 13.2344 20.9722 13.085C21.1271 12.9355 21.3125 12.8608 21.5283 12.8608C21.7441 12.8608 21.9268 12.9355 22.0762 13.085C22.2311 13.2344 22.3086 13.417 22.3086 13.6328V15.2764C22.3086 16.4163 22.0734 17.4235 21.603 18.2979C21.1326 19.1722 20.4797 19.8722 19.644 20.3979C18.814 20.9237 17.8538 21.2391 16.7637 21.3442V23.0459H19.8101C20.0259 23.0459 20.2113 23.1206 20.3662 23.27C20.5212 23.425 20.5986 23.6104 20.5986 23.8262C20.5986 24.0365 20.5212 24.2163 20.3662 24.3657C20.2113 24.5207 20.0259 24.5981 19.8101 24.5981H12.1899C11.9741 24.5981 11.7887 24.5207 11.6338 24.3657C11.4788 24.2163 11.4014 24.0365 11.4014 23.8262C11.4014 23.6104 11.4788 23.425 11.6338 23.27C11.7887 23.1206 11.9741 23.0459 12.1899 23.0459H15.2363V21.3442C14.1462 21.2391 13.1833 20.9237 12.3477 20.3979C11.512 19.8722 10.859 19.1722 10.3887 18.2979C9.91829 17.4235 9.68311 16.4163 9.68311 15.2764ZM12.8208 14.9111V9.73145C12.8208 9.06738 12.9564 8.48079 13.2275 7.97168C13.4987 7.46257 13.8722 7.06413 14.3481 6.77637C14.8296 6.48307 15.3802 6.33643 16 6.33643C16.6198 6.33643 17.1676 6.48307 17.6436 6.77637C18.125 7.06413 18.4985 7.46257 18.7642 7.97168C19.0353 8.48079 19.1709 9.06738 19.1709 9.73145V14.9111C19.1709 15.5752 19.0353 16.1618 18.7642 16.6709C18.4985 17.18 18.125 17.5812 17.6436 17.8745C17.1676 18.1623 16.6198 18.3062 16 18.3062C15.3802 18.3062 14.8296 18.1623 14.3481 17.8745C13.8722 17.5812 13.4987 17.18 13.2275 16.6709C12.9564 16.1618 12.8208 15.5752 12.8208 14.9111ZM14.3979 14.936C14.3979 15.4894 14.5418 15.9377 14.8296 16.2808C15.1229 16.6183 15.513 16.7871 16 16.7871C16.4925 16.7871 16.8799 16.6183 17.1621 16.2808C17.4499 15.9377 17.5938 15.4894 17.5938 14.936V9.70654C17.5938 9.15316 17.4499 8.70768 17.1621 8.37012C16.8799 8.02702 16.4925 7.85547 16 7.85547C15.513 7.85547 15.1229 8.02702 14.8296 8.37012C14.5418 8.70768 14.3979 9.15316 14.3979 9.70654V14.936Z" fill="black" fill-opacity="0.95" style="fill:black;fill-opacity:0.95;"/>
</svg>
