<svg width="32" height="32" viewBox="0 0 32 32" fill="none" xmlns="http://www.w3.org/2000/svg">
    <path d="M20.582 18.6797C20.903 18.6797 21.2184 18.6603 21.5283 18.6216C21.8438 18.5828 22.1398 18.533 22.4165 18.4722C22.6987 18.4058 22.9478 18.3283 23.1636 18.2397C23.2853 18.1955 23.3877 18.165 23.4707 18.1484C23.5592 18.1263 23.645 18.1152 23.728 18.1152C23.894 18.1152 24.0435 18.1761 24.1763 18.2979C24.3146 18.4196 24.3838 18.5856 24.3838 18.7959C24.3838 18.8568 24.3755 18.9398 24.3589 19.0449C24.3423 19.1501 24.3035 19.2663 24.2427 19.3936C23.7557 20.4339 23.1082 21.3304 22.3003 22.083C21.4924 22.8356 20.5765 23.4139 19.5527 23.8179C18.5345 24.2274 17.4637 24.4321 16.3403 24.4321C15.134 24.4321 14.0023 24.2052 12.9453 23.7515C11.8939 23.3032 10.967 22.6779 10.1646 21.8755C9.36768 21.0731 8.74235 20.1462 8.28857 19.0947C7.8348 18.0378 7.60791 16.9061 7.60791 15.6997C7.60791 14.5155 7.8348 13.3921 8.28857 12.3296C8.74235 11.2671 9.36768 10.3346 10.1646 9.53223C10.967 8.72428 11.8883 8.11003 12.9287 7.68945C13.056 7.63411 13.1639 7.59814 13.2524 7.58154C13.3465 7.55941 13.4212 7.54834 13.4766 7.54834C13.6868 7.54834 13.8584 7.62305 13.9912 7.77246C14.124 7.92188 14.1904 8.08512 14.1904 8.26221C14.1904 8.36182 14.1766 8.45866 14.1489 8.55273C14.1268 8.64128 14.0798 8.75195 14.0078 8.88477C13.8529 9.18359 13.7228 9.58757 13.6177 10.0967C13.5181 10.6058 13.4683 11.1647 13.4683 11.7734C13.4683 13.1956 13.756 14.4242 14.3315 15.459C14.9071 16.4883 15.7261 17.2824 16.7886 17.8413C17.8511 18.4002 19.1156 18.6797 20.582 18.6797ZM9.20996 15.6499C9.20996 16.6792 9.38981 17.631 9.74951 18.5054C10.1147 19.3797 10.6211 20.1406 11.2686 20.7881C11.916 21.4355 12.6742 21.9391 13.543 22.2988C14.4173 22.6641 15.3664 22.8467 16.3901 22.8467C17.1925 22.8467 17.9618 22.7277 18.6978 22.4897C19.4393 22.2518 20.1117 21.9087 20.7148 21.4604C21.3236 21.0122 21.8299 20.4782 22.2339 19.8584C21.9406 19.9635 21.6362 20.0382 21.3208 20.0825C21.0109 20.1268 20.6761 20.1489 20.3164 20.1489C18.5732 20.1489 17.0791 19.8224 15.834 19.1694C14.5889 18.5109 13.6343 17.5701 12.9702 16.3472C12.3117 15.1242 11.9824 13.6605 11.9824 11.9561C11.9824 11.5465 12.0101 11.1592 12.0654 10.7939C12.1263 10.4287 12.2121 10.0773 12.3228 9.73975C11.6808 10.1825 11.1274 10.7137 10.6626 11.3335C10.1978 11.9533 9.83805 12.634 9.5835 13.3755C9.33447 14.1115 9.20996 14.8696 9.20996 15.6499Z" fill="black" fill-opacity="0.95" style="fill:black;fill-opacity:0.95;"/>
</svg>
