<svg width="32" height="32" viewBox="0 0 32 32" fill="none" xmlns="http://www.w3.org/2000/svg">
    <path d="M6.33789 22.1162C6.33789 21.4577 6.54541 20.9126 6.96045 20.481C7.38102 20.0438 8.02018 19.7339 8.87793 19.5513L10.1978 19.2773C10.491 19.222 10.6377 19.0062 10.6377 18.6299V12.5205C10.6377 12.3379 10.7013 12.1829 10.8286 12.0557C10.9614 11.9284 11.1191 11.8647 11.3018 11.8647C11.4844 11.8647 11.6393 11.9284 11.7666 12.0557C11.8994 12.1829 11.9658 12.3379 11.9658 12.5205V20.9541C11.9658 21.5739 11.8607 22.1024 11.6504 22.5396C11.4456 22.9823 11.18 23.3364 10.8535 23.6021C10.527 23.8732 10.1812 24.0697 9.81592 24.1914C9.45622 24.3187 9.11865 24.3823 8.80322 24.3823C8.32731 24.3823 7.9012 24.2855 7.5249 24.0918C7.15413 23.9036 6.86361 23.638 6.65332 23.2949C6.44303 22.9518 6.33789 22.5589 6.33789 22.1162ZM13.8916 17.8828C13.8916 17.2188 14.0991 16.6709 14.5142 16.2393C14.9292 15.8076 15.5684 15.5005 16.4316 15.3179L17.7515 15.0439C18.0448 14.9831 18.1914 14.7673 18.1914 14.3965V8.27881C18.1914 8.10173 18.255 7.94954 18.3823 7.82227C18.5151 7.68945 18.6729 7.62305 18.8555 7.62305C19.0381 7.62305 19.193 7.68945 19.3203 7.82227C19.4531 7.94954 19.5195 8.10173 19.5195 8.27881V16.7124C19.5195 17.3377 19.4144 17.869 19.2041 18.3062C18.9993 18.7433 18.7337 19.0975 18.4072 19.3687C18.0807 19.6398 17.7349 19.839 17.3696 19.9663C17.0044 20.0881 16.6668 20.1489 16.3569 20.1489C15.881 20.1489 15.4549 20.0521 15.0786 19.8584C14.7078 19.6647 14.4173 19.3991 14.207 19.0615C13.9967 18.7184 13.8916 18.3255 13.8916 17.8828ZM20.0425 22.1162C20.0425 21.4577 20.25 20.9126 20.665 20.481C21.0801 20.0438 21.7165 19.7367 22.5742 19.5596L23.9023 19.2773C24.1956 19.222 24.3423 19.0062 24.3423 18.6299V12.5205C24.3423 12.3434 24.4059 12.1912 24.5332 12.064C24.666 11.9312 24.8237 11.8647 25.0063 11.8647C25.1834 11.8647 25.3356 11.9312 25.4629 12.064C25.5957 12.1912 25.6621 12.3434 25.6621 12.5205V20.9541C25.6621 21.5794 25.557 22.1107 25.3467 22.5479C25.1419 22.985 24.8763 23.3392 24.5498 23.6104C24.2233 23.8815 23.8774 24.078 23.5122 24.1997C23.1525 24.3215 22.8177 24.3823 22.5078 24.3823C22.0264 24.3823 21.6003 24.2855 21.2295 24.0918C20.8587 23.9036 20.5682 23.638 20.3579 23.2949C20.1476 22.9518 20.0425 22.5589 20.0425 22.1162Z" fill="black" fill-opacity="0.95" style="fill:black;fill-opacity:0.95;"/>
</svg>
