<svg width="32" height="32" viewBox="0 0 32 32" fill="none" xmlns="http://www.w3.org/2000/svg">
    <path d="M21.1797 11.624C21.1797 11.7845 21.1326 11.9229 21.0386 12.0391C20.9445 12.1497 20.8172 12.2217 20.6567 12.2549L16.8384 13.0933C16.6558 13.132 16.5423 13.1818 16.498 13.2427C16.4538 13.3035 16.4316 13.4308 16.4316 13.6245V21.228C16.4316 21.8201 16.332 22.332 16.1328 22.7637C15.9391 23.1953 15.6846 23.5467 15.3691 23.8179C15.0537 24.089 14.7106 24.291 14.3398 24.4238C13.9746 24.5566 13.6204 24.623 13.2773 24.623C12.5579 24.623 11.9686 24.4128 11.5093 23.9922C11.05 23.5716 10.8203 23.0265 10.8203 22.3569C10.8203 21.7039 11.0278 21.1616 11.4429 20.73C11.8579 20.2983 12.4943 19.9912 13.3521 19.8086L14.6802 19.5347C15.0177 19.4627 15.1699 19.2386 15.1367 18.8623L15.1201 9.67334C15.1201 9.16423 15.4189 8.84603 16.0166 8.71875L20.2915 7.78076C20.5295 7.73096 20.737 7.77799 20.9141 7.92188C21.0911 8.06576 21.1797 8.26221 21.1797 8.51123V11.624Z" fill="black" fill-opacity="0.95" style="fill:black;fill-opacity:0.95;"/>
</svg>
