<svg width="32" height="32" viewBox="0 0 32 32" fill="none" xmlns="http://www.w3.org/2000/svg">
    <path d="M6.97705 11.2173V9.47412C6.97705 8.75472 7.18734 8.1792 7.60791 7.74756C8.03402 7.31038 8.5874 7.0918 9.26807 7.0918H20.6733C21.5643 7.0918 22.2367 7.32145 22.6904 7.78076C23.1497 8.24007 23.3794 8.91797 23.3794 9.81445V18.8208H24.0518C24.3451 18.8208 24.5775 18.9066 24.749 19.0781C24.9261 19.2497 25.0146 19.4738 25.0146 19.7505V22.0996C25.0146 22.6696 24.9012 23.1649 24.6743 23.5854C24.4474 24.0116 24.1292 24.3408 23.7197 24.5732C23.3102 24.8057 22.8315 24.9219 22.2837 24.9219H12.6299C11.7279 24.9219 11.05 24.695 10.5962 24.2412C10.1424 23.7874 9.91553 23.1095 9.91553 22.2075V12.1553H7.93994C7.65218 12.1553 7.41976 12.0695 7.24268 11.8979C7.06559 11.7264 6.97705 11.4995 6.97705 11.2173ZM11.5508 22.1411C11.5508 22.4787 11.6587 22.7554 11.8745 22.9712C12.0903 23.187 12.3643 23.2949 12.6963 23.2949C13.0283 23.2949 13.2995 23.187 13.5098 22.9712C13.7256 22.7609 13.8335 22.4842 13.8335 22.1411V19.7505C13.8335 19.4738 13.922 19.2497 14.0991 19.0781C14.2762 18.9066 14.5086 18.8208 14.7964 18.8208H21.7441V9.91406C21.7441 9.52669 21.6418 9.23063 21.437 9.02588C21.2378 8.82113 20.9362 8.71875 20.5322 8.71875H11.4678C11.4954 8.85156 11.5148 8.98991 11.5259 9.13379C11.5425 9.27214 11.5508 9.41878 11.5508 9.57373V22.1411ZM8.5376 10.5947H9.99023V9.47412C9.99023 9.21956 9.92383 9.02035 9.79102 8.87646C9.6582 8.72705 9.48389 8.65234 9.26807 8.65234C9.05225 8.65234 8.87516 8.72705 8.73682 8.87646C8.604 9.02035 8.5376 9.21956 8.5376 9.47412V10.5947ZM15.1865 23.2949H22.2173C22.5659 23.2949 22.8454 23.1787 23.0557 22.9463C23.2715 22.7139 23.3794 22.4067 23.3794 22.0249V20.4478H15.4688V22.0498C15.4688 22.5202 15.3747 22.9352 15.1865 23.2949ZM13.8584 15.0107C13.7035 15.0107 13.5734 14.9609 13.4683 14.8613C13.3687 14.7617 13.3188 14.64 13.3188 14.4961C13.3188 14.3411 13.3687 14.2139 13.4683 14.1143C13.5734 14.0091 13.7035 13.9565 13.8584 13.9565H16.7886C16.9435 13.9565 17.0708 14.0091 17.1704 14.1143C17.27 14.2139 17.3198 14.3411 17.3198 14.4961C17.3198 14.64 17.27 14.7617 17.1704 14.8613C17.0708 14.9609 16.9435 15.0107 16.7886 15.0107H13.8584ZM13.8584 12.1719C13.7035 12.1719 13.5734 12.1221 13.4683 12.0225C13.3687 11.9173 13.3188 11.79 13.3188 11.6406C13.3188 11.4912 13.3687 11.3667 13.4683 11.2671C13.5734 11.1675 13.7035 11.1177 13.8584 11.1177H19.4448C19.5942 11.1177 19.7188 11.1675 19.8184 11.2671C19.918 11.3667 19.9678 11.4912 19.9678 11.6406C19.9678 11.79 19.918 11.9173 19.8184 12.0225C19.7188 12.1221 19.5942 12.1719 19.4448 12.1719H13.8584Z" fill="black" fill-opacity="0.95" style="fill:black;fill-opacity:0.95;"/>
</svg>
