<svg width="32" height="32" viewBox="0 0 32 32" fill="none" xmlns="http://www.w3.org/2000/svg">
    <path d="M21.5698 16.4634C21.7137 16.325 21.8853 16.2503 22.0845 16.2393C22.2892 16.2282 22.458 16.2974 22.5908 16.4468C22.7347 16.5796 22.8066 16.7539 22.8066 16.9697C22.8122 17.18 22.7458 17.3543 22.6074 17.4927L16.4316 23.6602C15.9059 24.1859 15.3359 24.5732 14.7217 24.8223C14.1074 25.0713 13.4821 25.1903 12.8457 25.1792C12.2148 25.1737 11.6006 25.0436 11.0029 24.7891C10.4108 24.54 9.87956 24.1776 9.40918 23.7017C8.92773 23.2313 8.5625 22.6973 8.31348 22.0996C8.06445 21.5075 7.93441 20.896 7.92334 20.2651C7.91227 19.6287 8.03125 19.0034 8.28027 18.3892C8.53483 17.7749 8.92497 17.2049 9.45068 16.6792L17.876 8.2373C18.4128 7.70052 18.991 7.34912 19.6108 7.18311C20.2306 7.01156 20.8366 7.00879 21.4287 7.1748C22.0264 7.33529 22.5521 7.64518 23.0059 8.10449C23.4762 8.57487 23.7917 9.10612 23.9521 9.69824C24.1126 10.2904 24.1043 10.8936 23.9272 11.5078C23.7557 12.1165 23.4043 12.6893 22.873 13.2261L14.6055 21.4854C14.3122 21.7842 13.9829 21.9862 13.6177 22.0913C13.2524 22.1965 12.89 22.202 12.5303 22.1079C12.1706 22.0194 11.8468 21.8312 11.5591 21.5435C11.2935 21.2834 11.1164 20.9735 11.0278 20.6138C10.9393 20.2485 10.9421 19.8805 11.0361 19.5098C11.1302 19.1335 11.3267 18.7987 11.6255 18.5054L17.3779 12.7446C17.5218 12.5952 17.6878 12.5205 17.876 12.5205C18.0697 12.515 18.2357 12.5786 18.374 12.7114C18.5179 12.8553 18.5843 13.0213 18.5732 13.2095C18.5677 13.3976 18.493 13.5664 18.3491 13.7158L12.6133 19.4351C12.4307 19.6287 12.3504 19.8252 12.3726 20.0244C12.3947 20.2181 12.4722 20.3786 12.605 20.5059C12.7323 20.6331 12.8955 20.7106 13.0947 20.7383C13.2939 20.7604 13.4849 20.6774 13.6675 20.4893L21.8853 12.2632C22.1896 11.9644 22.4054 11.624 22.5327 11.2422C22.6655 10.8604 22.696 10.484 22.624 10.1133C22.5576 9.73698 22.375 9.39665 22.0762 9.09229C21.7773 8.79899 21.4398 8.61914 21.0635 8.55273C20.6872 8.48079 20.3081 8.50846 19.9263 8.63574C19.5444 8.76302 19.2041 8.97884 18.9053 9.2832L10.5215 17.6587C10.0013 18.1844 9.66374 18.7489 9.50879 19.3521C9.35384 19.9497 9.35938 20.5391 9.52539 21.1201C9.69694 21.6956 10.0068 22.2048 10.4551 22.6475C10.9033 23.1012 11.4152 23.4111 11.9907 23.5771C12.5718 23.7487 13.1611 23.757 13.7588 23.6021C14.362 23.4471 14.9264 23.1095 15.4521 22.5894L21.5698 16.4634Z" fill="black" fill-opacity="0.95" style="fill:black;fill-opacity:0.95;"/>
</svg>
