<svg width="32" height="32" viewBox="0 0 32 32" fill="none" xmlns="http://www.w3.org/2000/svg">
    <path d="M9.78271 20.5059L15.2446 15.4756V8.46143H16.7554V15.5005L22.1924 20.5059L21.0967 21.5601L16.7554 17.6172V23.5605H15.2446V17.5923L10.8701 21.5601L9.78271 20.5059ZM15.9917 24.5815C14.8075 24.5815 13.6979 24.3574 12.6631 23.9092C11.6283 23.4665 10.7179 22.8522 9.93213 22.0664C9.14632 21.2861 8.5293 20.3786 8.08105 19.3438C7.63835 18.3034 7.41699 17.1911 7.41699 16.0068C7.41699 14.8226 7.63835 13.7131 8.08105 12.6782C8.5293 11.6379 9.14632 10.7248 9.93213 9.93896C10.7179 9.15316 11.6283 8.5389 12.6631 8.09619C13.6979 7.65348 14.8075 7.43213 15.9917 7.43213C17.1759 7.43213 18.2855 7.65348 19.3203 8.09619C20.3607 8.5389 21.2738 9.15316 22.0596 9.93896C22.8454 10.7248 23.4596 11.6379 23.9023 12.6782C24.3506 13.7131 24.5747 14.8226 24.5747 16.0068C24.5747 17.1911 24.3506 18.3034 23.9023 19.3438C23.4596 20.3786 22.8454 21.2861 22.0596 22.0664C21.2738 22.8522 20.3607 23.4665 19.3203 23.9092C18.2855 24.3574 17.1759 24.5815 15.9917 24.5815ZM15.9917 22.8882C16.9435 22.8882 17.8345 22.7083 18.6646 22.3486C19.4946 21.9945 20.2251 21.502 20.856 20.8711C21.4924 20.2402 21.9876 19.5098 22.3418 18.6797C22.696 17.8496 22.873 16.9587 22.873 16.0068C22.873 15.055 22.696 14.1641 22.3418 13.334C21.9876 12.4984 21.4924 11.7679 20.856 11.1426C20.2251 10.5117 19.4946 10.0192 18.6646 9.66504C17.8345 9.30534 16.9435 9.12549 15.9917 9.12549C15.0454 9.12549 14.1545 9.30534 13.3188 9.66504C12.4888 10.0192 11.7583 10.5117 11.1274 11.1426C10.4966 11.7679 10.0013 12.4984 9.6416 13.334C9.28743 14.1641 9.11035 15.055 9.11035 16.0068C9.11035 16.9587 9.28743 17.8496 9.6416 18.6797C10.0013 19.5098 10.4966 20.2402 11.1274 20.8711C11.7583 21.502 12.4888 21.9945 13.3188 22.3486C14.1545 22.7083 15.0454 22.8882 15.9917 22.8882Z" fill="black" fill-opacity="0.95" style="fill:black;fill-opacity:0.95;"/>
</svg>
