<svg width="32" height="32" viewBox="0 0 32 32" fill="none" xmlns="http://www.w3.org/2000/svg">
    <path d="M14.9707 17.7085L13.2109 18.3892C13.1003 18.4334 12.9979 18.4113 12.9038 18.3228C12.8153 18.2342 12.7959 18.1346 12.8457 18.0239L13.5596 16.2891L21.0469 8.81006L22.4663 10.2212L14.9707 17.7085ZM23.0889 9.61523L21.6694 8.1958L22.3833 7.48193C22.5549 7.31038 22.7541 7.21908 22.981 7.20801C23.2134 7.19694 23.4098 7.26611 23.5703 7.41553L23.8193 7.64795C23.9909 7.82503 24.0711 8.03255 24.0601 8.27051C24.0545 8.50293 23.9632 8.71045 23.7861 8.89307L23.0889 9.61523ZM7.24268 14.1558C7.24268 13.1209 7.41146 12.1608 7.74902 11.2754C8.08659 10.39 8.57357 9.61523 9.20996 8.95117C9.85189 8.28711 10.6183 7.76969 11.5093 7.39893C12.4058 7.02816 13.4074 6.84277 14.5142 6.84277C15.394 6.84277 16.2712 6.97559 17.1455 7.24121C18.0199 7.5013 18.8499 7.87207 19.6357 8.35352L18.54 9.44922C17.9036 9.08952 17.234 8.81006 16.5312 8.61084C15.834 8.40609 15.1312 8.30371 14.4229 8.30371C13.2552 8.30371 12.2425 8.55827 11.3848 9.06738C10.527 9.57096 9.86296 10.2627 9.39258 11.1426C8.92773 12.0169 8.69531 13.0075 8.69531 14.1143C8.69531 14.889 8.80876 15.6693 9.03564 16.4551C9.26807 17.2409 9.61393 18.0046 10.0732 18.7461C10.5326 19.4876 11.1081 20.1711 11.7998 20.7964C12.4915 21.4217 13.2995 21.9585 14.2236 22.4067C15.1478 22.855 16.1909 23.1815 17.353 23.3862C17.5799 23.4305 17.7487 23.519 17.8594 23.6519C17.9756 23.7847 18.0337 23.9424 18.0337 24.125C18.0337 24.2744 17.995 24.4045 17.9175 24.5151C17.8455 24.6258 17.7404 24.7061 17.6021 24.7559C17.4637 24.8112 17.306 24.8278 17.1289 24.8057C16.1273 24.695 15.145 24.4377 14.1821 24.0337C13.2248 23.6297 12.3283 23.1012 11.4927 22.4482C10.6571 21.7952 9.91829 21.0426 9.27637 20.1904C8.63997 19.3327 8.14193 18.3975 7.78223 17.3848C7.42253 16.3665 7.24268 15.2902 7.24268 14.1558ZM24.7407 16.7373C24.7407 17.7389 24.5249 18.6216 24.0933 19.3853C23.6672 20.1489 23.075 20.7438 22.3169 21.1699C21.5588 21.596 20.6844 21.8091 19.6938 21.8091C19.0353 21.8091 18.3713 21.715 17.7017 21.5269C17.0321 21.3387 16.3846 21.0703 15.7593 20.7217C15.134 20.3675 14.5584 19.9469 14.0327 19.46L15.6182 18.8208C16.2158 19.3188 16.866 19.7145 17.5688 20.0078C18.2716 20.3011 18.9606 20.4478 19.6357 20.4478C20.3053 20.4478 20.9196 20.2956 21.4785 19.9912C22.0374 19.6868 22.4829 19.258 22.8149 18.7046C23.147 18.1457 23.313 17.4871 23.313 16.729C23.313 16.0096 23.1912 15.3013 22.9478 14.604C22.7098 13.9012 22.3778 13.2344 21.9517 12.6035L23.0308 11.5244C23.562 12.277 23.9798 13.096 24.2842 13.9814C24.5885 14.8613 24.7407 15.7799 24.7407 16.7373Z" fill="black" fill-opacity="0.95" style="fill:black;fill-opacity:0.95;"/>
</svg>
