<svg width="32" height="32" viewBox="0 0 32 32" fill="none" xmlns="http://www.w3.org/2000/svg">
    <path d="M10.4634 21.8672V10.1465C10.4634 9.68717 10.5796 9.34684 10.812 9.12549C11.0444 8.90413 11.3211 8.79346 11.6421 8.79346C11.9299 8.79346 12.2176 8.8737 12.5054 9.03418L22.3086 14.7617C22.6628 14.9665 22.9173 15.1602 23.0723 15.3428C23.2327 15.5254 23.313 15.7467 23.313 16.0068C23.313 16.2614 23.2327 16.4827 23.0723 16.6709C22.9173 16.8535 22.6628 17.0472 22.3086 17.252L12.5054 22.9795C12.2176 23.14 11.9299 23.2202 11.6421 23.2202C11.3211 23.2202 11.0444 23.1068 10.812 22.8799C10.5796 22.6585 10.4634 22.321 10.4634 21.8672ZM12.0986 21.0205C12.0986 21.098 12.1263 21.1533 12.1816 21.1865C12.2425 21.2197 12.3089 21.2142 12.3809 21.1699L20.9888 16.1562C21.0552 16.1175 21.0884 16.0677 21.0884 16.0068C21.0884 15.9349 21.0552 15.8851 20.9888 15.8574L12.3809 10.8438C12.3089 10.7995 12.2425 10.7939 12.1816 10.8271C12.1263 10.8604 12.0986 10.9157 12.0986 10.9932V21.0205Z" fill="black" fill-opacity="0.95" style="fill:black;fill-opacity:0.95;"/>
</svg>
