<svg width="32" height="32" viewBox="0 0 32 32" fill="none" xmlns="http://www.w3.org/2000/svg">
    <path d="M16.9795 22.3237C16.5146 22.3237 16.0996 22.2463 15.7344 22.0913C15.5794 22.1024 15.4245 22.1079 15.2695 22.1079C15.1146 22.1134 14.9596 22.1162 14.8047 22.1162C14.0908 22.1162 13.3853 22.0498 12.688 21.917C11.9963 21.7786 11.3405 21.5684 10.7207 21.2861C10.1064 20.9984 9.55583 20.6359 9.06885 20.1987C8.58187 19.7616 8.18343 19.2469 7.87354 18.6548C7.56917 18.0571 7.38656 17.3765 7.32568 16.6128C7.40316 16.6681 7.4917 16.7124 7.59131 16.7456C7.69645 16.7788 7.80713 16.7954 7.92334 16.7954C8.09489 16.7954 8.25537 16.7677 8.40479 16.7124C8.55973 16.6571 8.69808 16.5768 8.81982 16.4717C8.86963 17.014 9.00521 17.5037 9.22656 17.9409C9.44792 18.3781 9.73844 18.7572 10.0981 19.0781C10.4634 19.3991 10.8784 19.6702 11.3433 19.8916C11.8136 20.113 12.3172 20.2817 12.854 20.3979C13.3908 20.5142 13.9442 20.5833 14.5142 20.6055C14.4478 20.1406 14.4976 19.7256 14.6636 19.3604C14.8296 18.9951 15.0786 18.6852 15.4106 18.4307C15.7482 18.1706 16.1439 17.9741 16.5977 17.8413C17.0514 17.7085 17.5301 17.6421 18.0337 17.6421C18.7033 17.6421 19.3148 17.7777 19.8682 18.0488C20.4271 18.3145 20.8864 18.6769 21.2461 19.1362C21.8438 18.6326 22.328 18.0461 22.6987 17.3765C23.0695 16.7069 23.2549 16.0013 23.2549 15.2598C23.2549 14.5072 23.1055 13.8154 22.8066 13.1846C22.5078 12.5482 22.09 11.992 21.5532 11.5161C21.0164 11.0402 20.3828 10.6639 19.6523 10.3872C18.9219 10.105 18.125 9.93896 17.2617 9.88916C17.3392 9.79508 17.3779 9.66781 17.3779 9.50732C17.3779 9.28044 17.3337 9.07015 17.2451 8.87646C17.1566 8.68278 17.0321 8.514 16.8716 8.37012C17.995 8.37565 19.0353 8.55273 19.9927 8.90137C20.95 9.24447 21.7856 9.72591 22.4995 10.3457C23.2134 10.96 23.7668 11.6849 24.1597 12.5205C24.5526 13.3561 24.749 14.272 24.749 15.2681C24.749 16.3029 24.4889 17.2769 23.9688 18.1899C23.4541 19.0975 22.7845 19.8805 21.96 20.5391C22.0485 20.8656 22.0928 21.217 22.0928 21.5933C22.0928 22.3293 21.8991 23.0321 21.5117 23.7017C21.1299 24.3768 20.6042 24.9302 19.9346 25.3618C19.763 25.478 19.5887 25.5361 19.4116 25.5361C19.1847 25.5361 18.9993 25.467 18.8555 25.3286C18.7171 25.1958 18.6479 25.0326 18.6479 24.8389C18.6479 24.6729 18.6922 24.5317 18.7808 24.4155C18.8693 24.2993 18.9827 24.1886 19.1211 24.0835C19.5472 23.8123 19.8848 23.4692 20.1338 23.0542C20.3883 22.6447 20.5267 22.2186 20.5488 21.7759C20.5488 21.715 20.5461 21.6569 20.5405 21.6016C20.535 21.5462 20.5267 21.4937 20.5156 21.4438C19.9678 21.7261 19.3923 21.9419 18.7891 22.0913C18.1914 22.2463 17.5882 22.3237 16.9795 22.3237ZM16.9795 20.8213C17.4997 20.8213 18.0171 20.7521 18.5317 20.6138C19.0519 20.4699 19.5472 20.2679 20.0176 20.0078C19.8073 19.7477 19.5389 19.543 19.2124 19.3936C18.8914 19.2386 18.5317 19.1611 18.1333 19.1611C17.7293 19.1611 17.3669 19.2082 17.0459 19.3022C16.7249 19.3908 16.4676 19.5181 16.2739 19.6841C16.0858 19.8501 15.9917 20.0438 15.9917 20.2651C15.9917 20.4312 16.0858 20.5667 16.2739 20.6719C16.4621 20.7715 16.6973 20.8213 16.9795 20.8213ZM11.75 13.9565C11.5342 13.9565 11.4069 13.8459 11.3682 13.6245C11.2796 13.0545 11.1855 12.5731 11.0859 12.1802C10.9863 11.7873 10.8563 11.4608 10.6958 11.2007C10.5409 10.9406 10.3361 10.7303 10.0815 10.5698C9.82699 10.4038 9.50049 10.2682 9.10205 10.1631C8.70915 10.0579 8.22217 9.96663 7.64111 9.88916C7.53597 9.87256 7.4502 9.82829 7.38379 9.75635C7.32292 9.68441 7.29248 9.6014 7.29248 9.50732C7.29248 9.40771 7.32292 9.32471 7.38379 9.2583C7.4502 9.18636 7.53597 9.14209 7.64111 9.12549C8.2277 9.05355 8.71745 8.96501 9.11035 8.85986C9.50326 8.75472 9.82422 8.62191 10.0732 8.46143C10.3223 8.29541 10.5243 8.07959 10.6792 7.81396C10.8341 7.54834 10.9614 7.21908 11.061 6.82617C11.1662 6.43327 11.2686 5.95182 11.3682 5.38184C11.4069 5.16048 11.5342 5.0498 11.75 5.0498C11.9658 5.0498 12.0903 5.16325 12.1235 5.39014C12.2065 5.94906 12.2979 6.42497 12.3975 6.81787C12.5026 7.21077 12.6326 7.54004 12.7876 7.80566C12.9425 8.07129 13.1473 8.28711 13.4019 8.45312C13.6619 8.61914 13.9884 8.75472 14.3813 8.85986C14.7798 8.96501 15.2695 9.05355 15.8506 9.12549C16.083 9.15869 16.1992 9.28597 16.1992 9.50732C16.1992 9.6014 16.166 9.68441 16.0996 9.75635C16.0387 9.82829 15.9557 9.87256 15.8506 9.88916C15.264 9.96663 14.7743 10.0579 14.3813 10.1631C13.9884 10.2627 13.6675 10.3955 13.4185 10.5615C13.1694 10.722 12.9674 10.9351 12.8125 11.2007C12.6631 11.4608 12.5358 11.79 12.4307 12.1885C12.3311 12.5814 12.2287 13.0628 12.1235 13.6328C12.0848 13.8486 11.9603 13.9565 11.75 13.9565ZM7.92334 15.6167C7.76286 15.6167 7.66602 15.5254 7.63281 15.3428C7.56641 14.9997 7.5083 14.7285 7.4585 14.5293C7.41423 14.3301 7.34505 14.1807 7.25098 14.0811C7.1569 13.9759 7.01025 13.8984 6.81104 13.8486C6.61182 13.7933 6.32682 13.7352 5.95605 13.6743C5.77344 13.6466 5.68213 13.5498 5.68213 13.3838C5.68213 13.2233 5.7679 13.1265 5.93945 13.0933C6.31576 13.0269 6.60352 12.966 6.80273 12.9106C7.00749 12.8553 7.1569 12.7778 7.25098 12.6782C7.34505 12.5731 7.41423 12.4237 7.4585 12.23C7.5083 12.0308 7.56641 11.7596 7.63281 11.4165C7.66602 11.2394 7.76286 11.1509 7.92334 11.1509C8.08382 11.1509 8.1779 11.2394 8.20557 11.4165C8.27197 11.7651 8.32731 12.0391 8.37158 12.2383C8.42139 12.4375 8.49056 12.5869 8.5791 12.6865C8.67318 12.7861 8.82259 12.8636 9.02734 12.9189C9.2321 12.9743 9.52539 13.0324 9.90723 13.0933C10.0732 13.1209 10.1562 13.2178 10.1562 13.3838C10.1562 13.5498 10.0732 13.6466 9.90723 13.6743C9.52539 13.7352 9.2321 13.7933 9.02734 13.8486C8.82259 13.904 8.67318 13.9842 8.5791 14.0894C8.49056 14.189 8.42139 14.3384 8.37158 14.5376C8.32731 14.7368 8.27197 15.0135 8.20557 15.3677C8.1779 15.5337 8.08382 15.6167 7.92334 15.6167Z" fill="black" fill-opacity="0.95" style="fill:black;fill-opacity:0.95;"/>
</svg>
