<svg width="32" height="32" viewBox="0 0 32 32" fill="none" xmlns="http://www.w3.org/2000/svg">
    <path d="M17.7598 10.4204C17.4167 10.4204 17.104 10.3374 16.8218 10.1714C16.5451 9.99984 16.321 9.77572 16.1494 9.49902C15.9834 9.2168 15.9004 8.90413 15.9004 8.56104C15.9004 8.2124 15.9834 7.89974 16.1494 7.62305C16.321 7.34082 16.5451 7.1167 16.8218 6.95068C17.104 6.77913 17.4167 6.69336 17.7598 6.69336C18.1029 6.69336 18.4155 6.77913 18.6978 6.95068C18.98 7.1167 19.2041 7.34082 19.3701 7.62305C19.5417 7.89974 19.6274 8.2124 19.6274 8.56104C19.6274 8.90413 19.5417 9.2168 19.3701 9.49902C19.2041 9.77572 18.98 9.99984 18.6978 10.1714C18.4155 10.3374 18.1029 10.4204 17.7598 10.4204ZM14.8628 17.7417C14.6802 17.6421 14.4948 17.5369 14.3066 17.4263C14.1185 17.3101 13.9525 17.1717 13.8086 17.0112C13.6647 16.8507 13.5679 16.6488 13.5181 16.4053C13.4738 16.1618 13.5015 15.8574 13.6011 15.4922L14.29 13.0933C14.3343 12.9438 14.3094 12.8276 14.2153 12.7446C14.1268 12.6616 14.0189 12.6257 13.8916 12.6367L12.7295 12.7197L12.3726 15.1436C12.3394 15.4147 12.2453 15.6167 12.0903 15.7495C11.9409 15.8823 11.7445 15.9377 11.501 15.9155C11.263 15.8934 11.0832 15.7965 10.9614 15.625C10.8397 15.4479 10.7954 15.2238 10.8286 14.9526L11.2188 11.9561C11.2575 11.707 11.3543 11.5078 11.5093 11.3584C11.6642 11.209 11.8634 11.126 12.1069 11.1094L15.0537 10.9019C15.8285 10.8465 16.4704 10.9295 16.9795 11.1509C17.4886 11.3667 17.9368 11.7375 18.3242 12.2632L19.7686 14.2554L21.8521 13.334C22.0955 13.2233 22.3141 13.1984 22.5078 13.2593C22.707 13.3201 22.862 13.4613 22.9727 13.6826C23.0778 13.904 23.0889 14.1143 23.0059 14.3135C22.9229 14.5072 22.7596 14.6593 22.5161 14.77L19.8516 15.957C19.6689 16.04 19.4808 16.0566 19.2871 16.0068C19.099 15.9515 18.9495 15.8436 18.8389 15.6831L17.9175 14.3218C17.8289 14.2 17.721 14.1475 17.5938 14.1641C17.4665 14.1751 17.3807 14.2526 17.3364 14.3965L16.7222 16.5547L19.8516 18.6133C20.0176 18.7184 20.1338 18.8595 20.2002 19.0366C20.2721 19.2137 20.2915 19.3936 20.2583 19.5762C20.2251 19.7588 20.1393 19.9082 20.001 20.0244L17.104 22.498C16.8716 22.6973 16.6364 22.7886 16.3984 22.772C16.166 22.7609 15.9751 22.6724 15.8257 22.5063C15.6818 22.3403 15.6182 22.1439 15.6348 21.917C15.6514 21.6901 15.7731 21.4798 16 21.2861L18.042 19.5347L14.8628 17.7417ZM9.23486 24.9966C9.05225 24.8416 8.95264 24.6369 8.93604 24.3823C8.91943 24.1333 9.02181 23.9009 9.24316 23.6851L12.0654 20.8711L13.0449 17.4014C13.1999 17.5895 13.3908 17.7721 13.6177 17.9492C13.8501 18.1263 14.1268 18.3034 14.4478 18.4805L14.7549 18.6465L13.6426 21.5435C13.5706 21.7205 13.5098 21.8451 13.46 21.917C13.4102 21.9834 13.3271 22.0719 13.2109 22.1826L10.4883 24.8804C10.278 25.0907 10.0566 25.1986 9.82422 25.2041C9.59733 25.2096 9.40088 25.1405 9.23486 24.9966Z" fill="black" fill-opacity="0.95" style="fill:black;fill-opacity:0.95;"/>
</svg>
