<svg width="32" height="32" viewBox="0 0 32 32" fill="none" xmlns="http://www.w3.org/2000/svg">
    <path d="M7.64111 18.2729C7.49723 18.118 7.42529 17.9409 7.42529 17.7417C7.42529 17.5369 7.5 17.3571 7.64941 17.2021L9.11035 15.7412C10.5824 14.2692 11.8524 13.0269 12.9204 12.0142C13.9884 11.0015 14.8988 10.1935 15.6514 9.59033C16.404 8.98161 17.0459 8.5555 17.5771 8.31201C18.1084 8.06852 18.5705 7.98551 18.9634 8.06299C19.3563 8.14046 19.7243 8.35075 20.0674 8.69385C20.416 9.04248 20.6069 9.43262 20.6401 9.86426C20.6733 10.2904 20.5544 10.7829 20.2832 11.3418C20.012 11.9007 19.597 12.5509 19.0381 13.2925C18.4792 14.0285 17.7819 14.8779 16.9463 15.8408C16.0166 16.9089 15.2917 17.797 14.7715 18.5054C14.2513 19.2082 13.9165 19.7671 13.7671 20.1821C13.6232 20.5916 13.6453 20.8877 13.8335 21.0703C13.9884 21.2308 14.2292 21.2502 14.5557 21.1284C14.8877 21.0067 15.3249 20.7327 15.8672 20.3066C16.415 19.875 17.0957 19.2773 17.9092 18.5137C18.8112 17.6559 19.5998 16.9919 20.2749 16.5215C20.95 16.0456 21.5311 15.7744 22.0181 15.708C22.5106 15.6361 22.9339 15.7799 23.2881 16.1396C23.5537 16.3997 23.6948 16.7069 23.7114 17.061C23.728 17.4097 23.634 17.8219 23.4292 18.2979C23.23 18.7738 22.9339 19.3354 22.541 19.9829C22.2865 20.409 22.0734 20.766 21.9019 21.0537C21.7303 21.3359 21.6113 21.5545 21.5449 21.7095C21.484 21.8589 21.4813 21.9613 21.5366 22.0166C21.5864 22.0664 21.6805 22.0553 21.8188 21.9834C21.9572 21.9059 22.1453 21.7703 22.3833 21.5767C22.6268 21.3774 22.9256 21.1146 23.2798 20.7881C23.4347 20.6387 23.6118 20.564 23.811 20.564C24.0158 20.564 24.1929 20.6359 24.3423 20.7798C24.4972 20.9347 24.5692 21.1174 24.5581 21.3276C24.5526 21.5379 24.4585 21.7316 24.2759 21.9087C23.4735 22.7277 22.7541 23.2451 22.1177 23.4609C21.4813 23.6768 20.9639 23.5854 20.5654 23.187C20.3053 22.9325 20.1615 22.6447 20.1338 22.3237C20.1061 22.0028 20.1532 21.668 20.2749 21.3193C20.3966 20.9652 20.5571 20.6055 20.7563 20.2402C20.9556 19.875 21.1548 19.5208 21.354 19.1777C21.6694 18.6354 21.924 18.2038 22.1177 17.8828C22.3169 17.5563 22.3446 17.3184 22.2007 17.1689C22.1177 17.0915 21.9849 17.0942 21.8022 17.1772C21.6252 17.2547 21.3983 17.4041 21.1216 17.6255C20.8504 17.8468 20.535 18.1263 20.1753 18.4639C19.8211 18.7959 19.4227 19.175 18.98 19.6011C18.5483 20.0216 18.1056 20.4284 17.6519 20.8213C17.1981 21.2142 16.7471 21.5601 16.2988 21.8589C15.8506 22.1577 15.4162 22.3846 14.9956 22.5396C14.575 22.6945 14.1766 22.7443 13.8003 22.689C13.424 22.6392 13.0781 22.4593 12.7627 22.1494C12.4085 21.7952 12.2121 21.4023 12.1733 20.9707C12.1401 20.5335 12.2231 20.0715 12.4224 19.5845C12.6216 19.092 12.8983 18.5856 13.2524 18.0654C13.6121 17.5397 14.0133 17.0085 14.4561 16.4717C14.9043 15.9294 15.3553 15.3926 15.8091 14.8613C16.3625 14.2083 16.8688 13.6079 17.3281 13.0601C17.7874 12.5067 18.1693 12.0114 18.4736 11.5742C18.7835 11.137 18.9883 10.7663 19.0879 10.4619C19.193 10.1576 19.1654 9.92513 19.0049 9.76465C18.8278 9.58203 18.576 9.54329 18.2495 9.64844C17.923 9.74805 17.5163 9.9777 17.0293 10.3374C16.5423 10.6971 15.9668 11.1841 15.3027 11.7983C14.6442 12.4071 13.8888 13.132 13.0366 13.9731C12.1844 14.8088 11.2298 15.755 10.1729 16.812L8.71191 18.2729C8.5625 18.4224 8.38542 18.4998 8.18066 18.5054C7.97591 18.5054 7.79606 18.4279 7.64111 18.2729Z" fill="black" fill-opacity="0.95" style="fill:black;fill-opacity:0.95;"/>
</svg>
