<svg width="32" height="32" viewBox="0 0 32 32" fill="none" xmlns="http://www.w3.org/2000/svg">
    <path d="M8.14746 14.3384L21.4204 8.2041C21.7746 8.03809 22.1011 7.97168 22.3999 8.00488C22.6987 8.03809 22.9422 8.146 23.1304 8.32861C23.3241 8.5057 23.4403 8.74089 23.479 9.03418C23.5177 9.32194 23.4541 9.6429 23.2881 9.99707L17.1787 23.2119C17.0514 23.4831 16.8882 23.6906 16.689 23.8345C16.4897 23.9839 16.2767 24.0697 16.0498 24.0918C15.8229 24.1139 15.6099 24.0807 15.4106 23.9922C15.2114 23.9036 15.0482 23.7598 14.9209 23.5605C14.7936 23.3669 14.73 23.1234 14.73 22.8301L14.7134 16.8701C14.7134 16.7982 14.6774 16.7622 14.6055 16.7622L8.6123 16.7456C8.32454 16.7401 8.08105 16.6737 7.88184 16.5464C7.68815 16.4191 7.5415 16.2586 7.44189 16.0649C7.34782 15.8657 7.30908 15.6582 7.32568 15.4424C7.34229 15.221 7.41699 15.0107 7.5498 14.8115C7.68262 14.6123 7.88184 14.4546 8.14746 14.3384ZM10.2061 15.1685L15.5269 15.1353C15.7869 15.1353 15.9834 15.2044 16.1162 15.3428C16.2546 15.4756 16.321 15.672 16.3154 15.9321L16.2822 21.2446C16.2822 21.2612 16.2878 21.2723 16.2988 21.2778C16.3099 21.2778 16.3182 21.2695 16.3237 21.2529L21.4702 10.0635C21.4868 10.0247 21.4868 10.0026 21.4702 9.99707C21.4591 9.986 21.4398 9.986 21.4121 9.99707L10.2061 15.1187C10.1839 15.1297 10.1729 15.1408 10.1729 15.1519C10.1784 15.1629 10.1895 15.1685 10.2061 15.1685Z" fill="black" fill-opacity="0.95" style="fill:black;fill-opacity:0.95;"/>
</svg>
