<svg width="32" height="32" viewBox="0 0 32 32" fill="none" xmlns="http://www.w3.org/2000/svg">
    <path d="M16 24.6646C15.9281 24.6646 15.8395 24.6479 15.7344 24.6147C15.6292 24.5871 15.5241 24.5456 15.4189 24.4902C14.2236 23.8372 13.2137 23.2507 12.3892 22.7305C11.5701 22.2158 10.9089 21.715 10.4053 21.228C9.90723 20.741 9.54476 20.2153 9.31787 19.6509C9.09652 19.0809 8.98584 18.4168 8.98584 17.6587V11.3833C8.98584 10.8908 9.08268 10.5311 9.27637 10.3042C9.47559 10.0718 9.77995 9.86979 10.1895 9.69824C10.3721 9.62077 10.6294 9.51839 10.9614 9.39111C11.2935 9.26383 11.6615 9.12826 12.0654 8.98438C12.4694 8.83496 12.8706 8.68831 13.269 8.54443C13.673 8.40055 14.0382 8.27327 14.3647 8.1626C14.6968 8.04639 14.9541 7.96338 15.1367 7.91357C15.2695 7.88037 15.4106 7.84993 15.5601 7.82227C15.715 7.78906 15.8617 7.77246 16 7.77246C16.1383 7.77246 16.2822 7.7863 16.4316 7.81396C16.5866 7.84163 16.7332 7.87484 16.8716 7.91357C17.0487 7.97445 17.3005 8.06299 17.627 8.1792C17.959 8.29541 18.3242 8.42546 18.7227 8.56934C19.1266 8.70768 19.5278 8.8488 19.9263 8.99268C20.3302 9.13656 20.6982 9.27214 21.0303 9.39941C21.3623 9.52116 21.6196 9.62077 21.8022 9.69824C22.2173 9.87533 22.5216 10.0773 22.7153 10.3042C22.9146 10.5311 23.0142 10.8908 23.0142 11.3833V17.6587C23.0142 18.4168 22.9007 19.0809 22.6738 19.6509C22.4525 20.2153 22.09 20.7438 21.5864 21.2363C21.0884 21.7233 20.4271 22.2241 19.6025 22.7388C18.7835 23.2534 17.7764 23.8372 16.5811 24.4902C16.4759 24.5456 16.3708 24.5871 16.2656 24.6147C16.1605 24.6479 16.0719 24.6646 16 24.6646ZM16 22.9131C16.0553 22.9131 16.119 22.8993 16.1909 22.8716C16.2629 22.8439 16.3569 22.7941 16.4731 22.7222C17.4139 22.1577 18.2025 21.6735 18.8389 21.2695C19.4753 20.86 19.9844 20.4727 20.3662 20.1074C20.7536 19.7422 21.0303 19.3465 21.1963 18.9204C21.3623 18.4888 21.4453 17.9658 21.4453 17.3516V11.6489C21.4453 11.505 21.4259 11.3971 21.3872 11.3252C21.3485 11.2477 21.2738 11.1896 21.1631 11.1509C20.9085 11.0623 20.618 10.96 20.2915 10.8438C19.9705 10.7275 19.6302 10.6058 19.2705 10.4785C18.9163 10.3512 18.5649 10.224 18.2163 10.0967C17.8677 9.9694 17.5384 9.85042 17.2285 9.73975C16.9186 9.62354 16.653 9.52116 16.4316 9.43262C16.3376 9.39941 16.2546 9.37451 16.1826 9.35791C16.1162 9.34131 16.0553 9.33301 16 9.33301C15.9391 9.33301 15.8727 9.34131 15.8008 9.35791C15.7344 9.37451 15.6541 9.39941 15.5601 9.43262C15.3387 9.52116 15.0731 9.62077 14.7632 9.73145C14.4588 9.84212 14.1296 9.95833 13.7754 10.0801C13.4212 10.2018 13.0643 10.3263 12.7046 10.4536C12.3504 10.5809 12.0101 10.7054 11.6836 10.8271C11.3626 10.9434 11.0804 11.0513 10.8369 11.1509C10.7207 11.1951 10.6432 11.2533 10.6045 11.3252C10.5658 11.3971 10.5464 11.505 10.5464 11.6489V17.3516C10.5464 17.9603 10.6294 18.4777 10.7954 18.9038C10.9614 19.3299 11.2326 19.7256 11.6089 20.0908C11.9907 20.4505 12.4998 20.8351 13.1362 21.2446C13.7782 21.6541 14.5723 22.1466 15.5186 22.7222C15.6403 22.7941 15.7344 22.8439 15.8008 22.8716C15.8727 22.8993 15.9391 22.9131 16 22.9131Z" fill="black" fill-opacity="0.95" style="fill:black;fill-opacity:0.95;"/>
</svg>
