<svg width="32" height="32" viewBox="0 0 32 32" fill="none" xmlns="http://www.w3.org/2000/svg">
    <path d="M16 24.5151C15.8008 24.5151 15.6403 24.4487 15.5186 24.3159C15.3968 24.1886 15.3359 24.0226 15.3359 23.8179V22.0996L14.0576 22.8633C13.8916 22.9684 13.7284 23.0099 13.5679 22.9878C13.4074 22.9712 13.2746 22.8799 13.1694 22.7139C13.0809 22.5755 13.0588 22.4233 13.103 22.2573C13.1473 22.0968 13.2552 21.9668 13.4268 21.8672L15.3359 20.7549V19.7339L15.5103 16.8618L13.103 18.4473L12.2148 18.9536L12.2065 21.1616C12.201 21.3664 12.1401 21.5296 12.0239 21.6514C11.9077 21.7676 11.7638 21.8229 11.5923 21.8174C11.3931 21.8118 11.2464 21.7427 11.1523 21.6099C11.0583 21.4715 11.0168 21.3027 11.0278 21.1035L11.0527 19.6426L9.55859 20.4893C9.38704 20.5833 9.21273 20.6138 9.03564 20.5806C8.8641 20.5474 8.72852 20.4395 8.62891 20.2568C8.5293 20.0853 8.50439 19.9137 8.5542 19.7422C8.60954 19.5706 8.72575 19.4351 8.90283 19.3354L10.3804 18.4805L9.09375 17.7583C8.9222 17.6642 8.80322 17.5452 8.73682 17.4014C8.67041 17.252 8.68424 17.0859 8.77832 16.9033C8.85579 16.7594 8.97477 16.6654 9.13525 16.6211C9.29574 16.5768 9.46175 16.6045 9.6333 16.7041L11.5508 17.8081L12.439 17.2935L15.0371 16.0068L12.439 14.7202L11.5425 14.2139L9.6416 15.3013C9.46452 15.4009 9.29297 15.4313 9.12695 15.3926C8.96094 15.3483 8.83919 15.2515 8.76172 15.1021C8.67318 14.9194 8.66211 14.7562 8.72852 14.6123C8.80046 14.4629 8.9222 14.3439 9.09375 14.2554L10.3804 13.5332L8.90283 12.6782C8.72021 12.5786 8.60124 12.4458 8.5459 12.2798C8.49609 12.1082 8.52376 11.9312 8.62891 11.7485C8.72852 11.577 8.8641 11.4718 9.03564 11.4331C9.20719 11.3944 9.38151 11.4248 9.55859 11.5244L11.0527 12.3711L11.0278 10.9019C11.0168 10.7026 11.0583 10.5366 11.1523 10.4038C11.2464 10.271 11.3958 10.2018 11.6006 10.1963C11.7666 10.1908 11.9077 10.2489 12.0239 10.3706C12.1401 10.4868 12.201 10.6445 12.2065 10.8438V13.0435L13.103 13.5664L15.5103 15.1519L15.3359 12.2798V11.2505L13.4268 10.1382C13.2552 10.0386 13.1473 9.90853 13.103 9.74805C13.0588 9.58757 13.0809 9.43538 13.1694 9.2915C13.2746 9.12549 13.4074 9.03418 13.5679 9.01758C13.7284 8.99544 13.8916 9.03971 14.0576 9.15039L15.3359 9.90576V8.1958C15.3359 7.99105 15.3968 7.82503 15.5186 7.69775C15.6403 7.56494 15.8008 7.49854 16 7.49854C16.2048 7.49854 16.3652 7.56494 16.4814 7.69775C16.6032 7.82503 16.6641 7.99105 16.6641 8.1958V9.90576L17.9258 9.15039C18.0863 9.03971 18.2495 8.99544 18.4155 9.01758C18.5815 9.03418 18.7171 9.12549 18.8223 9.2915C18.9108 9.43538 18.9329 9.58757 18.8887 9.74805C18.8499 9.90853 18.7448 10.0413 18.5732 10.1465L16.6641 11.2505V12.2798L16.4814 15.1519L18.897 13.5664L19.7769 13.0518L19.7935 10.8438C19.799 10.6445 19.8571 10.4868 19.9678 10.3706C20.084 10.2489 20.2279 10.1908 20.3994 10.1963C20.5931 10.2018 20.737 10.271 20.8311 10.4038C20.9307 10.5366 20.9722 10.7026 20.9556 10.9019L20.9473 12.3711L22.4414 11.5244C22.6185 11.4193 22.79 11.3888 22.9561 11.4331C23.1276 11.4718 23.2632 11.577 23.3628 11.7485C23.4624 11.9312 23.4873 12.1055 23.4375 12.2715C23.3932 12.4375 23.2798 12.5731 23.0972 12.6782L21.6113 13.5332L22.8979 14.2554C23.075 14.3439 23.1968 14.4657 23.2632 14.6206C23.3351 14.77 23.3241 14.9305 23.23 15.1021C23.1525 15.2459 23.0308 15.34 22.8647 15.3843C22.6987 15.4285 22.5272 15.4009 22.3501 15.3013L20.4409 14.2056L19.561 14.7202L16.9546 16.0068L19.5527 17.2935L20.4492 17.7998L22.3584 16.7041C22.5299 16.61 22.696 16.5851 22.8564 16.6294C23.0169 16.6681 23.1387 16.7622 23.2217 16.9116C23.3158 17.0832 23.3268 17.2437 23.2549 17.3931C23.1885 17.5425 23.0695 17.6642 22.8979 17.7583L21.6113 18.4805L23.0972 19.3354C23.2743 19.4351 23.3849 19.5706 23.4292 19.7422C23.479 19.9137 23.4541 20.0881 23.3545 20.2651C23.2604 20.4367 23.1276 20.5446 22.9561 20.5889C22.79 20.6276 22.6157 20.5944 22.4331 20.4893L20.9473 19.626L20.9639 21.1035C20.9805 21.3027 20.939 21.4715 20.8394 21.6099C20.7397 21.7427 20.5903 21.8118 20.3911 21.8174C20.2306 21.8229 20.0923 21.7676 19.9761 21.6514C19.8599 21.5296 19.799 21.3664 19.7935 21.1616L19.7852 18.9536L18.897 18.4473L16.4814 16.8618L16.6641 19.7339V20.7549L18.5732 21.8672C18.7448 21.9668 18.8499 22.0968 18.8887 22.2573C18.9329 22.4233 18.9108 22.5755 18.8223 22.7139C18.7171 22.8799 18.5815 22.9712 18.4155 22.9878C18.2495 23.0099 18.0863 22.9684 17.9258 22.8633L16.6641 22.1079V23.8179C16.6641 24.0226 16.6032 24.1886 16.4814 24.3159C16.3652 24.4487 16.2048 24.5151 16 24.5151Z" fill="black" fill-opacity="0.95" style="fill:black;fill-opacity:0.95;"/>
</svg>
