<svg width="32" height="32" viewBox="0 0 32 32" fill="none" xmlns="http://www.w3.org/2000/svg">
    <path d="M15.9917 12.6782L19.2207 15.1685L17.9341 19.1445H14.0576L12.7627 15.1685L15.9917 12.6782ZM18.98 8.85156L15.9834 11.2754L12.9868 8.85156L15.9834 7.86377L18.98 8.85156ZM15.4854 8.146H16.5063V13.7407H15.4854V8.146ZM21.7856 10.8521L23.396 12.8857L24.0435 16.4717L20.6567 14.5708L21.7856 10.8521ZM23.7446 13.8652L18.5566 15.9736L18.1748 15.0273L23.3628 12.9272L23.7446 13.8652ZM17.8511 23.6519L18.7227 19.8916L22.624 19.9497L20.6982 22.415L17.8511 23.6519ZM21.0386 22.0498L20.2334 22.6641L16.7886 18.2563L17.6021 17.6338L21.0386 22.0498ZM14.124 23.6104L11.2769 22.3735L9.35107 19.9165L13.2607 19.8584L14.124 23.6104ZM10.9365 22.0166L14.373 17.6006L15.1865 18.2231L11.7417 22.6309L10.9365 22.0166ZM10.2061 10.8521L11.335 14.5708L7.94824 16.4717L8.5957 12.8857L10.2061 10.8521ZM8.24707 13.8652L8.62891 12.9272L13.8169 15.0273L13.4351 15.9736L8.24707 13.8652ZM15.9917 24.5815C14.8075 24.5815 13.6979 24.3574 12.6631 23.9092C11.6283 23.4665 10.7179 22.8522 9.93213 22.0664C9.14632 21.2861 8.5293 20.3786 8.08105 19.3438C7.63835 18.3034 7.41699 17.1911 7.41699 16.0068C7.41699 14.8226 7.63835 13.7131 8.08105 12.6782C8.5293 11.6379 9.14632 10.7248 9.93213 9.93896C10.7179 9.15316 11.6283 8.5389 12.6631 8.09619C13.6979 7.65348 14.8075 7.43213 15.9917 7.43213C17.1759 7.43213 18.2855 7.65348 19.3203 8.09619C20.3607 8.5389 21.2738 9.15316 22.0596 9.93896C22.8454 10.7248 23.4596 11.6379 23.9023 12.6782C24.3506 13.7131 24.5747 14.8226 24.5747 16.0068C24.5747 17.1911 24.3506 18.3034 23.9023 19.3438C23.4596 20.3786 22.8454 21.2861 22.0596 22.0664C21.2738 22.8522 20.3607 23.4665 19.3203 23.9092C18.2855 24.3574 17.1759 24.5815 15.9917 24.5815ZM15.9917 23.2534C16.9933 23.2534 17.9313 23.0625 18.8057 22.6807C19.68 22.3044 20.4492 21.7869 21.1133 21.1284C21.7773 20.4644 22.2975 19.6951 22.6738 18.8208C23.0501 17.9465 23.2383 17.0085 23.2383 16.0068C23.2383 15.0052 23.0501 14.0672 22.6738 13.1929C22.2975 12.3185 21.7773 11.5493 21.1133 10.8853C20.4492 10.2212 19.68 9.70101 18.8057 9.32471C17.9313 8.9484 16.9933 8.76025 15.9917 8.76025C14.9956 8.76025 14.0604 8.9484 13.186 9.32471C12.3117 9.70101 11.5397 10.2212 10.8701 10.8853C10.2061 11.5493 9.68587 12.3185 9.30957 13.1929C8.9388 14.0672 8.75342 15.0052 8.75342 16.0068C8.75342 17.0085 8.9388 17.9465 9.30957 18.8208C9.68587 19.6951 10.2061 20.4644 10.8701 21.1284C11.5397 21.7869 12.3117 22.3044 13.186 22.6807C14.0604 23.0625 14.9956 23.2534 15.9917 23.2534Z" fill="black" fill-opacity="0.95" style="fill:black;fill-opacity:0.95;"/>
</svg>
