<svg width="32" height="32" viewBox="0 0 32 32" fill="none" xmlns="http://www.w3.org/2000/svg">
    <path d="M16 24.2827C15.8174 24.2827 15.6597 24.2218 15.5269 24.1001C15.3996 23.9839 15.3193 23.8289 15.2861 23.6353C15.1533 22.7166 15.0122 21.9225 14.8628 21.2529C14.7189 20.5833 14.5418 20.0161 14.3315 19.5513C14.1268 19.0809 13.8695 18.6908 13.5596 18.3809C13.2497 18.0654 12.8623 17.8081 12.3975 17.6089C11.9326 17.4097 11.3709 17.2437 10.7124 17.1108C10.0594 16.9725 9.28467 16.8424 8.38818 16.7207C8.18896 16.6986 8.02572 16.6211 7.89844 16.4883C7.77669 16.3555 7.71582 16.195 7.71582 16.0068C7.71582 15.8187 7.77946 15.6582 7.90674 15.5254C8.03402 15.3926 8.1945 15.3123 8.38818 15.2847C9.46729 15.1685 10.3748 15.0301 11.1108 14.8696C11.8468 14.7036 12.4528 14.4767 12.9287 14.189C13.4102 13.9012 13.7975 13.5166 14.0908 13.0352C14.3841 12.5482 14.6193 11.9256 14.7964 11.1675C14.9735 10.4093 15.1367 9.47689 15.2861 8.37012C15.3193 8.17643 15.3996 8.02148 15.5269 7.90527C15.6597 7.78906 15.8174 7.73096 16 7.73096C16.1771 7.73096 16.3293 7.78906 16.4565 7.90527C16.5894 8.02148 16.6724 8.17643 16.7056 8.37012C16.8605 9.47689 17.0265 10.4093 17.2036 11.1675C17.3862 11.9201 17.6242 12.5399 17.9175 13.0269C18.2108 13.5083 18.5954 13.8929 19.0713 14.1807C19.5472 14.4684 20.1532 14.6953 20.8892 14.8613C21.6252 15.0218 22.5327 15.1629 23.6118 15.2847C23.8 15.3123 23.9577 15.3926 24.085 15.5254C24.2178 15.6582 24.2842 15.8187 24.2842 16.0068C24.2842 16.195 24.2178 16.3555 24.085 16.4883C23.9577 16.6211 23.7972 16.6986 23.6035 16.7207C22.5299 16.8424 21.6224 16.9863 20.8809 17.1523C20.1449 17.3128 19.5361 17.5369 19.0547 17.8247C18.5788 18.1125 18.1942 18.4998 17.9009 18.9868C17.6131 19.4683 17.3779 20.0881 17.1953 20.8462C17.0182 21.5988 16.855 22.5285 16.7056 23.6353C16.6779 23.8289 16.5977 23.9839 16.4648 24.1001C16.3376 24.2218 16.1826 24.2827 16 24.2827Z" fill="black" fill-opacity="0.95" style="fill:black;fill-opacity:0.95;"/>
</svg>
