<svg width="32" height="32" viewBox="0 0 32 32" fill="none" xmlns="http://www.w3.org/2000/svg">
    <path d="M17.1787 24.8472C17.057 24.8472 16.9491 24.8057 16.855 24.7227C16.7664 24.6396 16.7139 24.5317 16.6973 24.3989C16.5645 23.5024 16.4233 22.7471 16.2739 22.1328C16.1245 21.5241 15.9308 21.0233 15.6929 20.6304C15.4549 20.2375 15.1395 19.9248 14.7466 19.6924C14.3592 19.4544 13.8639 19.2635 13.2607 19.1196C12.6631 18.9757 11.9215 18.8457 11.0361 18.7295C10.8923 18.7129 10.7788 18.6603 10.6958 18.5718C10.6128 18.4777 10.5713 18.3643 10.5713 18.2314C10.5713 18.1042 10.6128 17.9963 10.6958 17.9077C10.7843 17.8136 10.8978 17.7583 11.0361 17.7417C11.9215 17.6421 12.6659 17.5259 13.269 17.3931C13.8722 17.2547 14.3703 17.0666 14.7632 16.8286C15.1561 16.5851 15.4715 16.2642 15.7095 15.8657C15.953 15.4673 16.1466 14.9609 16.2905 14.3467C16.4399 13.7324 16.5755 12.9743 16.6973 12.0723C16.7139 11.9395 16.7664 11.8315 16.855 11.7485C16.9491 11.6655 17.057 11.624 17.1787 11.624C17.3115 11.624 17.4194 11.6655 17.5024 11.7485C17.591 11.8315 17.6491 11.9395 17.6768 12.0723C17.7985 12.9743 17.9313 13.7324 18.0752 14.3467C18.2246 14.9609 18.4183 15.4673 18.6562 15.8657C18.8997 16.2586 19.2152 16.5768 19.6025 16.8203C19.9954 17.0583 20.4935 17.2464 21.0967 17.3848C21.6999 17.5231 22.4442 17.6421 23.3296 17.7417C23.4679 17.7583 23.5786 17.8136 23.6616 17.9077C23.7502 18.0018 23.7944 18.1097 23.7944 18.2314C23.7944 18.3643 23.7502 18.4777 23.6616 18.5718C23.5786 18.6659 23.4679 18.7184 23.3296 18.7295C22.4442 18.8291 21.6971 18.9481 21.0884 19.0864C20.4852 19.2192 19.9871 19.4046 19.5942 19.6426C19.2013 19.8805 18.8859 20.1987 18.6479 20.5972C18.41 20.9956 18.2163 21.5047 18.0669 22.1245C17.923 22.7443 17.793 23.5024 17.6768 24.3989C17.6546 24.5317 17.5993 24.6396 17.5107 24.7227C17.4222 24.8057 17.3115 24.8472 17.1787 24.8472ZM11.4429 15.6499C11.2547 15.6499 11.1468 15.5475 11.1191 15.3428C11.0527 14.7949 10.9836 14.366 10.9116 14.0562C10.8397 13.7407 10.7235 13.5055 10.563 13.3506C10.4025 13.1901 10.159 13.0684 9.83252 12.9854C9.51156 12.9023 9.07161 12.8138 8.5127 12.7197C8.30241 12.6921 8.19727 12.5869 8.19727 12.4043C8.19727 12.2327 8.28857 12.1304 8.47119 12.0972C9.04118 11.992 9.48942 11.8979 9.81592 11.8149C10.1424 11.7264 10.3859 11.6047 10.5464 11.4497C10.7124 11.2948 10.8314 11.0651 10.9033 10.7607C10.9808 10.4564 11.0527 10.0303 11.1191 9.48242C11.1468 9.27767 11.2547 9.17529 11.4429 9.17529C11.6255 9.17529 11.7306 9.27214 11.7583 9.46582C11.8247 10.0247 11.8939 10.4647 11.9658 10.7856C12.0433 11.1066 12.1623 11.3473 12.3228 11.5078C12.4832 11.6683 12.7267 11.7873 13.0532 11.8647C13.3797 11.9367 13.828 12.0142 14.3979 12.0972C14.481 12.1027 14.5474 12.1359 14.5972 12.1968C14.6525 12.2521 14.6802 12.3213 14.6802 12.4043C14.6802 12.5814 14.5889 12.6865 14.4062 12.7197C13.8307 12.8304 13.3797 12.93 13.0532 13.0186C12.7323 13.1016 12.4915 13.2233 12.3311 13.3838C12.1706 13.5387 12.0516 13.7712 11.9741 14.0811C11.8966 14.3854 11.8247 14.8115 11.7583 15.3594C11.7417 15.4424 11.7057 15.5116 11.6504 15.5669C11.5951 15.6222 11.5259 15.6499 11.4429 15.6499ZM15.4604 9.84766C15.3442 9.84766 15.2778 9.78678 15.2612 9.66504C15.2004 9.32747 15.145 9.06185 15.0952 8.86816C15.0509 8.67448 14.979 8.52783 14.8794 8.42822C14.7853 8.32861 14.6387 8.25114 14.4395 8.1958C14.2458 8.13493 13.9691 8.07406 13.6094 8.01318C13.4876 7.98551 13.4268 7.91357 13.4268 7.79736C13.4268 7.69222 13.4876 7.62581 13.6094 7.59814C13.9691 7.53174 14.2458 7.47087 14.4395 7.41553C14.6387 7.35465 14.7853 7.27441 14.8794 7.1748C14.979 7.0752 15.0509 6.93132 15.0952 6.74316C15.145 6.54948 15.2004 6.28385 15.2612 5.94629C15.2778 5.82454 15.3442 5.76367 15.4604 5.76367C15.5767 5.76367 15.6458 5.82454 15.668 5.94629C15.7233 6.28385 15.7759 6.54948 15.8257 6.74316C15.8755 6.93685 15.9474 7.0835 16.0415 7.18311C16.1411 7.28271 16.2878 7.36296 16.4814 7.42383C16.6807 7.47917 16.9601 7.53727 17.3198 7.59814C17.4416 7.62028 17.5024 7.68669 17.5024 7.79736C17.5024 7.91357 17.4416 7.98551 17.3198 8.01318C16.9601 8.07406 16.6807 8.13493 16.4814 8.1958C16.2878 8.25114 16.1411 8.33138 16.0415 8.43652C15.9474 8.53613 15.8755 8.68278 15.8257 8.87646C15.7759 9.06462 15.7233 9.32747 15.668 9.66504C15.6458 9.78678 15.5767 9.84766 15.4604 9.84766Z" fill="black" fill-opacity="0.95" style="fill:black;fill-opacity:0.95;"/>
</svg>
