<svg width="32" height="32" viewBox="0 0 32 32" fill="none" xmlns="http://www.w3.org/2000/svg">
    <path d="M10.9697 23.7598C10.0732 23.7598 9.39535 23.5301 8.93604 23.0708C8.47673 22.617 8.24707 21.9502 8.24707 21.0703V10.96C8.24707 10.069 8.47673 9.39665 8.93604 8.94287C9.39535 8.4891 10.0732 8.26221 10.9697 8.26221H21.022C21.9185 8.26221 22.5964 8.49186 23.0557 8.95117C23.515 9.40495 23.7446 10.0745 23.7446 10.96V21.0703C23.7446 21.9502 23.515 22.617 23.0557 23.0708C22.5964 23.5301 21.9185 23.7598 21.022 23.7598H10.9697ZM11.0693 22.1245H20.9224C21.3042 22.1245 21.5975 22.0249 21.8022 21.8257C22.007 21.6265 22.1094 21.3249 22.1094 20.9209V11.1011C22.1094 10.6971 22.007 10.3955 21.8022 10.1963C21.5975 9.99707 21.3042 9.89746 20.9224 9.89746H11.0693C10.682 9.89746 10.3859 9.99707 10.1812 10.1963C9.98193 10.3955 9.88232 10.6971 9.88232 11.1011V20.9209C9.88232 21.3249 9.98193 21.6265 10.1812 21.8257C10.3859 22.0249 10.682 22.1245 11.0693 22.1245Z" fill="black" fill-opacity="0.95" style="fill:black;fill-opacity:0.95;"/>
</svg>
