<svg width="32" height="32" viewBox="0 0 32 32" fill="none" xmlns="http://www.w3.org/2000/svg">
    <path d="M10.2393 24.1416C10.0456 23.9977 9.9266 23.804 9.88232 23.5605C9.84359 23.3226 9.87956 23.0404 9.99023 22.7139L11.7002 17.6421L7.34229 14.5127C7.06006 14.3135 6.86361 14.106 6.75293 13.8901C6.64225 13.6688 6.62565 13.4419 6.70312 13.2095C6.7806 12.9826 6.92725 12.8138 7.14307 12.7031C7.35889 12.5869 7.64111 12.5316 7.98975 12.5371L13.3271 12.5703L14.9541 7.47363C15.0592 7.1416 15.1976 6.88981 15.3691 6.71826C15.5462 6.54118 15.7537 6.45264 15.9917 6.45264C16.2352 6.45264 16.4427 6.54118 16.6143 6.71826C16.7913 6.88981 16.9325 7.1416 17.0376 7.47363L18.6646 12.5703L24.002 12.5371C24.3506 12.5316 24.6328 12.5869 24.8486 12.7031C25.0645 12.8138 25.2111 12.9826 25.2886 13.2095C25.366 13.4419 25.3494 13.6688 25.2388 13.8901C25.1281 14.106 24.9316 14.3135 24.6494 14.5127L20.2915 17.6421L22.0015 22.7139C22.1121 23.0404 22.1453 23.3226 22.1011 23.5605C22.0623 23.804 21.9461 23.9977 21.7524 24.1416C21.5588 24.2965 21.3402 24.3519 21.0967 24.3076C20.8532 24.2633 20.5931 24.1416 20.3164 23.9424L15.9917 20.7632L11.6753 23.9424C11.3986 24.1416 11.1385 24.2633 10.895 24.3076C10.6515 24.3519 10.4329 24.2965 10.2393 24.1416ZM11.7002 22.1328C11.7113 22.1494 11.7334 22.1466 11.7666 22.1245L15.5103 19.2358C15.6763 19.103 15.8368 19.0366 15.9917 19.0366C16.1522 19.0366 16.3154 19.103 16.4814 19.2358L20.2251 22.1245C20.2583 22.1466 20.2804 22.1494 20.2915 22.1328C20.297 22.1217 20.297 22.0996 20.2915 22.0664L18.7144 17.6172C18.6701 17.4844 18.6452 17.3654 18.6396 17.2603C18.6396 17.1496 18.6673 17.05 18.7227 16.9614C18.7835 16.8729 18.8748 16.7871 18.9966 16.7041L22.8979 14.0396C22.9312 14.0174 22.945 13.9953 22.9395 13.9731C22.9339 13.9565 22.909 13.9482 22.8647 13.9482L18.1499 14.0645C17.9341 14.07 17.7653 14.034 17.6436 13.9565C17.5218 13.8735 17.4305 13.7241 17.3696 13.5083L16.0415 8.98438C16.0304 8.94564 16.0138 8.92627 15.9917 8.92627C15.9751 8.92627 15.9613 8.94564 15.9502 8.98438L14.6221 13.5083C14.5612 13.7241 14.4699 13.8735 14.3481 13.9565C14.2264 14.034 14.0576 14.07 13.8418 14.0645L9.12695 13.9482C9.08268 13.9482 9.05778 13.9565 9.05225 13.9731C9.04671 13.9953 9.06055 14.0174 9.09375 14.0396L12.9951 16.7041C13.1169 16.7871 13.2054 16.8729 13.2607 16.9614C13.3216 17.05 13.3493 17.1496 13.3438 17.2603C13.3438 17.3654 13.3216 17.4844 13.2773 17.6172L11.7002 22.0664C11.6891 22.0996 11.6891 22.1217 11.7002 22.1328Z" fill="black" fill-opacity="0.95" style="fill:black;fill-opacity:0.95;"/>
</svg>
