<svg width="32" height="32" viewBox="0 0 32 32" fill="none" xmlns="http://www.w3.org/2000/svg">
    <path d="M16 10.1465C15.7676 10.1465 15.5711 10.0635 15.4106 9.89746C15.2502 9.73145 15.1699 9.53499 15.1699 9.30811V7.58154C15.1699 7.35465 15.2502 7.16097 15.4106 7.00049C15.5711 6.83447 15.7676 6.75146 16 6.75146C16.2214 6.75146 16.4123 6.83447 16.5728 7.00049C16.7388 7.16097 16.8218 7.35465 16.8218 7.58154V9.30811C16.8218 9.53499 16.7388 9.73145 16.5728 9.89746C16.4123 10.0635 16.2214 10.1465 16 10.1465ZM20.1338 11.873C19.9733 11.7181 19.8931 11.5244 19.8931 11.292C19.8931 11.0596 19.9733 10.8631 20.1338 10.7026L21.3623 9.47412C21.5173 9.31364 21.7109 9.2334 21.9434 9.2334C22.1758 9.22786 22.3722 9.30534 22.5327 9.46582C22.6932 9.6263 22.7734 9.82275 22.7734 10.0552C22.7734 10.2876 22.6932 10.484 22.5327 10.6445L21.3125 11.873C21.152 12.0391 20.9556 12.1221 20.7231 12.1221C20.4907 12.1165 20.2943 12.0335 20.1338 11.873ZM21.8438 16.0068C21.8438 15.7799 21.924 15.5863 22.0845 15.4258C22.2505 15.2598 22.4497 15.1768 22.6821 15.1768H24.4004C24.6273 15.1768 24.821 15.2598 24.9814 15.4258C25.1475 15.5863 25.2305 15.7799 25.2305 16.0068C25.2305 16.2337 25.1475 16.4274 24.9814 16.5879C24.821 16.7484 24.6273 16.8286 24.4004 16.8286H22.6821C22.4497 16.8286 22.2505 16.7484 22.0845 16.5879C21.924 16.4274 21.8438 16.2337 21.8438 16.0068ZM20.1338 20.1406C20.2887 19.9857 20.4824 19.9082 20.7148 19.9082C20.9473 19.9082 21.1437 19.9857 21.3042 20.1406L22.5327 21.3691C22.6932 21.5241 22.7734 21.7178 22.7734 21.9502C22.7734 22.1826 22.696 22.3791 22.541 22.5396C22.3805 22.6945 22.1841 22.772 21.9517 22.772C21.7192 22.7775 21.5256 22.7056 21.3706 22.5562L20.1338 21.311C19.9733 21.1561 19.8931 20.9652 19.8931 20.7383C19.8931 20.5059 19.9733 20.3066 20.1338 20.1406ZM16 21.8672C16.2214 21.8672 16.4123 21.9474 16.5728 22.1079C16.7388 22.2739 16.8218 22.4704 16.8218 22.6973V24.4238C16.8218 24.6507 16.7388 24.8444 16.5728 25.0049C16.4123 25.1709 16.2214 25.2539 16 25.2539C15.7676 25.2539 15.5711 25.1709 15.4106 25.0049C15.2502 24.8444 15.1699 24.6507 15.1699 24.4238V22.6973C15.1699 22.4704 15.2502 22.2739 15.4106 22.1079C15.5711 21.9474 15.7676 21.8672 16 21.8672ZM11.8579 20.1406C12.0129 20.3066 12.0903 20.5059 12.0903 20.7383C12.0903 20.9652 12.0101 21.1561 11.8496 21.311L10.6211 22.5479C10.4661 22.6973 10.2697 22.7692 10.0317 22.7637C9.79932 22.7637 9.60286 22.6862 9.44238 22.5312C9.29297 22.3708 9.21826 22.1743 9.21826 21.9419C9.21826 21.7095 9.2985 21.5158 9.45898 21.3608L10.6792 20.1406C10.8397 19.9857 11.0361 19.9082 11.2686 19.9082C11.501 19.9082 11.6974 19.9857 11.8579 20.1406ZM10.1479 16.0068C10.1479 16.2337 10.0649 16.4274 9.89893 16.5879C9.73291 16.7484 9.53646 16.8286 9.30957 16.8286H7.58301C7.36165 16.8286 7.16797 16.7484 7.00195 16.5879C6.84147 16.4274 6.76123 16.2337 6.76123 16.0068C6.76123 15.7799 6.84147 15.5863 7.00195 15.4258C7.16797 15.2598 7.36165 15.1768 7.58301 15.1768H9.30957C9.53646 15.1768 9.73291 15.2598 9.89893 15.4258C10.0649 15.5863 10.1479 15.7799 10.1479 16.0068ZM11.8496 11.873C11.6891 12.0335 11.4927 12.1138 11.2603 12.1138C11.0334 12.1138 10.8397 12.0335 10.6792 11.873L9.45898 10.6362C9.30404 10.4813 9.22656 10.2876 9.22656 10.0552C9.22656 9.82275 9.3068 9.6263 9.46729 9.46582C9.62777 9.30534 9.82422 9.22786 10.0566 9.2334C10.2891 9.23893 10.4827 9.31917 10.6377 9.47412L11.8579 10.7026C12.0129 10.8576 12.0903 11.054 12.0903 11.292C12.0903 11.5244 12.0101 11.7181 11.8496 11.873ZM16 20.3398C15.3968 20.3398 14.8324 20.2292 14.3066 20.0078C13.7865 19.7809 13.3271 19.471 12.9287 19.0781C12.5303 18.6797 12.2176 18.2176 11.9907 17.6919C11.7694 17.1662 11.6587 16.6045 11.6587 16.0068C11.6587 15.4036 11.7694 14.842 11.9907 14.3218C12.2176 13.7961 12.5303 13.3368 12.9287 12.9438C13.3271 12.5454 13.7865 12.2327 14.3066 12.0059C14.8324 11.779 15.3968 11.6655 16 11.6655C16.5977 11.6655 17.1566 11.779 17.6768 12.0059C18.2025 12.2327 18.6646 12.5454 19.063 12.9438C19.4614 13.3368 19.7713 13.7961 19.9927 14.3218C20.2196 14.842 20.333 15.4036 20.333 16.0068C20.333 16.6045 20.2196 17.1662 19.9927 17.6919C19.7713 18.2176 19.4614 18.6797 19.063 19.0781C18.6646 19.471 18.2025 19.7809 17.6768 20.0078C17.1566 20.2292 16.5977 20.3398 16 20.3398ZM16 18.8042C16.5146 18.8042 16.9823 18.6797 17.4028 18.4307C17.8289 18.1816 18.1665 17.8441 18.4155 17.418C18.6701 16.9919 18.7974 16.5215 18.7974 16.0068C18.7974 15.4922 18.6701 15.0218 18.4155 14.5957C18.1665 14.1696 17.8289 13.832 17.4028 13.583C16.9823 13.3285 16.5146 13.2012 16 13.2012C15.4798 13.2012 15.0067 13.3285 14.5806 13.583C14.1545 13.832 13.8169 14.1696 13.5679 14.5957C13.3188 15.0218 13.1943 15.4922 13.1943 16.0068C13.1943 16.5215 13.3188 16.9919 13.5679 17.418C13.8169 17.8441 14.1545 18.1816 14.5806 18.4307C15.0067 18.6797 15.4798 18.8042 16 18.8042Z" fill="black" fill-opacity="0.95" style="fill:black;fill-opacity:0.95;"/>
</svg>
