<svg width="32" height="32" viewBox="0 0 32 32" fill="none" xmlns="http://www.w3.org/2000/svg">
    <path d="M6.62842 18.3394C7.01025 18.6493 7.46126 18.9453 7.98145 19.2275C8.50163 19.5098 9.05778 19.7616 9.6499 19.9829C10.2476 20.1987 10.8535 20.3703 11.4678 20.4976C12.082 20.6248 12.6769 20.6885 13.2524 20.6885C13.8833 20.6885 14.4367 20.6414 14.9126 20.5474C15.3885 20.4533 15.8174 20.326 16.1992 20.1655C16.5866 19.9995 16.9601 19.8197 17.3198 19.626C15.4438 18.1097 13.7809 16.5547 12.3311 14.9609C10.8867 13.3672 9.60286 11.7541 8.47949 10.1216C9.65267 11.1675 10.8674 12.1691 12.1235 13.1265C13.3853 14.0783 14.6912 14.9831 16.0415 15.8408C15.0399 14.723 14.0881 13.619 13.186 12.5288C12.284 11.4386 11.4512 10.307 10.6875 9.13379C11.0749 9.53776 11.5535 10.0081 12.1235 10.5449C12.6991 11.0762 13.3299 11.6323 14.0161 12.2134C14.7023 12.7944 15.3968 13.3644 16.0996 13.9233C16.8079 14.4767 17.4831 14.9858 18.125 15.4507C18.7725 15.91 19.348 16.2835 19.8516 16.5713C19.9622 16.2891 20.0729 15.8934 20.1836 15.3843C20.2998 14.8696 20.3579 14.355 20.3579 13.8403C20.3579 12.894 20.2389 12.0363 20.001 11.2671C19.763 10.4924 19.4697 9.80062 19.1211 9.19189C18.778 8.58317 18.446 8.05469 18.125 7.60645C19.2705 8.29818 20.2279 9.06462 20.9971 9.90576C21.7663 10.7414 22.3778 11.5936 22.8315 12.4624C23.2853 13.3312 23.609 14.1668 23.8027 14.9692C23.9964 15.7716 24.0933 16.48 24.0933 17.0942C24.0933 17.3654 24.0767 17.7113 24.0435 18.1318C24.0103 18.5524 23.9162 18.9702 23.7612 19.3853C24.215 19.9497 24.5553 20.492 24.7822 21.0122C25.0146 21.5269 25.1696 21.9917 25.2471 22.4067C25.3245 22.8273 25.3633 23.1732 25.3633 23.4443C25.3633 23.5882 25.355 23.7183 25.3384 23.8345C25.3218 23.9507 25.3024 24.0531 25.2803 24.1416C25.2415 24.2689 25.1973 24.3215 25.1475 24.2993C25.0977 24.2827 25.0562 24.2412 25.0229 24.1748C24.9455 24.042 24.8182 23.8621 24.6411 23.6353C24.464 23.4084 24.215 23.2008 23.894 23.0127C23.5731 22.8301 23.1553 22.7388 22.6406 22.7388C22.2754 22.7388 21.9351 22.7886 21.6196 22.8882C21.3097 22.9878 20.9971 23.1095 20.6816 23.2534C20.3717 23.4028 20.0314 23.5522 19.6606 23.7017C19.2954 23.8511 18.8748 23.9756 18.3989 24.0752C17.9285 24.1748 17.3752 24.2246 16.7388 24.2246C15.7427 24.2246 14.7992 24.0973 13.9082 23.8428C13.0228 23.5882 12.1982 23.2479 11.4346 22.8218C10.6764 22.3957 9.98747 21.9253 9.36768 21.4106C8.74788 20.896 8.20557 20.373 7.74072 19.8418C7.28141 19.305 6.91064 18.8042 6.62842 18.3394Z" fill="black" fill-opacity="0.95" style="fill:black;fill-opacity:0.95;"/>
</svg>
