<svg width="32" height="32" viewBox="0 0 32 32" fill="none" xmlns="http://www.w3.org/2000/svg">
    <path d="M9.92383 14.8198L11.7998 13.6826L9.92383 12.5537C9.74674 12.4486 9.64437 12.3158 9.6167 12.1553C9.58903 11.9893 9.6167 11.8371 9.69971 11.6987C9.78271 11.5549 9.90446 11.4608 10.0649 11.4165C10.231 11.3667 10.4108 11.4027 10.6045 11.5244L12.9536 12.9937C13.1141 13.0933 13.222 13.2344 13.2773 13.417C13.3382 13.5941 13.341 13.7739 13.2856 13.9565C13.2358 14.1336 13.1252 14.2747 12.9536 14.3799L10.6045 15.8491C10.4108 15.9709 10.2337 16.0096 10.0732 15.9653C9.91276 15.9211 9.78825 15.8298 9.69971 15.6914C9.6167 15.5475 9.58903 15.3926 9.6167 15.2266C9.64437 15.0605 9.74674 14.925 9.92383 14.8198ZM13.4185 15.7993C13.4185 15.6333 13.4738 15.4922 13.5845 15.376C13.7007 15.2598 13.8418 15.2017 14.0078 15.2017H17.1206C17.2866 15.2017 17.425 15.2598 17.5356 15.376C17.6519 15.4922 17.71 15.6333 17.71 15.7993C17.71 15.9598 17.6519 16.0981 17.5356 16.2144C17.425 16.3306 17.2866 16.3887 17.1206 16.3887H14.0078C13.8418 16.3887 13.7007 16.3306 13.5845 16.2144C13.4738 16.0981 13.4185 15.9598 13.4185 15.7993ZM8.88623 23.7598C7.98975 23.7598 7.31185 23.5329 6.85254 23.0791C6.39323 22.6253 6.16357 21.9557 6.16357 21.0703V10.96C6.16357 10.0745 6.39323 9.40495 6.85254 8.95117C7.31185 8.49186 7.98975 8.26221 8.88623 8.26221H23.0972C23.9992 8.26221 24.6799 8.49186 25.1392 8.95117C25.5985 9.40495 25.8281 10.0745 25.8281 10.96V21.0703C25.8281 21.9557 25.5985 22.6253 25.1392 23.0791C24.6799 23.5329 23.9992 23.7598 23.0972 23.7598H8.88623ZM8.98584 22.1328H23.0059C23.3877 22.1328 23.681 22.0332 23.8857 21.834C24.0905 21.6292 24.1929 21.3276 24.1929 20.9292V11.1011C24.1929 10.7026 24.0905 10.4038 23.8857 10.2046C23.681 9.99984 23.3877 9.89746 23.0059 9.89746H8.98584C8.59847 9.89746 8.30241 9.99984 8.09766 10.2046C7.89844 10.4038 7.79883 10.7026 7.79883 11.1011V20.9292C7.79883 21.3276 7.89844 21.6292 8.09766 21.834C8.30241 22.0332 8.59847 22.1328 8.98584 22.1328Z" fill="black" fill-opacity="0.95" style="fill:black;fill-opacity:0.95;"/>
</svg>
