<svg xmlns="http://www.w3.org/2000/svg" width="24" height="24" viewBox="0 0 24 24" fill="none">
    <path fill-rule="evenodd" clip-rule="evenodd" d="M12.8158 2.78426C12.8158 2.3336 12.4505 1.96826 11.9998 1.96826C11.5491 1.96826 11.1838 2.3336 11.1838 2.78426V5.10026C11.1838 5.55093 11.5491 5.91626 11.9998 5.91626C12.4505 5.91626 12.8158 5.55093 12.8158 5.10026V2.78426ZM11.9998 8.31618C9.30243 8.31618 7.11579 10.5028 7.11579 13.2002C7.11579 14.2349 7.43753 15.1944 7.98643 15.9842H16.0132C16.562 15.1944 16.8838 14.2349 16.8838 13.2002C16.8838 10.5028 14.6971 8.31618 11.9998 8.31618ZM17.8928 15.9842C18.2923 15.14 18.5158 14.1962 18.5158 13.2002C18.5158 9.60149 15.5985 6.68418 11.9998 6.68418C8.4011 6.68418 5.48379 9.60149 5.48379 13.2002C5.48379 14.1962 5.70725 15.14 6.10678 15.9842H2.99979C2.54912 15.9842 2.18379 16.3495 2.18379 16.8002C2.18379 17.2508 2.54912 17.6162 2.99979 17.6162H20.9998C21.4505 17.6162 21.8158 17.2508 21.8158 16.8002C21.8158 16.3495 21.4505 15.9842 20.9998 15.9842H17.8928ZM5.78379 20.4002C5.78379 19.9495 6.14912 19.5842 6.59979 19.5842H17.3998C17.8505 19.5842 18.2158 19.9495 18.2158 20.4002C18.2158 20.8508 17.8505 21.2162 17.3998 21.2162H6.59979C6.14912 21.2162 5.78379 20.8508 5.78379 20.4002ZM20.2135 4.98628C20.5322 5.30494 20.5322 5.82161 20.2135 6.14027L18.5768 7.77702C18.2581 8.09569 17.7414 8.09569 17.4228 7.77702C17.1041 7.45835 17.1041 6.94169 17.4228 6.62302L19.0595 4.98628C19.3782 4.66761 19.8949 4.66761 20.2135 4.98628ZM5.42277 7.7771C5.74144 8.09576 6.2581 8.09576 6.57677 7.7771C6.89543 7.45843 6.89543 6.94177 6.57677 6.6231L4.94001 4.98634C4.62134 4.66768 4.10468 4.66768 3.78601 4.98634C3.46735 5.30501 3.46735 5.82167 3.78601 6.14034L5.42277 7.7771ZM0.383789 12.0002C0.383789 12.4508 0.749125 12.8162 1.19979 12.8162H3.51579C3.96645 12.8162 4.33179 12.4508 4.33179 12.0002C4.33179 11.5495 3.96645 11.1842 3.51579 11.1842H1.19979C0.749125 11.1842 0.383789 11.5495 0.383789 12.0002ZM22.7998 12.8162C23.2504 12.8162 23.6158 12.4508 23.6158 12.0002C23.6158 11.5495 23.2504 11.1842 22.7998 11.1842H20.4838C20.0331 11.1842 19.6678 11.5495 19.6678 12.0002C19.6678 12.4508 20.0331 12.8162 20.4838 12.8162H22.7998Z" fill="black" fill-opacity="0.95" style="fill:black;fill-opacity:0.95;"/>
</svg>