<svg xmlns="http://www.w3.org/2000/svg" width="20" height="20" viewBox="0 0 20 20" fill="none">
    <path fill-rule="evenodd" clip-rule="evenodd" d="M10.68 2.32014C10.68 1.94458 10.3756 1.64014 10 1.64014C9.62445 1.64014 9.32001 1.94458 9.32001 2.32014V4.25014C9.32001 4.62569 9.62445 4.93014 10 4.93014C10.3756 4.93014 10.68 4.62569 10.68 4.25014V2.32014ZM10 6.93007C7.75221 6.93007 5.93001 8.75227 5.93001 11.0001C5.93001 11.8623 6.19813 12.6619 6.65554 13.3201H13.3445C13.8019 12.6619 14.07 11.8623 14.07 11.0001C14.07 8.75227 12.2478 6.93007 10 6.93007ZM14.9108 13.3201C15.2438 12.6166 15.43 11.8301 15.43 11.0001C15.43 8.00116 12.9989 5.57007 10 5.57007C7.0011 5.57007 4.57001 8.00116 4.57001 11.0001C4.57001 11.8301 4.75623 12.6166 5.08917 13.3201H2.50001C2.12445 13.3201 1.82001 13.6245 1.82001 14.0001C1.82001 14.3756 2.12445 14.6801 2.50001 14.6801H17.5C17.8756 14.6801 18.18 14.3756 18.18 14.0001C18.18 13.6245 17.8756 13.3201 17.5 13.3201H14.9108ZM4.82001 17.0001C4.82001 16.6245 5.12445 16.3201 5.50001 16.3201H14.5C14.8756 16.3201 15.18 16.6245 15.18 17.0001C15.18 17.3756 14.8756 17.6801 14.5 17.6801H5.50001C5.12445 17.6801 4.82001 17.3756 4.82001 17.0001ZM16.8448 4.15515C17.1103 4.42071 17.1103 4.85126 16.8448 5.11681L15.4808 6.48077C15.2153 6.74632 14.7847 6.74632 14.5192 6.48077C14.2536 6.21521 14.2536 5.78466 14.5192 5.5191L15.8831 4.15515C16.1487 3.88959 16.5792 3.88959 16.8448 4.15515ZM4.51916 6.48083C4.78471 6.74639 5.21527 6.74639 5.48082 6.48083C5.74638 6.21528 5.74638 5.78472 5.48082 5.51917L4.11686 4.15521C3.8513 3.88965 3.42075 3.88965 3.15519 4.15521C2.88964 4.42076 2.88964 4.85131 3.15519 5.11687L4.51916 6.48083ZM0.320007 10.0001C0.320007 10.3756 0.624454 10.6801 1.00001 10.6801H2.93001C3.30556 10.6801 3.61001 10.3756 3.61001 10.0001C3.61001 9.62451 3.30556 9.32007 2.93001 9.32007H1.00001C0.624454 9.32007 0.320007 9.62451 0.320007 10.0001ZM19 10.6801C19.3755 10.6801 19.68 10.3756 19.68 10.0001C19.68 9.62451 19.3755 9.32007 19 9.32007H17.07C16.6944 9.32007 16.39 9.62451 16.39 10.0001C16.39 10.3756 16.6944 10.6801 17.07 10.6801H19Z" fill="black" fill-opacity="0.95" style="fill:black;fill-opacity:0.95;"/>
</svg>