<svg width="32" height="32" viewBox="0 0 32 32" fill="none" xmlns="http://www.w3.org/2000/svg">
    <path d="M8.09766 23.8594C7.66602 23.8594 7.34782 23.7542 7.14307 23.5439C6.94385 23.3392 6.84424 23.0957 6.84424 22.8135C6.84424 22.57 6.91341 22.3293 7.05176 22.0913L14.9541 8.37842C15.0648 8.19027 15.2142 8.04915 15.4023 7.95508C15.5905 7.85547 15.7897 7.80566 16 7.80566C16.2103 7.80566 16.4095 7.85547 16.5977 7.95508C16.7858 8.04915 16.9325 8.19027 17.0376 8.37842L24.9482 22.0913C25.0811 22.3293 25.1475 22.57 25.1475 22.8135C25.1475 23.0957 25.0479 23.3392 24.8486 23.5439C24.6494 23.7542 24.334 23.8594 23.9023 23.8594H8.09766ZM9.12695 22.2656H22.8647C23.0086 22.2656 23.0806 22.2131 23.0806 22.1079C23.0806 22.0692 23.0667 22.0221 23.0391 21.9668L16.1577 10.0469C16.1134 9.9694 16.0609 9.93066 16 9.93066C15.9391 9.93066 15.8838 9.9694 15.834 10.0469L8.96094 21.9668C8.93327 22.0221 8.91943 22.0692 8.91943 22.1079C8.91943 22.2131 8.98861 22.2656 9.12695 22.2656Z" fill="black" fill-opacity="0.95" style="fill:black;fill-opacity:0.95;"/>
</svg>
