<svg width="32" height="32" viewBox="0 0 32 32" fill="none" xmlns="http://www.w3.org/2000/svg">
    <path d="M15.1865 8.70215V6.88428C15.1865 6.65186 15.264 6.45817 15.4189 6.30322C15.5794 6.14274 15.7703 6.0625 15.9917 6.0625C16.2186 6.0625 16.4095 6.14274 16.5645 6.30322C16.7249 6.45817 16.8052 6.65186 16.8052 6.88428V8.70215H15.1865ZM8.41309 16.8037C8.18066 16.8037 7.99251 16.7207 7.84863 16.5547C7.70475 16.3887 7.63281 16.1812 7.63281 15.9321C7.63281 15.2736 7.73796 14.5791 7.94824 13.8486C8.16406 13.1182 8.49056 12.4043 8.92773 11.707C9.36491 11.0098 9.91276 10.3789 10.5713 9.81445C11.2354 9.24447 12.0184 8.79346 12.9204 8.46143C13.8224 8.12386 14.8462 7.95508 15.9917 7.95508C17.1427 7.95508 18.1665 8.12386 19.063 8.46143C19.965 8.79346 20.748 9.24447 21.4121 9.81445C22.0817 10.3789 22.6323 11.0098 23.064 11.707C23.4956 12.4043 23.8193 13.1182 24.0352 13.8486C24.251 14.5791 24.3589 15.2736 24.3589 15.9321C24.3589 16.1812 24.2842 16.3887 24.1348 16.5547C23.9909 16.7207 23.8055 16.8037 23.5786 16.8037C23.4237 16.8037 23.277 16.7622 23.1387 16.6792C23.0059 16.5962 22.8703 16.4689 22.7319 16.2974C22.4829 15.9321 22.2173 15.6665 21.9351 15.5005C21.6584 15.3345 21.3429 15.2515 20.9888 15.2515C20.6346 15.2515 20.3275 15.3372 20.0674 15.5088C19.8073 15.6803 19.5555 15.9598 19.312 16.3472C19.1183 16.6515 18.8942 16.8037 18.6396 16.8037C18.3796 16.8037 18.1554 16.6543 17.9673 16.3555C17.7459 16.0013 17.4526 15.7218 17.0874 15.5171C16.7277 15.3123 16.3625 15.21 15.9917 15.21C15.6265 15.21 15.2612 15.3123 14.896 15.5171C14.5363 15.7218 14.2458 16.0013 14.0244 16.3555C13.8307 16.6543 13.6038 16.8037 13.3438 16.8037C13.0947 16.8037 12.8706 16.6515 12.6714 16.3472C12.4279 15.9598 12.1761 15.6803 11.916 15.5088C11.6615 15.3372 11.3571 15.2515 11.0029 15.2515C10.6488 15.2515 10.3306 15.3345 10.0483 15.5005C9.77165 15.6665 9.50602 15.9321 9.25146 16.2974C9.11865 16.4689 8.98307 16.5962 8.84473 16.6792C8.71191 16.7622 8.56803 16.8037 8.41309 16.8037ZM15.9917 13.7158C16.4842 13.7158 16.9574 13.821 17.4111 14.0312C17.8649 14.2415 18.2412 14.5265 18.54 14.8862C18.5898 14.9471 18.6396 14.9471 18.6895 14.8862C18.9606 14.521 19.2871 14.2415 19.6689 14.0479C20.0563 13.8542 20.4963 13.7573 20.9888 13.7573C21.4757 13.7573 21.924 13.8542 22.3335 14.0479C22.743 14.236 23.1193 14.5265 23.4624 14.9194L22.7485 14.9775C22.6323 14.2083 22.3833 13.4889 22.0015 12.8193C21.6196 12.1497 21.1299 11.5632 20.5322 11.0596C19.9346 10.556 19.2511 10.1631 18.4819 9.88086C17.7127 9.5931 16.8826 9.44922 15.9917 9.44922C15.1007 9.44922 14.2707 9.5931 13.5015 9.88086C12.7323 10.1686 12.0461 10.5671 11.4429 11.0762C10.8452 11.5798 10.3555 12.1691 9.97363 12.8442C9.5918 13.5138 9.34277 14.2332 9.22656 15.0024L8.49609 14.9526C8.84473 14.5431 9.22656 14.2415 9.6416 14.0479C10.0566 13.8542 10.5104 13.7573 11.0029 13.7573C11.4954 13.7573 11.9326 13.8542 12.3145 14.0479C12.7018 14.2415 13.0311 14.521 13.3022 14.8862C13.3521 14.9526 13.4019 14.9526 13.4517 14.8862C13.7505 14.5265 14.1268 14.2415 14.5806 14.0312C15.0343 13.821 15.5047 13.7158 15.9917 13.7158ZM14.0493 25.4614C13.5291 25.4614 13.0588 25.3397 12.6382 25.0962C12.2231 24.8582 11.8939 24.5345 11.6504 24.125C11.4069 23.7155 11.2852 23.2507 11.2852 22.7305C11.2852 22.4648 11.3599 22.2463 11.5093 22.0747C11.6587 21.9087 11.8551 21.8257 12.0986 21.8257C12.3366 21.8257 12.5303 21.9087 12.6797 22.0747C12.8346 22.2463 12.9121 22.4648 12.9121 22.7305C12.9121 23.0625 13.0173 23.3337 13.2275 23.5439C13.4434 23.7598 13.7145 23.8677 14.041 23.8677C14.3786 23.8677 14.6525 23.7598 14.8628 23.5439C15.0786 23.3337 15.1865 23.0625 15.1865 22.7305V14.8115H16.8052V22.7554C16.8052 23.2866 16.6834 23.7542 16.4399 24.1582C16.1965 24.5677 15.8644 24.8859 15.4438 25.1128C15.0288 25.3452 14.564 25.4614 14.0493 25.4614Z" fill="black" fill-opacity="0.95" style="fill:black;fill-opacity:0.95;"/>
</svg>
