<svg width="32" height="32" viewBox="0 0 32 32" fill="none" xmlns="http://www.w3.org/2000/svg">
    <path d="M9.5835 23.9673C9.10205 23.9673 8.68424 23.8621 8.33008 23.6519C7.97591 23.4416 7.70199 23.1593 7.5083 22.8052C7.32015 22.451 7.22607 22.0581 7.22607 21.6265C7.22607 21.2059 7.33675 20.8047 7.55811 20.4229L13.9829 9.2251C14.1987 8.83219 14.4893 8.53613 14.8545 8.33691C15.2197 8.1377 15.6016 8.03809 16 8.03809C16.3984 8.03809 16.7775 8.1377 17.1372 8.33691C17.4969 8.5306 17.7902 8.82666 18.0171 9.2251L24.4419 20.4229C24.5526 20.611 24.6356 20.8075 24.6909 21.0122C24.7463 21.217 24.7739 21.4217 24.7739 21.6265C24.7739 22.0581 24.6771 22.451 24.4834 22.8052C24.2897 23.1593 24.0158 23.4416 23.6616 23.6519C23.313 23.8621 22.8979 23.9673 22.4165 23.9673H9.5835ZM9.73291 22.3984H22.2671C22.5272 22.3984 22.7319 22.3127 22.8813 22.1411C23.0308 21.9696 23.1055 21.7703 23.1055 21.5435C23.1055 21.383 23.0667 21.228 22.9893 21.0786L16.7139 10.0884C16.6309 9.95003 16.5257 9.85042 16.3984 9.78955C16.2712 9.72314 16.1383 9.68994 16 9.68994C15.8617 9.68994 15.7261 9.72314 15.5933 9.78955C15.466 9.85042 15.3636 9.95003 15.2861 10.0884L9.00244 21.062C8.9637 21.1395 8.93604 21.2225 8.91943 21.311C8.90283 21.394 8.89453 21.4715 8.89453 21.5435C8.89453 21.7703 8.96924 21.9696 9.11865 22.1411C9.26807 22.3127 9.47282 22.3984 9.73291 22.3984ZM16.0083 18.2231C15.5269 18.2231 15.2778 17.9797 15.2612 17.4927L15.145 13.4585C15.134 13.215 15.2087 13.0158 15.3691 12.8608C15.5296 12.7059 15.7371 12.6284 15.9917 12.6284C16.2463 12.6284 16.4565 12.7087 16.6226 12.8691C16.7886 13.0241 16.866 13.2205 16.855 13.4585L16.7222 17.4927C16.7111 17.9797 16.4731 18.2231 16.0083 18.2231ZM16.0083 20.979C15.7371 20.979 15.5047 20.8932 15.311 20.7217C15.1229 20.5446 15.0288 20.326 15.0288 20.0659C15.0288 19.8058 15.1229 19.59 15.311 19.4185C15.5047 19.2414 15.7371 19.1528 16.0083 19.1528C16.2739 19.1528 16.5008 19.2386 16.689 19.4102C16.8826 19.5817 16.9795 19.8003 16.9795 20.0659C16.9795 20.3315 16.8826 20.5501 16.689 20.7217C16.4953 20.8932 16.2684 20.979 16.0083 20.979Z" fill="black" fill-opacity="0.95" style="fill:black;fill-opacity:0.95;"/>
</svg>
